<svg height="512pt" viewBox="0 -48 512 512" width="512pt" xmlns="http://www.w3.org/2000/svg"><path d="m207.910156 171.476562c-4.597656-4.050781-10.941406-5.480468-16.832031-3.792968l-11.917969 3.40625c-.90625.261718-1.308594 1.3125-.8125 2.113281l34.617188 55.375 43.035156-14.933594zm0 0" fill="#10c6ff"/><path d="m119.613281 331.121094h-32.417969v-192.148438h32.417969zm0 0" fill="#91a0b5"/><path d="m103.402344 25.996094c-4.140625 0-7.5-3.359375-7.5-7.503906v-10.988282c0-4.144531 3.359375-7.503906 7.5-7.503906 4.144531 0 7.503906 3.359375 7.503906 7.503906v10.988282c0 4.144531-3.359375 7.503906-7.503906 7.503906zm0 0" fill="#60768c"/><path d="m87.195312 138.972656v16.5c9.285157 0 16.8125 7.523438 16.8125 16.8125v158.835938h15.605469v-192.148438zm0 0" fill="#7c8fa5"/><path d="m70.78125 140.792969h65.246094c4.039062 0 7.3125-3.273438 7.3125-7.3125v-39.066407c0-4.039062-3.273438-7.3125-7.3125-7.3125h-65.246094c-4.039062 0-7.3125 3.273438-7.3125 7.3125v39.066407c0 4.039062 3.273438 7.3125 7.3125 7.3125zm0 0" fill="#91a0b5"/><path d="m79.351562 67.992188h48.015626l6.625-37.28125c1.128906-6.371094-3.769532-12.21875-10.238282-12.21875h-40.699218c-6.460938 0-11.355469 5.832031-10.242188 12.195312zm0 0" fill="#d5e0f2"/><path d="m123.753906 18.492188h-18.800781c6.472656 0 11.371094 5.847656 10.238281 12.21875l-6.621094 37.28125h18.796876l6.625-37.28125c1.128906-6.371094-3.769532-12.21875-10.238282-12.21875zm0 0" fill="#bdcde5"/><path d="m57.386719 111.851562h92.035156c4.519531 0 8.179687-3.664062 8.179687-8.179687v-33.140625c0-4.519531-3.660156-8.179688-8.179687-8.179688h-92.035156c-4.519531 0-8.179688 3.660157-8.179688 8.179688v33.140625c0 4.515625 3.660157 8.179687 8.179688 8.179687zm0 0" fill="#10c6ff"/><path d="m149.421875 62.351562h-26.300781c4.519531 0 8.179687 3.660157 8.179687 8.179688v33.140625c0 4.515625-3.660156 8.179687-8.179687 8.179687h26.300781c4.519531 0 8.179687-3.664062 8.179687-8.179687v-33.140625c0-4.519531-3.660156-8.179688-8.179687-8.179688zm0 0" fill="#03b2e8"/><path d="m17.53125 409.46875h172.609375l-21.851563-77.648438c-6.320312-22.464843-26.808593-37.980468-50.144531-37.980468h-49.355469c-28.308593 0-51.257812 22.949218-51.257812 51.257812zm0 0" fill="#d5e0f2"/><path d="m33.078125 409.46875h269.386719l-72.59375-65.277344c-4.742188-4.261718-10.894532-6.621094-17.269532-6.621094h-98.332031c-6.949219 0-13.605469 2.800782-18.464843 7.769532zm0 0" fill="#bdcde5"/><path d="m137.210938 87.101562c0 4.144532-3.359376 7.503907-7.503907 7.503907s-7.503906-3.359375-7.503906-7.503907c0-4.144531 3.359375-7.503906 7.503906-7.503906s7.503907 3.359375 7.503907 7.503906zm0 0" fill="#fff"/><path d="m111.511719 87.101562c0 4.144532-3.359375 7.503907-7.503907 7.503907-4.144531 0-7.503906-3.359375-7.503906-7.503907 0-4.144531 3.359375-7.503906 7.503906-7.503906 4.144532 0 7.503907 3.359375 7.503907 7.503906zm0 0" fill="#fff"/><path d="m84.605469 87.101562c0 4.144532-3.359375 7.503907-7.503907 7.503907-4.140624 0-7.5-3.359375-7.5-7.503907 0-4.144531 3.359376-7.503906 7.5-7.503906 4.144532 0 7.503907 3.359375 7.503907 7.503906zm0 0" fill="#fff"/><path d="m483.886719 196.089844-204.46875 57.574218c-2.648438.757813-5.402344 1.160157-8.152344 1.179688l-74.917969.710938c-5.03125.039062-9.472656-3.273438-10.855468-8.113282-.289063-1.019531-.429688-2.0625-.429688-3.070312 0-4.703125 2.972656-9.054688 7.644531-10.605469l224.285157-78.269531c15.855468-5.292969 33.121093-4.472656 48.398437 2.300781l.980469.429687 17.664062 7.832032 1.871094.832031c13.304688 5.890625 11.976562 25.199219-2.019531 29.199219zm0 0" fill="#e4eef9"/><path d="m485.90625 166.890625-1.871094-.832031-17.667968-7.832032-.976563-.429687c-15.277344-6.773437-32.542969-7.59375-48.398437-2.300781l-20.324219 7.09375c12.679687-2.003906 25.753906-.355469 37.625 4.910156l.980469.429688 17.667968 7.832031 1.871094.832031c11.550781 5.117188 12.0625 20.34375 2.835938 26.886719l26.238281-7.390625c13.996093-4 15.324219-23.308594 2.019531-29.199219zm0 0" fill="#d5e0f2"/><path d="m382.488281 245.535156-32.433593 9.28125c-4.097657 1.171875-8.371094-1.203125-9.542969-5.300781l-3.890625-13.59375c-1.171875-4.097656 1.199218-8.371094 5.296875-9.542969l32.433593-9.277344c4.097657-1.171874 8.371094 1.199219 9.546876 5.296876l3.886718 13.59375c1.171875 4.101562-1.199218 8.371093-5.296875 9.542968zm0 0" fill="#bdcde5"/><g fill="#10c6ff"><path d="m406.738281 177.574219c-3.941406 1.265625-6.113281 5.492187-4.847656 9.4375 1.265625 3.941406 5.492187 6.117187 9.4375 4.847656 3.945313-1.265625 6.117187-5.492187 4.851563-9.4375-1.269532-3.945313-5.496094-6.117187-9.441407-4.847656zm0 0"/><path d="m382.972656 185.207031c-3.945312 1.265625-6.117187 5.492188-4.851562 9.4375 1.269531 3.945313 5.492187 6.117188 9.4375 4.847657 3.945312-1.265626 6.117187-5.492188 4.851562-9.4375-1.269531-3.945313-5.496094-6.117188-9.4375-4.847657zm0 0"/><path d="m359.203125 192.839844c-3.945313 1.265625-6.117187 5.492187-4.851563 9.4375 1.265626 3.945312 5.492188 6.117187 9.4375 4.847656 3.945313-1.265625 6.117188-5.492188 4.847657-9.4375-1.265625-3.945312-5.488281-6.117188-9.433594-4.847656zm0 0"/><path d="m335.433594 200.472656c-3.945313 1.265625-6.117188 5.492188-4.851563 9.4375 1.269531 3.945313 5.492188 6.117188 9.4375 4.847656 3.945313-1.265624 6.117188-5.492187 4.851563-9.4375-1.269532-3.941406-5.492188-6.117187-9.4375-4.847656zm0 0"/><path d="m311.664062 208.105469c-3.945312 1.265625-6.117187 5.492187-4.851562 9.4375 1.269531 3.945312 5.492188 6.117187 9.4375 4.847656 3.945312-1.265625 6.117188-5.492187 4.851562-9.4375-1.265624-3.941406-5.492187-6.113281-9.4375-4.847656zm0 0"/><path d="m287.894531 215.738281c-3.945312 1.265625-6.117187 5.492188-4.851562 9.4375 1.269531 3.945313 5.492187 6.117188 9.4375 4.847657 3.945312-1.265626 6.117187-5.492188 4.851562-9.4375-1.265625-3.941407-5.492187-6.113282-9.4375-4.847657zm0 0"/><path d="m484.035156 166.058594c-.871094 1.992187-2.601562 3.582031-4.851562 4.203125l-28.210938 7.785156c-.667968.179687-1.339844.269531-2 .269531-3.292968 0-6.3125-2.183594-7.234375-5.511718-1.097656-3.992188 1.25-8.125 5.242188-9.226563l19.386719-5.351563zm0 0"/><path d="m125.152344 370.59375h-7.238282c-4.144531 0-7.503906-3.359375-7.503906-7.503906 0-4.144532 3.359375-7.5 7.503906-7.5h7.238282c4.144531 0 7.503906 3.355468 7.503906 7.5 0 4.144531-3.359375 7.503906-7.503906 7.503906zm0 0"/><path d="m153.515625 370.59375h-7.242187c-4.140626 0-7.5-3.359375-7.5-7.503906 0-4.144532 3.359374-7.5 7.5-7.5h7.242187c4.140625 0 7.5 3.355468 7.5 7.5 0 4.144531-3.359375 7.503906-7.5 7.503906zm0 0"/><path d="m181.875 370.59375h-7.238281c-4.144531 0-7.503907-3.359375-7.503907-7.503906 0-4.144532 3.359376-7.5 7.503907-7.5h7.238281c4.144531 0 7.503906 3.355468 7.503906 7.5 0 4.144531-3.359375 7.503906-7.503906 7.503906zm0 0"/><path d="m210.234375 370.59375h-7.238281c-4.144532 0-7.503906-3.359375-7.503906-7.503906 0-4.144532 3.359374-7.5 7.503906-7.5h7.238281c4.144531 0 7.503906 3.355468 7.503906 7.5 0 4.144531-3.359375 7.503906-7.503906 7.503906zm0 0"/><path d="m125.152344 394.074219h-7.238282c-4.144531 0-7.503906-3.359375-7.503906-7.503907 0-4.144531 3.359375-7.503906 7.503906-7.503906h7.238282c4.144531 0 7.503906 3.359375 7.503906 7.503906 0 4.144532-3.359375 7.503907-7.503906 7.503907zm0 0"/><path d="m94.433594 394.074219h-7.238282c-4.144531 0-7.503906-3.359375-7.503906-7.503907 0-4.144531 3.359375-7.503906 7.503906-7.503906h7.238282c4.144531 0 7.503906 3.359375 7.503906 7.503906 0 4.144532-3.359375 7.503907-7.503906 7.503907zm0 0"/><path d="m241.800781 394.074219h-7.242187c-4.144532 0-7.503906-3.359375-7.503906-7.503907 0-4.144531 3.359374-7.503906 7.503906-7.503906h7.242187c4.140625 0 7.5 3.359375 7.5 7.503906 0 4.144532-3.359375 7.503907-7.5 7.503907zm0 0"/><path d="m153.515625 394.074219h-7.242187c-4.140626 0-7.5-3.359375-7.5-7.503907 0-4.144531 3.359374-7.503906 7.5-7.503906h7.242187c4.140625 0 7.5 3.359375 7.5 7.503906 0 4.144532-3.359375 7.503907-7.5 7.503907zm0 0"/><path d="m181.875 394.074219h-7.238281c-4.144531 0-7.503907-3.359375-7.503907-7.503907 0-4.144531 3.359376-7.503906 7.503907-7.503906h7.238281c4.144531 0 7.503906 3.359375 7.503906 7.503906 0 4.144532-3.359375 7.503907-7.503906 7.503907zm0 0"/><path d="m210.234375 394.074219h-7.238281c-4.144532 0-7.503906-3.359375-7.503906-7.503907 0-4.144531 3.359374-7.503906 7.503906-7.503906h7.238281c4.144531 0 7.503906 3.359375 7.503906 7.503906 0 4.144532-3.359375 7.503907-7.503906 7.503907zm0 0"/></g><path d="m504.496094 416.972656h-496.992188c-4.144531 0-7.503906-3.359375-7.503906-7.503906s3.359375-7.5 7.503906-7.5h496.992188c4.144531 0 7.503906 3.355469 7.503906 7.5s-3.359375 7.503906-7.503906 7.503906zm0 0" fill="#60768c"/></svg>