<svg xmlns="http://www.w3.org/2000/svg" width="36" height="36"><path style="isolation:auto;mix-blend-mode:normal" fill="#576d7e" fill-rule="evenodd" d="M11 7v3H8v7H3v15h26V16h-3v-5h-6V7h-9z" color="#000" overflow="visible" transform="translate(2.061 1)"/><path fill="#cad1d8" d="M9.717 2a2.031 2.031 0 0 0-1.643.84 1.25 1.25 0 0 0-.7-.215 1.25 1.25 0 0 0-1.25 1.25 1.25 1.25 0 0 0 .012.168.781.781 0 0 0-.481-.168.781.781 0 0 0-.766.625h-.016c-.692 0-1.25.558-1.25 1.25 0 .693.558 1.25 1.25 1.25h6.25a1.247 1.247 0 0 0 .536-2.376 2.031 2.031 0 0 0 .09-.593 2.031 2.031 0 0 0-2.032-2.03z"/><path fill="#60c5b8" fill-rule="evenodd" color="#000" overflow="visible" style="isolation:auto;mix-blend-mode:normal" d="M7 1035.862h6v16H7z" transform="translate(2.061 -1019.362)"/><path style="isolation:auto;mix-blend-mode:normal" fill="#25b39e" fill-rule="evenodd" d="M6 1034.362h8v2H6z" color="#000" overflow="visible" transform="translate(2.061 -1019.362)"/><path fill="none" stroke="#4bbfeb" d="M24.061 13v-3"/><path fill="none" stroke="#34485c" d="M10.561 18.5h3m-3 2h3m-3 2h3m-3 2h3m-3 2h3m-3 2h3m-3 2h3"/><path fill="#cad1d8" d="M30.677 2.572a1.393 1.393 0 0 0-1.127.576.857.857 0 0 0-.48-.148.857.857 0 0 0-.857.857.857.857 0 0 0 .009.115.536.536 0 0 0-.33-.115.536.536 0 0 0-.525.429h-.011a.855.855 0 0 0-.857.857c0 .475.382.857.857.857h4.285a.855.855 0 0 0 .368-1.63 1.393 1.393 0 0 0 .06-.406 1.393 1.393 0 0 0-1.392-1.392z"/><path fill="none" stroke="#cad1d8" d="M7.999 9h3m-4 0h-1m-1 0h-1m13-4.5h1m1 0h1m1 0h1m-2-2h4m1 0h1"/><path style="isolation:auto;mix-blend-mode:normal" fill="#4bbfeb" fill-rule="evenodd" d="M20.062 1034.619v-2.257h4v2.256" color="#000" overflow="visible" transform="translate(2.061 -1019.362)"/><path style="isolation:auto;mix-blend-mode:normal" fill="#78c8f0" fill-rule="evenodd" d="M19 1034.362h6v17.5h-6z" color="#000" overflow="visible" transform="translate(2.061 -1019.362)"/><path fill="#4bbfeb" fill-rule="evenodd" stroke="#34485c" d="M23.061 16v1m0 1v1m0 1v1m0 1v1m0 1v1m0 1v1m0 1v1m0 1v1m2-15v1m0 1v1m0 1v1m0 1v1m0 1v1m0 1v1m0 1v1m0 1v1"/><path fill="none" stroke="#2b4255" d="M3.061 32.5h29.875"/><path style="line-height:normal;text-indent:0;text-align:start;text-decoration-line:none;text-decoration-style:solid;text-decoration-color:#000;text-transform:none;block-progression:tb;isolation:auto;mix-blend-mode:normal" fill="#e9eded" fill-rule="evenodd" d="M7.658 1020.362c-.714 0-1.347.32-1.885.766-.157-.035-.294-.14-.457-.14h-.002c-.86 0-1.474.575-1.851 1.296-.562.047-.994.382-1.29.846-.887.302-1.609 1.001-1.609 1.982 0 .767.46 1.343 1.057 1.75H.94v3h6.063v3.5h-2v3h-3v14h-2v3h31.875v-3h-1.875v-15h-3v-5h-3.5v-2h-2.5v-2H10.791c.267-.37.523-.765.523-1.25 0-.59-.283-1.077-.66-1.48.007-.08.035-.157.035-.237a3.046 3.046 0 0 0-3.03-3.03zm9.281 0v2h-3v3h7v-2h2.98c-.265.323-.48.702-.48 1.143 0 1.009.844 1.857 1.856 1.857h4.287a1.876 1.876 0 0 0 1.857-1.857c0-.434-.183-.807-.437-1.125 0-.018.008-.035.008-.053a2.408 2.408 0 0 0-2.393-2.393c-.509 0-.964.21-1.367.502-.084-.012-.153-.074-.238-.074h-.002c-.67 0-1.158.427-1.485.969-.207.047-.417.086-.586.209v-2.178h-8zm-9.28 1a2.031 2.031 0 0 1 2.03 2.032 2.031 2.031 0 0 1-.09.591 1.247 1.247 0 0 1-.535 2.377h-6.25c-.692 0-1.25-.557-1.25-1.25 0-.692.558-1.25 1.25-1.25h.016a.781.781 0 0 1 .766-.625.781.781 0 0 1 .48.168 1.25 1.25 0 0 1-.012-.168 1.25 1.25 0 0 1 1.25-1.25 1.25 1.25 0 0 1 .7.215 2.031 2.031 0 0 1 1.644-.84zm10.28 0h4v1h-4v-1zm5 0h1v1h-1v-1zm5.678.573a1.393 1.393 0 0 1 1.393 1.392 1.393 1.393 0 0 1-.06.406.856.856 0 0 1-.367 1.629h-4.288a.854.854 0 0 1-.856-.857c0-.475.381-.858.856-.858h.012a.536.536 0 0 1 .525-.427.536.536 0 0 1 .33.115.857.857 0 0 1-.01-.115.857.857 0 0 1 .858-.858.857.857 0 0 1 .48.149 1.393 1.393 0 0 1 1.127-.576zm-13.678 1.427h1v1h-1v-1zm2 0h1v1h-1v-1zm2 0h1v1h-1v-1zm-8.937 3.608v2.392h-.063v-2.367c.021-.01.043-.015.063-.025zm1 .392h9v4h1.5v-2h1v2h3.5v5h3v15h1.875v1H1.002v-1h2v-14h4v-1h-1v-2h2v-4h3v-3zm-9.063.5h1v1h-1v-1zm2 0h1v1h-1v-1zm2 0h3v1h-3v-1z" color="#000" font-family="sans-serif" font-weight="400" overflow="visible" transform="translate(2.06 -1019.362)"/></svg>