<svg xmlns="http://www.w3.org/2000/svg" version="1.1" xmlns:xlink="http://www.w3.org/1999/xlink" width="512" height="512" x="0" y="0" viewBox="0 0 512 512" style="enable-background:new 0 0 512 512" xml:space="preserve" fill-rule="evenodd" class=""><g><path fill="#4d54a9" d="M454.05 378.82a6.004 6.004 0 0 1-6-6V251.79c0-4.11-3.35-7.46-7.46-7.46H33.97a5.999 5.999 0 0 1-1.56-11.79l297.11-79.61c2.79-.75 5.73.6 6.97 3.22 13.31 27.99 41.93 46.08 72.91 46.08 18.6 0 36.08-6.16 50.55-17.8a6 6 0 0 1 5.62-1.03c1.93.63 3.41 2.19 3.93 4.15l41.8 155.99c1.34 5.01.65 10.25-1.95 14.76-2.61 4.51-6.8 7.74-11.81 9.08l-41.94 11.23c-.51.14-1.03.21-1.55.21z" opacity="1" data-original="#4dbf6f" class=""></path><path fill="#606fd4" d="M440.59 482.96H19.49C8.76 482.96.03 474.23.03 463.5V251.79c0-10.73 8.73-19.46 19.46-19.46h421.1c10.73 0 19.46 8.73 19.46 19.46V463.5c0 10.73-8.73 19.46-19.46 19.46z" opacity="1" data-original="#55d47b" class=""></path><path fill="#ffffff" d="M376.69 450.11H83.38c-3.31 0-6-2.68-6-6 0-22.39-18.22-40.62-40.62-40.62-3.31 0-6-2.69-6-6V317.8c0-3.31 2.69-6 6-6 22.4 0 40.62-18.22 40.62-40.62 0-3.31 2.69-6 6-6h293.31c3.32 0 6 2.69 6 6 0 22.4 18.23 40.62 40.63 40.62 3.31 0 6 2.69 6 6v79.69c0 3.31-2.69 6-6 6-22.4 0-40.63 18.23-40.63 40.62 0 3.32-2.68 6-6 6z" opacity="1" data-original="#ffffff" class=""></path><path fill="#cfcfcf" d="M332.38 450.11h-12v-40.36c0-3.32 2.69-6 6-6 3.32 0 6 2.68 6 6zm-192.69 0h-12v-40.36c0-3.32 2.69-6 6-6s6 2.68 6 6zM127.69 265.18h12v40.37c0 3.31-2.68 6-6 6-3.31 0-6-2.69-6-6zm192.69 0h12v40.37c0 3.31-2.68 6-6 6-3.31 0-6-2.69-6-6z" opacity="1" data-original="#cfcfcf"></path><path fill="#35d267" d="M230.04 420.5c-34.66 0-62.85-28.2-62.85-62.85 0-34.66 28.19-62.86 62.85-62.86s62.85 28.2 62.85 62.86c0 34.65-28.19 62.85-62.85 62.85zM122.63 379.81c-12.22 0-22.16-9.94-22.16-22.16s9.94-22.16 22.16-22.16 22.16 9.94 22.16 22.16-9.94 22.16-22.16 22.16zm214.81 0c-12.22 0-22.16-9.94-22.16-22.16s9.94-22.16 22.16-22.16 22.16 9.94 22.16 22.16-9.94 22.16-22.16 22.16z" opacity="1" data-original="#ffb74d" class=""></path><g fill="#cf953e"><path d="M230.04 390.54c-12.95 0-23.48-8.73-23.48-19.45 0-3.31 2.69-6 6-6s6 2.69 6 6c0 3.97 5.36 7.45 11.48 7.45 6.11 0 11.48-3.48 11.48-7.45 0-3.96-5.37-7.44-11.48-7.44-12.95 0-23.48-8.73-23.48-19.45s10.53-19.44 23.48-19.44c12.94 0 23.47 8.72 23.47 19.44 0 3.31-2.68 6-5.99 6-3.32 0-6-2.69-6-6 0-3.96-5.37-7.44-11.48-7.44-6.12 0-11.48 3.48-11.48 7.44 0 3.97 5.36 7.45 11.48 7.45 12.94 0 23.47 8.72 23.47 19.44.01 10.72-10.53 19.45-23.47 19.45z" fill="#127d34" opacity="1" data-original="#cf953e" class=""></path><path d="M230.04 398.61c-3.32 0-6-2.69-6-6v-69.92c0-3.32 2.68-6 6-6 3.31 0 6 2.68 6 6v69.92c0 3.31-2.69 6-6 6z" fill="#127d34" opacity="1" data-original="#cf953e" class=""></path></g><path fill="#4886eb" d="M409.4 214.04c-51.01 0-92.5-41.49-92.5-92.5 0-51 41.49-92.5 92.5-92.5 51 0 92.5 41.5 92.5 92.5 0 51.01-41.5 92.5-92.5 92.5z" opacity="1" data-original="#eb486a" class=""></path><path fill="#ffffff" d="M409.4 189.04c-37.22 0-67.5-30.28-67.5-67.5s30.28-67.5 67.5-67.5 67.5 30.28 67.5 67.5-30.28 67.5-67.5 67.5z" opacity="1" data-original="#ffffff" class=""></path><path fill="#18da90" d="M397.37 147.93c-1.07 0-2.14-.41-2.95-1.23l-20.36-20.36a4.17 4.17 0 0 1 0-5.9 4.158 4.158 0 0 1 5.89 0l17.42 17.42 41.48-41.48a4.17 4.17 0 0 1 5.9 0c1.63 1.62 1.63 4.27 0 5.9l-44.43 44.42a4.15 4.15 0 0 1-2.95 1.23z" opacity="1" data-original="#78747a" class=""></path></g></svg>