<svg clip-rule="evenodd" fill-rule="evenodd" height="512" image-rendering="optimizeQuality" shape-rendering="geometricPrecision" text-rendering="geometricPrecision" viewBox="0 0 2833 2833" width="512" xmlns="http://www.w3.org/2000/svg" xmlns:xlink="http://www.w3.org/1999/xlink"><linearGradient id="id0" gradientUnits="userSpaceOnUse" x1="0" x2="2833.33" y1="1416.67" y2="1416.67"><stop offset="0" stop-color="#ec297b"/><stop offset=".0588235" stop-color="#db2776"/><stop offset=".168627" stop-color="#c0236d"/><stop offset=".278431" stop-color="#ad2168"/><stop offset=".4" stop-color="#a21f64"/><stop offset=".521569" stop-color="#9e1f63"/><stop offset=".960784" stop-color="#90278e"/><stop offset="1" stop-color="#90278e"/></linearGradient><g id="Layer_x0020_1"><circle cx="1417" cy="1417" fill="url(#id0)" r="1417"/><g fill="#fefefe"><path d="m2250 1804h-1667c-26 0-26-40 0-40h1667c26 0 26 40 0 40z"/><path d="m2056 1804h-612c-11 0-20-9-20-20v-380c0-6 3-12 8-16l301-238c7-5 17-5 25 0l310 239c5 4 8 10 8 16v379c0 11-9 20-20 20zm-592-40h572v-349l-290-224-282 223z"/><path d="m1388 1468c-11 0-20-9-20-20v-117c0-6 3-12 8-15l357-283c7-5 17-5 25 0l366 282c5 4 8 10 8 16v117c0 17-20 26-33 16l-353-273-345 273c-4 3-8 4-13 4zm358-322c4 0 8 1 12 4l334 258v-67l-346-267-338 267v66l325-257c4-3 8-4 13-4z"/><path d="m1872 1804h-244c-11 0-20-9-20-20v-243c0-11 9-20 20-20h244c11 0 20 9 20 20v243c0 11-9 20-20 20zm-224-40h204v-203h-204z"/><path d="m1444 1804h-468c-11 0-20-9-20-20v-735c0-11 9-20 20-20h468c11 0 20 9 20 20v238c0 16-34 36-56 54v66c17-13 30-28 45-21 7 3 11 10 11 18v380c0 11-9 20-20 20zm-448-40h428v-319c-17 14-29 29-44 21-7-3-12-10-12-18v-117c0-16 34-36 56-54v-208h-428z"/><path d="m1261 1278h-285c-11 0-20-9-20-20v-108c0-11 9-20 20-20h285c11 0 20 9 20 20v108c0 11-9 20-20 20zm-265-40h245v-68h-245z"/><path d="m1261 1490h-285c-11 0-20-9-20-20v-107c0-11 9-20 20-20h285c11 0 20 9 20 20v107c0 11-9 20-20 20zm-265-40h245v-67h-245z"/><path d="m1261 1703h-285c-11 0-20-9-20-20v-107c0-12 9-20 20-20h285c11 0 20 8 20 20v107c0 11-9 20-20 20zm-265-40h245v-67h-245z"/><path d="m976 1804h-254c-11 0-20-9-20-20v-321c0-7 4-14 11-17l254-129c13-7 29 3 29 18v449c0 11-9 20-20 20zm-234-40h214v-397l-214 109z"/><path d="m747 1308c-58 0-76-78-38-78 30 0 10 38 38 38 10 0 19-8 19-18 0-34-77-4-77-77 0-77 117-77 117 0 0 26-40 26-40 0 0-24-37-24-37 0 0 34 77 4 77 77 0 32-26 58-59 58z"/><path d="m747 1154c-28 0-28-60 0-60s28 60 0 60z"/><path d="m747 1329c-28 0-28-61 0-61s28 61 0 61z"/><path d="m747 1379c-92 0-167-75-167-168 0-92 75-167 167-167 93 0 168 75 168 167 0 93-75 168-168 168zm0-295c-70 0-127 57-127 127 0 71 57 128 127 128s128-57 128-128c0-70-58-127-128-127z"/><g id="_566030888" fill-rule="nonzero"><path d="m866 1612h-124c-22 0-40-18-40-40v-33c0-22 18-40 40-40h124c22 0 40 18 40 40v33c0 22-18 40-40 40zm-124-40h124v-33h-124z"/><path d="m866 1752h-124c-22 0-40-18-40-40v-33c0-22 18-40 40-40h124c22 0 40 18 40 40v33c0 22-18 40-40 40zm-124-40h124v-33h-124z"/></g></g></g></svg>