<?xml version="1.0" encoding="UTF-8"?>
<svg xmlns="http://www.w3.org/2000/svg" viewBox="0 0 510.85 510.85">
  <defs>
    <style>
      .cls-1 {
        fill: #edc8a5;
      }

      .cls-1, .cls-2, .cls-3, .cls-4, .cls-5, .cls-6, .cls-7, .cls-8, .cls-9, .cls-10, .cls-11, .cls-12, .cls-13, .cls-14, .cls-15, .cls-16, .cls-17, .cls-18, .cls-19, .cls-20, .cls-21, .cls-22, .cls-23, .cls-24, .cls-25, .cls-26, .cls-27, .cls-28, .cls-29, .cls-30, .cls-31, .cls-32, .cls-33, .cls-34, .cls-35, .cls-36, .cls-37, .cls-38, .cls-39, .cls-40 {
        stroke-width: 0px;
      }

      .cls-1, .cls-3, .cls-4, .cls-5, .cls-6, .cls-7, .cls-8, .cls-9, .cls-10, .cls-11, .cls-12, .cls-13, .cls-14, .cls-15, .cls-16, .cls-17, .cls-18, .cls-19, .cls-20, .cls-21, .cls-22, .cls-23, .cls-24, .cls-25, .cls-26, .cls-27, .cls-28, .cls-29, .cls-30, .cls-31, .cls-32, .cls-33, .cls-34, .cls-35, .cls-36, .cls-37, .cls-38, .cls-40 {
        fill-rule: evenodd;
      }

      .cls-2, .cls-38 {
        fill: #6e5946;
      }

      .cls-3 {
        fill: #ecc49d;
      }

      .cls-4 {
        fill: #edc7a3;
      }

      .cls-5 {
        fill: #e5ad79;
      }

      .cls-6 {
        fill: #eecba9;
      }

      .cls-7 {
        fill: #eabc90;
      }

      .cls-8 {
        fill: #efccaa;
      }

      .cls-9 {
        fill: #e6b07d;
      }

      .cls-10, .cls-39 {
        fill: #e8b586;
      }

      .cls-11 {
        fill: #f1d2b5;
      }

      .cls-12 {
        fill: #f3d6bc;
      }

      .cls-13 {
        fill: #f7e6d6;
      }

      .cls-14 {
        fill: #f3d7bd;
      }

      .cls-15 {
        fill: #e5ad77;
      }

      .cls-16 {
        fill: #f2d4b9;
      }

      .cls-17 {
        fill: #f3dbc3;
      }

      .cls-18 {
        fill: #f0d0b2;
      }

      .cls-19 {
        fill: #f3d9c0;
      }

      .cls-20 {
        fill: #e4aa73;
      }

      .cls-21 {
        fill: #f4ddc7;
      }

      .cls-22 {
        fill: #e8b585;
      }

      .cls-23 {
        fill: #e4ab75;
      }

      .cls-24 {
        fill: #e6b17e;
      }

      .cls-25 {
        fill: #edc5a0;
      }

      .cls-26 {
        fill: #ecc39c;
      }

      .cls-27 {
        fill: #f0d1b3;
      }

      .cls-28 {
        fill: #f5e1cc;
      }

      .cls-29 {
        fill: #f1d3b5;
      }

      .cls-30 {
        fill: #e3a56a;
      }

      .cls-31 {
        fill: #ecc59e;
      }

      .cls-32 {
        fill: #ebc097;
      }

      .cls-33 {
        fill: #e9b98c;
      }

      .cls-34 {
        fill: #f6e3d0;
      }

      .cls-35 {
        fill: #f3dac2;
      }

      .cls-36 {
        fill: #f3dcc4;
      }

      .cls-37 {
        fill: #edc6a2;
      }

      .cls-40 {
        fill: #eabb8e;
      }
    </style>
  </defs>
  <g id="Layer_1" data-name="Layer 1" image-rendering="optimizeQuality" shape-rendering="geometricPrecision" text-rendering="geometricPrecision">
    <g>
      <circle class="cls-39" cx="255.37" cy="255.42" r="247.66"/>
      <g>
        <path class="cls-23" d="m63.47,100.97l-.66-1.26c.57-.7,1.13-1.4,1.7-2.1l-1.04,3.36Z"/>
        <path class="cls-25" d="m7.74,256.19l5.5,9.67-4.2,15.16c-.84-8.16-1.27-16.44-1.3-24.82h0Z"/>
        <path class="cls-32" d="m13.25,265.85l-5.5-9.67c0-.25,0-.51,0-.76,0-3.9.1-7.78.28-11.64l5.23,22.07Z"/>
        <path class="cls-14" d="m88.87,438.76l58.08-10.77-6.7,46.76c-18.65-9.82-35.91-21.93-51.38-35.99Z"/>
        <path class="cls-29" d="m65.68,414.62l42.62-167.09,38.64,180.45-58.08,10.77c-8.26-7.51-16-15.58-23.18-24.13Z"/>
        <path class="cls-31" d="m108.3,247.53L14.94,195.95c1.45-5.88,3.11-11.67,4.97-17.38l93.81-20.8-5.42,89.76Z"/>
        <path class="cls-15" d="m62.81,99.71l.66,1.26-1.91.28c.41-.52.83-1.03,1.24-1.54Z"/>
        <path class="cls-10" d="m61.57,101.25l1.91-.28-13.88,16.63c3.77-5.62,7.77-11.07,11.97-16.35Z"/>
        <path class="cls-7" d="m49.59,117.61l13.88-16.63,50.24,56.79-93.81,20.8c7.11-21.8,17.16-42.28,29.69-60.96Z"/>
        <path class="cls-25" d="m13.25,265.85l-5.23-22.07c.76-16.42,3.12-32.41,6.93-47.84l93.36,51.58-95.06,18.32Z"/>
        <path class="cls-18" d="m15.48,317.13l92.82-69.6-42.62,167.09c-23.45-27.92-40.86-61.08-50.2-97.49Z"/>
        <path class="cls-8" d="m9.04,281.01l4.21-15.16,95.06-18.32L15.48,317.13c-3.01-11.73-5.18-23.79-6.44-36.12Z"/>
        <path class="cls-11" d="m208.77,347.37l-100.47-99.84,66.47-19.24,34,119.08Z"/>
        <path class="cls-26" d="m174.77,228.29l-61.05-70.53,42.5-73.28,18.55,143.81Z"/>
        <path class="cls-6" d="m108.3,247.53l5.42-89.76,61.05,70.53-66.47,19.24Z"/>
        <path class="cls-40" d="m349.44,196.24l-49.46-88.85,85.38-62.86c3.56,2.2,7.07,4.49,10.51,6.86l-46.43,144.85Z"/>
        <path class="cls-9" d="m63.47,100.97l1.04-3.36c12.45-15.04,26.64-28.58,42.26-40.32l49.45,27.19-92.75,16.49Z"/>
        <path class="cls-33" d="m113.72,157.77l-50.24-56.79,92.75-16.49-42.5,73.28Z"/>
        <path class="cls-15" d="m156.22,84.49l-49.45-27.19c15.05-11.31,31.42-20.93,48.85-28.61l.6,55.8Z"/>
        <path class="cls-16" d="m146.94,427.98l-38.64-180.45,100.47,99.84-61.83,80.61Z"/>
        <path class="cls-27" d="m325.47,323.55l-64.91-43.96,88.88-83.35-23.96,127.32Z"/>
        <path class="cls-19" d="m140.25,474.74l6.7-46.76,45.07,66.93c-18.16-4.8-35.5-11.6-51.77-20.17Z"/>
        <path class="cls-1" d="m260.56,279.59l39.42-172.2,49.46,88.85-88.88,83.35Z"/>
        <path class="cls-5" d="m156.22,84.49l-.6-55.8c8.64-3.81,17.54-7.15,26.67-9.97l81.37,17.22-107.43,48.55Z"/>
        <path class="cls-29" d="m208.77,347.37l-34-119.08,85.79,51.3-51.79,67.78Z"/>
        <path class="cls-35" d="m271.38,498.5l-124.43-70.52,61.83-80.61,62.61,151.13Z"/>
        <path class="cls-36" d="m192.02,494.91l-45.07-66.93,124.43,70.52-8.78,4.5c-2.38.07-4.77.11-7.17.11-21.92,0-43.17-2.86-63.41-8.2h0Z"/>
        <path class="cls-6" d="m260.56,279.59l-85.79-51.3,125.21-120.9-39.42,172.2Z"/>
        <path class="cls-32" d="m174.77,228.29l-18.55-143.81,143.76,22.9-125.21,120.9Z"/>
        <path class="cls-22" d="m299.98,107.39l-143.76-22.9,107.43-48.55,36.33,71.45Z"/>
        <path class="cls-28" d="m262.6,503.01l8.78-4.5,1.95,3.96c-3.56.25-7.13.44-10.73.54h0Z"/>
        <path class="cls-21" d="m271.38,498.5l-62.61-151.13,109.76,123.65-47.15,27.48Z"/>
        <path class="cls-35" d="m318.53,471.03l-109.76-123.65,116.7-23.82-6.95,147.47Z"/>
        <path class="cls-34" d="m273.32,502.47l-1.95-3.96,47.15-27.48-2.87,24.7c-13.69,3.42-27.84,5.71-42.33,6.74h0Z"/>
        <path class="cls-16" d="m208.77,347.37l51.79-67.78,64.91,43.96-116.7,23.82Z"/>
        <path class="cls-24" d="m299.98,107.39l-36.33-71.45,101.36-2.68c6.97,3.45,13.76,7.21,20.34,11.27l-85.38,62.86Z"/>
        <path class="cls-36" d="m318.53,471.03l6.95-147.47,72.66,47.63-79.6,99.84Z"/>
        <path class="cls-23" d="m263.65,35.93l-81.37-17.22c3.26-1.01,6.56-1.94,9.87-2.81l162.92,12.71c3.35,1.48,6.67,3.02,9.94,4.64l-101.36,2.68Z"/>
        <path class="cls-17" d="m432.13,428.97l-34-57.78,50.24-54.95,7.22,85.09c-7.14,9.78-14.98,19.02-23.45,27.64h0Z"/>
        <path class="cls-12" d="m398.13,371.19l-72.66-47.63,122.89-7.32-50.24,54.95Z"/>
        <path class="cls-37" d="m448.36,316.24l-98.93-120,105.72-87.3c4.01,5.46,7.8,11.08,11.36,16.86l-18.15,190.44Z"/>
        <path class="cls-33" d="m349.44,196.24l46.43-144.85c22.83,15.74,42.89,35.22,59.29,57.55l-105.72,87.3Z"/>
        <path class="cls-28" d="m371.27,474.39l-52.75-3.37,79.6-99.84,34,57.78c-17.76,18.08-38.27,33.44-60.86,45.42Z"/>
        <path class="cls-18" d="m325.47,323.55l23.96-127.32,98.93,120-122.89,7.32Z"/>
        <path class="cls-13" d="m315.66,495.73l2.87-24.7,52.75,3.37c-17.41,9.23-36.05,16.45-55.62,21.34h0Z"/>
        <path class="cls-30" d="m293.16,10.59l-84.1,1.49c15.02-2.84,30.51-4.35,46.36-4.35,12.83,0,25.44.98,37.74,2.86Z"/>
        <path class="cls-20" d="m355.08,28.61l-162.92-12.71c5.56-1.46,11.2-2.73,16.91-3.82l84.1-1.49c21.69,3.32,42.45,9.46,61.91,18.02h0Z"/>
        <path class="cls-3" d="m448.36,316.24l18.15-190.44c22.7,36.88,35.99,80.16,36.56,126.51l-54.71,63.93Z"/>
        <path class="cls-4" d="m448.36,316.24l54.71-63.93c.01,1.04.04,2.08.04,3.12,0,16.77-1.68,33.15-4.85,48.98l-49.9,11.83Z"/>
        <path class="cls-19" d="m455.58,401.33l-7.22-85.09,36.54,32.54c-7.65,18.78-17.53,36.41-29.32,52.55Z"/>
        <path class="cls-27" d="m484.9,348.78l-36.54-32.54,49.9-11.83c-3.08,15.35-7.59,30.19-13.36,44.37h0Z"/>
      </g>
      <path class="cls-2" d="m255.42,0c70.53,0,134.39,28.59,180.61,74.81,46.22,46.22,74.81,110.08,74.81,180.61s-28.59,134.39-74.81,180.61c-46.22,46.22-110.08,74.81-180.61,74.81s-134.39-28.59-180.61-74.81C28.59,389.81,0,325.96,0,255.42S28.59,121.04,74.81,74.81C121.04,28.59,184.89,0,255.42,0Zm169.67,85.76C381.67,42.34,321.68,15.48,255.42,15.48s-126.25,26.86-169.67,70.28S15.48,189.17,15.48,255.42s26.86,126.25,70.28,169.67c43.42,43.42,103.41,70.28,169.67,70.28s126.25-26.86,169.67-70.28,70.28-103.41,70.28-169.67-26.86-126.25-70.28-169.67h0Z"/>
    </g>
    <g>
      <path class="cls-38" d="m433.88,338.39H76.97c-5.57,0-5.57-8.56,0-8.56h356.9c5.57,0,5.57,8.56,0,8.56Z"/>
      <path class="cls-38" d="m392.34,338.39h-131.03c-2.36,0-4.28-1.93-4.28-4.28v-81.36c0-1.28.64-2.57,1.71-3.43l64.44-50.96c1.5-1.07,3.64-1.07,5.35,0l66.37,51.17c1.07.86,1.71,2.14,1.71,3.43v81.14c0,2.36-1.93,4.28-4.28,4.28Zm-126.75-8.56h122.46v-74.72l-62.09-47.96-60.38,47.74v74.93Z"/>
      <path class="cls-38" d="m249.32,266.45c-2.36,0-4.28-1.93-4.28-4.28v-25.05c0-1.28.64-2.57,1.71-3.21l76.43-60.59c1.5-1.07,3.64-1.07,5.35,0l78.36,60.38c1.07.86,1.71,2.14,1.71,3.43v25.05c0,3.64-4.28,5.57-7.07,3.43l-75.58-58.45-73.86,58.45c-.86.64-1.71.86-2.78.86Zm76.65-68.94c.86,0,1.71.21,2.57.86l71.51,55.24v-14.34l-74.08-57.16-72.36,57.16v14.13l69.58-55.02c.86-.64,1.71-.86,2.78-.86Z"/>
      <path class="cls-38" d="m352.95,338.39h-52.24c-2.36,0-4.28-1.93-4.28-4.28v-52.03c0-2.36,1.93-4.28,4.28-4.28h52.24c2.36,0,4.28,1.93,4.28,4.28v52.03c0,2.36-1.93,4.28-4.28,4.28Zm-47.96-8.56h43.68v-43.46h-43.68v43.46Z"/>
      <path class="cls-38" d="m261.31,338.39h-100.2c-2.36,0-4.28-1.93-4.28-4.28v-157.36c0-2.36,1.93-4.28,4.28-4.28h100.2c2.36,0,4.28,1.93,4.28,4.28v50.96c0,3.43-7.28,7.71-11.99,11.56v14.13c3.64-2.78,6.42-5.99,9.63-4.5,1.5.64,2.36,2.14,2.36,3.85v81.36c0,2.36-1.93,4.28-4.28,4.28Zm-95.92-8.56h91.63v-68.3c-3.64,3-6.21,6.21-9.42,4.5-1.5-.64-2.57-2.14-2.57-3.85v-25.05c0-3.43,7.28-7.71,11.99-11.56v-44.53h-91.63v148.8Z"/>
      <path class="cls-38" d="m222.13,225.77h-61.02c-2.36,0-4.28-1.93-4.28-4.28v-23.12c0-2.36,1.93-4.28,4.28-4.28h61.02c2.36,0,4.28,1.93,4.28,4.28v23.12c0,2.36-1.93,4.28-4.28,4.28Zm-56.74-8.56h52.45v-14.56h-52.45v14.56Z"/>
      <path class="cls-38" d="m222.13,271.16h-61.02c-2.36,0-4.28-1.93-4.28-4.28v-22.91c0-2.36,1.93-4.28,4.28-4.28h61.02c2.36,0,4.28,1.93,4.28,4.28v22.91c0,2.36-1.93,4.28-4.28,4.28Zm-56.74-8.56h52.45v-14.34h-52.45v14.34Z"/>
      <path class="cls-38" d="m222.13,316.76h-61.02c-2.36,0-4.28-1.93-4.28-4.28v-22.91c0-2.57,1.93-4.28,4.28-4.28h61.02c2.36,0,4.28,1.71,4.28,4.28v22.91c0,2.36-1.93,4.28-4.28,4.28Zm-56.74-8.56h52.45v-14.34h-52.45v14.34Z"/>
      <path class="cls-38" d="m161.12,338.39h-54.38c-2.36,0-4.28-1.93-4.28-4.28v-68.73c0-1.5.86-3,2.36-3.64l54.38-27.62c2.78-1.5,6.21.64,6.21,3.85v96.13c0,2.36-1.93,4.28-4.28,4.28Zm-50.1-8.56h45.82v-85l-45.82,23.34v61.66Z"/>
      <path class="cls-38" d="m112.09,232.2c-12.42,0-16.27-16.7-8.14-16.7,6.42,0,2.14,8.14,8.14,8.14,2.14,0,4.07-1.71,4.07-3.85,0-7.28-16.49-.86-16.49-16.49,0-16.49,25.05-16.49,25.05,0,0,5.57-8.56,5.57-8.56,0,0-5.14-7.92-5.14-7.92,0,0,7.28,16.49.86,16.49,16.49,0,6.85-5.57,12.42-12.63,12.42Z"/>
      <path class="cls-38" d="m112.09,199.22c-5.99,0-5.99-12.85,0-12.85s5.99,12.85,0,12.85Z"/>
      <path class="cls-38" d="m112.09,236.69c-5.99,0-5.99-13.06,0-13.06s5.99,13.06,0,13.06Z"/>
      <path class="cls-38" d="m112.09,247.4c-19.7,0-35.75-16.06-35.75-35.97s16.06-35.75,35.75-35.75,35.97,16.06,35.97,35.75-16.06,35.97-35.97,35.97Zm0-63.16c-14.99,0-27.19,12.2-27.19,27.19s12.2,27.4,27.19,27.4,27.4-12.2,27.4-27.4-12.42-27.19-27.4-27.19Z"/>
      <g id="_566030888" data-name=" 566030888">
        <path class="cls-2" d="m137.56,297.28h-26.55c-4.71,0-8.56-3.85-8.56-8.56v-7.07c0-4.71,3.85-8.56,8.56-8.56h26.55c4.71,0,8.56,3.85,8.56,8.56v7.07c0,4.71-3.85,8.56-8.56,8.56Zm-26.55-8.56h26.55v-7.07h-26.55v7.07Z"/>
        <path class="cls-2" d="m137.56,327.25h-26.55c-4.71,0-8.56-3.85-8.56-8.56v-7.07c0-4.71,3.85-8.56,8.56-8.56h26.55c4.71,0,8.56,3.85,8.56,8.56v7.07c0,4.71-3.85,8.56-8.56,8.56Zm-26.55-8.56h26.55v-7.07h-26.55v7.07Z"/>
      </g>
    </g>
  </g>
</svg>