<svg id="Capa_1" enable-background="new 0 0 512 512" height="512" viewBox="0 0 512 512" width="512" xmlns="http://www.w3.org/2000/svg"><g><path d="m100.843 108.605h-31.146c-17.071 0-30.909-13.839-30.909-30.909v-46.043c0-16.978 13.377-31.283 30.352-31.646l34.881 1.479z" fill="#fad989"/><path d="m473.212 30.909v450.182c0 17.073-13.837 30.909-30.909 30.909h-310.555c-17.062 0-30.909-13.837-30.909-30.909v-372.486l8.881-107.791-39.903-.814h372.486c17.072 0 30.909 13.837 30.909 30.909z" fill="#fff8e6"/><path d="m272.21 512h-140.462c-17.062 0-30.909-13.837-30.909-30.909v-450.058c0-8.572-3.472-16.33-9.087-21.945-5.615-5.616-13.363-9.088-21.935-9.088h211.017c-31.827 41.274-167.507 243.379-8.624 512z" fill="#ffeab7"/><path d="m287.036 62.055v77.644c0 8.531-6.924 15.455-15.455 15.455h-63.127l-34.196-7.902-11.344-58.099v-27.098l62.055-23.264 24.83 9.303z" fill="#c6c6c6"/><path d="m249.801 48.095c-14.806 27.066-30.785 63.271-41.346 107.059h-30.085c-8.541 0-15.455-6.924-15.455-15.455v-77.644l62.055-23.264z" fill="#a8a8a8"/><path d="m316.627 85.732c-3.586 7.779-12.807 11.178-20.586 7.583l-56.162-25.933-11.787-13.075 7.892-18.772 18.411 4.379 54.647 25.232c7.78 3.596 11.18 12.807 7.585 20.586z" fill="#e37858"/><path d="m133.314 85.732c-.968-2.102-1.432-4.317-1.432-6.491 0-5.862 3.338-11.467 9.015-14.095l64.641-29.848c12.333-5.687 26.541-5.687 38.873 0l9.984 4.616c-4.719 8.191-9.633 17.361-14.517 27.468l-8.428-3.895c-4.111-1.896-8.85-1.896-12.961 0l-64.589 29.828c-7.779 3.596-16.99.196-20.586-7.583z" fill="#cb5935"/><g fill="#80e0b7"><path d="m427.123 77.576h-62.974c-8.317 0-15.059-6.742-15.059-15.059v-.913c0-8.317 6.742-15.059 15.059-15.059h62.974c8.317 0 15.059 6.742 15.059 15.059v.913c-.001 8.317-6.743 15.059-15.059 15.059z"/><path d="m427.123 155.152h-62.974c-8.317 0-15.059-6.742-15.059-15.059v-.913c0-8.317 6.742-15.059 15.059-15.059h62.974c8.317 0 15.059 6.742 15.059 15.059v.913c-.001 8.316-6.743 15.059-15.059 15.059z"/><path d="m426.663 310.308c0 4.276-1.731 8.16-4.544 10.963-2.813 2.813-6.687 4.543-10.973 4.543h-208.883l-16.258-4.42v-18.411l12.333-8.191h212.81c8.571-.001 15.515 6.944 15.515 15.516z"/></g><path d="m147.389 310.308c0-4.286 1.741-8.171 4.544-10.973 2.813-2.803 6.687-4.544 10.973-4.544h35.432c.917 10.149 2.215 20.493 3.926 31.022h-39.358c-8.563.001-15.517-6.943-15.517-15.505z" fill="#36d49b"/><path d="m426.663 372.363c0 4.286-1.731 8.16-4.544 10.973s-6.687 4.544-10.973 4.544h-194.418l-19.318-7.212v-18.938l10.983-4.884h202.754c8.572 0 15.516 6.945 15.516 15.517z" fill="#80e0b7"/><path d="m147.389 372.363c0-4.286 1.741-8.16 4.544-10.973 2.813-2.813 6.687-4.544 10.973-4.544h45.488c2.37 10.19 5.141 20.534 8.335 31.033h-53.823c-8.563 0-15.517-6.944-15.517-15.516z" fill="#36d49b"/><path d="m400.92 488.707c-3.571 0-6.874-1.67-9.269-4.808-2.589-3.394-1.937-8.242 1.456-10.831 2.419-1.845 5.577-2.043 8.129-.778 2.461-2.482 6.976-8.788 11.613-19.8 3.591-8.529 5.232-15.052 5.827-19.195-4.084 3.135-11.542 10.176-24.154 25.969-10.901 13.649-15.482 13.591-17.919 13.575-2.179-.023-4.221-.815-5.804-2.217-.442.299-.896.625-1.246.874-2.718 1.948-7.778 5.567-13.406 2.742-3.335-1.675-5.171-4.708-6.168-9.098-.752.851-1.392 1.589-1.819 2.082l-.164.189c-12.958 14.946-25.268 11.664-29.955 9.561-10.091-4.528-16.856-16.838-15.402-28.027 1.634-12.587 9.456-24.451 19.464-29.52 7.428-3.761 15.582-3.593 22.961.476 3.737 2.061 5.095 6.761 3.035 10.498-2.062 3.737-6.761 5.097-10.498 3.035-2.924-1.613-5.627-1.684-8.514-.221-5.382 2.726-10.163 10.345-11.121 17.722-.514 3.96 2.17 10.036 6.403 11.936 4.235 1.901 8.837-1.99 11.952-5.585l.164-.188c8.853-10.21 14.738-16.219 21.767-13.674 1.395.505 5.951 2.677 6.075 9.401.025 1.369.069 2.553.125 3.574 1.253-.678 2.637-1.264 4.174-1.613 2.929-.667 5.792-.306 8.343.985 1.525-1.501 3.496-3.67 5.478-6.152 25.41-31.821 35.946-36.438 43.954-33.585 3.032 1.082 8.102 4.38 7.992 14.324-.107 9.645-4.903 23.244-9.355 32.755-4.61 9.85-11.86 22.173-20.209 24.943-1.319.438-2.631.651-3.909.651z" fill="#c6c6c6"/><path d="m271.509 449.945c0 4.286-1.741 8.16-4.544 10.962-2.803 2.803-6.677 4.544-10.963 4.544h-8.789l-21.925-3.06v-23.326l8.067-4.636h22.646c8.564 0 15.508 6.944 15.508 15.516z" fill="#80e0b7"/><path d="m233.357 434.429c4.193 10.221 8.809 20.565 13.858 31.022h-84.31c-8.562 0-15.516-6.944-15.516-15.506 0-4.286 1.741-8.16 4.544-10.973 2.813-2.813 6.687-4.543 10.973-4.543z" fill="#36d49b"/><g><g fill="#ffa1ac"><path d="m235 232.174c-.029 13.381-13.674 24.198-30.477 24.161-16.802-.037-30.4-10.914-30.371-24.295.029-13.38 13.674-24.198 30.477-24.161s30.4 10.914 30.371 24.295z"/><ellipse cx="369.483" cy="232.468" rx="24.228" ry="30.424" transform="matrix(.002 -1 1 .002 136.207 601.441)"/></g><g><path d="m222.6 221.788c-4.268 0-7.727-3.459-7.727-7.727v-12.364c0-4.268 3.459-7.727 7.727-7.727s7.727 3.459 7.727 7.727v12.364c0 4.268-3.459 7.727-7.727 7.727z" fill="#495560"/></g><g><path d="m351.281 221.788c-4.268 0-7.727-3.459-7.727-7.727v-12.364c0-4.268 3.459-7.727 7.727-7.727s7.727 3.459 7.727 7.727v12.364c.001 4.268-3.459 7.727-7.727 7.727z" fill="#495560"/></g><path d="m316.915 213.705c-4.268 0-7.727 3.459-7.727 7.727 0 3.951-3.215 7.166-7.166 7.166-3.952 0-7.167-3.215-7.167-7.166 0-4.268-3.459-7.727-7.727-7.727s-7.727 3.459-7.727 7.727c0 3.951-3.215 7.166-7.166 7.166-3.952 0-7.167-3.215-7.167-7.166 0-4.268-3.459-7.727-7.727-7.727s-7.727 3.459-7.727 7.727c0 12.473 10.148 22.62 22.621 22.62 5.7 0 10.911-2.124 14.893-5.616 3.983 3.492 9.194 5.616 14.894 5.616 12.473 0 22.62-10.147 22.62-22.62 0-4.267-3.459-7.727-7.727-7.727z" fill="#495560"/></g></g></svg>