<svg id="Layer_1" enable-background="new 0 0 1580 1580" height="512" viewBox="0 0 1580 1580" width="512" xmlns="http://www.w3.org/2000/svg"><g><path d="m1252.7 963.5v550.3c0 24.4-19.8 44.1-44.1 44.1h-1135c-24.4 0-44.1-19.8-44.1-44.1v-1447.7c-.1-24.3 19.7-44.1 44.1-44.1h870.3c6.4 0 12.6 1.4 18.3 4 4.8 2.2 9.2 5.2 12.9 9l264.6 264.6c3.8 3.8 6.8 8.2 9 12.9 2.6 5.7 4 11.9 4 18.3v384.6" fill="#e6eef5"/><path d="m1248.7 312.5h-286.5v-286.5c4.8 2.2 9.2 5.2 12.9 9l264.6 264.6c3.8 3.7 6.8 8.1 9 12.9z" fill="#d8dfe6"/><g><path d="m461.9 792.8h-270.1c-9.1 0-16.5-7.4-16.5-16.5s7.4-16.5 16.5-16.5h270.1c9.1 0 16.5 7.4 16.5 16.5s-7.4 16.5-16.5 16.5z" fill="#a2bccc"/></g><g><path d="m969 792.8h-412.4c-9.1 0-16.5-7.4-16.5-16.5s7.4-16.5 16.5-16.5h412.4c9.1 0 16.5 7.4 16.5 16.5s-7.4 16.5-16.5 16.5z" fill="#a2bccc"/></g><g><path d="m684.5 619.6h-492.7c-9.1 0-16.5-7.4-16.5-16.5s7.4-16.5 16.5-16.5h492.7c9.1 0 16.5 7.4 16.5 16.5s-7.4 16.5-16.5 16.5z" fill="#a2bccc"/></g><g><path d="m1090.3 619.6h-309.1c-9.1 0-16.5-7.4-16.5-16.5s7.4-16.5 16.5-16.5h309.2c9.1 0 16.5 7.4 16.5 16.5s-7.4 16.5-16.6 16.5z" fill="#a2bccc"/></g><g><path d="m830.1 446.4h-638.3c-9.1 0-16.5-7.4-16.5-16.5s7.4-16.5 16.5-16.5h638.3c9.1 0 16.5 7.4 16.5 16.5s-7.4 16.5-16.5 16.5z" fill="#a2bccc"/></g><g><path d="m739.5 273.2h-547.7c-9.1 0-16.5-7.4-16.5-16.5s7.4-16.5 16.5-16.5h547.7c9.1 0 16.5 7.4 16.5 16.5s-7.3 16.5-16.5 16.5z" fill="#a2bccc"/></g><g><path d="m884.1 965.9h-692.3c-9.1 0-16.5-7.4-16.5-16.5s7.4-16.5 16.5-16.5h692.3c9.1 0 16.5 7.4 16.5 16.5s-7.3 16.5-16.5 16.5z" fill="#a2bccc"/></g><g><g><g><path d="m680.5 1350.1c-5.9 0-11.8-.4-17.6-1.1-9-1.2-15.4-9.5-14.2-18.5s9.5-15.4 18.5-14.2c22 2.9 45.8-1.8 67.5-12.5-11.8-12.3-21.8-26.7-28.9-42-6.7-14.4-10-29.9-9.4-44.6.7-17.5 6.7-33.2 17.6-45.2 12.3-13.7 30.2-21.3 47.8-20.5 30.3 1.5 58.4 23.1 68.3 52.6 5.5 16.3 4.2 35.2-3.4 52-6.1 13.4-15.2 26.8-27.2 39.7-2.3 2.5-4.7 4.9-7.1 7.3 23.9 6.9 52.1.6 69.3-17.5 3.2-3.3 6.1-7.1 9.3-11.2 5.1-6.6 10.4-13.4 17.5-19.4 13.9-12 36.3-19.4 54.9-8.9 14.9 8.4 20.1 23.7 24.3 35.9.5 1.4 1 2.8 1.4 4.2 3.2 8.9 7.7 12.8 8.6 12.8 1.4-.1 5.4-3.1 8-5.1 5.2-4 11.6-8.9 20.1-11.1 15.5-4.1 29.4 2.9 39.5 7.9 1.3.6 2.6 1.3 3.8 1.9 8.2 3.9 11.7 13.8 7.7 22-3.9 8.2-13.8 11.7-22 7.7-1.4-.7-2.8-1.4-4.3-2.1-6-3-12.9-6.4-16.4-5.5-2 .5-5.2 3-8.2 5.3-6.2 4.8-14.6 11.3-26.2 11.9-17.9 1.1-33.5-11.9-41.7-34.6-.5-1.5-1.1-3-1.6-4.6-2.7-7.7-5.4-15.7-9.4-17.9-3.6-2.1-11.2.3-17 5.2-4.6 3.9-8.7 9.2-13 14.8-3.5 4.5-7.1 9.1-11.3 13.6-31.1 32.8-84.2 39.8-123.2 17.9-25.3 15.3-53.9 23.8-82 23.8zm78.6-165.7c-7.4 0-15.2 3.6-20.6 9.6-13.5 15-10 38.4-2.8 53.8 6.5 13.9 15.9 26.9 27.2 37.4 4.3-3.7 8.5-7.6 12.4-11.8 9.6-10.4 16.8-20.8 21.4-31 4.2-9.3 5-19.4 2.2-27.8-5.5-16.4-22.1-29.3-38.6-30.1-.5-.1-.8-.1-1.2-.1z" fill="#8bc4ef"/></g></g></g><circle cx="359.8" cy="1250.8" fill="#4dd994" r="168"/><g><g><path d="m326 1322c-4.2 0-8.5-1.6-11.7-4.8l-39-39.1c-6.5-6.4-6.5-16.9 0-23.4s16.9-6.4 23.4 0l27.4 27.4 89-89c6.5-6.4 16.9-6.4 23.4 0s6.5 16.9 0 23.4l-100.7 100.7c-3.4 3.2-7.6 4.8-11.8 4.8z" fill="#ebf4ff"/></g></g><g><g><path d="m1424 757.5c-1.2-.2-2.4-.6-3.6-1.2-7.4-3.5-10.5-12.3-7-19.7l102.7-215.3-61.2-29.6c-7.3-3.5-10.4-12.4-6.9-19.7 3.6-7.3 12.4-10.4 19.7-6.9l74.4 36c7.3 3.5 10.4 12.3 6.9 19.6l-109 228.5c-2.8 6.4-9.5 9.6-16 8.3z" fill="#cfd8dd"/></g><path d="m1394.4 667.3-97.7-46.6 91.2-191.2c12.3-25.8 43.2-36.7 68.9-24.4l4.3 2.1c25.8 12.3 36.7 43.2 24.4 68.9z" fill="#8da5eb"/><path d="m1067.9 765.1h388.1v108.2h-388.1z" fill="#99b3ff" transform="matrix(.431 -.903 .903 .431 -20.704 1605.535)"/><path d="m1132.5 969.2h64.1v108.2h-64.1z" fill="#8da5eb" transform="matrix(.431 -.903 .903 .431 -260.359 1633.913)"/><path d="m1076.7 1207.7 95.6-86.9-.7-58.8-41.4-19.7-46.2 36.4z" fill="#cbd8e6"/><circle cx="1124.3" cy="1107.8" fill="#a9c3d4" r="13.4"/></g></g></svg>