<svg height="512" viewBox="0 0 512 512" width="512" xmlns="http://www.w3.org/2000/svg" xmlns:xlink="http://www.w3.org/1999/xlink"><linearGradient id="linear-gradient" gradientUnits="userSpaceOnUse" x1="-97.005" x2="235.642" y1="131.204" y2="628.963"><stop offset="0" stop-color="#ffe53b"/><stop offset="1" stop-color="#ff2525"/></linearGradient><linearGradient id="linear-gradient-2" x1="48.141" x2="380.787" xlink:href="#linear-gradient" y1="34.205" y2="531.965"/><linearGradient id="linear-gradient-3" x1="268.312" x2="600.959" xlink:href="#linear-gradient" y1="-112.933" y2="384.827"/><linearGradient id="linear-gradient-4" x1="-84.081" x2="248.565" xlink:href="#linear-gradient" y1="122.567" y2="620.327"/><linearGradient id="linear-gradient-5" x1="87.454" x2="420.101" xlink:href="#linear-gradient" y1="7.932" y2="505.692"/><linearGradient id="linear-gradient-6" x1="159.326" x2="491.972" xlink:href="#linear-gradient" y1="-40.099" y2="457.661"/><linearGradient id="linear-gradient-7" x1="36.96" x2="369.607" xlink:href="#linear-gradient" y1="41.677" y2="539.436"/><linearGradient id="linear-gradient-8" x1="108.831" x2="441.478" xlink:href="#linear-gradient" y1="-6.354" y2="491.406"/><linearGradient id="linear-gradient-9" x1="313.035" x2="645.682" xlink:href="#linear-gradient" y1="-142.821" y2="354.939"/><g id="_20_Factory" data-name="20 Factory"><path d="m11.0044 303.3239a6 6 0 0 0 6-6v-9a6 6 0 0 0 -12 0v9a6 6 0 0 0 6 6z" fill="url(#linear-gradient)"/><path d="m486.6577 207.2774v4.6373a6 6 0 0 1 -6 6h-87.0077a6 6 0 0 1 -6-6v-5.0405h-11.0656v-87.18a24.7178 24.7178 0 0 0 -39.1015-20.1l-140.6885 100.65v-78.63a24.7179 24.7179 0 0 0 -39.0811-20.1142l-129.2187 91.6188a55.7945 55.7945 0 0 0 -23.49 45.4551v30.85a6 6 0 0 0 12 0v-30.85a43.7776 43.7776 0 0 1 18.4304-35.6656l129.2393-91.6337a12.718 12.718 0 0 1 20.12 10.3393v90.1914c-.001.0361-.001.0728-.001.1094v.9614a6 6 0 0 0 6 6h1.3438a6 6 0 0 0 5.7129-4.1661c.0615-.1909.1123-.3833.1543-.5757l146.46-104.7793a12.7181 12.7181 0 0 1 20.12 10.3394v93.18a6 6 0 0 0 6 6h111.65a12.7793 12.7793 0 0 1 12.77 12.76v224.6a21.42 21.42 0 0 1 -21.4 21.39h-291.8443v5.999a6 6 0 0 1 -6 6h-126.2371a6 6 0 0 1 -6-6v-5.999h-5.1289a21.4144 21.4144 0 0 1 -21.39-21.39v-140.01a6 6 0 0 0 -12 0v140.01a33.4276 33.4276 0 0 0 33.39 33.39h435.21a33.433 33.433 0 0 0 33.4-33.39v-224.6a24.7976 24.7976 0 0 0 -20.3463-24.357z" fill="url(#linear-gradient-2)"/><path d="m393.65 217.9147h87.0078a6 6 0 0 0 6-6v-146.2195a22.5058 22.5058 0 0 1 -9.24 1.9788h-2.76v138.2407h-75.0078v-138.2407h.07a22.5076 22.5076 0 0 1 -12.07-3.4982v147.7389a6 6 0 0 0 6 6z" fill="url(#linear-gradient-3)"/><path d="m49.5229 489.6232h126.2371a6 6 0 0 0 6-6v-125.8486a30.8994 30.8994 0 0 0 -30.864-30.8646h-76.5088a30.8994 30.8994 0 0 0 -30.8643 30.8648v125.8484a6 6 0 0 0 6 6zm6-131.8486a18.8863 18.8863 0 0 1 18.8643-18.8646h76.5088a18.8863 18.8863 0 0 1 18.864 18.8646v119.8486h-114.2371z" fill="url(#linear-gradient-4)"/><path d="m273.52 344.9909h28.1338a23.5468 23.5468 0 0 0 23.5205-23.52v-28.1343a23.5464 23.5464 0 0 0 -23.5205-23.52h-28.1338a23.5461 23.5461 0 0 0 -23.5195 23.52v28.1342a23.5465 23.5465 0 0 0 23.5195 23.5201zm-11.5195-51.6543a11.5327 11.5327 0 0 1 11.5195-11.52h28.1338a11.5329 11.5329 0 0 1 11.5205 11.52v28.1342a11.5334 11.5334 0 0 1 -11.5205 11.52h-28.1338a11.5331 11.5331 0 0 1 -11.5195-11.52z" fill="url(#linear-gradient-5)"/><path d="m377.49 344.9909h28.1348a23.5466 23.5466 0 0 0 23.5195-23.52v-28.1343a23.5462 23.5462 0 0 0 -23.5195-23.52h-28.1348a23.5462 23.5462 0 0 0 -23.52 23.52v28.1342a23.5466 23.5466 0 0 0 23.52 23.5201zm-11.52-51.6543a11.5327 11.5327 0 0 1 11.52-11.52h28.1348a11.5327 11.5327 0 0 1 11.5195 11.52v28.1342a11.5332 11.5332 0 0 1 -11.5195 11.52h-28.1348a11.5332 11.5332 0 0 1 -11.52-11.52z" fill="url(#linear-gradient-6)"/><path d="m250.0005 430.7731a23.5461 23.5461 0 0 0 23.5195 23.5195h28.1338a23.5463 23.5463 0 0 0 23.5205-23.5195v-28.1343a23.5463 23.5463 0 0 0 -23.5205-23.5195h-28.1338a23.5461 23.5461 0 0 0 -23.5195 23.5195zm12-28.1343a11.5326 11.5326 0 0 1 11.5195-11.5195h28.1338a11.5329 11.5329 0 0 1 11.5205 11.5195v28.1343a11.5329 11.5329 0 0 1 -11.5205 11.5195h-28.1338a11.5326 11.5326 0 0 1 -11.5195-11.5195z" fill="url(#linear-gradient-7)"/><path d="m353.97 430.7731a23.5461 23.5461 0 0 0 23.52 23.5195h28.1348a23.5461 23.5461 0 0 0 23.5195-23.5195v-28.1343a23.5461 23.5461 0 0 0 -23.5195-23.5195h-28.1348a23.5461 23.5461 0 0 0 -23.52 23.5195zm12-28.1343a11.5327 11.5327 0 0 1 11.52-11.5195h28.1348a11.5327 11.5327 0 0 1 11.5195 11.5195v28.1343a11.5327 11.5327 0 0 1 -11.5195 11.5195h-28.1348a11.5327 11.5327 0 0 1 -11.52-11.5195z" fill="url(#linear-gradient-8)"/><path d="m474.6577 67.674h2.76a22.6485 22.6485 0 1 0 0-45.2969h-77.6977a22.6485 22.6485 0 0 0 0 45.2969zm-74.9377-33.2969h77.6972a10.6485 10.6485 0 1 1 0 21.2969h-77.6972a10.6485 10.6485 0 1 1 0-21.2969z" fill="url(#linear-gradient-9)"/></g></svg>