<svg height="512" viewBox="0 0 58 58" width="512" xmlns="http://www.w3.org/2000/svg"><g id="Page-1" fill="none" fill-rule="evenodd"><g id="032---Motorway-Lanes" fill-rule="nonzero"><path id="Shape" d="m29 10v-8c-.0032948-1.10320187-.8967981-1.9967052-2-2h-12.4c-.9346676.00046724-1.7443732.64823178-1.95 1.56l-1.89 8.44" fill="#547580"/><path id="Shape" d="m29 32v24c-.0032948 1.1032019-.8967981 1.9967052-2 2h-24.5c-.60756748-.0003037-1.18205525-.2767704-1.56136243-.7513907-.37930718-.4746202-.52230251-1.0959272-.38863757-1.6886093l5.45-25.56h-.05c.03198-.1647784.04871734-.3321518.05-.5v-8.5h20v8.5c0 1.3807119 1.1192881 2.5 2.5 2.5z" fill="#547580"/><g fill="#f3d55b"><path id="Shape" d="m12.621 38c-.2950426.000164-.5750992-.129971-.7652298-.3555824-.1901307-.2256114-.2709275-.5236696-.2207702-.8144176l1.21-7c.0513149-.3606894.2947283-.6649313.6353664-.7941431.3406382-.1292118.7245939-.0629454 1.002215.1729711s.404973.6041483.3324186.961172l-1.21 7c-.0826445.4790707-.4978535.8292979-.984.83z"/><path id="Shape" d="m21.091 38h-.052c-.2649798-.0134475-.5137538-.1316478-.6915547-.3285792s-.2700523-.4564492-.2564453-.7214208l.361-7c.0178633-.3572656.2249685-.6778627.5433013-.8410254.3183327-.1631628.6995305-.1441029 1 .05.3004694.1941028.474562.5337598.4566987.8910254l-.361 7c-.0266663.5326668-.4666665.9506671-1 .95z"/><path id="Shape" d="m17.271 11c-.0570139.0003961-.1139364-.0046265-.17-.015-.543807-.0936428-.9089825-.6100797-.816-1.154l.69-4.01c.0502374-.36150262.2934332-.66692354.6345015-.79684794.3410683-.12992441.7258309-.06371399 1.0038517.17274402.2780208.23645802.4051365.60560257.3316468.96310392l-.69 4.009c-.082212.4794681-.4975353.8302137-.984.831z"/><path id="Shape" d="m22.481 11h-.053c-.2649848-.0136993-.5136616-.1321501-.6912777-.3292721-.1776162-.197122-.2696085-.4567529-.2557223-.7217279l.21-4.02c.0178633-.3572656.2249685-.67786268.5433013-.84102542.3183327-.16316275.6995305-.14410285 1 .05.3004694.19410285.474562.53375983.4566987.89102542l-.209 4.02c-.0261691.5334478-.466912.9521756-1.001.951z"/><path id="Shape" d="m20.211 55h-.052c-.2649798-.0134475-.5137538-.1316478-.6915547-.3285792s-.2700523-.4564492-.2564453-.7214208l.511-10c.0343321-.5486695.4996231-.9700484 1.049-.95.2649798.0134475.5137538.1316478.6915547.3285792s.2700523.4564492.2564453.7214208l-.511 10c-.0266079.5315089-.4648263.9490691-.997.95z"/><path id="Shape" d="m9.691 55c-.05701387.0003961-.11393638-.0046265-.17-.015-.54380704-.0936428-.90898253-.6100797-.816-1.154l1.72-10c.1004844-.5370679.6134368-.8940559 1.151963-.8017059.5385262.0923501.9032315.5998445.819037 1.1397059l-1.721 10c-.082212.4794681-.4975353.8302137-.984.831z"/></g><path id="Shape" d="m47.24 10-1.89-8.44c-.2056268-.91176822-1.0153324-1.55953276-1.95-1.56h-12.4c-1.1032019.0032948-1.9967052.89679813-2 2v8" fill="#3f5c6c"/><path id="Shape" d="m55.5 58h-24.5c-1.1032019-.0032948-1.9967052-.8967981-2-2v-24h.5c1.3807119 0 2.5-1.1192881 2.5-2.5v-8.5h20v8.5c.0012827.1678482.01802.3352216.05.5h-.05l5.45 25.56c.1336649.5926821-.0093304 1.2139891-.3886376 1.6886093-.3793071.4746203-.9537949.751087-1.5613624.7513907z" fill="#3f5c6c"/><path id="Shape" d="m45.379 38c-.4861465-.0007021-.9013555-.3509293-.984-.83l-1.21-7c-.0725544-.3570237.0547975-.7252555.3324186-.961172s.6615768-.3021829 1.002215-.1729711c.3406381.1292118.5840515.4334537.6353664.7941431l1.21 7c.0501573.290748-.0306395.5888062-.2207702.8144176-.1901306.2256114-.4701872.3557464-.7652298.3555824z" fill="#f3d55b"/><path id="Shape" d="m36.909 38c-.5329659.0006936-.9728192-.4167272-1-.949l-.361-7c-.0178633-.3572656.1562293-.6969226.4566987-.8910255.3004695-.1941028.6816673-.2131627 1-.05.3183328.1631628.525438.4837599.5433013.8410255l.361 7c.0277644.5514115-.396601 1.0209888-.948 1.049z" fill="#f3d55b"/><path id="Shape" d="m40.729 11c-.4864647-.0007863-.901788-.3515319-.984-.831l-.69-4.009c-.0734897-.35750135.053626-.7266459.3316468-.96310392.2780208-.23645801.6627834-.30266843 1.0038517-.17274402.3410683.1299244.5842641.43534532.6345015.79684794l.69 4.01c.0929825.5439203-.272193 1.0603572-.816 1.154-.0560636.0103735-.1129861.0153961-.17.015z" fill="#f3d55b"/><path id="Shape" d="m35.519 11c-.5325988.0007205-.9723053-.4161213-1-.948l-.209-4.02c-.0178633-.3572656.1562293-.69692259.4566987-.89102546.3004695-.19410286.6816673-.21316275 1-.05.3183328.16316276.525438.48375985.5433013.84102546l.21 4.02c.0271935.55103-.3970113 1.0199822-.948 1.048z" fill="#f3d55b"/><path id="Shape" d="m37.789 55c-.5329659.0006936-.9728192-.4167272-1-.949l-.511-10c-.0178633-.3572656.1562293-.6969226.4566987-.8910255.3004695-.1941028.6816673-.2131627 1-.05.3183328.1631628.525438.4837599.5433013.8410255l.511 10c.0277644.5514115-.396601 1.0209888-.948 1.049z" fill="#f3d55b"/><path id="Shape" d="m48.309 55c-.4864647-.0007863-.901788-.3515319-.984-.831l-1.721-10c-.0841945-.5398614.2805108-1.0473558.819037-1.1397059.5385262-.09235 1.0514786.264638 1.151963.8017059l1.72 10c.0929825.5439203-.272193 1.0603572-.816 1.154-.0560636.0103735-.1129861.0153961-.17.015z" fill="#f3d55b"/><path id="Rectangle-path" d="m32 21h20v2h-20z" fill="#35495e"/><path id="Rectangle-path" d="m6 21h20v2h-20z" fill="#3f5c6c"/><path id="Shape" d="m32 21v8.5c0 1.3807119-1.1192881 2.5-2.5 2.5h-1c-.6630412 0-1.298926-.2633921-1.767767-.732233-.4688409-.468841-.732233-1.1047258-.732233-1.767767v-8.5z" fill="#cbb292"/><path id="Shape" d="m6 21v8.5c-.00128266.1678482-.01802.3352216-.05.5-.23763429 1.1641656-1.26182845 2.0002425-2.45 2h-1c-1.38071187 0-2.5-1.1192881-2.5-2.5v-8.5z" fill="#cbb292"/><path id="Shape" d="m58 21v8.5c0 1.3807119-1.1192881 2.5-2.5 2.5h-1c-1.1881715.0002425-2.2123657-.8358344-2.45-2-.03198-.1647784-.0487173-.3321518-.05-.5v-8.5z" fill="#cbb292"/><path id="Rectangle-path" d="m26 21h6v2h-6z" fill="#a59078"/><path id="Rectangle-path" d="m0 21h6v2h-6z" fill="#a59078"/><path id="Rectangle-path" d="m52 21h6v2h-6z" fill="#a59078"/><path id="Shape" d="m14.691 26c-.0573446.0003814-.1145976-.0046408-.171-.015-.5438608-.0941093-.9086334-.611057-.815-1.155l.69-4c.0513149-.3606894.2947283-.6649313.6353664-.7941431.3406382-.1292118.7245939-.0629454 1.002215.1729711s.404973.6041483.3324186.961172l-.69 4c-.0826445.4790707-.4978535.8292979-.984.83z" fill="#f3d55b"/><path id="Shape" d="m21.711 26h-.053c-.2649848-.0136993-.5136616-.1321501-.6912777-.3292721-.1776162-.197122-.2696085-.4567529-.2557223-.7217279l.21-4c.0178633-.3572656.2249685-.6778627.5433013-.8410254.3183327-.1631628.6995305-.1441029 1 .05.3004694.1941028.474562.5337598.4566987.8910254l-.21 4c-.026151.5330608-.4662985.9516411-1 .951z" fill="#f3d55b"/><path id="Shape" d="m43.309 26c-.4861465-.0007021-.9013555-.3509293-.984-.83l-.69-4c-.0761672-.5353753.2870685-1.0343113.8199564-1.1262818.532888-.0919705 1.0423503.2563475 1.1500436.7862818l.69 4c.0936334.543943-.2711392 1.0608907-.815 1.155-.0564024.0103592-.1136554.0153814-.171.015z" fill="#f3d55b"/><path id="Shape" d="m36.289 26c-.5325988.0007205-.9723053-.4161213-1-.948l-.21-4c-.0178633-.3572656.1562293-.6969226.4566987-.8910254.3004695-.1941029.6816673-.2131627 1-.05s.525438.4837598.5433013.8410254l.21 4c.0272035.5506592-.3964089 1.019451-.947 1.048z" fill="#f3d55b"/><path id="Shape" d="m43.98 23h-2.03l-.32-1.83c-.0080292-.0562926-.0113741-.1131543-.01-.17-.0174198-.5316203.3843711-.9838465.9143465-1.0291208.5299753-.0452743 1.0026494.3322489 1.0756535.8591208l.03.17z" fill="#f0c419"/><path id="Shape" d="m37.19 23h-2.01l-.1-1.95v-.05c-.0138071-.5522847.4227153-1.0111928.975-1.0249999s1.0111928.4227152 1.025.9749999v.05z" fill="#f0c419"/><path id="Shape" d="m22.92 21v.05l-.1 1.95h-2.01l.11-2v-.05c.0138071-.5522847.4727153-.9888071 1.025-.9749999.5522847.0138071.9888071.4727152.975 1.0249999z" fill="#f0c419"/><path id="Shape" d="m16.38 21c.0013741.0568457-.0019708.1137074-.01.17l-.32 1.83h-2.03l.34-2 .03-.17c.0730041-.5268719.5456782-.9043951 1.0756535-.8591208.5299754.0452743.9317663.4975005.9143465 1.0291208z" fill="#f0c419"/><path id="Shape" d="m58 12v9h-58v-9c.0032948-1.1032019.89679813-1.9967052 2-2h54c1.1032019.0032948 1.9967052.8967981 2 2z" fill="#7f8c8d"/><path id="Shape" d="m8 16h-4c-.55228475 0-1-.4477153-1-1s.44771525-1 1-1h4c.55228475 0 1 .4477153 1 1s-.44771525 1-1 1z" fill="#f3d55b"/><path id="Shape" d="m17 16h-4c-.5522847 0-1-.4477153-1-1s.4477153-1 1-1h4c.5522847 0 1 .4477153 1 1s-.4477153 1-1 1z" fill="#f3d55b"/><path id="Shape" d="m26 16h-4c-.5522847 0-1-.4477153-1-1s.4477153-1 1-1h4c.5522847 0 1 .4477153 1 1s-.4477153 1-1 1z" fill="#f3d55b"/><path id="Shape" d="m36 16h-4c-.5522847 0-1-.4477153-1-1s.4477153-1 1-1h4c.5522847 0 1 .4477153 1 1s-.4477153 1-1 1z" fill="#f3d55b"/><path id="Shape" d="m45 16h-4c-.5522847 0-1-.4477153-1-1s.4477153-1 1-1h4c.5522847 0 1 .4477153 1 1s-.4477153 1-1 1z" fill="#f3d55b"/><path id="Shape" d="m54 16h-4c-.5522847 0-1-.4477153-1-1s.4477153-1 1-1h4c.5522847 0 1 .4477153 1 1s-.4477153 1-1 1z" fill="#f3d55b"/></g></g></svg>