<?xml version="1.0" encoding="UTF-8"?>
<svg id="Layer_1" data-name="Layer 1" xmlns="http://www.w3.org/2000/svg" viewBox="0 0 510.85 510.85">
  <defs>
    <style>
      .cls-1 {
        fill: #edc8a5;
      }

      .cls-1, .cls-2, .cls-3, .cls-4, .cls-5, .cls-6, .cls-7, .cls-8, .cls-9, .cls-10, .cls-11, .cls-12, .cls-13, .cls-14, .cls-15, .cls-16, .cls-17, .cls-18, .cls-19, .cls-20, .cls-21, .cls-22, .cls-23, .cls-24, .cls-25, .cls-26, .cls-27, .cls-28, .cls-29, .cls-30, .cls-31, .cls-32, .cls-33, .cls-34, .cls-35, .cls-36, .cls-37, .cls-38, .cls-39, .cls-40 {
        stroke-width: 0px;
      }

      .cls-1, .cls-3, .cls-4, .cls-5, .cls-6, .cls-7, .cls-8, .cls-9, .cls-10, .cls-11, .cls-12, .cls-13, .cls-14, .cls-15, .cls-16, .cls-17, .cls-18, .cls-19, .cls-20, .cls-21, .cls-22, .cls-23, .cls-24, .cls-25, .cls-26, .cls-27, .cls-28, .cls-29, .cls-30, .cls-31, .cls-32, .cls-33, .cls-34, .cls-35, .cls-36, .cls-37, .cls-38, .cls-40 {
        fill-rule: evenodd;
      }

      .cls-2, .cls-38 {
        fill: #6e5946;
      }

      .cls-3 {
        fill: #ecc49d;
      }

      .cls-4 {
        fill: #edc7a3;
      }

      .cls-5 {
        fill: #e5ad79;
      }

      .cls-6 {
        fill: #eecba9;
      }

      .cls-7 {
        fill: #eabc90;
      }

      .cls-8 {
        fill: #efccaa;
      }

      .cls-9 {
        fill: #e6b07d;
      }

      .cls-10, .cls-39 {
        fill: #e8b586;
      }

      .cls-11 {
        fill: #f1d2b5;
      }

      .cls-12 {
        fill: #f3d6bc;
      }

      .cls-13 {
        fill: #f7e6d6;
      }

      .cls-14 {
        fill: #f3d7bd;
      }

      .cls-15 {
        fill: #e5ad77;
      }

      .cls-16 {
        fill: #f2d4b9;
      }

      .cls-17 {
        fill: #f3dbc3;
      }

      .cls-18 {
        fill: #f0d0b2;
      }

      .cls-19 {
        fill: #f3d9c0;
      }

      .cls-20 {
        fill: #e4aa73;
      }

      .cls-21 {
        fill: #f4ddc7;
      }

      .cls-22 {
        fill: #e8b585;
      }

      .cls-23 {
        fill: #e4ab75;
      }

      .cls-24 {
        fill: #e6b17e;
      }

      .cls-25 {
        fill: #edc5a0;
      }

      .cls-26 {
        fill: #ecc39c;
      }

      .cls-27 {
        fill: #f0d1b3;
      }

      .cls-28 {
        fill: #f5e1cc;
      }

      .cls-29 {
        fill: #f1d3b5;
      }

      .cls-30 {
        fill: #e3a56a;
      }

      .cls-31 {
        fill: #ecc59e;
      }

      .cls-32 {
        fill: #ebc097;
      }

      .cls-33 {
        fill: #e9b98c;
      }

      .cls-34 {
        fill: #f6e3d0;
      }

      .cls-35 {
        fill: #f3dac2;
      }

      .cls-36 {
        fill: #f3dcc4;
      }

      .cls-37 {
        fill: #edc6a2;
      }

      .cls-40 {
        fill: #eabb8e;
      }
    </style>
  </defs>
  <g>
    <circle class="cls-39" cx="255.37" cy="255.42" r="247.66"/>
    <g>
      <path class="cls-23" d="m63.47,100.97l-.66-1.26c.57-.7,1.13-1.4,1.7-2.1l-1.04,3.36Z"/>
      <path class="cls-25" d="m7.74,256.19l5.5,9.67-4.2,15.16c-.84-8.16-1.27-16.44-1.3-24.82h0Z"/>
      <path class="cls-32" d="m13.25,265.85l-5.5-9.67c0-.25,0-.51,0-.76,0-3.9.1-7.78.28-11.64l5.23,22.07Z"/>
      <path class="cls-14" d="m88.87,438.76l58.08-10.77-6.7,46.76c-18.65-9.82-35.91-21.93-51.38-35.99Z"/>
      <path class="cls-29" d="m65.68,414.62l42.62-167.09,38.64,180.45-58.08,10.77c-8.26-7.51-16-15.58-23.18-24.13Z"/>
      <path class="cls-31" d="m108.3,247.53L14.94,195.95c1.45-5.88,3.11-11.67,4.97-17.38l93.81-20.8-5.42,89.76Z"/>
      <path class="cls-15" d="m62.81,99.71l.66,1.26-1.91.28c.41-.52.83-1.03,1.24-1.54Z"/>
      <path class="cls-10" d="m61.57,101.25l1.91-.28-13.88,16.63c3.77-5.62,7.77-11.07,11.97-16.35Z"/>
      <path class="cls-7" d="m49.59,117.61l13.88-16.63,50.24,56.79-93.81,20.8c7.11-21.8,17.16-42.28,29.69-60.96Z"/>
      <path class="cls-25" d="m13.25,265.85l-5.23-22.07c.76-16.42,3.12-32.41,6.93-47.84l93.36,51.58-95.06,18.32Z"/>
      <path class="cls-18" d="m15.48,317.13l92.82-69.6-42.62,167.09c-23.45-27.92-40.86-61.08-50.2-97.49Z"/>
      <path class="cls-8" d="m9.04,281.01l4.21-15.16,95.06-18.32L15.48,317.13c-3.01-11.73-5.18-23.79-6.44-36.12Z"/>
      <path class="cls-11" d="m208.77,347.37l-100.47-99.84,66.47-19.24,34,119.08Z"/>
      <path class="cls-26" d="m174.77,228.29l-61.05-70.53,42.5-73.28,18.55,143.81Z"/>
      <path class="cls-6" d="m108.3,247.53l5.42-89.76,61.05,70.53-66.47,19.24Z"/>
      <path class="cls-40" d="m349.44,196.24l-49.46-88.85,85.38-62.86c3.56,2.2,7.07,4.49,10.51,6.86l-46.43,144.85Z"/>
      <path class="cls-9" d="m63.47,100.97l1.04-3.36c12.45-15.04,26.64-28.58,42.26-40.32l49.45,27.19-92.75,16.49Z"/>
      <path class="cls-33" d="m113.72,157.77l-50.24-56.79,92.75-16.49-42.5,73.28Z"/>
      <path class="cls-15" d="m156.22,84.49l-49.45-27.19c15.05-11.31,31.42-20.93,48.85-28.61l.6,55.8Z"/>
      <path class="cls-16" d="m146.94,427.98l-38.64-180.45,100.47,99.84-61.83,80.61Z"/>
      <path class="cls-27" d="m325.47,323.55l-64.91-43.96,88.88-83.35-23.96,127.32Z"/>
      <path class="cls-19" d="m140.25,474.74l6.7-46.76,45.07,66.93c-18.16-4.8-35.5-11.6-51.77-20.17Z"/>
      <path class="cls-1" d="m260.56,279.59l39.42-172.2,49.46,88.85-88.88,83.35Z"/>
      <path class="cls-5" d="m156.22,84.49l-.6-55.8c8.64-3.81,17.54-7.15,26.67-9.97l81.37,17.22-107.43,48.55Z"/>
      <path class="cls-29" d="m208.77,347.37l-34-119.08,85.79,51.3-51.79,67.78Z"/>
      <path class="cls-35" d="m271.38,498.5l-124.43-70.52,61.83-80.61,62.61,151.13Z"/>
      <path class="cls-36" d="m192.02,494.91l-45.07-66.93,124.43,70.52-8.78,4.5c-2.38.07-4.77.11-7.17.11-21.92,0-43.17-2.86-63.41-8.2h0Z"/>
      <path class="cls-6" d="m260.56,279.59l-85.79-51.3,125.21-120.9-39.42,172.2Z"/>
      <path class="cls-32" d="m174.77,228.29l-18.55-143.81,143.76,22.9-125.21,120.9Z"/>
      <path class="cls-22" d="m299.98,107.39l-143.76-22.9,107.43-48.55,36.33,71.45Z"/>
      <path class="cls-28" d="m262.6,503.01l8.78-4.5,1.95,3.96c-3.56.25-7.13.44-10.73.54h0Z"/>
      <path class="cls-21" d="m271.38,498.5l-62.61-151.13,109.76,123.65-47.15,27.48Z"/>
      <path class="cls-35" d="m318.53,471.03l-109.76-123.65,116.7-23.82-6.95,147.47Z"/>
      <path class="cls-34" d="m273.32,502.47l-1.95-3.96,47.15-27.48-2.87,24.7c-13.69,3.42-27.84,5.71-42.33,6.74h0Z"/>
      <path class="cls-16" d="m208.77,347.37l51.79-67.78,64.91,43.96-116.7,23.82Z"/>
      <path class="cls-24" d="m299.98,107.39l-36.33-71.45,101.36-2.68c6.97,3.45,13.76,7.21,20.34,11.27l-85.38,62.86Z"/>
      <path class="cls-36" d="m318.53,471.03l6.95-147.47,72.66,47.63-79.6,99.84Z"/>
      <path class="cls-23" d="m263.65,35.93l-81.37-17.22c3.26-1.01,6.56-1.94,9.87-2.81l162.92,12.71c3.35,1.48,6.67,3.02,9.94,4.64l-101.36,2.68Z"/>
      <path class="cls-17" d="m432.13,428.97l-34-57.78,50.24-54.95,7.22,85.09c-7.14,9.78-14.98,19.02-23.45,27.64h0Z"/>
      <path class="cls-12" d="m398.13,371.19l-72.66-47.63,122.89-7.32-50.24,54.95Z"/>
      <path class="cls-37" d="m448.36,316.24l-98.93-120,105.72-87.3c4.01,5.46,7.8,11.08,11.36,16.86l-18.15,190.44Z"/>
      <path class="cls-33" d="m349.44,196.24l46.43-144.85c22.83,15.74,42.89,35.22,59.29,57.55l-105.72,87.3Z"/>
      <path class="cls-28" d="m371.27,474.39l-52.75-3.37,79.6-99.84,34,57.78c-17.76,18.08-38.27,33.44-60.86,45.42Z"/>
      <path class="cls-18" d="m325.47,323.55l23.96-127.32,98.93,120-122.89,7.32Z"/>
      <path class="cls-13" d="m315.66,495.73l2.87-24.7,52.75,3.37c-17.41,9.23-36.05,16.45-55.62,21.34h0Z"/>
      <path class="cls-30" d="m293.16,10.59l-84.1,1.49c15.02-2.84,30.51-4.35,46.36-4.35,12.83,0,25.44.98,37.74,2.86Z"/>
      <path class="cls-20" d="m355.08,28.61l-162.92-12.71c5.56-1.46,11.2-2.73,16.91-3.82l84.1-1.49c21.69,3.32,42.45,9.46,61.91,18.02h0Z"/>
      <path class="cls-3" d="m448.36,316.24l18.15-190.44c22.7,36.88,35.99,80.16,36.56,126.51l-54.71,63.93Z"/>
      <path class="cls-4" d="m448.36,316.24l54.71-63.93c.01,1.04.04,2.08.04,3.12,0,16.77-1.68,33.15-4.85,48.98l-49.9,11.83Z"/>
      <path class="cls-19" d="m455.58,401.33l-7.22-85.09,36.54,32.54c-7.65,18.78-17.53,36.41-29.32,52.55Z"/>
      <path class="cls-27" d="m484.9,348.78l-36.54-32.54,49.9-11.83c-3.08,15.35-7.59,30.19-13.36,44.37h0Z"/>
    </g>
    <path class="cls-2" d="m255.42,0c70.53,0,134.39,28.59,180.61,74.81,46.22,46.22,74.81,110.08,74.81,180.61s-28.59,134.39-74.81,180.61c-46.22,46.22-110.08,74.81-180.61,74.81s-134.39-28.59-180.61-74.81C28.59,389.81,0,325.96,0,255.42S28.59,121.04,74.81,74.81C121.04,28.59,184.89,0,255.42,0Zm169.67,85.76C381.67,42.34,321.68,15.48,255.42,15.48s-126.25,26.86-169.67,70.28S15.48,189.17,15.48,255.42s26.86,126.25,70.28,169.67c43.42,43.42,103.41,70.28,169.67,70.28s126.25-26.86,169.67-70.28,70.28-103.41,70.28-169.67-26.86-126.25-70.28-169.67h0Z"/>
  </g>
  <path class="cls-38" d="m164.31,241.78c-17.05,0-21.93-13.89-23.24-19.87-2.18-9.94.45-19.33,4.26-21.08.69-.32,1.49-.45,2.36-.45,3.12,0,7.15,1.72,10.02,2.96,2.69,1.15,4.64,1.98,6.6,1.98s3.9-.84,6.6-1.98c3.09-1.33,7.34-3.16,10.54-2.93,4.08.26,7.17,7.29,6.9,15.67-.31,9.55-5.71,25.7-24.04,25.7Zm33.99-25.38c.47-14.63-6.2-25.29-16.21-25.93-4.15-.27-8.24.96-11.72,2.32,1.58-4.48,4.89-8.55,10.05-12.31,2.22-1.61,2.71-4.73,1.1-6.95-1.62-2.22-4.73-2.72-6.95-1.1-8.24,5.99-13.12,13.05-14.68,21.01-5.21-2.16-12.28-4.6-18.71-1.65-9.97,4.58-12.5,20.04-9.83,32.26,2.93,13.39,13.13,27.69,32.97,27.69,22.57,0,33.45-18.32,33.99-35.33h0Zm142.21-42.85c-.27-7.34,2.65-14.94,8.51-22.2,5.86,7.27,8.79,14.87,8.51,22.2-.15,4.17-1.35,8.26-3.53,12.17v-14.05c0-2.75-2.23-4.98-4.98-4.98s-4.98,2.23-4.98,4.98v14.05c-2.18-3.9-3.38-7.99-3.53-12.16Zm-31.67,29.53c18.52,1.03,29.73,7.79,34.04,20.53-16.64,2.43-27.64-4.19-34.04-20.53Zm80.37,0c-6.4,16.33-17.4,22.95-34.04,20.53,4.32-12.73,15.52-19.5,34.04-20.53Zm-35.21,54.76v-24.36c2.57.35,5.06.56,7.45.56,19.49,0,33.02-11.8,39.49-34.71.42-1.48.13-3.09-.8-4.33-.92-1.23-2.37-1.98-3.92-2.01-19.31-.26-33.41,4.25-42.23,13.43v-4.84c8.42-8.1,13.11-17.61,13.48-27.67.43-11.48-4.72-23.08-14.89-33.53-1.87-1.93-5.26-1.93-7.13,0-10.17,10.45-15.32,22.05-14.89,33.53.37,10.07,5.06,19.57,13.48,27.67v4.84c-8.83-9.21-22.95-13.73-42.23-13.44-1.54.03-2.99.77-3.91,2.01-.93,1.24-1.22,2.84-.8,4.33,6.47,22.92,20,34.71,39.49,34.71,2.39,0,4.89-.2,7.45-.56v24.36c0,2.75,2.23,4.98,4.98,4.98s4.98-2.23,4.98-4.98Zm-8.97,77.55l-77.89-36.53,52.25-24.51c8.37,11.45,17.23,22.79,25.74,33.4.94,1.18,2.37,1.86,3.88,1.86s2.94-.68,3.88-1.86l.97-1.21c5.88-7.33,14.16-17.64,22.84-29.36l46.21,21.67-77.89,36.53Zm-89.61,42.03l77.89-36.53-77.88-36.54-77.89,36.54,77.89,36.53Zm-116.69-102.4c7.03,9.69,14.51,19.29,21.71,28.25.94,1.18,2.37,1.87,3.88,1.87s2.94-.68,3.88-1.87l.78-.97c5.51-6.86,13.59-16.93,21.78-28.27l52.93,24.83-77.89,36.53-77.89-36.53,50.81-23.84Zm25.59-112.98c-26.24,0-47.58,21.35-47.58,47.58,0,21.25,32.27,63.33,47.58,82.57,15.56-19.49,47.57-60.84,47.57-82.57,0-26.23-21.34-47.58-47.58-47.58h0Zm91.1,58.25l40.74,19.11c5.07,8.7,10.98,17.71,17.33,26.72l-58.07,27.23-58.83-27.59c5.6-8.18,10.97-16.75,15.32-25.06l43.52-20.41Zm93.6-87.39c-33.05,0-59.93,26.89-59.93,59.93,0,27.2,40.35,79.32,59.93,103.86,18.92-23.64,59.93-76.19,59.93-103.86,0-33.04-26.88-59.93-59.93-59.93Zm87.74,161.45l-54.08-25.36c18.21-25.53,36.23-55.6,36.23-76.16,0-38.53-31.35-69.89-69.89-69.89s-69.89,31.36-69.89,69.89c0,9.08,3.47,20,9.18,31.9l-30.78-14.44c-1.34-.63-2.89-.63-4.23,0l-35.09,16.45c2.29-6.19,3.64-12.01,3.64-17.12,0-31.72-25.81-57.53-57.54-57.53s-57.53,25.81-57.53,57.53c0,14.97,11.4,35.91,26.09,57.15l-58.79,27.57c-1.75.82-2.86,2.58-2.86,4.51s1.12,3.69,2.86,4.51l179.22,84.06c.67.32,1.39.47,2.12.47s1.44-.16,2.12-.47l179.22-84.06c1.75-.82,2.86-2.58,2.86-4.51,0-1.94-1.12-3.69-2.86-4.51h0Z"/>
</svg>