<svg id="Layer_1" enable-background="new 0 0 512 512" height="512" viewBox="0 0 512 512" width="512" xmlns="http://www.w3.org/2000/svg" xmlns:xlink="http://www.w3.org/1999/xlink"><linearGradient id="SVGID_1_" gradientUnits="userSpaceOnUse" x1="79.86" x2="377.654" y1="467.501" y2="169.707"><stop offset="0" stop-color="#fcc60e"/><stop offset="1" stop-color="#e92e29"/></linearGradient><path d="m500.009 292.579-122.417-88.943c-10.25-7.724-24.107-7.855-34.519-.31l-55.72 40.482c-19.578-15.237-42.09-26.144-65.953-32.143 30.053-15.696 50.616-47.167 50.616-83.354 0-51.816-42.156-93.973-93.973-93.973s-93.974 42.156-93.974 93.973c0 36.171 20.544 67.629 50.574 83.332-77.264 19.426-134.643 89.476-134.643 172.684 0 4.418 3.582 8 8 8h246.362v47.255c0 20.997 17.082 38.079 38.079 38.079h135.354c20.996 0 38.078-17.082 38.078-38.079v-100.025l.053.038c12.964 9.391 31.152 6.489 40.55-6.475 9.393-12.963 6.489-31.153-6.467-40.541zm-399.939-164.267c0-42.994 34.979-77.973 77.974-77.973 42.994 0 77.973 34.979 77.973 77.973 0 42.986-34.964 77.959-77.946 77.973-.01 0-.019 0-.028 0-.008 0-.016 0-.024 0-42.984-.015-77.949-34.987-77.949-77.973zm-83.875 248.015c4.185-85.636 75.159-154.022 161.809-154.042h.04.04c34.479.009 68.092 11.077 95.746 31.349l-53.595 38.938c-12.964 9.395-15.868 27.584-6.474 40.549 5.673 7.828 14.551 11.987 23.55 11.987 5.905 0 11.862-1.792 16.999-5.513.002-.002.005-.005.008-.007l.044-.032v36.77h-238.167zm365.078 85.334h-42.312v-92.903c0-3.391 2.759-6.149 6.149-6.149h30.014c3.391 0 6.148 2.759 6.148 6.149v92.903zm68.6-22.079c0 12.175-9.904 22.079-22.078 22.079h-30.521v-92.903c0-12.213-9.936-22.149-22.148-22.149h-30.014c-12.213 0-22.149 9.937-22.149 22.149v92.903h-30.521c-12.175 0-22.079-9.904-22.079-22.079v-111.65l89.756-65.211 89.755 65.211v111.65zm43.647-115.85c-4.218 5.821-12.385 7.123-18.197 2.913l-110.503-80.284c-1.401-1.019-3.052-1.528-4.702-1.528s-3.301.51-4.702 1.528l-110.502 80.284c-5.82 4.21-13.981 2.904-18.196-2.913-4.218-5.82-2.914-13.986 2.914-18.21l122.838-89.247c4.61-3.34 10.993-3.273 15.522.161.044.033.088.066.132.098l122.488 88.994c5.821 4.218 7.124 12.384 2.908 18.204z" fill="url(#SVGID_1_)"/></svg>