<?xml version="1.0" encoding="iso-8859-1"?>
<!-- Generator: Adobe Illustrator 19.0.0, SVG Export Plug-In . SVG Version: 6.00 Build 0)  -->
<svg version="1.1" id="Capa_1" xmlns="http://www.w3.org/2000/svg" xmlns:xlink="http://www.w3.org/1999/xlink" x="0px" y="0px"
	 viewBox="0 0 511.999 511.999" style="enable-background:new 0 0 511.999 511.999;" xml:space="preserve">
<path style="fill:#EDC472;" d="M220.053,433.567c0-6.048,0-238.291,0-247.225c0-3.361,2.725-6.085,6.086-6.085h193.366V57.596
	c0-5.434-5.341-9.258-10.485-7.508L43.627,174.396c-6.678,2.272-11.168,8.543-11.168,15.597v243.574H220.053L220.053,433.567z"/>
<path style="fill:#DBAD5C;" d="M55.58,170.33l-11.952,4.066c-6.678,2.272-11.168,8.543-11.168,15.597v243.574h20.605V179.283
	C53.064,176.045,53.971,172.966,55.58,170.33z"/>
<path style="fill:#24D3B5;" d="M481.142,178.196H224.078c-3.361,0-6.086,2.725-6.086,6.086c0,8.934,0,243.238,0,249.286h269.449
	c0-5.576,0-244.501,0-249.071C487.442,181.016,484.621,178.196,481.142,178.196z"/>
<g>
	<path style="fill:#20B7A1;" d="M238.598,433.567c0-6.048,0-240.351,0-249.285c0-3.361,2.725-6.086,6.086-6.086h-20.605
		c-3.361,0-6.086,2.725-6.086,6.086c0,8.934,0,243.238,0,249.285H238.598L238.598,433.567L238.598,433.567z"/>
	<path style="fill:#20B7A1;" d="M481.142,178.196H224.078c-3.361,0-6.085,2.725-6.085,6.086c0,3.402,0,44.186,0,93.72h269.449
		c0-50.448,0-91.746,0-93.505C487.442,181.016,484.621,178.196,481.142,178.196z"/>
</g>
<path style="fill:#199A8E;" d="M217.993,184.281c0,3.402,0,44.186,0,93.72h20.605c0-48.312,0-90.048,0-93.72
	c0-3.361,2.725-6.086,6.086-6.086h-20.605C220.762,178.196,217.993,180.881,217.993,184.281z"/>
<g>
	<path style="fill:#FFC850;" d="M293.08,238.003c-1.052,1.781-2.672,2.348-4.211,2.348c-1.457,0-2.996-0.486-3.968-2.348
		l-7.693-14.089v31.176c0,2.591-3.157,3.887-6.315,3.887s-6.316-1.296-6.316-3.887v-48.991c0-4.615,3.158-6.316,6.316-6.316
		c4.534,0,6.477,0.486,9.797,6.316l8.341,14.576l8.341-14.576c3.32-5.83,5.264-6.316,9.798-6.316c3.239,0,6.315,1.7,6.315,6.316
		v48.99c0,2.591-3.157,3.887-6.315,3.887s-6.316-1.296-6.316-3.887v-30.366L293.08,238.003z"/>
	<path style="fill:#FFC850;" d="M318.183,253.794c0-0.243,0.08-0.567,0.162-0.891l15.061-49.395c0.89-2.834,4.534-4.211,8.259-4.211
		s7.369,1.376,8.26,4.211l15.142,49.395c0.082,0.324,0.162,0.648,0.162,0.891c0,2.996-4.615,5.182-8.097,5.182
		c-2.024,0-3.644-0.648-4.13-2.348l-2.753-10.122h-17.087l-2.753,10.122c-0.486,1.7-2.106,2.348-4.13,2.348
		C322.798,258.976,318.183,256.79,318.183,253.794z M347.577,236.789l-5.912-21.702l-5.911,21.702H347.577z"/>
	<path style="fill:#FFC850;" d="M375.431,258.976c-2.753,0-5.506-1.296-5.506-3.887v-51.5c0-2.672,3.158-3.806,6.316-3.806
		s6.316,1.133,6.316,3.806v44.375h18.462c2.43,0,3.644,2.753,3.644,5.506c0,2.753-1.214,5.506-3.644,5.506H375.431z"/>
	<path style="fill:#FFC850;" d="M415.27,258.976c-2.754,0-5.506-1.296-5.506-3.887v-51.5c0-2.672,3.158-3.806,6.316-3.806
		s6.315,1.133,6.315,3.806v44.375h18.463c2.429,0,3.644,2.753,3.644,5.506c0,2.753-1.215,5.506-3.644,5.506H415.27z"/>
</g>
<path style="fill:#E4EAF8;" d="M416.382,307.164H288.947c-1.666,0-3.017,1.351-3.017,3.017c0,4.429,0,120.388,0,123.387h133.574
	c0-2.764,0-121.015,0-123.28C419.504,308.562,418.106,307.164,416.382,307.164z"/>
<path style="fill:#D8DCE5;" d="M352.717,307.164h-63.77c-1.666,0-3.017,1.351-3.017,3.017c0,4.429,0,120.388,0,123.387h66.787
	L352.717,307.164L352.717,307.164z"/>
<path style="fill:#C3C8D1;" d="M309.552,307.164h-20.605c-1.666,0-3.017,1.351-3.017,3.017c0,4.429,0,120.389,0,123.387h20.605
	c0-2.998,0-118.958,0-123.387C306.535,308.515,307.886,307.164,309.552,307.164z"/>
<g>
	<path style="fill:#FC932B;" d="M419.505,118.352h-66.787c-4.267,0-7.727-3.459-7.727-7.727s3.459-7.727,7.727-7.727h66.787
		c4.267,0,7.727,3.459,7.727,7.727S423.772,118.352,419.505,118.352z"/>
	<path style="fill:#FC932B;" d="M419.505,149.977h-66.787c-4.267,0-7.727-3.459-7.727-7.727s3.459-7.727,7.727-7.727h66.787
		c4.267,0,7.727,3.459,7.727,7.727S423.772,149.977,419.505,149.977z"/>
</g>
<rect x="72.14" y="394.679" style="fill:#707487;" width="106.39" height="38.892"/>
<rect x="72.14" y="355.789" style="fill:#868B9B;" width="106.39" height="38.892"/>
<rect x="72.14" y="316.889" style="fill:#707487;" width="106.39" height="38.892"/>
<rect x="72.14" y="394.679" style="fill:#5B5D6E;" width="20.605" height="38.892"/>
<rect x="72.14" y="355.789" style="fill:#707487;" width="20.605" height="38.892"/>
<rect x="72.14" y="316.889" style="fill:#5B5D6E;" width="20.605" height="38.892"/>
<path style="fill:#868B9B;" d="M178.529,316.893v-31.221c0-4.236-3.434-7.671-7.671-7.671H79.81c-4.236,0-7.671,3.434-7.671,7.671
	v31.221H178.529z"/>
<path style="fill:#707487;" d="M100.414,278.001H79.809c-4.236,0-7.671,3.434-7.671,7.671v31.221h20.605v-31.221
	C92.744,281.435,96.178,278.001,100.414,278.001z"/>
<path style="fill:#E4EAF8;" d="M499.039,433.03c-12.481,0-481.467,0-486.077,0C5.833,433.03,0,438.971,0,446.233v2.902
	c0,7.262,5.833,13.203,12.961,13.203c4.429,0,479.897,0,486.077,0c7.129,0,12.961-5.942,12.961-13.203v-2.902
	C512,438.971,506.167,433.03,499.039,433.03z"/>
<path style="fill:#D8DCE5;" d="M499.039,447.684c-6.18,0-481.648,0-486.077,0c-5.057,0-9.45-2.997-11.583-7.327
	C0.505,442.131,0,444.122,0,446.233v2.902c0,7.262,5.832,13.204,12.961,13.204c4.429,0,479.897,0,486.077,0
	c7.129,0,12.961-5.942,12.961-13.204v-2.902c0-2.111-0.505-4.102-1.379-5.876C508.488,444.687,504.096,447.684,499.039,447.684z"/>
<g>
</g>
<g>
</g>
<g>
</g>
<g>
</g>
<g>
</g>
<g>
</g>
<g>
</g>
<g>
</g>
<g>
</g>
<g>
</g>
<g>
</g>
<g>
</g>
<g>
</g>
<g>
</g>
<g>
</g>
</svg>
