<svg height="512" viewBox="0 0 128 128" width="512" xmlns="http://www.w3.org/2000/svg"><g><path d="m59.068 19h39.718v90h-39.718z" fill="#2568ef"/><path d="m59.068 109h-29.854v-57.952l29.854-7.631z" fill="#4bc3f7"/><g fill="#fecd1a"><path d="m67.556 29.821h7.783v6.702h-7.783z"/><path d="m67.556 43.417h7.783v6.702h-7.783z"/><path d="m37.169 60.296h13.944v6.702h-13.944z"/><path d="m37.169 74.61h13.944v6.702h-13.944z"/><path d="m37.169 88.925h13.944v6.702h-13.944z"/><path d="m67.556 57.014h7.783v6.702h-7.783z"/><path d="m67.556 70.61h7.783v6.702h-7.783z"/><path d="m82.514 29.821h7.783v6.702h-7.783z"/><path d="m82.514 43.417h7.783v6.702h-7.783z"/><path d="m82.514 57.014h7.783v6.702h-7.783z"/><path d="m82.514 70.61h7.783v6.702h-7.783z"/><path d="m68.352 87.175h10.575v21.825h-10.575z"/></g><path d="m78.927 87.175h10.575v21.825h-10.575z" fill="#ffb32c"/><path d="m109 110.75h-90a1.75 1.75 0 0 1 0-3.5h90a1.75 1.75 0 0 1 0 3.5z" fill="#231887"/></g></svg>