<svg height="512" viewBox="0 0 512 512" width="512" xmlns="http://www.w3.org/2000/svg"><g id="_18_Booking" data-name="18 Booking"><g id="_18_Booking-2" data-name="18 Booking"><g id="Booking"><path d="m469.5 42.5h-17l-18 35 18 35 27.5 8 24.5-8v-35a35 35 0 0 0 -35-35z" fill="#2d69ad"/><path d="m7.5 422v32.5a15 15 0 0 0 15 15h467a15 15 0 0 0 15-15v-342h-52z" fill="#f6efea"/><path d="m7.5 77.5v35l248.5 27.5 196.5-27.5v-70h-410a35 35 0 0 0 -35 35z" fill="#27aae1"/><path d="m452.5 317v-204.5h-445v309.5h340a105 105 0 0 0 105-105z" fill="#fff4f4"/><circle cx="42.5" cy="77.5" fill="#ff637b" r="7.5"/><g fill="#fff"><circle cx="77.5" cy="77.5" r="7.5"/><circle cx="112.5" cy="77.5" r="7.5"/><path d="m469.5 85h-90a7.5 7.5 0 0 1 0-15h90a7.5 7.5 0 0 1 0 15z"/></g><path d="m469.5 85h-17v-15h17a7.5 7.5 0 0 1 0 15z" fill="#e0f4ff"/><g id="hotel"><path d="m210.5 224.5h69.5a7.5 7.5 0 0 1 7.5 7.5v125a7.5 7.5 0 0 1 -7.5 7.5h-69.5a0 0 0 0 1 0 0v-140a0 0 0 0 1 0 0z" fill="#ed844d"/><path d="m246 224.5h34a7.5 7.5 0 0 1 7.5 7.5v112.5a7.5 7.5 0 0 1 -7.5 7.5 34 34 0 0 1 -34-34v-93.5a0 0 0 0 1 0 0z" fill="#f19d71"/><path d="m50 224.5h69.5a0 0 0 0 1 0 0v140a0 0 0 0 1 0 0h-69.5a7.5 7.5 0 0 1 -7.5-7.5v-125a7.5 7.5 0 0 1 7.5-7.5z" fill="#ed844d"/><path d="m50 224.5h50.5a0 0 0 0 1 0 0v113.5a14 14 0 0 1 -14 14h-44a0 0 0 0 1 0 0v-120a7.5 7.5 0 0 1 7.5-7.5z" fill="#f19d71"/><path d="m112.5 178.5h105v186h-105z" fill="#f19d71"/><path d="m165 329.5-17.5 22.5h-35v-152h60.5a17 17 0 0 1 17 17v87.5a25 25 0 0 1 -25 25z" fill="#f4b594"/><path d="m235 190h-140a7.5 7.5 0 0 1 0-15h140a7.5 7.5 0 0 1 0 15z" fill="#f4b594"/><path d="m165 329.5a17.5 17.5 0 0 1 17.5 17.5v17.5a0 0 0 0 1 0 0h-35a0 0 0 0 1 0 0v-17.5a17.5 17.5 0 0 1 17.5-17.5z" fill="#f26522"/><g fill="#75eeff"><path d="m147.5 240a7.5 7.5 0 0 1 -7.5-7.5v-15a7.5 7.5 0 0 1 15 0v15a7.5 7.5 0 0 1 -7.5 7.5z"/><path d="m147.5 302a7.5 7.5 0 0 1 -7.5-7.5v-15a7.5 7.5 0 0 1 15 0v15a7.5 7.5 0 0 1 -7.5 7.5z"/><path d="m182.5 240a7.5 7.5 0 0 1 -7.5-7.5v-15a7.5 7.5 0 0 1 15 0v15a7.5 7.5 0 0 1 -7.5 7.5z"/><path d="m182.5 302a7.5 7.5 0 0 1 -7.5-7.5v-15a7.5 7.5 0 0 1 15 0v15a7.5 7.5 0 0 1 -7.5 7.5z"/><path d="m78.5 302a7.5 7.5 0 0 1 -7.5-7.5v-15a7.5 7.5 0 0 1 15 0v15a7.5 7.5 0 0 1 -7.5 7.5z"/></g><path d="m71 364.5v-35a7.5 7.5 0 0 1 15 0v35z" fill="#f26522"/><path d="m235 407h-140a7.5 7.5 0 0 1 0-15h140a7.5 7.5 0 0 1 0 15z" fill="#2d69ad"/><path d="m246 364.5v-35a7.5 7.5 0 0 1 15 0v35z" fill="#f26522"/><path d="m253.5 302a7.5 7.5 0 0 1 -7.5-7.5v-15a7.5 7.5 0 0 1 15 0v15a7.5 7.5 0 0 1 -7.5 7.5z" fill="#75eeff"/></g><path d="m445.31 234.59-111.62 76.82a70 70 0 1 0 111.62-76.82z" fill="#2a950f"/><path d="m449.5 258.5a69.88 69.88 0 0 0 -4.19-23.91 70 70 0 0 0 -23.07-13.29l-91.48 79.4a69.62 69.62 0 0 0 2.93 10.71 70 70 0 0 0 115.81-52.91z" fill="#38c714"/><path d="m329.5 287.5a70 70 0 0 0 1.26 13.2 69.86 69.86 0 0 0 22.74 3.8 71.14 71.14 0 0 0 8-.47l17.3-4.28a70 70 0 0 0 43.4-78.45 70 70 0 0 0 -92.74 66.2z" fill="#60d243"/><path d="m378.34 319.94a7.49 7.49 0 0 0 10.41-.09l49.5-48.59a7.5 7.5 0 1 0 -10.5-10.7l-44.34 43.52-4.57-4.33-10.34.25-7 4z" fill="#f6efea"/><path d="m359.06 291.34a7.49 7.49 0 0 0 .28 10.6l2.2 2.09a69.37 69.37 0 0 0 17.3-4.28l-9.18-8.69a7.49 7.49 0 0 0 -10.6.28z" fill="#fff4f4"/></g></g></g></svg>