<svg xmlns="http://www.w3.org/2000/svg" version="1.1" xmlns:xlink="http://www.w3.org/1999/xlink" width="512" height="512" x="0" y="0" viewBox="0 0 512 512" style="enable-background:new 0 0 512 512" xml:space="preserve" class=""><g><path fill="#dc7878" d="M438.672 22.801H112.195c-19.379 0-34.98 15.601-34.98 34.98v135.548C54.184 204.78 38.348 228.535 38.348 256c0 27.465 15.836 51.22 38.867 62.67v139.435c0 17.172 13.922 31.094 31.094 31.094h326.476a7.759 7.759 0 0 0 7.774-7.773V349.281a7.756 7.756 0 0 0-7.774-7.773h-31.094V189.926l17.493-19.434 17.488 19.434 17.488-19.434 17.492 19.434V57.781c0-19.379-15.601-34.98-34.98-34.98z" opacity="1" data-original="#b0bec5" class=""></path><path fill="#ebe7d5" d="M178.266 256c0 38.637-31.321 69.961-69.957 69.961-38.637 0-69.961-31.324-69.961-69.961s31.324-69.961 69.961-69.961c38.636 0 69.957 31.324 69.957 69.961z" opacity="1" data-original="#43a047" class=""></path><path fill="#851010" d="M403.691 189.926V57.781c0-19.379 15.602-34.98 34.981-34.98s34.98 15.601 34.98 34.98v132.145l-17.492-19.434-17.488 19.434-17.488-19.434z" opacity="1" data-original="#78909c" class=""></path><path fill="#ffffff" d="M310.414 123.855c0 38.637-31.324 69.957-69.961 69.957s-69.961-31.32-69.961-69.957c0-38.64 31.324-69.96 69.961-69.96s69.961 31.32 69.961 69.96z" opacity="1" data-original="#eceff1" class=""></path><path fill="#d83348" d="M240.453 116.883c-4.636 0-6.71-3.275-6.71-6.52 0-3.594 2.45-6.52 5.464-6.52h14.957a7 7 0 1 0 0-14h-6.71V83.93a7 7 0 1 0-14 0v6.83c-7.934 2.593-13.712 10.4-13.712 19.603 0 11.699 8.904 20.52 20.711 20.52 4.636 0 6.711 3.274 6.711 6.52 0 3.594-2.452 6.519-5.465 6.519h-.383c-.283-.035-.57-.059-.863-.059s-.58.024-.863.059h-12.848a7 7 0 1 0 0 14h6.711v5.855a7 7 0 1 0 14 0v-6.772c7.933-2.593 13.711-10.4 13.711-19.603 0-11.698-8.904-20.52-20.71-20.52z" opacity="1" data-original="#90a4ae" class=""></path><path fill="#1e88e5" d="M240.453 341.508h194.332a7.757 7.757 0 0 1 7.774 7.773v132.145a7.76 7.76 0 0 1-7.774 7.773H240.453a7.758 7.758 0 0 1-7.773-7.773V349.281a7.756 7.756 0 0 1 7.773-7.773z" opacity="1" data-original="#1e88e5" class=""></path><path fill="#ffb300" d="M268.773 372.598h52.188a5 5 0 0 1 5 5v28.434a5 5 0 0 1-5 5h-52.188a5 5 0 0 1-5-5v-28.434a5 5 0 0 1 5-5z" opacity="1" data-original="#ffb300" class=""></path><path fill="#1976d2" d="M263.773 465.106a7 7 0 0 1-7-7v-7.774a7 7 0 1 1 14 0v7.774a7 7 0 0 1-7 7zM287.094 465.106a7 7 0 0 1-7-7v-7.774a7 7 0 1 1 14 0v7.774a7 7 0 0 1-7 7zM325.96 465.106a7 7 0 0 1-7-7v-7.774a7 7 0 1 1 14 0v7.774a7 7 0 0 1-7 7zM349.281 465.106a7 7 0 0 1-7-7v-7.774a7 7 0 1 1 14 0v7.774a7 7 0 0 1-7 7zM388.145 465.106a7 7 0 0 1-7-7v-7.774a7 7 0 1 1 14 0v7.774a7 7 0 0 1-7 7zM411.465 465.106a7 7 0 0 1-7-7v-7.774a7 7 0 1 1 14 0v7.774a7 7 0 0 1-7 7zM411.465 379.598h-38.867a7 7 0 1 1 0-14h38.867a7 7 0 1 1 0 14zM411.465 410.691h-15.547a7 7 0 1 1 0-14h15.547a7 7 0 1 1 0 14z" opacity="1" data-original="#1976d2" class=""></path><path fill="#ffffff" d="M201.586 402.918h-77.731a7 7 0 1 1 0-14h77.73a7 7 0 1 1 0 14zM201.586 371.824h-62.184a7 7 0 1 1 0-14h62.184a7 7 0 1 1 0 14zM201.586 465.106h-77.731a7 7 0 1 1 0-14h77.73a7 7 0 1 1 0 14zM357.05 231.906H209.36a7 7 0 1 1 0-14H357.05a7 7 0 1 1 0 14zM357.05 263h-15.542a7 7 0 1 1 0-14h15.543a7 7 0 1 1 0 14zm-85.503 0h-62.188a7 7 0 1 1 0-14h62.188a7 7 0 1 1 0 14zM357.05 294.094h-15.542a7 7 0 1 1 0-14h15.543a7 7 0 1 1 0 14zm-85.503 0h-62.188a7 7 0 1 1 0-14h62.188a7 7 0 1 1 0 14z" opacity="1" data-original="#eceff1" class=""></path><path fill="#e50101" d="M108.31 202.36a7 7 0 0 0-7 7v43.74l-21.272 21.27a7 7 0 0 0 4.95 11.95 6.98 6.98 0 0 0 4.95-2.05l23.32-23.32a7.002 7.002 0 0 0 2.051-4.95v-46.64a7 7 0 0 0-7-7z" opacity="1" data-original="#66bb6a" class=""></path></g></svg>