<svg height="496pt" viewBox="0 -72 496 496" width="496pt" xmlns="http://www.w3.org/2000/svg"><path d="m98.113281 189.867188c-49.769531 0-90.113281 39.917968-90.113281 89.15625v26.167968c0 7.054688 5.78125 12.777344 12.910156 12.777344h154.402344c7.132812 0 12.910156-5.722656 12.910156-12.777344v-26.167968c0-49.238282-40.34375-89.15625-90.109375-89.15625zm0 0" fill="#fdfc5d"/><path d="m175.3125 325.96875h-154.402344c-11.53125 0-20.910156-9.320312-20.910156-20.777344v-26.167968c0-53.570313 44.011719-97.15625 98.113281-97.15625 54.09375 0 98.105469 43.585937 98.105469 97.15625v26.167968c.003906 11.457032-9.375 20.777344-20.90625 20.777344zm-77.199219-128.101562c-45.277343 0-82.113281 36.410156-82.113281 81.15625v26.167968c0 2.632813 2.203125 4.777344 4.910156 4.777344h154.40625c2.707032 0 4.910156-2.144531 4.910156-4.777344v-26.167968c-.003906-44.746094-36.839843-81.15625-82.113281-81.15625zm0 0" fill="#1c7fff"/><path d="m147.648438 115.066406c0-27.066406-22.179688-49.011718-49.535157-49.011718-27.359375 0-49.539062 21.945312-49.539062 49.011718 0 27.070313 22.179687 49.011719 49.539062 49.011719 27.355469 0 49.535157-21.941406 49.535157-49.011719zm0 0" fill="#fff"/><path d="m98.113281 172.078125c-31.730469 0-57.542969-25.574219-57.542969-57.011719 0-31.433594 25.8125-57.007812 57.542969-57.007812 31.726563 0 57.535157 25.578125 57.535157 57.007812 0 31.433594-25.808594 57.011719-57.535157 57.011719zm0-98.023437c-22.910156 0-41.542969 18.398437-41.542969 41.007812 0 22.613281 18.636719 41.015625 41.542969 41.015625 22.902344 0 41.535157-18.398437 41.535157-41.011719 0-22.609375-18.632813-41.011718-41.535157-41.011718zm0 0" fill="#1c7fff"/><path d="m447.425781 107.160156c0-27.070312-22.179687-49.011718-49.539062-49.011718-27.355469 0-49.535157 21.941406-49.535157 49.011718 0 27.070313 22.179688 49.011719 49.535157 49.011719 27.359375 0 49.539062-21.941406 49.539062-49.011719zm0 0" fill="#fff"/><path d="m397.886719 164.171875c-31.726563 0-57.535157-25.574219-57.535157-57.007813 0-31.433593 25.808594-57.011718 57.535157-57.011718 31.730469 0 57.542969 25.574218 57.542969 57.011718s-25.816407 57.007813-57.542969 57.007813zm0-98.019531c-22.902344 0-41.535157 18.398437-41.535157 41.011718 0 22.613282 18.632813 41.007813 41.535157 41.007813 22.910156 0 41.542969-18.394531 41.542969-41.007813 0-22.613281-18.636719-41.011718-41.542969-41.011718zm0 0" fill="#1c7fff"/><path d="m397.886719 183.816406c-49.765625 0-90.109375 39.914063-90.109375 89.15625v26.167969c0 7.054687 5.777344 12.773437 12.910156 12.773437h154.402344c7.128906 0 12.910156-5.71875 12.910156-12.773437v-26.167969c0-49.242187-40.34375-89.15625-90.113281-89.15625zm0 0" fill="#fdfc5d"/><path d="m475.089844 319.914062h-154.402344c-11.53125 0-20.910156-9.316406-20.910156-20.773437v-26.167969c0-53.574218 44.011718-97.15625 98.105468-97.15625 54.105469 0 98.117188 43.582032 98.117188 97.15625v26.167969c0 11.453125-9.378906 20.773437-20.910156 20.773437zm-77.203125-128.097656c-45.269531 0-82.105469 36.40625-82.105469 81.15625v26.167969c0 2.632813 2.203125 4.773437 4.910156 4.773437h154.40625c2.707032 0 4.910156-2.140624 4.910156-4.773437v-26.167969c-.007812-44.75-36.84375-81.15625-82.121093-81.15625zm0 0" fill="#1c7fff"/><path d="m248 163.835938c-69.996094 0-126.738281 56.140624-126.738281 125.394531v36.800781c0 9.925781 8.128906 17.96875 18.160156 17.96875h217.152344c10.03125 0 18.160156-8.042969 18.160156-17.96875v-36.800781c.003906-69.253907-56.738281-125.394531-126.734375-125.394531zm0 0" fill="#25e1bb"/><path d="m356.578125 352h-217.15625c-14.425781 0-26.160156-11.648438-26.160156-25.96875v-36.804688c0-73.554687 60.4375-133.394531 134.738281-133.394531s134.738281 59.839844 134.738281 133.394531v36.804688c0 14.320312-11.734375 25.96875-26.160156 25.96875zm-108.578125-180.164062c-65.472656 0-118.738281 52.664062-118.738281 117.394531v36.804687c0 5.496094 4.558593 9.96875 10.160156 9.96875h217.152344c5.601562 0 10.160156-4.472656 10.160156-9.96875v-36.804687c.003906-64.730469-53.261719-117.394531-118.734375-117.394531zm0 0" fill="#1c7fff"/><path d="m311.160156 73.242188c0-36.03125-29.523437-65.242188-65.941406-65.242188s-65.9375 29.210938-65.9375 65.242188c0 36.035156 29.519531 65.246093 65.9375 65.246093s65.941406-29.210937 65.941406-65.246093zm0 0" fill="#fff"/><path d="m245.21875 146.484375c-40.765625 0-73.9375-32.855469-73.9375-73.246094 0-40.386719 33.167969-73.238281 73.9375-73.238281 40.773438 0 73.941406 32.855469 73.941406 73.242188 0 40.390624-33.171875 73.242187-73.941406 73.242187zm0-130.484375c-31.945312 0-57.9375 25.679688-57.9375 57.242188 0 31.566406 25.992188 57.246093 57.9375 57.246093 31.949219 0 57.941406-25.679687 57.941406-57.246093 0-31.5625-25.992187-57.242188-57.941406-57.242188zm0 0" fill="#1c7fff"/></svg>