<svg enable-background="new 0 0 492 492" height="512" viewBox="0 0 492 492" width="512" xmlns="http://www.w3.org/2000/svg"><g id="Layer_1"><g><ellipse clip-rule="evenodd" cx="246.259" cy="246.739" fill="#e8b586" fill-rule="evenodd" rx="238.017" ry="238.017" transform="matrix(.707 -.707 .707 .707 -102.343 246.399)"/><g clip-rule="evenodd" fill-rule="evenodd"><path d="m61.805 98.322-.638-1.213c.544-.672 1.082-1.349 1.633-2.015z" fill="#e4ab75"/><path d="m8.251 247.473 5.289 9.288-4.04 14.566c-.805-7.844-1.225-15.802-1.249-23.854z" fill="#edc5a0"/><path d="m13.54 256.762-5.289-9.288c-.001-.245-.009-.489-.009-.734 0-3.75.097-7.477.269-11.186z" fill="#ebc097"/><path d="m86.207 422.91 55.808-10.352-6.436 44.934c-17.926-9.434-34.511-21.073-49.372-34.582z" fill="#f3d7bd"/><path d="m63.928 399.718 40.954-160.565 37.134 173.405-55.809 10.352c-7.938-7.217-15.376-14.973-22.279-23.192z" fill="#f1d3b5"/><path d="m104.882 239.153-89.715-49.568c1.393-5.649 2.987-11.218 4.774-16.7l90.146-19.988z" fill="#ecc59e"/><path d="m61.167 97.109.638 1.213-1.831.269c.395-.496.794-.989 1.193-1.482z" fill="#e5ad77"/><path d="m59.974 98.591 1.831-.269-13.337 15.982c3.624-5.399 7.465-10.639 11.506-15.713z" fill="#e8b586"/><path d="m48.468 114.304 13.337-15.982 48.282 54.574-90.146 19.988c6.835-20.953 16.487-40.633 28.527-58.58z" fill="#eabc90"/><path d="m13.54 256.762-5.029-21.208c.73-15.774 3.002-31.143 6.656-45.969l89.715 49.568z" fill="#edc5a0"/><path d="m15.69 306.038 89.192-66.885-40.954 160.565c-22.535-26.831-39.267-58.698-48.238-93.68z" fill="#f0d0b2"/><path d="m9.5 271.327 4.041-14.565 91.342-17.609-89.193 66.885c-2.89-11.27-4.974-22.862-6.19-34.711z" fill="#efccaa"/><path d="m201.426 335.095-96.544-95.942 63.873-18.486z" fill="#f1d2b5"/><path d="m168.755 220.667-58.668-67.771 40.843-70.419z" fill="#ecc39c"/><path d="m104.882 239.153 5.205-86.257 58.668 67.771z" fill="#eecba9"/><path d="m336.599 189.863-47.529-85.378 82.043-60.409c3.425 2.115 6.791 4.315 10.098 6.596z" fill="#eabb8e"/><path d="m61.805 98.322.995-3.228c11.96-14.452 25.596-27.465 40.607-38.747l47.523 26.13z" fill="#e6b07d"/><path d="m110.087 152.896-48.282-54.574 89.125-15.845z" fill="#e9b98c"/><path d="m150.93 82.477-47.523-26.13c14.458-10.865 30.197-20.11 46.943-27.494z" fill="#e5ad77"/><path d="m142.016 412.558-37.134-173.405 96.544 95.942z" fill="#f2d4b9"/><path d="m313.572 312.208-62.377-42.247 85.404-80.098z" fill="#f0d1b3"/><path d="m135.58 457.492 6.436-44.934 43.314 64.314c-17.449-4.612-34.112-11.15-49.75-19.38z" fill="#f3d9c0"/><path d="m251.195 269.961 37.876-165.476 47.528 85.378z" fill="#edc8a5"/><path d="m150.93 82.477-.579-53.624c8.305-3.661 16.855-6.87 25.625-9.578l78.187 16.547z" fill="#e5ad79"/><path d="m201.426 335.095-32.671-114.428 82.44 49.294z" fill="#f1d3b5"/><path d="m261.59 480.324-119.574-67.766 59.41-77.463z" fill="#f3dac2"/><path d="m185.33 476.871-43.314-64.314 119.574 67.766-8.437 4.326c-2.29.065-4.587.106-6.893.106-21.063.001-41.482-2.748-60.93-7.884z" fill="#f3dcc4"/><path d="m251.195 269.961-82.44-49.294 120.316-116.182z" fill="#eecba9"/><path d="m168.755 220.667-17.825-138.19 138.141 22.008z" fill="#ebc097"/><path d="m289.071 104.485-138.141-22.008 103.232-46.655z" fill="#e8b585"/><path d="m253.152 484.649 8.437-4.326 1.871 3.808c-3.417.245-6.853.42-10.308.518z" fill="#f5e1cc"/><path d="m261.59 480.324-60.164-145.229 105.47 118.823z" fill="#f4ddc7"/><path d="m306.896 453.918-105.47-118.823 112.146-22.887z" fill="#f3dac2"/><path d="m263.46 484.132-1.871-3.808 45.306-26.406-2.758 23.736c-13.16 3.288-26.751 5.484-40.677 6.478z" fill="#f6e3d0"/><path d="m201.426 335.095 49.769-65.134 62.377 42.247z" fill="#f2d4b9"/><path d="m289.071 104.485-34.908-68.662 97.405-2.577c6.7 3.311 13.221 6.925 19.546 10.83z" fill="#e6b17e"/><path d="m306.896 453.918 6.676-141.71 69.817 45.774z" fill="#f3dcc4"/><path d="m254.162 35.822-78.187-16.547c3.134-.967 6.299-1.865 9.487-2.705l156.554 12.217c3.222 1.418 6.405 2.904 9.551 4.458z" fill="#e4ab75"/><path d="m416.06 413.508-32.672-55.526 48.273-52.807 6.935 81.77c-6.863 9.4-14.398 18.277-22.536 26.563z" fill="#f3dbc3"/><path d="m383.389 357.982-69.817-45.774 118.09-7.033z" fill="#f3d6bc"/><path d="m431.662 305.175-95.063-115.312 101.588-83.893c3.852 5.243 7.496 10.648 10.917 16.205z" fill="#edc6a2"/><path d="m336.599 189.863 44.612-139.192c21.939 15.129 41.21 33.844 56.975 55.299z" fill="#e9b98c"/><path d="m357.581 457.152-50.686-3.234 76.493-95.936 32.672 55.526c-17.066 17.372-36.774 32.137-58.479 43.644z" fill="#f5e1cc"/><path d="m313.572 312.208 23.027-122.345 95.063 115.312z" fill="#f0d0b2"/><path d="m304.138 477.654 2.758-23.736 50.686 3.234c-16.732 8.87-34.644 15.805-53.444 20.502z" fill="#f7e6d6"/><path d="m282.525 11.467-80.817 1.435c14.434-2.733 29.322-4.181 44.55-4.181 12.331.001 24.442.939 36.267 2.746z" fill="#e3a56a"/><path d="m342.017 28.787-156.555-12.217c5.344-1.407 10.763-2.628 16.246-3.668l80.817-1.435c20.844 3.192 40.795 9.094 59.492 17.32z" fill="#e4aa73"/><path d="m431.662 305.175 17.441-183c21.811 35.441 34.584 77.032 35.134 121.568z" fill="#ecc49d"/><path d="m431.662 305.175 52.576-61.432c.012.999.038 1.994.038 2.995 0 16.115-1.61 31.853-4.663 47.069z" fill="#edc7a3"/><path d="m438.597 386.945-6.935-81.77 35.111 31.268c-7.35 18.044-16.845 34.984-28.176 50.502z" fill="#f3d9c0"/><path d="m466.773 336.443-35.111-31.268 47.95-11.367c-2.963 14.75-7.289 29.006-12.839 42.635z" fill="#f0d1b3"/></g><path d="m246.259 1.292c67.778 0 129.139 27.473 173.557 71.891 44.418 44.417 71.891 105.779 71.891 173.557s-27.473 129.139-71.891 173.556c-44.418 44.418-105.779 71.891-173.557 71.891s-129.139-27.473-173.557-71.891c-44.417-44.418-71.89-105.78-71.89-173.557s27.473-129.139 71.89-173.557c44.418-44.418 105.779-71.89 173.557-71.89zm163.039 82.408c-41.725-41.725-99.368-67.532-163.039-67.532s-121.314 25.807-163.039 67.532-67.532 99.368-67.532 163.039 25.808 121.314 67.532 163.039c41.725 41.724 99.368 67.532 163.039 67.532s121.314-25.807 163.039-67.532 67.532-99.368 67.532-163.039-25.807-121.315-67.532-163.039z" fill="#6e5946"/></g><g><g clip-rule="evenodd" fill="#6e5946" fill-rule="evenodd"><path d="m168.841 346.81c1.569 0 3.125.131 4.658.385v-16.408c-2.595 1.224-5.369 2.015-8.248 2.35v13.902c1.186-.151 2.385-.229 3.59-.229z"/><path d="m206.479 278.416h26.966v25.192h-26.966z"/><path d="m259.076 227.654h26.966v25.192h-26.966z"/><path d="m311.061 268.328v38.146c0 5.859 2.514 11.45 6.897 15.34 3.756 3.338 8.593 5.176 13.621 5.176 11.314 0 20.518-9.204 20.518-20.516v-38.146c0-5.482-2.134-10.634-6.009-14.507-3.876-3.876-9.028-6.011-14.509-6.011-5.028 0-9.864 1.837-13.617 5.172-4.387 3.893-6.901 9.485-6.901 15.346z"/><path d="m323.68 346.81c1.596 0 3.177.134 4.733.396v-14.073c-3.296-.39-6.478-1.387-9.392-2.93v16.993c1.534-.255 3.09-.386 4.659-.386z"/><path d="m351.929 368.993c-.006 0-.012 0-.018 0-1.283 0-2.547.171-3.757.507-1.588.443-3.249-.409-3.818-1.956-2.298-6.245-7.439-11.216-13.75-13.298-2.219-.735-4.54-1.107-6.905-1.107-2.339 0-4.64.365-6.84 1.083 0 0 0 0-.001 0-9.067 2.962-15.159 11.368-15.159 20.915 0 1.326-.827 2.511-2.071 2.97-7.374-.193-13.215 5.027-10.966 12.631h69.703c4.145 0 7.565-3.342 7.633-7.454v-.219c.002-7.749-6.302-14.062-14.051-14.072zm-38.555-.6c-1.084-1.371-.85-3.362.522-4.445l1.074-.849c1.372-1.084 3.362-.849 4.445.522 1.084 1.371.85 3.362-.521 4.445l-1.074.849c-.581.459-1.272.682-1.96.682-.936 0-1.862-.413-2.486-1.204zm6.687 14.146-1.076.85c-.581.459-1.273.682-1.961.682-.935 0-1.86-.412-2.485-1.203-1.084-1.371-.851-3.361.52-4.445l1.076-.85c1.371-1.084 3.361-.851 4.445.52 1.085 1.372.852 3.362-.519 4.446zm19.234-3.715c-.617.868-1.592 1.331-2.582 1.331-.634 0-1.275-.19-1.831-.586l-1.115-.793c-1.425-1.013-1.758-2.989-.746-4.413 1.013-1.424 2.988-1.758 4.413-.745l1.115.793c1.425 1.013 1.759 2.989.746 4.413z"/><path d="m295.512 372.108c1.089-10.248 7.648-19.088 17.181-23.086v-23.472c-5.076-5.023-7.962-11.896-7.962-19.077v-38.146c0-7.18 2.885-14.053 7.962-19.078v-92.389h-132.864v91.318c5.805 5.102 9.105 12.36 9.105 20.149v38.146c0 7.788-3.299 15.045-9.105 20.148v22.4c9.533 3.998 16.092 12.838 17.181 23.086 7.715 1.01 13.692 7.627 13.692 15.614 0 1.016-.098 2.028-.291 3.018h11.572v-55.839c0-1.748 1.417-3.165 3.165-3.165h42.227c1.748 0 3.165 1.417 3.165 3.165v55.84h11.572c-.193-.991-.292-2.002-.292-3.018 0-7.988 5.976-14.605 13.692-15.614zm-42.765-198.381c0-1.748 1.417-3.165 3.165-3.165h33.296c1.748 0 3.165 1.417 3.165 3.165v31.52c0 1.748-1.417 3.165-3.165 3.165h-33.296c-1.748 0-3.165-1.417-3.165-3.165zm0 50.762c0-1.748 1.417-3.165 3.165-3.165h33.296c1.748 0 3.165 1.417 3.165 3.165v31.522c0 1.748-1.417 3.165-3.165 3.165h-33.296c-1.748 0-3.165-1.417-3.165-3.165zm-12.972 82.284c0 1.748-1.417 3.165-3.165 3.165h-33.296c-1.748 0-3.165-1.417-3.165-3.165v-31.522c0-1.748 1.417-3.165 3.165-3.165h33.296c1.748 0 3.165 1.417 3.165 3.165zm0-50.762c0 1.748-1.417 3.165-3.165 3.165h-33.296c-1.748 0-3.165-1.417-3.165-3.165v-31.522c0-1.748 1.417-3.165 3.165-3.165h33.296c1.748 0 3.165 1.417 3.165 3.165zm0-50.764c0 1.748-1.417 3.165-3.165 3.165h-33.296c-1.748 0-3.165-1.417-3.165-3.165v-31.52c0-1.748 1.417-3.165 3.165-3.165h33.296c1.748 0 3.165 1.417 3.165 3.165zm16.136 104.691c-1.748 0-3.165-1.417-3.165-3.165v-31.522c0-1.748 1.417-3.165 3.165-3.165h33.296c1.748 0 3.165 1.417 3.165 3.165v31.522c0 1.748-1.417 3.165-3.165 3.165z"/><path d="m228.312 390.74h35.897v-23.172h-4.809c-1.748 0-3.165-1.417-3.165-3.165s1.417-3.165 3.165-3.165h4.809v-23.172h-35.897z"/><path d="m162.086 326.99c4.628 0 8.994-1.503 12.628-4.346 5.014-3.921 7.89-9.815 7.89-16.17v-38.146c0-6.356-2.876-12.251-7.89-16.171-3.634-2.844-8.001-4.347-12.629-4.347-5.48 0-10.632 2.134-14.505 6.009-3.876 3.875-6.011 9.027-6.011 14.509v38.146c.001 11.313 9.205 20.516 20.517 20.516z"/><path d="m259.076 176.892h26.966v25.19h-26.966z"/><path d="m322.795 150.531-9.283-30.544h-135.046l-8.803 30.544z"/><path d="m194.955 378.304c-.527.005-1.135.133-2.044-.195-1.244-.458-2.071-1.644-2.071-2.97 0-9.548-6.092-17.954-15.159-20.916-2.2-.719-4.501-1.083-6.84-1.083-2.011 0-3.997.27-5.905.801-6.798 1.89-12.312 6.975-14.75 13.604-.569 1.547-2.231 2.397-3.819 1.956-1.21-.337-2.474-.507-3.757-.507-.006 0-.012 0-.017 0-7.75.01-14.053 6.323-14.052 14.073v.219c.069 4.112 3.489 7.454 7.633 7.454h69.703c2.114-5.946-2.596-12.545-8.922-12.436zm-33.784.866-1.116.795c-.557.397-1.199.588-1.834.588-.988 0-1.962-.461-2.58-1.328-1.015-1.423-.683-3.4.74-4.414l1.116-.795c1.423-1.015 3.4-.683 4.414.74 1.015 1.424.684 3.4-.74 4.414zm10.236-11.404c-1.372-1.082-1.607-3.073-.525-4.445 1.083-1.372 3.072-1.607 4.445-.525l1.076.849c1.373 1.082 1.608 3.072.526 4.444-.625.792-1.551 1.206-2.487 1.206-.686 0-1.377-.222-1.958-.68zm8.235 16.741c-.624.791-1.551 1.203-2.486 1.203-.687 0-1.379-.223-1.96-.682l-1.074-.849c-1.372-1.084-1.605-3.074-.521-4.445 1.083-1.371 3.074-1.605 4.445-.522l1.074.849c1.372 1.084 1.605 3.074.522 4.446z"/><path d="m206.479 176.892h26.966v25.19h-26.966z"/><path d="m206.479 227.654h26.966v25.192h-26.966z"/><path d="m259.076 278.416h26.966v25.192h-26.966z"/><path d="m285.76 102.74h10.917v10.917h-10.917z"/></g></g></g></svg>