<svg height="512" viewBox="0 0 96 96" width="512" xmlns="http://www.w3.org/2000/svg"><g id="Real_Estate-2" data-name="Real Estate"><path d="m11.4 80.42a6.11 6.11 0 0 0 -6 4.94 3.77 3.77 0 0 0 -1.57-.36 3.81 3.81 0 0 0 0 7.62h7.57a6.11 6.11 0 1 0 0-12.21z" fill="#2ac58f"/><path d="m9.07 15.47h13.64v22.06h-13.64z" fill="#ffab8a"/><path d="m9.07 15.47v3.17h6.23a2.25 2.25 0 0 1 1.59 3.83l-7.82 7.81v7.25h4.33l9.31-9.31v-12.75z" fill="#ff8867"/><path d="m77.51 48.3v44.33h-68.44v-43.54l34.61-34.6z" fill="#ffb080"/><path d="m73.71 53.36v33.56a1.92 1.92 0 0 1 -1.91 1.91h-57a1.91 1.91 0 0 1 -1.91-1.91v-32.77a8.41 8.41 0 0 1 2.46-5.95l26.33-26.34a2.82 2.82 0 0 1 4 0l25.56 25.55a8.42 8.42 0 0 1 2.47 5.95z" fill="#ffd894"/><path d="m12.87 50.67 30.81-30.81-30.81 30.83z" fill="#ffb080"/><path d="m73.71 49.88v.02l-30.03-30.04z" fill="#ffb080"/><path d="m59.35 44.06h-31.35a1.52 1.52 0 0 1 -1.08-2.6l15.68-15.66a1.52 1.52 0 0 1 2.16 0l15.66 15.66a1.52 1.52 0 0 1 -1.07 2.6z" fill="#fff1ad"/><path d="m46.6 33-2.34-2.34a.82.82 0 0 0 -1.16 0l-2.34 2.34a.82.82 0 0 0 .58 1.4h4.66a.82.82 0 0 0 .6-1.4z" fill="#fff"/><path d="m86.51 49.77-1.76 1.76a2.85 2.85 0 0 1 -4 0l-37-37-37 37a2.85 2.85 0 0 1 -4 0l-1.9-1.76a2.84 2.84 0 0 1 0-4l40.67-40.69a3.06 3.06 0 0 1 4.32 0l3.62 3.62 37.05 37.05a2.84 2.84 0 0 1 0 4.02z" fill="#e66f49"/><path d="m87.29 47.2a1.11 1.11 0 0 1 -1.89.93c-7.21-7.24-40.78-40.79-40.95-41a1.09 1.09 0 0 0 -1.53 0c-.19.19-33.79 33.76-41 41a1.1 1.1 0 0 1 -1.88-.93 2.85 2.85 0 0 1 .77-1.46l40.71-40.66a3.06 3.06 0 0 1 4.32 0l3.63 3.63 37 37a2.87 2.87 0 0 1 .82 1.49z" fill="#ff974e"/><path d="m46.52 59.3h23.76v33.33h-23.76z" fill="#f02f62"/><rect fill="#ff4d6c" height="18.06" rx="1.02" transform="matrix(0 -1 1 0 -18.5 135.29)" width="25.78" x="45.51" y="67.86"/><rect fill="#fff" height="3.85" rx=".55" width="12.37" x="52.21" y="66.85"/><path d="m46.52 59.3h23.76v2.55h-23.76z" fill="#b92053"/><path d="m40.06 59.3v16.12a1.33 1.33 0 0 1 -1.33 1.32h-21.09a1.33 1.33 0 0 1 -1.33-1.32v-16.12z" fill="#cef0fc"/><rect fill="#fffffc" height="14.46" rx="1.01" width="19.96" x="18.21" y="60.79"/><path d="m48.66 54.22h19.47a2.15 2.15 0 0 1 2.15 2.15v2.93a0 0 0 0 1 0 0h-23.76a0 0 0 0 1 0 0v-2.93a2.15 2.15 0 0 1 2.14-2.15z" fill="#e16a3f"/><path d="m50.35 55.84h16.09a1 1 0 0 1 1 1v2.46a0 0 0 0 1 0 0h-18.08a0 0 0 0 1 0 0v-2.47a1 1 0 0 1 .99-.99z" fill="#f5923f"/><path d="m18.45 54.22h19.47a2.15 2.15 0 0 1 2.15 2.15v2.93a0 0 0 0 1 0 0h-23.76a0 0 0 0 1 0 0v-2.93a2.15 2.15 0 0 1 2.14-2.15z" fill="#e16a3f"/><path d="m20.13 55.84h16.1a1 1 0 0 1 1 1v2.46a0 0 0 0 1 0 0h-18.08a0 0 0 0 1 0 0v-2.47a1 1 0 0 1 .98-.99z" fill="#f5923f"/><path d="m27.21 59.3h1.94v17.44h-1.94z" fill="#ff6a4e"/><path d="m27.21 60.79h1.94v14.46h-1.94z" fill="#ff8d67"/><path d="m27.21 66.28h1.94v3.49h-1.94z" fill="#ff6a4e"/><path d="m16.31 67.05h23.75v1.94h-23.75z" fill="#ff6a4e"/><path d="m18.09 67.05h20.17v1.94h-20.17z" fill="#ff8d67"/><rect fill="#ffb585" height="1.94" rx=".97" width="5.43" x="25.47" y="67.05"/><circle cx="52.65" cy="75.96" fill="#405075" r="1.97"/><rect fill="#ff5b49" height="19.17" rx="1.82" transform="matrix(0 1 -1 0 28.08 -3.7)" width="6.54" x="12.62" y="2.61"/><rect fill="#ff7449" height="10.11" rx="1.82" transform="matrix(0 1 -1 0 28.08 -3.7)" width="6.54" x="12.62" y="7.14"/><path d="m32.09 82.57h-7.82a1 1 0 0 1 0-1.93h7.82a1 1 0 1 1 0 1.93z" fill="#fffbc6"/><path d="m11.4 80.42a6.11 6.11 0 0 0 -6 4.94 3.77 3.77 0 0 0 -1.57-.36 3.81 3.81 0 0 0 0 7.62h7.57a6.11 6.11 0 1 0 0-12.21z" fill="#2ac58f"/><path d="m9.07 15.47h13.64v22.06h-13.64z" fill="#ffab8a"/><path d="m9.07 15.47v3.17h6.23a2.25 2.25 0 0 1 1.59 3.83l-7.82 7.81v7.25h4.33l9.31-9.31v-12.75z" fill="#ff8867"/><path d="m77.51 48.3v44.33h-68.44v-43.54l34.61-34.6z" fill="#ffb080"/><path d="m73.71 53.36v33.56a1.92 1.92 0 0 1 -1.91 1.91h-57a1.91 1.91 0 0 1 -1.91-1.91v-32.77a8.41 8.41 0 0 1 2.46-5.95l26.33-26.34a2.82 2.82 0 0 1 4 0l25.56 25.55a8.42 8.42 0 0 1 2.47 5.95z" fill="#ffd894"/><path d="m12.87 50.67 30.81-30.81-30.81 30.83z" fill="#ffb080"/><path d="m73.71 49.88v.02l-30.03-30.04z" fill="#ffb080"/><path d="m59.35 44.06h-31.35a1.52 1.52 0 0 1 -1.08-2.6l15.68-15.66a1.52 1.52 0 0 1 2.16 0l15.66 15.66a1.52 1.52 0 0 1 -1.07 2.6z" fill="#fff1ad"/><path d="m46.6 33-2.34-2.34a.82.82 0 0 0 -1.16 0l-2.34 2.34a.82.82 0 0 0 .58 1.4h4.66a.82.82 0 0 0 .6-1.4z" fill="#fff"/><path d="m86.51 49.77-1.76 1.76a2.85 2.85 0 0 1 -4 0l-37-37-37 37a2.85 2.85 0 0 1 -4 0l-1.9-1.76a2.84 2.84 0 0 1 0-4l40.67-40.69a3.06 3.06 0 0 1 4.32 0l3.62 3.62 37.05 37.05a2.84 2.84 0 0 1 0 4.02z" fill="#e66f49"/><path d="m87.29 47.2a1.11 1.11 0 0 1 -1.89.93c-7.21-7.24-40.78-40.79-40.95-41a1.09 1.09 0 0 0 -1.53 0c-.19.19-33.79 33.76-41 41a1.1 1.1 0 0 1 -1.88-.93 2.85 2.85 0 0 1 .77-1.46l40.71-40.66a3.06 3.06 0 0 1 4.32 0l3.63 3.63 37 37a2.87 2.87 0 0 1 .82 1.49z" fill="#ff974e"/><path d="m46.52 59.3h23.76v33.33h-23.76z" fill="#f02f62"/><rect fill="#ff4d6c" height="18.06" rx="1.02" transform="matrix(0 -1 1 0 -18.5 135.29)" width="25.78" x="45.51" y="67.86"/><rect fill="#fff" height="3.85" rx=".55" width="12.37" x="52.21" y="66.85"/><path d="m46.52 59.3h23.76v2.55h-23.76z" fill="#b92053"/><path d="m40.06 59.3v16.12a1.33 1.33 0 0 1 -1.33 1.32h-21.09a1.33 1.33 0 0 1 -1.33-1.32v-16.12z" fill="#cef0fc"/><rect fill="#fffffc" height="14.46" rx="1.01" width="19.96" x="18.21" y="60.79"/><path d="m48.66 54.22h19.47a2.15 2.15 0 0 1 2.15 2.15v2.93a0 0 0 0 1 0 0h-23.76a0 0 0 0 1 0 0v-2.93a2.15 2.15 0 0 1 2.14-2.15z" fill="#e16a3f"/><path d="m50.35 55.84h16.09a1 1 0 0 1 1 1v2.46a0 0 0 0 1 0 0h-18.08a0 0 0 0 1 0 0v-2.47a1 1 0 0 1 .99-.99z" fill="#f5923f"/><path d="m18.45 54.22h19.47a2.15 2.15 0 0 1 2.15 2.15v2.93a0 0 0 0 1 0 0h-23.76a0 0 0 0 1 0 0v-2.93a2.15 2.15 0 0 1 2.14-2.15z" fill="#e16a3f"/><path d="m20.13 55.84h16.1a1 1 0 0 1 1 1v2.46a0 0 0 0 1 0 0h-18.08a0 0 0 0 1 0 0v-2.47a1 1 0 0 1 .98-.99z" fill="#f5923f"/><path d="m27.21 59.3h1.94v17.44h-1.94z" fill="#ff6a4e"/><path d="m27.21 60.79h1.94v14.46h-1.94z" fill="#ff8d67"/><path d="m27.21 66.28h1.94v3.49h-1.94z" fill="#ff6a4e"/><path d="m16.31 67.05h23.75v1.94h-23.75z" fill="#ff6a4e"/><path d="m18.09 67.05h20.17v1.94h-20.17z" fill="#ff8d67"/><rect fill="#ffb585" height="1.94" rx=".97" width="5.43" x="25.47" y="67.05"/><circle cx="52.65" cy="75.96" fill="#405075" r="1.97"/><rect fill="#ff5b49" height="19.17" rx="1.82" transform="matrix(0 1 -1 0 28.08 -3.7)" width="6.54" x="12.62" y="2.61"/><rect fill="#ff7449" height="10.11" rx="1.82" transform="matrix(0 1 -1 0 28.08 -3.7)" width="6.54" x="12.62" y="7.14"/><path d="m32.09 82.57h-7.82a1 1 0 0 1 0-1.93h7.82a1 1 0 1 1 0 1.93z" fill="#fffbc6"/><path d="m75.24 74.65h5.99v17.98h-5.99z" fill="#ff8d6d"/><path d="m75.24 74.65h5.99v8.99h-5.99z" fill="#ff8d6d"/><rect fill="#2a938f" height="20.85" rx="1.9" width="35.54" x="60.46" y="59.23"/><rect fill="#2ab18f" height="27.54" rx=".82" transform="matrix(0 1 -1 0 147.88 -8.58)" width="12.85" x="71.81" y="55.88"/><g fill="#fff"><path d="m88 74.64h-.85a1 1 0 0 1 -1-1v-7.95a1 1 0 0 1 1-1h.85a5 5 0 0 1 0 10zm.17-7.93v5.88a3 3 0 0 0 0-5.88z"/><path d="m67.09 74.64h-.5a3 3 0 0 1 -2.9-3 1 1 0 0 1 2 0 .92.92 0 0 0 .86 1h.5a1 1 0 0 0 0-1.93h-.5a3 3 0 0 1 0-6h.5a3 3 0 0 1 2.89 3 1 1 0 1 1 -2 0 .93.93 0 0 0 -.86-1h-.5a.93.93 0 0 0 -.86 1 .92.92 0 0 0 .86 1h.5a3 3 0 0 1 0 6z"/><path d="m84 74.64h-3.06a1 1 0 0 1 -1-1v-7.95a1 1 0 0 1 2 0v6.91h2.06a1 1 0 0 1 0 2z"/><path d="m75 74.64a3.16 3.16 0 0 1 -3.15-3.15v-3.67a3.15 3.15 0 0 1 6.3 0v3.67a3.16 3.16 0 0 1 -3.15 3.15zm0-7.94a1.12 1.12 0 0 0 -1.11 1.12v3.67a1.11 1.11 0 0 0 2.22 0v-3.67a1.12 1.12 0 0 0 -1.11-1.12z"/></g></g></svg>