<svg enable-background="new 0 0 492 492" viewBox="0 0 492 492" xmlns="http://www.w3.org/2000/svg"><g id="Master_Layer_2"/><g id="Layer_1"><g><g><g><g><g><g><g><ellipse clip-rule="evenodd" cx="350.272" cy="154.505" fill="#ffd96a" fill-rule="evenodd" rx="74.549" ry="74.549" transform="matrix(.964 -.267 .267 .964 -28.533 99.105)"/></g><g><path clip-rule="evenodd" d="m228.676 368.028h-18.852c-9.055 0-16.395-7.342-16.395-16.397 0-4.526 1.836-8.626 4.803-11.592 2.966-2.966 7.066-4.802 11.592-4.802h18.852 8.688v32.791z" fill="#71c1fa" fill-rule="evenodd"/></g><g><path clip-rule="evenodd" d="m67.703 278.021c-.002-.096-.002-.19-.002-.286.074-6.53 5.493-11.738 12.024-11.738l113.323.079c3.994.002 7.766 1.963 9.951 5.306 1.219 1.865 1.93 4.092 1.93 6.487v11.873h-.003-125.353c-3.278 0-6.247-1.33-8.395-3.478-2.114-2.114-3.437-5.025-3.475-8.243z" fill="#71c1fa" fill-rule="evenodd"/></g><g><path clip-rule="evenodd" d="m228.676 368.028v37.111c0 4.63-3.754 8.383-8.381 8.383h-144.211c-4.627 0-8.381-3.754-8.381-8.383v-127.118c.038 3.218 1.361 6.13 3.475 8.244 2.148 2.148 5.117 3.478 8.395 3.478h125.352.002 15.367c4.627 0 8.381 3.754 8.381 8.383v37.111h-18.852c-4.526 0-8.626 1.836-11.592 4.802-2.967 2.966-4.803 7.066-4.803 11.592 0 9.055 7.339 16.397 16.395 16.397z" fill="#adddff" fill-rule="evenodd"/></g></g></g></g></g><g><g><g><g><path clip-rule="evenodd" d="m220.294 419.282h-144.21c-7.798 0-14.142-6.344-14.142-14.142v-127.267c0-3.181 2.579-5.761 5.76-5.761s5.76 2.577 5.76 5.758v127.27c0 1.446 1.176 2.622 2.622 2.622h144.21c1.446 0 2.622-1.176 2.622-2.622v-37.115c0-3.181 2.579-5.76 5.76-5.76s5.76 2.579 5.76 5.76v37.115c0 7.798-6.344 14.142-14.142 14.142z" fill="#333" fill-rule="evenodd"/></g><g><path clip-rule="evenodd" d="m228.675 340.997c-3.181 0-5.76-2.579-5.76-5.76v-37.111c0-1.447-1.176-2.624-2.621-2.624h-15.366c-3.181 0-5.761-2.579-5.761-5.76s2.578-5.76 5.759-5.76h15.369c7.798 0 14.141 6.345 14.141 14.144v37.111c-.001 3.181-2.58 5.76-5.761 5.76z" fill="#333" fill-rule="evenodd"/></g><g><path clip-rule="evenodd" d="m204.926 295.503h-125.353c-4.709 0-9.137-1.834-12.468-5.165-3.383-3.383-5.217-7.882-5.164-12.667.107-9.613 8.085-17.434 17.783-17.434l113.327.077h.001c6.01.005 11.53 2.965 14.766 7.915 1.875 2.868 2.867 6.202 2.867 9.639v11.873c.001 3.183-2.577 5.762-5.759 5.762zm-125.205-23.745c-3.413 0-6.223 2.71-6.26 6.042-.018 1.66.617 3.22 1.79 4.393 1.155 1.155 2.69 1.791 4.322 1.791h119.593v-6.113c0-1.193-.342-2.346-.989-3.336-1.104-1.688-3.023-2.697-5.135-2.699z" fill="#333" fill-rule="evenodd"/></g><g><g><path clip-rule="evenodd" d="m237.363 373.787h-27.54c-12.216 0-22.155-9.938-22.155-22.155 0-12.216 9.938-22.155 22.155-22.155h27.54c3.181 0 5.76 2.579 5.76 5.76v32.789c0 3.182-2.579 5.761-5.76 5.761zm-27.54-32.789c-5.864 0-10.635 4.771-10.635 10.635s4.77 10.635 10.635 10.635h21.78v-21.269z" fill="#333" fill-rule="evenodd"/></g></g></g></g><g><g><g><path clip-rule="evenodd" d="m350.272 193.863c-9.527 0-18.174-4.644-22.567-12.119-1.612-2.743-.695-6.273 2.048-7.884 2.742-1.612 6.272-.695 7.884 2.048 2.297 3.909 7.257 6.435 12.635 6.435 7.675 0 13.92-4.952 13.92-11.039s-6.245-11.039-13.92-11.039c-6.626 0-12.896-2.237-17.655-6.299-5.02-4.285-7.784-10.06-7.784-16.26s2.765-11.975 7.784-16.26c4.759-4.062 11.029-6.299 17.655-6.299 9.89 0 18.956 5.132 23.096 13.073 1.471 2.821.376 6.3-2.445 7.77-2.821 1.471-6.3.376-7.77-2.445-2.178-4.178-7.235-6.878-12.881-6.878-7.675 0-13.919 4.952-13.919 11.039s6.244 11.039 13.919 11.039c6.626 0 12.897 2.237 17.655 6.299 5.02 4.285 7.785 10.06 7.785 16.26s-2.765 11.975-7.785 16.26c-4.759 4.062-11.029 6.299-17.655 6.299z" fill="#333" fill-rule="evenodd"/></g><g><path clip-rule="evenodd" d="m350.273 204.655c-3.181 0-5.76-2.579-5.76-5.76v-10.794c0-3.181 2.579-5.76 5.76-5.76s5.76 2.579 5.76 5.76v10.794c0 3.182-2.579 5.76-5.76 5.76z" fill="#333" fill-rule="evenodd"/></g><g><path clip-rule="evenodd" d="m350.273 126.665c-3.181 0-5.76-2.579-5.76-5.76v-10.79c0-3.181 2.579-5.76 5.76-5.76s5.76 2.579 5.76 5.76v10.79c0 3.181-2.579 5.76-5.76 5.76z" fill="#333" fill-rule="evenodd"/></g></g><g><path clip-rule="evenodd" d="m350.272 234.814c-10.839 0-21.357-2.124-31.261-6.313-9.564-4.045-18.152-9.835-25.525-17.209-7.374-7.374-13.163-15.961-17.209-25.525-4.189-9.905-6.313-20.423-6.313-31.261 0-10.839 2.124-21.357 6.313-31.261 4.045-9.564 9.835-18.152 17.209-25.525s15.961-13.163 25.525-17.209c9.905-4.189 20.422-6.313 31.261-6.313s21.357 2.124 31.262 6.313c9.564 4.045 18.152 9.835 25.525 17.209s13.163 15.961 17.209 25.525c4.189 9.905 6.313 20.423 6.313 31.261 0 10.839-2.124 21.357-6.313 31.261-4.045 9.564-9.835 18.152-17.209 25.525s-15.962 13.163-25.525 17.209c-9.906 4.189-20.423 6.313-31.262 6.313zm0-149.098c-37.93 0-68.789 30.859-68.789 68.789s30.858 68.789 68.789 68.789c37.93 0 68.789-30.858 68.789-68.789s-30.859-68.789-68.789-68.789z" fill="#333" fill-rule="evenodd"/></g></g><g><g><path clip-rule="evenodd" d="m314.803 348.613c-1.605 0-3.203-.668-4.341-1.972l-12.012-13.759c-1.895-2.17-1.895-5.406 0-7.576l12.012-13.76c2.092-2.397 5.731-2.643 8.127-.551s2.643 5.731.551 8.127l-8.705 9.972 8.705 9.971c2.092 2.396 1.845 6.035-.551 8.127-1.092.953-2.442 1.421-3.786 1.421z" fill="#333" fill-rule="evenodd"/></g><g><path clip-rule="evenodd" d="m337.695 334.854h-34.906c-3.181 0-5.76-2.579-5.76-5.76s2.579-5.76 5.76-5.76h34.906c3.474 0 6.3-2.826 6.3-6.3v-28.367c0-3.181 2.579-5.76 5.76-5.76s5.76 2.579 5.76 5.76v28.367c0 9.826-7.994 17.82-17.82 17.82z" fill="#333" fill-rule="evenodd"/></g></g><g><g><path clip-rule="evenodd" d="m188 184.691c-1.344 0-2.694-.467-3.786-1.421-2.396-2.092-2.643-5.731-.551-8.127l8.705-9.971-8.705-9.972c-2.092-2.396-1.845-6.035.551-8.127s6.035-1.845 8.127.551l12.012 13.76c1.895 2.17 1.895 5.406 0 7.576l-12.012 13.759c-1.138 1.304-2.735 1.972-4.341 1.972z" fill="#333" fill-rule="evenodd"/></g><g><path clip-rule="evenodd" d="m153.049 211.358c-3.181 0-5.76-2.579-5.76-5.76v-28.367c0-9.826 7.994-17.82 17.82-17.82h34.906c3.181 0 5.76 2.579 5.76 5.76s-2.579 5.76-5.76 5.76h-34.906c-3.474 0-6.3 2.826-6.3 6.3v28.367c0 3.182-2.579 5.76-5.76 5.76z" fill="#333" fill-rule="evenodd"/></g></g></g></g></g></g></svg>