<svg xmlns="http://www.w3.org/2000/svg" version="1.1" xmlns:xlink="http://www.w3.org/1999/xlink" width="512" height="512" x="0" y="0" viewBox="0 0 512 512" style="enable-background:new 0 0 512 512" xml:space="preserve" class=""><g><g fill-rule="evenodd"><path fill="#4276de" d="M180.945 30.042a6.97 6.97 0 0 1-4.375-13.235 250.37 250.37 0 0 1 39.126-9.577A253.74 253.74 0 0 1 256 4c69.587 0 132.587 28.206 178.19 73.81C479.793 123.413 508 186.414 508 256c0 33.026-6.375 64.603-17.964 93.566a251.774 251.774 0 0 1-38.981 65.97l8.374-2.467a6.983 6.983 0 0 1 3.938 13.398l-32.157 9.472a6.983 6.983 0 0 1-8.858-7.847h-.002l5.635-33.259a6.986 6.986 0 0 1 13.781 2.297l-1.647 9.719a237.881 237.881 0 0 0 36.956-62.478C487.993 317.084 494 287.262 494 256c0-65.723-26.639-125.224-69.708-168.292C381.223 44.639 321.723 18 256 18c-13.068 0-25.798 1.03-38.117 3.011a236.305 236.305 0 0 0-36.938 9.031zm-80.794 21.581 8.716-.215c-30.111 21.695-55.243 49.88-73.347 82.51C15.437 170.116 4 211.742 4 256c0 69.587 28.207 132.587 73.81 178.19S186.413 508 256 508c9.22 0 18.416-.511 27.555-1.506a251.436 251.436 0 0 0 27.146-4.477 6.973 6.973 0 0 0-3.007-13.617 237.482 237.482 0 0 1-25.615 4.204A241.084 241.084 0 0 1 256.001 494c-65.723 0-125.223-26.639-168.292-69.708S18.001 321.722 18.001 256c0-41.865 10.782-81.175 29.716-115.301 17.138-30.889 40.956-57.566 69.504-78.087l-4.114 8.98a6.975 6.975 0 0 0 12.687 5.797l13.989-30.531a6.975 6.975 0 0 0-6.446-10.008l-33.513.827a6.976 6.976 0 0 0 .328 13.946z" opacity="1" data-original="#909cd1" class=""></path><path fill="#749ae9" d="m305.529 113.602 60.762 60.762c3.607 3.482 5.708 7.797 5.709 12.883v216.86H140V107.893h152.646c5.087 0 9.4 2.102 12.883 5.709z" opacity="1" data-original="#e3f1ff" class=""></path><path fill="#b6dbff" d="m358.584 166.657 7.707 7.707c3.607 3.482 5.709 7.797 5.709 12.883v216.86h-8.905V179.685c0-3.649-1.055-12.787-17.084-13.028z" opacity="1" data-original="#b6dbff" class=""></path><path fill="#047af1" d="m306.036 114.109 59.747 59.747c-3.659-3.535-8.633-5.715-14.102-5.715h-39.93v-39.93c0-5.469-2.18-10.443-5.715-14.102z" opacity="1" data-original="#61a0e0" class=""></path><path fill="#acc9e7" d="m306.036 114.109 47.555 47.555a20.154 20.154 0 0 0-8.796-2.01H311.75v-31.443c0-5.469-2.18-10.443-5.715-14.102z" opacity="1" data-original="#7cb5ef" class=""></path></g><path fill="#dea368" d="m251.536 363.744 30.935-30.935 107.34 107.34-30.936 30.934z" opacity="1" data-original="#dea368" class=""></path><path fill="#6d7dbc" fill-rule="evenodd" d="M239.098 320.303c8.508-8.508 22.431-8.508 30.939 0l12.504 12.504-30.939 30.939-12.504-12.504c-8.509-8.508-8.509-22.431 0-30.939z" opacity="1" data-original="#495586" class=""></path><path fill="#e6b17c" d="m251.535 363.742 20.286-20.286 107.34 107.34-20.287 20.286z" opacity="1" data-original="#e6b17c" class=""></path><path fill="#3b477f" fill-rule="evenodd" d="m251.602 363.746-12.504-12.504c-6.64-6.64-8.098-16.576-4.375-24.664 8.088-3.723 18.025-2.265 24.664 4.374l12.504 12.504z" opacity="1" data-original="#5d689e" class=""></path><path fill="#f9ac00" d="m251.538 363.736 30.935-30.935 21.505 21.506-30.934 30.935z" opacity="1" data-original="#f9ac00" class=""></path><path fill="#fcdb35" d="m251.537 363.738 20.286-20.287 21.506 21.506-20.287 20.287z" opacity="1" data-original="#fcdb35" class=""></path><path fill="#6d7dbc" fill-rule="evenodd" d="m389.898 440.163 28.712 56.636c.446.88.283 1.903-.415 2.601s-1.72.861-2.601.415l-56.636-28.712z" opacity="1" data-original="#495586" class=""></path><path fill="#3b477f" fill-rule="evenodd" d="m400.109 491.964-41.151-20.862 20.29-20.289z" opacity="1" data-original="#5d689e" class=""></path><rect width="82.5" height="34.501" x="175.293" y="146.198" fill="#2a92fa" rx="3.92" opacity="1" data-original="#2a92fa" class=""></rect><rect width="73.312" height="34.501" x="175.293" y="146.198" fill="#8fc2e9" rx="3.92" opacity="1" data-original="#4eb1fc" class=""></rect><path fill="#4276de" fill-rule="evenodd" d="M175.293 366.198a7 7 0 1 1 0-14h30.744a7 7 0 1 1 0 14zm0-145.876a7 7 0 1 1 0-14h161.413a7 7 0 1 1 0 14zm0 34.876a7 7 0 1 1 0-14h161.413a7 7 0 1 1 0 14zm0 34.875a7 7 0 1 1 0-14h161.413a7 7 0 1 1 0 14z" opacity="1" data-original="#909cd1" class=""></path></g></svg>