<svg id="Layer_1" enable-background="new 0 0 512 512" viewBox="0 0 512 512" xmlns="http://www.w3.org/2000/svg"><g><g><g><path d="m152.7 156.8h-23.2c-7.3 0-7.3-11.1 0-11.2h23.2c3.6 0 6.6-2.9 6.6-6.6v-6.7c0-3.6-2.9-6.6-6.6-6.6h-11c-9.8 0-17.7-7.9-17.7-17.7v-6.7c0-9.8 7.9-17.7 17.7-17.7h23.2c7.3 0 7.3 11.1 0 11.2h-23.2c-3.6 0-6.6 2.9-6.6 6.6v6.7c0 3.6 2.9 6.6 6.6 6.6h11c9.8 0 17.7 7.9 17.7 17.7v6.7c0 9.8-7.9 17.7-17.7 17.7z"/></g><g><path d="m147.2 165.4c-3.1 0-5.6-2.5-5.6-5.6v-79.1c0-3.1 2.5-5.6 5.6-5.6s5.6 2.5 5.6 5.6v79.1c-.1 3.1-2.6 5.6-5.6 5.6z"/></g></g><g><path d="m82 77.5v44.9h-81.2v-44.9c1.9-53.7 79.4-53.7 81.2 0z" fill="#f5c26d"/></g><g><path d="m397.1 77.5v51.1l-17.7-13.4c-2.2 1.6-121.6 92.2-127.2 96.4-5 3.8-6 11-2.2 16s10.9 6 16 2.2l17.2-13v152.1h-17.7v20.8h-102.4v44.9c-1.8 53.7-79.3 53.8-81.2 0v-357c.1-22.6-18.1-40.7-40.5-40.7h315.1c22.4 0 40.6 18.2 40.6 40.6z" fill="#fbe7aa"/></g><g><path d="m397.2 128.6-109.5 82.9c-2.1 1.3-2.7 3.8-4.6 5.1 0 0-17.2 13-17.2 13-12.1 8.8-25.6-8.9-13.8-18.2 5.6-4.2 125.2-94.8 127.3-96.4z" fill="#254e74"/></g><g><path d="m508.9 227.6c-3.9 4.9-11 6-16 2.2l-17.2-13-14.8-11.2c-12.9-9.8-69.6-52.8-81.4-61.7-17.6 13.4-77.6 58.7-95.1 72 .7-1.6 1.9-3.1 3.4-4.2l109.5-82.9c15.3 11.6 55.6 42.2 70.3 53.3l39.1 29.7c4.9 3.5 6 10.7 2.2 15.8z" fill="#5374a9"/></g><g><path d="m393.3 154.2c-11 8.3-73 55.3-82.4 62.5v152.1h-27.7v-152.1c18.2-13.8 77.9-59 96.2-72.9z" fill="#c7dae8"/></g><g><path d="m475.6 216.7v152.1h-164.7v-152.1c9.1-6.9 71.8-54.4 82.4-62.5 11 8.3 72.9 55.3 82.3 62.5z" fill="#e4edf1"/></g><g><path d="m265.4 368.8h228v20.7h-228z" fill="#254e74"/></g><g><path d="m310.9 250.7h68.5v16.3h-68.5z" fill="#5374a9"/></g><g><path d="m310.9 267h68.5v100.9h-68.5z" fill="#fff"/></g><g><g><path d="m363.3 324.4c-3.1 0-5.6-2.5-5.6-5.6v-7.6c0-3.1 2.5-5.6 5.6-5.6s5.6 2.5 5.6 5.6v7.6c0 3.1-2.5 5.6-5.6 5.6z" fill="#5374a9"/></g></g><g><path d="m437.8 116.5h11.2v23h-11.2z" fill="#254e74"/></g><g><path d="m449 116.5h25.8v23h-25.8z" fill="#5374a9"/></g><g><path d="m467.5 139.5v42.4l-22.3-16.9v-25.5z" fill="#c7dae8"/></g><g><path d="m466.3 389.5v44.9c0 11.3-4.5 21.4-11.9 28.7s-17.5 11.8-28.7 11.8h-303.1c22.4 0 40.6-18.1 40.6-40.6v-44.9h303.1z" fill="#f5c26d"/></g><g><g><path d="m129.5 205h89.7c3.1 0 5.6-2.5 5.6-5.6s-2.5-5.6-5.6-5.6h-89.7c-7.2 0-7.3 11.1 0 11.2z" fill="#fff"/></g><g><path d="m129.5 252.8h89.7c3.1 0 5.6-2.5 5.6-5.6s-2.5-5.6-5.6-5.6h-89.7c-7.2.1-7.3 11.2 0 11.2z" fill="#fff"/></g><g><path d="m129.5 300.7h128.4c7.3 0 7.3-11.1 0-11.2h-128.4c-7.2.1-7.3 11.2 0 11.2z" fill="#fff"/></g><g><path d="m257.9 337.5h-128.4c-7.3 0-7.3 11.1 0 11.2h128.4c7.2-.1 7.3-11.2 0-11.2z" fill="#fff"/></g></g></g></svg>