<svg id="Layer_1" viewBox="0 0 512 512" xmlns="http://www.w3.org/2000/svg" xmlns:xlink="http://www.w3.org/1999/xlink" data-name="Layer 1"><linearGradient id="linear-gradient" gradientUnits="userSpaceOnUse" x1="256" x2="256" y1="501" y2="11"><stop offset="0" stop-color="#1751ff"/><stop offset="1" stop-color="#5cc5ff"/></linearGradient><path d="m344.876 11-114.072 48.763v404.226h34.729v-84.972l-8.037.765c-3.288.31-6.205-2.103-6.515-5.391s2.103-6.205 5.391-6.516l61.812-5.883c3.288-.311 6.205 2.103 6.516 5.391.31 3.288-2.103 6.205-5.391 6.515l-9.161.872v89.218h148.801v-404.225zm-69.323 313.552-21.562 2.064v-41.662l21.562-3.325zm.007-67.675-21.568 4.052v-41.762l21.568-5.316zm0-67.709-21.568 6.041v-41.762l21.568-7.305zm0-67.744-21.568 7.998v-39.015l21.575-9.248zm46.129 198.733-24.297 2.329v-44.272l24.297-3.753zm0-72.004-24.297 4.573v-44.237l24.297-5.996v45.659zm0-71.968-24.297 6.815v-44.272l24.297-8.239zm0-71.968-24.297 9.057-.007-41.463 24.303-10.427v42.833zm57.706 288.784c0 3.314-2.686 6-6 6s-6-2.686-6-6v-329.594c0-3.314 2.686-6 6-6s6 2.686 6 6v329.596zm28.518 0c0 3.314-2.686 6-6 6s-6-2.686-6-6v-317.403c0-3.314 2.687-6 6-6s6 2.687 6 6v317.405zm28.518 0c0 3.314-2.686 6-6 6s-6-2.686-6-6v-305.212c0-3.314 2.686-6 6-6s6 2.686 6 6v305.214zm-264.593-264.235-118.786 50.778v284.445h37.086v-65.972l-8.037.765c-3.288.31-6.205-2.103-6.515-5.391s2.103-6.205 5.391-6.515l61.812-5.883c3.288-.31 6.205 2.103 6.516 5.391.31 3.288-2.103 6.205-5.391 6.516l-9.161.872v70.218h84.052v-315.147zm-75.857 207.873-17.549 2.403v-33.78l17.549-3.605zm0-55.061-17.549 4.316v-33.781l17.549-5.517zm.006-55.082-17.554 6.207v-31.55l17.56-7.396-.005 32.739zm38.155 104.874-20.211 2.785v-36.177l20.211-4.171zm0-59.215-20.211 4.979v-36.199l20.211-6.387zm0-59.237-20.217 7.196v-33.9l20.217-8.567zm-122.588 263.071h488.892v25.011h-488.892z" fill="url(#linear-gradient)" fill-rule="evenodd"/></svg>