<svg xmlns="http://www.w3.org/2000/svg" version="1.1" xmlns:xlink="http://www.w3.org/1999/xlink" width="512" height="512" x="0" y="0" viewBox="0 0 512 512" style="enable-background:new 0 0 512 512" xml:space="preserve" class=""><g><path fill="#80dcc2" d="M488 488H160a56 56 0 0 1-56-56V88a56 56 0 0 0-56-56h328a56 56 0 0 1 56 56v344a56 56 0 0 0 56 56z" opacity="1" data-original="#e9eef2" class=""></path><path fill="#b5dcbd" d="M296 488H56V344l120-80 120 80z" opacity="1" data-original="#dadcde" class=""></path><path fill="#2ecb78" d="m24 344 16 24 144-96 144 96 16-24-160-112z" opacity="1" data-original="#3397e8" class=""></path><path fill="#2ecb78" d="M176 344h16a24 24 0 0 1 24 24v120h-64V368a24 24 0 0 1 24-24zM88 376h32v32H88z" opacity="1" data-original="#3397e8" class=""></path><path fill="#ad9087" d="M144 72h248v32H144z" opacity="1" data-original="#d0d2d4" class=""></path><circle cx="344" cy="400" r="80" fill="#ffd33a" opacity="1" data-original="#ffd33a"></circle><path fill="#ffb632" d="M344 312a88 88 0 1 0 88 88 88.105 88.105 0 0 0-88-88zm0 160a72 72 0 1 1 72-72 72.084 72.084 0 0 1-72 72z" opacity="1" data-original="#ffb632"></path><path fill="#ffb632" d="M368 416a24.022 24.022 0 0 1-16 22.62V448a8 8 0 0 1-16 0v-8h-8a8 8 0 0 1 0-16h16a8 8 0 0 0 0-16 24 24 0 0 1-8-46.62V352a8 8 0 0 1 16 0v8h8a8 8 0 0 1 0 16h-16a8 8 0 0 0 0 16 24.032 24.032 0 0 1 24 24z" opacity="1" data-original="#ffb632"></path><g fill="#d0d2d4"><path d="M384 128H152a8 8 0 0 0 0 16h232a8 8 0 0 0 0-16zM384 160H152a8 8 0 0 0 0 16h232a8 8 0 0 0 0-16zM384 192H152a8 8 0 0 0 0 16h232a8 8 0 0 0 0-16zM384 224H272a8 8 0 0 0 0 16h112a8 8 0 0 0 0-16z" fill="#ad9087" opacity="1" data-original="#d0d2d4" class=""></path></g></g></svg>