<svg id="Layer_1" enable-background="new 0 0 512 512" height="512" viewBox="0 0 512 512" width="512" xmlns="http://www.w3.org/2000/svg"><g><path d="m477.95 279.16h-83.54v-22.46c0-1.47-.4-2.85-1.1-4.03v-66.37l40.4 29.45c2.26 1.64 5.42 1.15 7.07-1.1l22.42-30.66c1.65-2.26 1.16-5.43-1.1-7.08l-227.02-165.55c-1.78-1.3-4.19-1.3-5.96 0l-59.21 43.17v-23.4c0-2.79-2.27-5.06-5.06-5.06h-79.72c-2.79 0-5.06 2.27-5.06 5.06v25.31c0 2.79 2.27 5.06 5.06 5.06h8.32v48.77l-91.37 66.64c-2.26 1.65-2.75 4.82-1.1 7.08l22.42 30.66c1.65 2.25 4.81 2.75 7.07 1.1l40.43-29.47v232.09c0 3.2 2.27 5.79 5.06 5.79h275.76v61.45h-18.53c-4.42 0-8 3.58-8 8s3.58 8 8 8h79.8c4.42 0 8-3.58 8-8s-3.58-8-8-8h-18.56v-61.55h83.54c18.78 0 34.05-15.26 34.05-34.02v-76.87c-.02-18.75-15.3-34.01-34.07-34.01z" fill="#e1effb"/><path d="m229.12 11.36-227.04 165.55c-2.26 1.65-2.75 4.82-1.1 7.08l22.42 30.66c1.65 2.25 4.81 2.75 7.07 1.1l201.64-147 201.61 147c2.26 1.64 5.42 1.15 7.07-1.1l22.42-30.66c1.65-2.26 1.16-5.43-1.1-7.08l-227.03-165.55c-1.77-1.29-4.18-1.29-5.96 0z" fill="#ff4c4c"/><path d="m462.1 176.91-7.64-5.57-13.68 18.71c-1.65 2.25-4.81 2.75-7.07 1.1l-201.61-147-201.64 147c-2.26 1.64-5.42 1.15-7.07-1.1l-13.67-18.71-7.64 5.57c-2.26 1.65-2.75 4.82-1.1 7.08l22.42 30.66c1.65 2.25 4.81 2.75 7.07 1.1l201.64-147 201.61 147c2.26 1.64 5.42 1.15 7.07-1.1l22.42-30.66c1.64-2.26 1.15-5.43-1.11-7.08z" fill="#f33939"/><path d="m93.46 61.51v48.77l66.89-48.77z" fill="#de9252"/><path d="m85.13 61.51h75.22l9.57-6.97v-23.4c0-2.79-2.27-5.06-5.06-5.06h-79.73c-2.79 0-5.06 2.27-5.06 5.06v25.31c0 2.79 2.27 5.06 5.06 5.06z" fill="#f1ba84"/><path d="m477.95 279.16h-83.54v-22.46c0-4.42-3.58-8-8-8h-26.7c-4.42 0-8 3.58-8 8v22.46h-83.54c-18.78 0-34.05 15.26-34.05 34.02v76.87c0 18.76 15.28 34.02 34.05 34.02h83.54v61.55h-18.53c-4.42 0-8 3.58-8 8s3.58 8 8 8h26.53 26.7 26.56c4.42 0 8-3.58 8-8s-3.58-8-8-8h-18.56v-61.55h83.54c18.78 0 34.05-15.26 34.05-34.02v-76.87c0-18.76-15.28-34.02-34.05-34.02z" fill="#ff4c4c"/><path d="m268.17 424.06c-18.78 0-34.05-15.26-34.05-34.02v-76.87c0-18.76 15.28-34.02 34.05-34.02h19.81v-22.48c0-2.79-2.27-5.06-5.06-5.06h-101.64c-2.79 0-5.06 2.27-5.06 5.06v167.48h40.3 71.46v-.1h-19.81z" fill="#f1ba84"/><g fill="#de9252"><path d="m238.66 256.68v39.56c5.89-10.2 16.91-17.08 29.51-17.08h19.81v-22.48c0-2.79-2.27-5.06-5.06-5.06h-49.32c2.8 0 5.06 2.26 5.06 5.06z"/><path d="m268.17 424.06c-12.61 0-23.63-6.88-29.51-17.08v17.18h49.32v-.1z"/></g><path d="m362.16 248.69h24.26c2.95 0 5.51 1.6 6.9 3.97v-66.36l-161.22-117.54-15.58 11.36 145.64 106.18z" fill="#ccdfed"/><path d="m477.95 279.16h-15.2c18.78 0 34.05 15.26 34.05 34.02v76.87c0 18.76-15.28 34.02-34.05 34.02h15.2c18.78 0 34.05-15.26 34.05-34.02v-76.87c0-18.76-15.28-34.02-34.05-34.02z" fill="#f33939"/><g><path d="m412.98 501.61h-79.8c-4.42 0-8-3.58-8-8s3.58-8 8-8h79.8c4.42 0 8 3.58 8 8s-3.59 8-8 8z" fill="#2d5871"/></g><path d="m394.41 279.16v-22.46c0-4.42-3.58-8-8-8h-26.7c-4.42 0-8 3.58-8 8v22.46z" fill="#f1ba84"/><path d="m386.41 248.69h-21.35c4.42 0 8 3.58 8 8v22.46h21.35v-22.46c0-4.41-3.58-8-8-8z" fill="#de9252"/><path d="m351.71 424.06h42.7v61.55h-42.7z" fill="#f1ba84"/><path d="m373.06 424.06h21.35v61.55h-21.35z" fill="#de9252"/><g fill="#eceff1"><path d="m459.89 359.59c4.42 0 8-3.58 8-8s-3.58-8-8-8h-15.56v-7.78h15.56c4.42 0 8-3.58 8-8s-3.58-8-8-8h-23.56c-4.42 0-8 3.58-8 8v47.59c0 4.42 3.58 8 8 8h23.56c4.42 0 8-3.58 8-8s-3.58-8-8-8h-15.56v-7.81z"/><path d="m359.6 324.82c-1.22-3.03-4.15-5.01-7.42-5.01-3.26 0-6.2 1.98-7.42 5.01l-19.19 47.59c-1.65 4.1.33 8.76 4.43 10.41.98.39 1.99.58 2.99.58 3.17 0 6.17-1.89 7.42-5.01l1.92-4.76h19.67l1.91 4.76c1.65 4.1 6.31 6.08 10.41 4.43s6.08-6.31 4.43-10.41zm-10.82 32.81 3.39-8.42 3.39 8.42z"/><path d="m417.54 367.4h-15.58v-39.59c0-4.42-3.58-8-8-8s-8 3.58-8 8v47.59c0 4.42 3.58 8 8 8h23.58c4.42 0 8-3.58 8-8s-3.58-8-8-8z"/><path d="m300.86 343.59c-3.07-.03-6.65-.89-6.64-3.22.01-1.76 1.88-4.56 6.85-4.56 4.03 0 6.91.76 7.92 2.08 2.68 3.51 7.7 4.19 11.21 1.52 3.52-2.68 4.19-7.7 1.52-11.21-4.24-5.57-11.19-8.39-20.65-8.39-14.24 0-22.8 10.42-22.85 20.49-.04 9.19 6.98 19.14 22.48 19.29 3.08.03 6.67.9 6.66 3.25-.01 1.76-1.88 4.56-6.86 4.56-4.02 0-6.89-.75-7.87-2.06-2.66-3.53-7.68-4.23-11.2-1.57-3.53 2.66-4.23 7.68-1.57 11.2 4.21 5.59 11.16 8.42 20.64 8.42 14.24 0 22.8-10.41 22.86-20.47.05-9.19-6.96-19.16-22.5-19.33z"/></g></g></svg>