<svg id="Flat" height="512" viewBox="0 0 64 64" width="512" xmlns="http://www.w3.org/2000/svg"><rect fill="#98694b" height="2" rx="1" width="32" x="28" y="59"/><g fill="#4b5f69"><path d="m55.447 55.658-1.789.895 2.947 5.894a1 1 0 0 0 .9.553 1 1 0 0 0 .894-1.447z"/><path d="m32.553 55.658-2.947 5.895a1 1 0 0 0 .894 1.447 1 1 0 0 0 .895-.553l2.947-5.894z"/><path d="m49.764 6h6.472v2h-6.472z" transform="matrix(.447 -.894 .894 .447 23.037 51.274)"/><path d="m34 3.764h2v6.472h-2z" transform="matrix(.894 -.447 .447 .894 .565 16.391)"/></g><rect fill="#8b92ef" height="4" rx="2" width="28" x="30" y="1"/><path d="m58 3h-24a2 2 0 0 0 -2 2h24a2 2 0 0 0 2-2z" fill="#7175eb"/><path d="m29 9h30a4 4 0 0 1 4 4v32a8 8 0 0 1 -8 8h-22a8 8 0 0 1 -8-8v-32a4 4 0 0 1 4-4z" fill="#8b92ef" transform="matrix(-1 0 0 -1 88 62)"/><path d="m35 12a7 7 0 0 0 -7 7v30a4 4 0 0 0 4 4h27a4 4 0 0 0 4-4v-29a8 8 0 0 0 -8-8z" fill="#7175eb"/><path d="m40 39a1 1 0 0 0 -1 1v8a1 1 0 0 0 2 0v-8a1 1 0 0 0 -1-1z" fill="#8b92ef"/><path d="m44 39a1 1 0 0 0 -1 1v8a1 1 0 0 0 2 0v-8a1 1 0 0 0 -1-1z" fill="#8b92ef"/><path d="m48 39a1 1 0 0 0 -1 1v8a1 1 0 0 0 2 0v-8a1 1 0 0 0 -1-1z" fill="#8b92ef"/><path d="m25 19h17.5a0 0 0 0 1 0 0v16a0 0 0 0 1 0 0h-11.5a6 6 0 0 1 -6-6v-10a0 0 0 0 1 0 0z" fill="#d9faff"/><path d="m28 19v15.177a5.923 5.923 0 0 0 3 .823h11.5v-16z" fill="#c2f4ff"/><path d="m57 35h-11.5v-16h17.5v10a6 6 0 0 1 -6 6z" fill="#c2f4ff"/><path d="m29 53h30a0 0 0 0 1 0 0v2a2 2 0 0 1 -2 2h-26a2 2 0 0 1 -2-2v-2a0 0 0 0 1 0 0z" fill="#60727d"/><path d="m29 53h30v2h-30z" fill="#4b5f69"/><path d="m48 13h-8a1 1 0 0 0 0 2h8a1 1 0 0 0 0-2z" fill="#efffff"/><rect fill="#ffd254" height="6" rx="3" width="7" x="52" y="42"/><rect fill="#ffd254" height="6" rx="3" transform="matrix(-1 0 0 -1 65 90)" width="7" x="29" y="42"/><path d="m1 47h18v16h-18z" fill="#889aa5"/><path d="m3 49h16v14h-16z" fill="#748691"/><path d="m1 1h18v4h-18z" fill="#60727d"/><path d="m3 3v2h7.548a15 15 0 0 0 -7.548 13 1 1 0 0 0 2 0 13.015 13.015 0 0 1 13-13h1v-2z" fill="#4b5f69"/><path d="m-18 24h42v4h-42z" fill="#d9faff" transform="matrix(0 -1 1 0 -23 29)"/><path d="m-17 25h42v2h-42z" fill="#c2f4ff" transform="matrix(0 -1 1 0 -22 30)"/></svg>