<svg xmlns="http://www.w3.org/2000/svg" version="1.1" xmlns:xlink="http://www.w3.org/1999/xlink" width="512" height="512" x="0" y="0" viewBox="0 0 512 512" style="enable-background:new 0 0 512 512" xml:space="preserve" class=""><g><path fill="#ffbb9b" d="M256 390.82c51.66 0 93.69-42.03 93.69-93.69s-42.03-93.69-93.69-93.69-93.69 42.03-93.69 93.69 42.03 93.69 93.69 93.69zm-5.38-158.75c0-3.31 2.69-6 6-6s6 2.69 6 6v95.11c0 3.31-2.69 6-6 6s-6-2.69-6-6zm0 123.61c0-3.31 2.69-6 6-6s6 2.69 6 6v6.51c0 3.31-2.69 6-6 6s-6-2.69-6-6zM489.95 336.87c-14.85 15.41-38.97 24.76-59.98 22.39 5.25 20.92-1.12 46.62-14.93 63.2 41.55-6.9 73.53-42.45 74.92-85.59zM490 113.8c0-10.79-8.78-19.58-19.58-19.58h-26.85v15.45c0 10.98-8.93 19.91-19.91 19.91s-19.91-8.93-19.91-19.91V94.22h-74.01v15.45c0 10.98-8.93 19.91-19.91 19.91s-19.91-8.93-19.91-19.91V94.22h-74.01v15.45c0 10.98-8.93 19.91-19.91 19.91s-19.91-8.93-19.91-19.91V94.22h-74.01v15.45c0 10.98-8.93 19.91-19.91 19.91s-19.91-8.93-19.91-19.91V94.22H41.57c-10.79 0-19.58 8.78-19.58 19.58v44.79H490z" opacity="1" data-original="#9bc8ff" class=""></path><g fill="#59a4ff"><path d="M256.62 333.18c3.31 0 6-2.69 6-6v-95.11c0-3.31-2.69-6-6-6s-6 2.69-6 6v95.11c0 3.31 2.69 6 6 6z" fill="#d47171" opacity="1" data-original="#59a4ff" class=""></path><path d="M256 402.82c58.28 0 105.69-47.41 105.69-105.69S314.28 191.44 256 191.44s-105.69 47.41-105.69 105.69S197.72 402.82 256 402.82zm0-199.38c51.66 0 93.69 42.03 93.69 93.69s-42.03 93.69-93.69 93.69-93.69-42.03-93.69-93.69 42.03-93.69 93.69-93.69z" fill="#d47171" opacity="1" data-original="#59a4ff" class=""></path><path d="M256.62 368.2c3.31 0 6-2.69 6-6v-6.51c0-3.31-2.69-6-6-6s-6 2.69-6 6v6.51c0 3.31 2.69 6 6 6z" fill="#d47171" opacity="1" data-original="#59a4ff" class=""></path><path d="M41.58 465.14h428.84c17.41 0 31.58-14.17 31.58-31.58V113.8c0-17.41-14.17-31.58-31.58-31.58h-26.85V66.77c0-10.98-8.93-19.91-19.91-19.91s-19.91 8.93-19.91 19.91v15.45h-74.01V66.77c0-10.98-8.93-19.91-19.91-19.91s-19.91 8.93-19.91 19.91v15.45h-74.01V66.77c0-10.98-8.93-19.91-19.91-19.91s-19.91 8.93-19.91 19.91v15.45h-74.01V66.77c0-10.98-8.93-19.91-19.91-19.91s-19.91 8.93-19.91 19.91v15.45H41.57c-17.41 0-31.58 14.17-31.58 31.58v319.76c0 17.41 14.17 31.58 31.58 31.58zM415.76 66.77c0-4.36 3.55-7.91 7.91-7.91s7.91 3.55 7.91 7.91v42.91c0 4.36-3.55 7.91-7.91 7.91s-7.91-3.55-7.91-7.91zm-113.83 0c0-4.36 3.55-7.91 7.91-7.91s7.91 3.55 7.91 7.91v42.91c0 4.36-3.55 7.91-7.91 7.91s-7.91-3.55-7.91-7.91zm-113.83 0c0-4.36 3.55-7.91 7.91-7.91s7.91 3.55 7.91 7.91v42.91c0 4.36-3.55 7.91-7.91 7.91s-7.91-3.55-7.91-7.91zm-113.83 0c0-4.36 3.55-7.91 7.91-7.91s7.91 3.55 7.91 7.91v42.91c0 4.36-3.55 7.91-7.91 7.91s-7.91-3.55-7.91-7.91zM22 113.8c0-10.79 8.78-19.58 19.58-19.58h20.69v15.45c0 10.98 8.93 19.91 19.91 19.91s19.91-8.93 19.91-19.91V94.22h74.01v15.45c0 10.98 8.93 19.91 19.91 19.91s19.91-8.93 19.91-19.91V94.22h74.01v15.45c0 10.98 8.93 19.91 19.91 19.91s19.91-8.93 19.91-19.91V94.22h74.01v15.45c0 10.98 8.93 19.91 19.91 19.91s19.91-8.93 19.91-19.91V94.22h26.85c10.79 0 19.58 8.78 19.58 19.58v44.79H22zm0 56.79h468v144.83c-8.74 22.38-44.3 38.27-67.47 29.91-2.32-.84-4.92-.17-6.55 1.69s-1.95 4.53-.81 6.72c5.38 10.35 6.12 25.04 1.98 39.3-3.99 13.75-12.02 25.08-21.63 30.64H50.91c-15.94 0-28.91-12.97-28.91-28.91zm407.96 188.67c21.02 2.37 45.14-6.98 59.98-22.39-1.38 43.14-33.37 78.69-74.92 85.59 13.82-16.58 20.19-42.28 14.93-63.2zM22 423.69c7.41 7.4 17.63 11.99 28.91 11.99h349.37c38.79 0 72.57-21.82 89.72-53.83v51.71c0 10.79-8.78 19.58-19.58 19.58H41.58c-10.79 0-19.58-8.78-19.58-19.58z" fill="#d47171" opacity="1" data-original="#59a4ff" class=""></path></g></g></svg>