<svg xmlns="http://www.w3.org/2000/svg" xmlns:xlink="http://www.w3.org/1999/xlink" width="300" zoomAndPan="magnify" viewBox="0 0 224.87999 225" height="300" preserveAspectRatio="xMidYMid meet" version="1.0"><defs><clipPath id="11e9c8c9c3"><path d="M 14.308594 42.824219 L 210.703125 42.824219 L 210.703125 182.25 L 14.308594 182.25 Z M 14.308594 42.824219 " clip-rule="nonzero"/></clipPath></defs><g clip-path="url(#11e9c8c9c3)"><path fill="#000000" d="M 48.382812 88.207031 L 48.382812 172.371094 L 30.851562 172.371094 L 30.851562 175.671875 C 37.761719 175.671875 44.671875 175.671875 51.582031 175.671875 L 51.582031 90.167969 L 128.214844 47.46875 L 128.214844 65.824219 L 64.472656 101.304688 L 64.472656 175.671875 L 99.542969 175.671875 L 99.542969 85.527344 L 128.214844 69.539062 L 128.214844 175.671875 L 194.019531 175.671875 L 194.019531 172.371094 L 176.589844 172.371094 L 176.589844 89.34375 L 129.863281 42.824219 Z M 210.417969 178.867188 L 14.449219 178.867188 L 14.449219 182.167969 C 79.738281 182.167969 145.128906 182.167969 210.417969 182.167969 Z M 131.515625 49.015625 L 173.289062 90.683594 L 173.289062 172.371094 L 131.515625 172.371094 Z M 96.242188 172.371094 L 67.773438 172.371094 L 67.773438 103.265625 L 96.242188 87.382812 Z M 96.242188 172.371094 " fill-opacity="1" fill-rule="evenodd"/></g><path fill="#ffc00c" d="M 134.710938 56.957031 L 134.710938 169.171875 L 169.988281 169.171875 L 169.988281 92.023438 Z M 134.710938 56.957031 " fill-opacity="1" fill-rule="evenodd"/></svg>