<svg id="Capa_1" enable-background="new 0 0 512 512" height="512" viewBox="0 0 512 512" width="512" xmlns="http://www.w3.org/2000/svg"><g><g><path d="m462 502h-220c-22.091 0-40-17.909-40-40v-220c0-22.091 17.909-40 40-40h220c22.091 0 40 17.909 40 40v220c0 22.091-17.909 40-40 40z" fill="#ffda8f"/><path d="m310 50v152h-68c-22.091 0-40 17.909-40 40v68h-152c-22.091 0-40-17.909-40-40v-220c0-22.091 17.909-40 40-40h220c22.091 0 40 17.909 40 40z" fill="#9de3d1"/></g><g><path d="m508.069 222.54c-4.585-10.9-14.258-21.469-26.609-26.61-6.16-2.6-12.71-3.93-19.46-3.93h-142v-142c0-27.57-22.43-50-50-50h-220c-27.57 0-50 22.43-50 50v220c0 27.57 22.43 50 50 50h142v142c0 6.75 1.32 13.3 3.93 19.46 4.579 10.899 14.26 21.468 26.61 26.61 6.16 2.61 12.71 3.93 19.46 3.93h220c6.75 0 13.3-1.32 19.46-3.93 10.901-4.579 21.46-14.26 26.609-26.61 2.601-6.16 3.931-12.71 3.931-19.46v-65.57c0-5.52-4.49-10-10-10s-9.99 4.48-10 9.98v.02 65.57c-.03 16.51-13.49 29.97-30 30h-220c-16.51-.03-29.97-13.49-30-30v-220c.03-16.51 13.49-29.97 30-30h220c16.51.03 29.97 13.49 30 30v64.43c0 5.51 4.49 10 10 10s10-4.49 10-10v-64.43c0-6.75-1.33-13.3-3.931-19.46zm-208.069-30.54h-58c-6.75 0-13.3 1.33-19.46 3.93-3.828 1.618-7.395 3.688-10.677 6.175 0 0-39.838-104.176-39.876-104.268-1.985-4.762-6.607-7.837-11.778-7.837-.004 0-.009 0-.013 0-5.176.005-9.798 3.09-11.776 7.86-.031.076-45.75 118.539-45.75 118.539-1.988 5.153.577 10.941 5.729 12.93 1.184.457 2.401.673 3.598.673 4.014 0 7.8-2.434 9.332-6.402l8.901-23.066h59.62l7.359 19.244c-.45.907-.883 1.824-1.279 2.762-2.61 6.16-3.93 12.71-3.93 19.46v58h-142c-16.542 0-30-13.458-30-30v-220c0-16.542 13.458-30 30-30h220c16.542 0 30 13.458 30 30zm-117.797-11.465h-44.253l22.228-57.599z"/><circle cx="502" cy="351.43" r="10"/><path d="m302 372c0 27.57 22.43 50 50 50s50-22.43 50-50c0-5.523-4.478-10-10-10s-10 4.477-10 10c0 16.542-13.458 30-30 30s-30-13.458-30-30 13.458-30 30-30c5.522 0 10-4.477 10-10s-4.478-10-10-10c-5.514 0-10-4.486-10-10s4.486-10 10-10h10c5.522 0 10-4.477 10-10s-4.478-10-10-10h-10c-16.542 0-30 13.458-30 30 0 6.164 1.868 11.899 5.069 16.67-14.973 8.648-25.069 24.831-25.069 43.33z"/></g></g></svg>