<svg height="512" viewBox="0 0 59 59" width="512" xmlns="http://www.w3.org/2000/svg"><g id="Page-1" fill="none" fill-rule="evenodd"><g id="059---Book-Hotel-Room" fill-rule="nonzero" transform="translate(0 -1)"><path id="Rectangle-path" d="m27 24h26v12h-26z" fill="#5d4c72"/><path id="Shape" d="m53 17h2c.5522847 0 1 .4477153 1 1v25h-4v-25c0-.5522847.4477153-1 1-1z" fill="#ca8152"/><path id="Shape" d="m47 24v4c0 1.6568542-1.3431458 3-3 3h-16v-7z" fill="#884b9c"/><path id="Shape" d="m46 20h6v4h-8v-2c0-1.1045695.8954305-2 2-2z" fill="#945ba4"/><path id="Shape" d="m58 44h-30c-.5522847 0-1-.4477153-1-1s.4477153-1 1-1h30c.5522847 0 1 .4477153 1 1s-.4477153 1-1 1z" fill="#efc319"/><path id="Shape" d="m14.808 14.634c-.4598048.0006967-.8608264-.312245-.9718997-.7584329s.0964313-.9106151.5028997-1.1255671l21.733-11.514c.5836679-.31914243 1.2904294-.31574272 1.871.009l20.525 10.871c.3158228.1672003.5184548.4901892.5315665.8472999s-.1652889.6940896-.468.884-.6837437.2039004-.9995665.0367001l-20.54-10.884-21.718 11.518c-.1434145.0764417-.3034855.1162877-.466.116z" fill="#efc319"/><path id="Shape" d="m28 15v42c0 1.6568542-1.3431458 3-3 3h-22c-.43232887.001008-.85941334-.0946589-1.25-.28-1.0675871-.4834989-1.75248944-1.5480328-1.75-2.72v-42c0-1.6568542 1.34314575-3 3-3h22c1.6568542 0 3 1.3431458 3 3z" fill="#8fb9e0"/><path id="Shape" d="m1.75 59.72c-1.0675871-.4834989-1.75248944-1.5480328-1.75-2.72v-42c0-1.6568542 1.34314575-3 3-3h18.38c.62 9.99.19 36.08-19.63 47.72z" fill="#afd2ef"/><path id="Shape" d="m46 6.64v-3.64c0-.55228475.4477153-1 1-1h4c.5522847 0 1 .44771525 1 1v6.82z" fill="#f19b1f"/><path id="Shape" d="m22 12-2.1 2.8c-.5665631.7554175-1.4557281 1.2-2.4 1.2h-7c-.94427191 0-1.83343685-.4445825-2.4-1.2l-2.1-2.8z" fill="#3b96d2"/><rect id="Rectangle-path" fill="#e54c3c" height="6" rx="3" width="18" x="5" y="46"/><path id="Shape" d="m23 25v4h-18v-4c.0032948-1.1032019.89679813-1.9967052 2-2h14c1.1032019.0032948 1.9967052.8967981 2 2z" fill="#e54c3c"/><path id="Shape" d="m23 29v10c-.0032948 1.1032019-.8967981 1.9967052-2 2h-14c-1.10320187-.0032948-1.9967052-.8967981-2-2v-10z" fill="#ebeff0"/><path id="Shape" d="m9 26c-.55228475 0-1-.4477153-1-1v-4c0-.5522847.44771525-1 1-1s1 .4477153 1 1v4c0 .5522847-.44771525 1-1 1z" fill="#3f5c6c"/><path id="Shape" d="m19 26c-.5522847 0-1-.4477153-1-1v-4c0-.5522847.4477153-1 1-1s1 .4477153 1 1v4c0 .5522847-.4477153 1-1 1z" fill="#3f5c6c"/><path id="Shape" d="m13 38c-.2651948-.0000566-.5195073-.1054506-.707-.293l-1-1c-.3789722-.3923789-.3735524-1.0160848.0121814-1.4018186s1.0094397-.3911536 1.4018186-.0121814l.185.185 2.308-3.078c.2143594-.2858125.5649147-.4355547.9196152-.3928203.3547006.0427344.6596589.2714531.8.6.1403412.3285469.0947442.7070078-.1196152.9928203l-3 4c-.1734159.2328327-.4394571.3788086-.729.4z" fill="#4fb96f"/><path id="Shape" d="m28 53v4c0 1.6568542-1.3431458 3-3 3h-22c-1.65685425 0-3-1.3431458-3-3v-4c0 1.6568542 1.34314575 3 3 3h22c1.6568542 0 3-1.3431458 3-3z" fill="#3b96d2"/></g></g></svg>