<svg height="512" viewBox="0 0 512 512" width="512" xmlns="http://www.w3.org/2000/svg"><g id="Flat"><path d="m256 90.667-133.545-22.258a22.72 22.72 0 0 0 -26.455 22.411v189.18h160z" fill="#fbbe1f"/><path d="m160 264-40-32h-48v48h88z" fill="#85bb40"/><path d="m264 16h16v48h-16z" fill="#0093b9"/><path d="m248 48h48v64h-48z" fill="#85bb40"/><path d="m216 88h112v72h-112z" fill="#0093b9"/><path d="m184 488v-360h176v334.144a25.856 25.856 0 0 1 -25.856 25.856z" fill="#85bb40"/><path d="m480.667 381.221c0 11.412-15.574 20.2-18.891 30.5-3.437 10.673 3.917 26.991-2.5 35.875-6.477 8.972-24.187 6.931-33.087 13.461-8.811 6.465-12.322 24.111-22.909 27.577-10.214 3.343-23.3-8.743-34.617-8.743s-24.4 12.086-34.619 8.743c-10.586-3.466-14.1-21.112-22.909-27.577-8.9-6.53-26.609-4.49-33.086-13.462-6.413-8.884.941-25.2-2.5-35.874-3.317-10.3-18.89-19.09-18.89-30.5s15.573-20.2 18.89-30.5c3.437-10.673-3.917-26.991 2.5-35.875 6.478-8.972 24.187-6.931 33.087-13.461 8.812-6.465 12.323-24.111 22.909-27.577 10.215-3.343 23.3 8.743 34.618 8.743s24.4-12.086 34.618-8.742c10.586 3.465 14.1 21.111 22.909 27.577 8.9 6.53 26.61 4.489 33.087 13.461 6.412 8.884-.942 25.2 2.5 35.875 3.316 10.294 18.89 19.086 18.89 30.499z" fill="#ed5749"/><circle cx="368.667" cy="381.221" fill="#e4e4e3" r="64"/><path d="m336.666 373.22h64v16.001h-64z" fill="#ed5749" transform="matrix(.707 -.707 .707 .707 -161.583 372.343)"/><path d="m383.294 395.848h16.001v16h-16.001z" fill="#ed5749" transform="matrix(.707 -.707 .707 .707 -170.956 394.971)"/><path d="m338.039 350.593h16.001v16h-16.001z" fill="#ed5749" transform="matrix(.707 -.707 .707 .707 -152.211 349.716)"/><path d="m48 264h176v224h-176z" fill="#0093b9"/><path d="m240 160h16v16h-16z" fill="#7ba03f"/><path d="m312 224h16v16h-16z" fill="#7ba03f"/><path d="m264 264h16v16h-16z" fill="#7ba03f"/><path d="m256 216h16v16h-16z" fill="#fbbe1f"/><path d="m304 168h16v16h-16z" fill="#fbbe1f"/><path d="m72 296h32v16h-32z" fill="#067a98"/><path d="m72 328h32v16h-32z" fill="#fbbe1f"/><g fill="#067a98"><path d="m72 360h32v16h-32z"/><path d="m72 392h32v16h-32z"/><path d="m72 424h32v16h-32z"/><path d="m120 296h32v16h-32z"/><path d="m120 328h32v16h-32z"/></g><path d="m120 360h32v16h-32z" fill="#fbbe1f"/><path d="m120 392h32v16h-32z" fill="#fbbe1f"/><path d="m120 424h32v16h-32z" fill="#067a98"/><path d="m168 296h32v16h-32z" fill="#fbbe1f"/><path d="m168 328h32v16h-32z" fill="#067a98"/><path d="m168 360h32v16h-32z" fill="#067a98"/><path d="m168 392h32v16h-32z" fill="#067a98"/><path d="m168 424h32v16h-32z" fill="#fbbe1f"/><path d="m208 200h16v16h-16z" fill="#fbbe1f"/><path d="m128 96h16v16h-16z" fill="#f79726"/><path d="m120 184h16v16h-16z" fill="#f79726"/><path d="m144 144h16v16h-16z" fill="#e8732d"/><path d="m224 264 16 16v208h-16z" fill="#85b140"/><path d="m184 128-16 16v120h16z" fill="#f7aa23"/></g></svg>