<svg id="Layer_1" enable-background="new 0 0 66 66" height="512" viewBox="0 0 66 66" width="512" xmlns="http://www.w3.org/2000/svg"><g><g><g><path d="m50.92 12.56v40.88c0 5.69-4.5 10.3-10.05 10.3h-28.43c-5.55 0-10.05-4.61-10.05-10.3v-33.36c0-.99.14-1.97.41-2.9.49-1.73 1.43-3.31 2.73-4.57l8.38-7.93c1.23-1.05 2.67-1.79 4.23-2.15.73-.17 1.48-.26 2.24-.26h20.49c5.55 0 10.05 4.61 10.05 10.29z" fill="#f9f9fc"/></g></g><g><g><path d="m50.92 49.14v4.3c0 5.69-4.5 10.3-10.05 10.3h-28.43c-5.55 0-10.05-4.61-10.05-10.3v-33.36c0-.99.14-1.97.41-2.9.49-1.73 1.43-3.31 2.73-4.57l8.38-7.93c1.23-1.05 2.67-1.79 4.23-2.15.73-.17 1.48-.26 2.24-.26h2.15c-2.28 5.22-3.6 11.49-3.6 18.23 0 18.15 9.6 32.88 21.46 32.88 3.83-.01 7.42-1.54 10.53-4.24z" fill="#eaebec"/></g></g><g><g><path d="m17.13 2.83v8.87c0 2.3-1.69 4.21-3.86 4.48-.07.01-.15.02-.23.03-.11.01-.22.01-.33.01h-9.58c.53-1.35 1.35-2.58 2.4-3.6l4.81-4.55 3.57-3.38c.95-.83 2.05-1.45 3.22-1.86z" fill="#96d046"/></g></g><g><g><path d="m13.27 16.17c-.07.01-.15.02-.23.03-.11.01-.22.01-.33.01h-9.58c.53-1.35 1.35-2.58 2.4-3.6l4.81-4.55c-.04.31-.05.63-.05.95 0 2.8 1.15 5.36 2.98 7.16z" fill="#7ebd2d"/></g></g><g><g><path d="m40.87 64.46h-28.43c-5.94 0-10.77-4.94-10.77-11.01v-33.37c0-1.07.15-2.11.44-3.1.1-.35.21-.7.35-1.04.56-1.42 1.44-2.76 2.57-3.85l8.39-7.94c1.03-.9 2.19-1.56 3.47-2.01.41-.15.76-.25 1.1-.33.78-.18 1.59-.28 2.4-.28h20.49c5.94 0 10.77 4.94 10.77 11.01v40.88c-.01 6.09-4.84 11.04-10.78 11.04zm-20.49-61.47c-.7 0-1.4.08-2.08.24-.28.06-.58.15-.93.28-1.11.39-2.11.97-2.99 1.72l-8.36 7.91c-.97.94-1.74 2.1-2.23 3.34-.12.3-.22.6-.31.91-.25.86-.38 1.77-.38 2.69v33.36c0 5.28 4.19 9.57 9.33 9.57h28.44c5.14 0 9.33-4.29 9.33-9.57v-40.88c0-5.28-4.19-9.57-9.33-9.57z" fill="#2f2c39"/></g></g><g><g><path d="m12.71 16.94h-9.58c-.24 0-.46-.12-.59-.31-.13-.2-.16-.45-.08-.67.56-1.43 1.45-2.76 2.57-3.86l8.39-7.94c1.03-.9 2.19-1.56 3.47-2.01.22-.08.47-.04.65.09.19.14.3.35.3.59v8.87c0 2.64-1.93 4.87-4.49 5.19l-.23.03c-.14.02-.28.02-.41.02zm-8.46-1.44h8.46c.09 0 .17 0 .25-.01l.2-.03c1.86-.23 3.24-1.85 3.24-3.77v-7.79c-.72.35-1.4.8-2.02 1.33l-8.36 7.91c-.71.69-1.31 1.49-1.77 2.36z" fill="#2f2c39"/></g></g><g><g><g><path d="m44.96 10.8v4.96c0 .79-.63 1.43-1.4 1.43h-15.92c-.77 0-1.4-.64-1.4-1.43v-4.96c0-.79.63-1.43 1.4-1.43h15.93c.76 0 1.39.64 1.39 1.43z" fill="#68bfd4"/></g></g><g><g><path d="m44.96 14.84v.91c0 .79-.63 1.43-1.4 1.43h-15.92c-.78 0-1.4-.64-1.4-1.43v-4.95c0-.79.62-1.43 1.4-1.43h2.35c-.18.29-.27.59-.27.89 0 2.27 8.36 4.17 15.24 4.58z" fill="#55a6c4"/></g></g><g><g><path d="m43.56 17.9h-15.92c-1.17 0-2.12-.96-2.12-2.15v-4.95c0-1.19.95-2.15 2.12-2.15h15.93c1.17 0 2.12.96 2.12 2.15v4.96c-.01 1.18-.96 2.14-2.13 2.14zm-15.92-7.81c-.37 0-.68.32-.68.71v4.96c0 .39.3.71.68.71h15.93c.37 0 .68-.32.68-.71v-4.96c0-.39-.3-.71-.68-.71z" fill="#2f2c39"/></g></g></g><g><g><g><g><path d="m18.03 23.11v5.74c0 .88-.69 1.59-1.55 1.59h-5.6c-.86 0-1.55-.71-1.55-1.59v-5.74c0-.88.69-1.59 1.55-1.59h5.6c.85 0 1.55.71 1.55 1.59z" fill="#fece36"/></g></g><g><g><path d="m18.03 27.51v1.33c0 .88-.69 1.59-1.55 1.59h-5.61c-.86 0-1.55-.71-1.55-1.59v-5.74c0-.88.69-1.59 1.55-1.59h1.25c-.04.23-.06.48-.06.72 0 2.95 2.33 5.33 5.21 5.33.26.01.51-.01.76-.05z" fill="#f6b623"/></g></g><g><g><path d="m16.48 31.15h-5.6c-1.25 0-2.27-1.04-2.27-2.31v-5.74c0-1.27 1.02-2.31 2.27-2.31h5.6c1.25 0 2.27 1.04 2.27 2.31v5.74c0 1.28-1.02 2.31-2.27 2.31zm-5.6-8.91c-.46 0-.83.39-.83.87v5.74c0 .48.37.87.83.87h5.6c.46 0 .83-.39.83-.87v-5.74c0-.48-.37-.87-.83-.87z" fill="#2f2c39"/></g></g><g><g><g><path d="m42.29 24.45h-18.66c-.4 0-.72-.32-.72-.72s.32-.72.72-.72h18.66c.4 0 .72.32.72.72 0 .39-.33.72-.72.72z" fill="#2f2c39"/></g></g><g><g><path d="m34.46 28.94h-10.83c-.4 0-.72-.32-.72-.72s.32-.72.72-.72h10.84c.4 0 .72.32.72.72-.01.4-.33.72-.73.72z" fill="#2f2c39"/></g></g></g></g><g><g><path d="m13.32 27.78c-.02 0-.04 0-.06 0-.19-.02-.37-.11-.5-.26l-.85-1.05c-.25-.31-.2-.76.11-1.01s.76-.2 1.01.11l.38.47 1.27-1.1c.3-.26.76-.23 1.02.07s.23.76-.07 1.02l-1.84 1.59c-.13.1-.3.16-.47.16z" fill="#2f2c39"/></g></g></g><g><g><g><g><path d="m18.03 36.79v5.74c0 .88-.69 1.59-1.55 1.59h-5.6c-.86 0-1.55-.71-1.55-1.59v-5.74c0-.88.69-1.59 1.55-1.59h5.6c.85 0 1.55.71 1.55 1.59z" fill="#f6304a"/></g></g><g><g><path d="m18.03 41.49v1.03c0 .88-.69 1.59-1.55 1.59h-5.61c-.86 0-1.55-.71-1.55-1.59v-5.74c0-.88.69-1.59 1.55-1.59h.64c-.19.53-.29 1.1-.29 1.69 0 2.76 2.2 5.01 4.9 5.01.68.01 1.32-.14 1.91-.4z" fill="#e31f34"/></g></g><g><g><path d="m16.48 44.83h-5.6c-1.25 0-2.27-1.04-2.27-2.31v-5.74c0-1.27 1.02-2.31 2.27-2.31h5.6c1.25 0 2.27 1.04 2.27 2.31v5.74c0 1.28-1.02 2.31-2.27 2.31zm-5.6-8.91c-.46 0-.83.39-.83.87v5.74c0 .48.37.87.83.87h5.6c.46 0 .83-.39.83-.87v-5.74c0-.48-.37-.87-.83-.87z" fill="#2f2c39"/></g></g><g><g><g><path d="m37.87 38.13h-14.24c-.4 0-.72-.32-.72-.72s.32-.72.72-.72h14.24c.4 0 .72.32.72.72 0 .39-.33.72-.72.72z" fill="#2f2c39"/></g></g><g><g><path d="m34.46 42.62h-10.83c-.4 0-.72-.32-.72-.72s.32-.72.72-.72h10.84c.4 0 .72.32.72.72-.01.4-.33.72-.73.72z" fill="#2f2c39"/></g></g></g></g></g><g><g><g><g><path d="m18.03 49.87v5.74c0 .88-.69 1.59-1.55 1.59h-5.6c-.86 0-1.55-.71-1.55-1.59v-5.74c0-.88.69-1.59 1.55-1.59h5.6c.85 0 1.55.71 1.55 1.59z" fill="#f6304a"/></g></g><g><g><path d="m18.03 54.57v1.03c0 .88-.69 1.59-1.55 1.59h-5.61c-.86 0-1.55-.71-1.55-1.59v-5.74c0-.88.69-1.59 1.55-1.59h.64c-.19.53-.29 1.1-.29 1.69 0 2.76 2.2 5.01 4.9 5.01.68.01 1.32-.14 1.91-.4z" fill="#e31f34"/></g></g><g><g><path d="m16.48 57.91h-5.6c-1.25 0-2.27-1.04-2.27-2.31v-5.74c0-1.27 1.02-2.31 2.27-2.31h5.6c1.25 0 2.27 1.04 2.27 2.31v5.74c0 1.28-1.02 2.31-2.27 2.31zm-5.6-8.91c-.46 0-.83.39-.83.87v5.74c0 .48.37.87.83.87h5.6c.46 0 .83-.39.83-.87v-5.74c0-.48-.37-.87-.83-.87z" fill="#2f2c39"/></g></g><g><g><g><path d="m33.83 51.21h-10.2c-.4 0-.72-.32-.72-.72s.32-.72.72-.72h10.21c.4 0 .72.32.72.72-.01.39-.33.72-.73.72z" fill="#2f2c39"/></g></g><g><g><path d="m30.75 55.7h-7.12c-.4 0-.72-.32-.72-.72s.32-.72.72-.72h7.12c.4 0 .72.32.72.72s-.33.72-.72.72z" fill="#2f2c39"/></g></g></g></g></g><g><g><g><path d="m61.99 26.41-7.31 11.94c-.57.94-1.79 1.23-2.73.66l-5.92-3.62c-.94-.57-1.23-1.79-.66-2.73l7.31-11.94c1.57-2.57 4.93-3.38 7.5-1.81 2.58 1.58 3.39 4.93 1.81 7.5z" fill="#99d246"/></g></g><g><g><path d="m55.03 37.79-.34.56c-.57.93-1.79 1.23-2.73.65l-5.91-3.62c-.94-.57-1.23-1.8-.66-2.73l7.31-11.94c1.57-2.57 4.93-3.38 7.5-1.81.23.14.43.29.63.46-1.41 1.36-2.82 3.12-4.08 5.18-3.53 5.77-4.47 11.61-2.1 13.06.11.08.24.15.38.19z" fill="#7dbc31"/></g></g><g><g><path d="m61.12 27.85.88-1.44c1.57-2.57.76-5.93-1.81-7.5s-5.93-.76-7.5 1.81l-.88 1.44z" fill="#fece36"/></g></g><g><g><path d="m61.85 26.65-.73 1.2-9.3-5.69.88-1.44c1.57-2.57 4.93-3.38 7.5-1.81.08.05.16.1.23.16-.8.17-1.44.56-1.81 1.16-1.05 1.7.39 4.51 3.23 6.42z" fill="#f6b623"/></g></g><g><g><path d="m44.99 50.1 7.12-10.99-6.22-3.81-7.12 10.99c-1.05 1.72-.51 3.96 1.21 5.01 1.72 1.05 3.96.51 5.01-1.2z" fill="#68bfd4"/></g></g><g><g><path d="m45.09 49.94-.1.16c-.52.86-1.35 1.42-2.26 1.64s-1.9.09-2.75-.44c-1.72-1.05-2.26-3.29-1.21-5.01l7.12-11 3.21 1.96c-.59.82-1.17 1.69-1.74 2.61-3.52 5.78-3.78 8.64-2.27 10.08z" fill="#55a6c4"/></g></g><g><g><path d="m38.74 46.36c-1 1.71-.46 3.91 1.24 4.95s3.9.52 4.97-1.15z" fill="#f6304a"/></g></g><g><g><path d="m52.99 40.02c-.49 0-.98-.14-1.41-.4l-5.91-3.62c-1.27-.78-1.67-2.45-.9-3.72l7.31-11.94c.86-1.41 2.22-2.39 3.82-2.78s3.26-.12 4.67.74 2.39 2.22 2.78 3.82.12 3.26-.74 4.67l-7.31 11.94c-.38.62-.97 1.05-1.68 1.22-.2.05-.42.07-.63.07zm4.36-21.19c-.37 0-.75.04-1.12.13-1.23.3-2.27 1.05-2.93 2.13l-7.3 11.95c-.36.59-.18 1.38.42 1.74l5.92 3.62c.29.18.63.23.96.15s.61-.28.78-.57l7.31-11.94c.66-1.08.86-2.35.56-3.58s-1.05-2.27-2.13-2.93c-.76-.46-1.61-.7-2.47-.7z" fill="#2f2c39"/></g></g><g><g><path d="m61.12 28.57c-.13 0-.26-.04-.38-.11l-9.3-5.69c-.16-.1-.28-.26-.32-.45s-.01-.38.09-.54l.88-1.44c.86-1.41 2.22-2.39 3.82-2.78s3.26-.12 4.67.74 2.39 2.22 2.78 3.82.12 3.26-.74 4.67l-.88 1.44c-.1.16-.26.28-.45.32-.06.01-.12.02-.17.02zm-8.32-6.65 8.07 4.94.5-.82c.66-1.08.86-2.35.56-3.58s-1.05-2.27-2.13-2.93-2.35-.86-3.58-.56-2.27 1.05-2.93 2.13z" fill="#2f2c39"/></g></g><g><g><path d="m41.88 52.56c-.78 0-1.56-.21-2.27-.64-.99-.61-1.69-1.57-1.97-2.7-.27-1.13-.09-2.31.52-3.3l7.13-11.01c.21-.33.65-.43.98-.22l6.22 3.8c.17.1.28.27.33.45.04.19.01.39-.1.55l-7.12 10.99c-.82 1.34-2.26 2.08-3.72 2.08zm4.23-16.28-6.73 10.4c-.4.65-.52 1.44-.34 2.2s.65 1.4 1.32 1.81 1.45.53 2.21.35 1.4-.65 1.81-1.32c0-.01.01-.01.01-.02l6.72-10.37z" fill="#2f2c39"/></g></g><g><g><path d="m41.86 52.55c-.77 0-1.55-.2-2.25-.63-2.01-1.23-2.68-3.89-1.48-5.92.1-.17.26-.29.45-.34.18-.05.39-.02.55.08l6.21 3.8c.17.1.28.26.33.45.04.19.01.39-.09.55-.85 1.3-2.27 2.01-3.72 2.01zm-2.79-5.15c-.34 1.23.15 2.59 1.28 3.28s2.57.51 3.51-.35z" fill="#2f2c39"/></g></g><g><g><path d="m38.33 54.72c-.13 0-.26-.03-.38-.11-.34-.21-.45-.65-.24-.99l1.65-2.7c.21-.34.65-.45.99-.24s.45.65.24.99l-1.65 2.7c-.13.23-.37.35-.61.35z" fill="#2f2c39"/></g></g><g><g><path d="m58.92 38.02c-.13 0-.26-.03-.38-.11-.34-.21-.45-.65-.24-.99l4.36-7.12c.21-.35.28-.76.18-1.15-.1-.4-.34-.73-.69-.94l-.7-.43c-.34-.21-.45-.65-.24-.99s.65-.45.99-.24l.7.43c.68.41 1.15 1.06 1.34 1.83s.06 1.57-.35 2.24l-4.36 7.12c-.13.23-.36.35-.61.35z" fill="#2f2c39"/></g></g></g></g></svg>