<svg id="Layer_1" enable-background="new 0 0 512.009 512.009" height="512" viewBox="0 0 512.009 512.009" width="512" xmlns="http://www.w3.org/2000/svg"><g><path d="m432.008 40h-162.75c-10.68 0-20.73 4.16-28.28 11.72l-230.14 230.14c-14.458 14.458-14.444 37.836 0 52.28l167.03 167.03c14.459 14.458 37.836 14.444 52.28 0 120.064-120.051 67.046-67.033 230.14-230.14 7.56-7.56 11.72-17.6 11.72-28.28v-162.75c0-22.06-17.94-40-40-40zm-56 128c-17.65 0-32-14.36-32-32s14.35-32 32-32 32 14.36 32 32-14.35 32-32 32z" fill="#79cb9c"/><path d="m432.008 40h-40c22.06 0 40 17.94 40 40v162.75c0 10.68-4.16 20.72-11.72 28.28-248.691 248.71-231.108 231.752-236.28 235.094 13.974 9.03 33.327 7.859 46.14-4.954 120.064-120.051 67.046-67.033 230.14-230.14 7.56-7.56 11.72-17.6 11.72-28.28v-162.75c0-22.06-17.94-40-40-40z" fill="#63ac7d"/><path d="m376.008 144c-7.064 0-10.711-8.602-5.657-13.657l128-128c3.124-3.123 8.189-3.123 11.313 0 3.125 3.125 3.125 8.189 0 11.314l-128 128c-1.561 1.562-3.608 2.343-5.656 2.343z" fill="#f1cc76"/></g></svg>