<svg height="512" viewBox="0 0 58 58" width="512" xmlns="http://www.w3.org/2000/svg"><g id="030---Business-Dashboard" fill="none"><path id="Path" d="m58 3v35l-1 1h-56l-1-1v-35c0-1.65685425 1.34314575-3 3-3h52c1.6568542 0 3 1.34314575 3 3z" fill="#2081e9"/><path id="Rectangle" d="m18 45h22v6h-22z" fill="#bac0cc"/><path id="Path" d="m47 54-7-4h-22l-7 4 1 2 34.345-.148z" fill="#cdd1da"/><path id="Path" d="m58 38v5c0 1.6568542-1.3431458 3-3 3h-52c-1.65685425 0-3-1.3431458-3-3v-5z" fill="#cdd1da"/><circle id="Oval" cx="48" cy="10" fill="#ffc436" r="6"/><path id="Path" d="m11 54h36v3c0 .5522847-.4477153 1-1 1h-34c-.5522847 0-1-.4477153-1-1z" fill="#bac0cc"/><path id="Path" d="m54 10h-6v-6c3.3137085 0 6 2.6862915 6 6z" fill="#f33a4d"/><path id="Path" d="m31 43h-4c-.5522847 0-1-.4477153-1-1s.4477153-1 1-1h4c.5522847 0 1 .4477153 1 1s-.4477153 1-1 1z" fill="#79818f"/><path id="Path" d="m6 16c-.55228475 0-1-.4477153-1-1v-5c0-.55228475.44771525-1 1-1s1 .44771525 1 1v5c0 .5522847-.44771525 1-1 1z" fill="#ffc436"/><path id="Path" d="m14 16c-.5522847 0-1-.4477153-1-1v-5c0-.55228475.4477153-1 1-1s1 .44771525 1 1v5c0 .5522847-.4477153 1-1 1z" fill="#f686c8"/><path id="Path" d="m10 16c-.55228475 0-1-.4477153-1-1v-10c0-.55228475.44771525-1 1-1 .5522847 0 1 .44771525 1 1v10c0 .5522847-.4477153 1-1 1z" fill="#8ad256"/><path id="Path" d="m16 16h-12c-.55228475 0-1-.4477153-1-1s.44771525-1 1-1h12c.5522847 0 1 .4477153 1 1s-.4477153 1-1 1z" fill="#265372"/><path id="Path" d="m25 35c-.5522847 0-1-.4477153-1-1v-10c0-.5522847.4477153-1 1-1s1 .4477153 1 1v10c0 .5522847-.4477153 1-1 1z" fill="#ffc436"/><path id="Path" d="m33 35c-.5522847 0-1-.4477153-1-1v-5c0-.5522847.4477153-1 1-1s1 .4477153 1 1v5c0 .5522847-.4477153 1-1 1z" fill="#f686c8"/><path id="Path" d="m29 35c-.5522847 0-1-.4477153-1-1v-6c0-.5522847.4477153-1 1-1s1 .4477153 1 1v6c0 .5522847-.4477153 1-1 1z" fill="#8ad256"/><path id="Path" d="m34 35h-10c-.5522847 0-1-.4477153-1-1s.4477153-1 1-1h10c.5522847 0 1 .4477153 1 1s-.4477153 1-1 1z" fill="#265372"/><path id="Path" d="m32 7h-7c-.5522847 0-1-.44771525-1-1s.4477153-1 1-1h7c.5522847 0 1 .44771525 1 1s-.4477153 1-1 1z" fill="#ffc436"/><path id="Path" d="m29 15h-4c-.5522847 0-1-.4477153-1-1s.4477153-1 1-1h4c.5522847 0 1 .4477153 1 1s-.4477153 1-1 1z" fill="#f686c8"/><path id="Path" d="m33 11h-8c-.5522847 0-1-.4477153-1-1 0-.55228475.4477153-1 1-1h8c.5522847 0 1 .44771525 1 1 0 .5522847-.4477153 1-1 1z" fill="#8ad256"/><path id="Path" d="m25 17c-.5522847 0-1-.4477153-1-1v-12c0-.55228475.4477153-1 1-1s1 .44771525 1 1v12c0 .5522847-.4477153 1-1 1z" fill="#265372"/><path id="Path" d="m53 26h-8c-.5522847 0-1-.4477153-1-1s.4477153-1 1-1h8c.5522847 0 1 .4477153 1 1s-.4477153 1-1 1z" fill="#ffc436"/><path id="Path" d="m52 34h-7c-.5522847 0-1-.4477153-1-1s.4477153-1 1-1h7c.5522847 0 1 .4477153 1 1s-.4477153 1-1 1z" fill="#f686c8"/><path id="Path" d="m49 30h-4c-.5522847 0-1-.4477153-1-1s.4477153-1 1-1h4c.5522847 0 1 .4477153 1 1s-.4477153 1-1 1z" fill="#8ad256"/><path id="Path" d="m45 35c-.5522847 0-1-.4477153-1-1v-10c0-.5522847.4477153-1 1-1s1 .4477153 1 1v10c0 .5522847-.4477153 1-1 1z" fill="#265372"/><path id="Path" d="m4 35c-.36870742-.0003134-.70732929-.2034902-.88111002-.5286756s-.15452281-.719615.05011002-1.0263244l4-6c.17994103-.2699787.4796791-.4358785.804-.445.32242955-.0005806.62728409.1468702.827.4l2.18 2.907 4.207-5.888c.2014575-.306064.5541728-.4774387.9192932-.4466595.3651205.0307792.6841686.2587829.8315454.5942533.1473769.3354703.0994787.7246787-.1248386 1.0144062l-5 7c-.1848254.2589814-.4818616.4145541-.8.419h-.013c-.3147573 0-.6111456-.1481942-.8-.4l-2.152-2.87-3.216 4.825c-.18552458.2780697-.49772147.44505-.832.445z" fill="#ffc436"/><path id="Path" d="m58 19v2h-19v17h-2v-17h-16v17h-2v-17h-19v-2h19v-19h2v19h16v-19h2v19z" fill="#006dd9"/></g></svg>