<svg id="Capa_1" enable-background="new 0 0 511 511" height="512" viewBox="0 0 511 511" width="512" xmlns="http://www.w3.org/2000/svg"><g><g id="Filled_00000140699976341415344550000013927494842026557599_"><path d="m7.5 450.5h496v30h-496z" fill="#dfba7f"/><path d="m490.5 450.5h-470v-50l178.668-22.809c29.885-3.815 56.332 19.47 56.332 49.598v23.211-23.211c0-30.127 26.447-53.413 56.332-49.598l178.668 22.809z" fill="#fff"/><path d="m255.5 427.289c0-2.308-.173-4.57-.473-6.789h-234.527v30h470v-30h-234.527c-.3 2.219-.473 4.48-.473 6.789z" fill="#e3e9ee"/><path d="m438.5 252.5v-192c0-16.569-13.431-30-30-30h-306c-16.569 0-30 13.431-30 30v192c0 16.569 13.431 30 30 30h54v54l130-54h122c16.569 0 30-13.431 30-30z" fill="#00dba8"/><path d="m408.5 252.5h-127.983l-94.017 39.054v-39.054h-84c-16.569 0-30-13.431-30-30v30c0 16.569 13.431 30 30 30h54v54l130-54h122c16.569 0 30-13.431 30-30v-30c0 16.569-13.431 30-30 30z" fill="#00ae85"/></g><g fill="#fff"><path d="m102.5 245h15v15h-15z"/><path d="m132.5 245h15v15h-15z"/><path d="m393.5 53h15v15h-15z"/><path d="m363.5 53h15v15h-15z"/></g><g id="Outline_00000027606490914268676270000014290861745839158411_"><path d="m15 458h311.5v-15h-63.5v-15.711c0-23.439 19.023-42.509 42.407-42.509 1.817 0 3.658.118 5.475.351l23.413 2.989 1.9-14.879-23.409-2.989c-2.443-.312-4.926-.472-7.379-.472-21.351 0-40.018 11.739-49.907 29.11-9.89-17.371-28.557-29.109-49.908-29.109-2.45 0-4.932.158-7.374.471l-185.218 23.644v49.104h-13v45h58.5v-15h-43.5zm13-50.896 172.119-21.973c1.814-.232 3.656-.35 5.473-.35 23.384 0 42.408 19.069 42.408 42.508v15.711h-220z"/><path d="m498 443v-49.104l-146.926-18.755-1.9 14.879 133.826 17.084v35.896h-141.5v15h154.5v15h-422.5v15h437.5v-45z"/><path d="m431 60.5v192c0 12.406-10.094 22.5-22.5 22.5h-123.496l-47.738 19.83 5.754 13.852 44.976-18.682h120.504c20.678 0 37.5-16.822 37.5-37.5v-192c0-20.678-16.822-37.5-37.5-37.5h-260.857v15h260.857c12.406 0 22.5 10.094 22.5 22.5z"/><path d="m102.5 290h46.5v57.736l80.167-33.301-5.754-13.852-59.413 24.681v-50.264h-61.5c-12.406 0-22.5-10.094-22.5-22.5v-192c0-12.406 10.094-22.5 22.5-22.5h30.143v-15h-30.143c-20.678 0-37.5 16.822-37.5 37.5v192c0 20.678 16.822 37.5 37.5 37.5z"/><path d="m188.5 119v-15h-67.5v105h67.5v-15h-52.5v-30h52.5v-15h-52.5v-30z"/><path d="m352.5 119h30v-15h-30c-20.678 0-37.5 16.822-37.5 37.5v30c0 20.678 16.822 37.5 37.5 37.5s37.5-16.822 37.5-37.5v-22.5h-37.5v15h22.5v7.5c0 12.406-10.094 22.5-22.5 22.5s-22.5-10.094-22.5-22.5v-30c0-12.406 10.094-22.5 22.5-22.5z"/><path d="m290 103.5h-15v74.509l-46.872-74.009h-13.128v105.5h15v-74.509l46.872 74.009h13.128z"/></g></g></svg>