<svg id="Capa_1" enable-background="new 0 0 512 512" height="512" viewBox="0 0 512 512" width="512" xmlns="http://www.w3.org/2000/svg"><g><g><path d="m416.323 155.786h-317.721c-48.551 0-90.199 37.983-91.087 86.526-.905 49.455 38.914 89.829 88.162 89.829h208.419v70.863c0 8.656 10.788 12.616 16.388 6.016l65.231-76.879h27.683c48.551 0 90.199-37.983 91.087-86.526.904-49.454-38.914-89.829-88.162-89.829z" fill="#eceaec"/><g><path d="m416.323 155.786h-317.721c-48.551 0-90.199 37.983-91.087 86.526-.905 49.455 38.914 89.829 88.162 89.829h208.419v70.863c0 8.656 10.788 12.616 16.388 6.016l65.231-76.879h27.683c48.551 0 90.199-37.983 91.087-86.526.904-49.454-38.914-89.829-88.162-89.829z" fill="#eceaec"/><path d="m480.436 245.177c-1.049 34.685-30.71 62.916-67.041 62.916h-27.681c-7.077 0-13.762 3.092-18.334 8.486l-63.284 74.584v11.842c0 8.656 10.788 12.616 16.388 6.016l65.231-76.879h27.683c48.551 0 90.198-37.983 91.086-86.526.905-49.455-38.913-89.829-88.162-89.829h-8.016c0-.001 74.502 10.96 72.13 89.39z" fill="#dbd8db"/></g><path d="m231.952 179.835h-88.177c-8.854 0-16.032-7.178-16.032-16.032v-48.097c0-8.854 7.178-16.032 16.032-16.032h88.177c8.854 0 16.032 7.178 16.032 16.032v48.097c0 8.854-7.178 16.032-16.032 16.032z" fill="#eceaec"/><path d="m231.952 99.674h-24.048v80.161h24.048c8.854 0 16.032-7.178 16.032-16.032v-48.097c0-8.855-7.178-16.032-16.032-16.032z" fill="#ff5f7a"/><path d="m143.774 99.674h24.048v80.161h-24.048c-8.854 0-16.032-7.178-16.032-16.032v-48.097c0-8.855 7.178-16.032 16.032-16.032z" fill="#008cdf"/><path d="m127.742 163.803c0 8.854 7.178 16.032 16.032 16.032h24.048v-24.048h-40.081v8.016z" fill="#0069d0"/><path d="m167.823 155.786h40.081v24.048h-40.081z" fill="#dbd8db"/><path d="m231.952 179.835h-24.048v-24.048h40.081v8.016c-.001 8.854-7.179 16.032-16.033 16.032z" fill="#fb4455"/></g><g><path d="m447.962 231.84c0-10.767-9.065-19.526-20.207-19.526h-12.297c-.001 0-.002.001-.004.001-.004 0-.008-.001-.011-.001-4.142 0-7.5 3.358-7.5 7.5v46.276c0 4.142 3.358 7.5 7.5 7.5s7.5-3.358 7.5-7.5v-8.554l11.89 13.509c1.482 1.685 3.552 2.545 5.633 2.545 1.76 0 3.527-.616 4.952-1.87 3.109-2.736 3.412-7.476.675-10.585l-10.104-11.48c7.045-3.054 11.973-9.883 11.973-17.815zm-20.207 4.527c-.685 0-2.813.002-4.812.005v-9.059h4.812c2.774 0 5.207 2.115 5.207 4.526 0 2.412-2.433 4.528-5.207 4.528z"/><path d="m190.024 212.74c-3.134.977-5.268 3.878-5.268 7.16v46.19c0 4.142 3.358 7.5 7.5 7.5s7.5-3.358 7.5-7.5v-22.131l17.562 25.431c2.137 3.086 5.726 4.388 9.146 3.321 3.475-1.085 5.72-4.296 5.719-8.253l-.433-44.717c-.04-4.117-3.39-7.427-7.498-7.427-.024 0-.049 0-.074 0-4.142.04-7.467 3.43-7.427 7.572l.219 22.603-18.543-26.851c-1.865-2.701-5.27-3.873-8.403-2.898z"/><path d="m253.239 257.967c-2.873-1.573-6.451-.994-8.754 1.335-3.537 3.576-2.56 9.543 1.915 11.841 2.747 1.411 5.885 2.476 9.037 2.476 2.44 0 5.037-.58 7.668-2.04 5.317-2.952 8.62-8.615 8.62-14.78v-36.671c0-4.107-3.165-7.688-7.269-7.811-4.247-.128-7.731 3.278-7.731 7.497v36.986c0 .708-.369 1.334-.9 1.665-.591.366-1.56.064-2.586-.498z"/><path d="m85.003 212.313h-13.443c-4.142 0-7.5 3.358-7.5 7.5v46.276c0 1.995.795 3.908 2.208 5.315 1.406 1.4 3.309 2.185 5.292 2.185h.033s12.352-.055 15.756-.055c11.004 0 19.956-8.952 19.956-19.956 0-5.73-2.441-10.888-6.321-14.531 1.38-2.558 2.166-5.481 2.166-8.586.001-10.006-8.14-18.148-18.147-18.148zm-5.943 15h5.942c1.736 0 3.148 1.412 3.148 3.148s-1.412 3.148-3.148 3.148c-1.005 0-5.942.013-5.942.013zm8.29 31.222c-1.564 0-5.011.012-8.29.024v-9.932c.343-.001 8.29-.004 8.29-.004 2.733 0 4.956 2.223 4.956 4.956 0 2.732-2.223 4.956-4.956 4.956z"/><path d="m358.955 212.313c-4.142 0-7.5 3.358-7.5 7.5v31.843c0 7.607 3.607 13.769 10.722 18.313 3.75 2.396 7.976 3.613 12.557 3.619h.039c3.933 0 7.63-.858 10.99-2.551 8.285-4.173 12.848-11.068 12.848-19.416v-31.81c0-4.142-3.358-7.5-7.5-7.5s-7.5 3.358-7.5 7.5v31.81c0 1.924-.557 3.985-4.595 6.019-1.265.637-2.653.947-4.243.947-.006 0-.012 0-.018 0-1.706-.002-3.178-.414-4.501-1.26-3.507-2.241-3.797-3.962-3.797-5.673v-31.843c-.002-4.14-3.36-7.498-7.502-7.498z"/><path d="m144.952 273.59c16.894 0 30.638-13.744 30.638-30.638s-13.744-30.638-30.638-30.638-30.638 13.744-30.638 30.638 13.744 30.638 30.638 30.638zm0-46.277c8.623 0 15.638 7.015 15.638 15.638s-7.015 15.638-15.638 15.638-15.638-7.015-15.638-15.638 7.015-15.638 15.638-15.638z"/><path d="m343.018 242.952c0-16.894-13.744-30.638-30.638-30.638s-30.638 13.744-30.638 30.638 13.744 30.638 30.638 30.638c16.893 0 30.638-13.744 30.638-30.638zm-46.276 0c0-8.623 7.015-15.638 15.638-15.638s15.638 7.015 15.638 15.638-7.015 15.638-15.638 15.638-15.638-7.015-15.638-15.638z"/><path d="m484.596 176.935c-18.139-18.474-42.386-28.648-68.273-28.648h-136.275c-4.142 0-7.5 3.358-7.5 7.5s3.358 7.5 7.5 7.5h136.274c21.829 0 42.274 8.579 57.57 24.158 15.292 15.574 23.493 36.184 23.093 58.034-.798 43.651-38.296 79.163-83.587 79.163h-27.683c-2.203 0-4.294.968-5.719 2.647l-65.231 76.879c-.54.635-1.21.811-1.991.525-.782-.287-1.179-.855-1.179-1.688v-70.863c0-4.142-3.358-7.5-7.5-7.5h-208.418c-21.829 0-42.274-8.579-57.57-24.158-15.292-15.574-23.493-36.184-23.093-58.035.798-43.65 38.296-79.163 83.587-79.163 4.142 0 7.5-3.358 7.5-7.5s-3.358-7.5-7.5-7.5c-53.413 0-97.638 42.118-98.585 93.888-.474 25.908 9.252 50.349 27.387 68.818 18.139 18.474 42.386 28.648 68.273 28.648h200.919v63.363c0 7.125 4.322 13.314 11.01 15.769 1.93.709 3.911 1.053 5.864 1.053 4.813 0 9.455-2.089 12.733-5.954l62.984-74.231h24.21c53.413 0 97.638-42.118 98.585-93.889.476-25.906-9.25-50.346-27.385-68.816z"/><path d="m143.774 187.335h88.178c12.976 0 23.532-10.557 23.532-23.532v-48.097c0-12.976-10.557-23.533-23.532-23.533h-88.178c-12.976 0-23.532 10.557-23.532 23.533v48.097c0 12.975 10.556 23.532 23.532 23.532zm31.549-80.162h25.081v8.533c0 4.142 3.358 7.5 7.5 7.5s7.5-3.358 7.5-7.5v-8.533h16.548c4.705 0 8.532 3.828 8.532 8.533v48.097c0 4.705-3.828 8.532-8.532 8.532h-16.548v-24.565c0-4.142-3.358-7.5-7.5-7.5s-7.5 3.358-7.5 7.5v24.564h-25.081zm-40.081 8.533c0-4.705 3.828-8.533 8.532-8.533h16.549v65.162h-16.549c-4.705 0-8.532-3.828-8.532-8.532z"/></g></g></svg>