<svg id="Capa_1" enable-background="new 0 0 512 512" height="512" viewBox="0 0 512 512" width="512" xmlns="http://www.w3.org/2000/svg"><path d="m264.017 54.879h-128.259c-70.835 0-128.258 57.423-128.258 128.258 0 47.813 26.216 89.435 65.006 111.492l-25.082 53.748c-6.309 13.52 9.58 26.533 21.591 17.682l74.187-54.664h120.814c70.835 0 128.258-57.423 128.258-128.258 0-70.835-57.423-128.258-128.257-128.258z" fill="#eceaec"/><path d="m159.806 295.363c-70.835 0-128.258-57.423-128.258-128.258 0-39.287 17.708-74.4 45.527-97.927-41.292 21.307-69.575 64.291-69.575 113.959 0 47.813 26.216 89.435 65.006 111.492l-25.082 53.748c-6.31 13.52 9.579 26.533 21.591 17.683l74.187-54.664h120.814c22.516 0 43.652-5.841 62.044-16.032h-166.254z" fill="#dad8db"/><path d="m247.983 143.057h128.259c70.835 0 128.258 57.423 128.258 128.258v.001c0 47.813-26.216 89.435-65.006 111.492l25.082 53.748c6.309 13.52-9.58 26.533-21.591 17.682l-74.187-54.664h-120.814c-70.835 0-128.258-57.423-128.258-128.258v-.001c0-70.836 57.423-128.258 128.257-128.258z" fill="#ffd064"/><path d="m119.726 271.314c0 15.517 2.895 30.322 7.943 44.089h368.986c5.049-13.747 7.845-28.583 7.845-44.089v-.001c0-15.517-2.895-30.322-7.943-44.088h-368.888c-5.048 13.767-7.943 28.573-7.943 44.089z" fill="#e5646e"/><path d="m127.669 227.226h368.888c-17.997-49.081-64.996-84.169-120.314-84.169h-128.26c-55.318 0-102.317 35.088-120.314 84.169z" fill="#5d5360"/><path d="m439.837 383.54h-167.805c-70.835 0-128.258-57.423-128.258-128.258 0-39.287 17.708-74.4 45.527-97.927-41.292 21.308-69.575 64.291-69.575 113.959v.001c0 70.835 57.423 128.258 128.258 128.258h120.814l74.187 54.664c12.011 8.85 27.9-4.162 21.591-17.683z" fill="#ffc250"/><path d="m143.774 255.282c0-9.643 1.094-19.025 3.115-28.056h-19.22c-5.048 13.766-7.943 28.572-7.943 44.088v.001c0 15.517 2.895 30.322 7.943 44.089h31.096c-9.541-17.939-14.991-38.386-14.991-60.122z" fill="#db4655"/><path d="m146.889 227.226c6.214-27.761 21.421-52.119 42.412-69.871-28.406 14.659-50.655 39.577-61.775 69.871z" fill="#4b3f4e"/><path d="m449.142 385.745c38.941-24.855 62.858-68.082 62.858-114.431 0-69.697-52.797-127.285-120.494-134.895-19.547-53.443-70.203-89.04-127.489-89.04h-128.259c-74.857 0-135.758 60.901-135.758 135.758 0 46.349 23.917 89.576 62.858 114.431l-22.231 47.638c-4.305 9.224-1.906 19.754 5.969 26.204 4.09 3.35 8.967 5.034 13.859 5.034 4.528 0 9.07-1.443 13.008-4.346l34.681-25.554c3.334-2.458 4.046-7.152 1.589-10.487-2.458-3.334-7.152-4.045-10.487-1.589l-34.68 25.554c-4.006 2.951-7.492.58-8.465-.217s-3.985-3.748-1.881-8.256l25.083-53.748c1.653-3.542.309-7.76-3.089-9.691-37.758-21.47-61.214-61.693-61.214-104.974 0-66.586 54.172-120.757 120.758-120.757h128.259c48.775 0 92.146 29.008 111.02 73.177h-127.054c-74.857 0-135.758 60.901-135.758 135.758s60.901 135.758 135.758 135.758h118.35l72.203 53.202c3.939 2.902 8.48 4.346 13.008 4.346 4.892 0 9.77-1.685 13.859-5.034 7.875-6.45 10.274-16.98 5.969-26.204zm-201.159-235.189h128.259c48.14 0 89.785 28.319 109.167 69.169h-285.521c-4.142 0-7.5 3.358-7.5 7.5s3.358 7.5 7.5 7.5h291.44c3.679 11.547 5.672 23.839 5.672 36.589 0 12.585-1.996 24.906-5.738 36.588h-358.364c-3.679-11.547-5.672-23.839-5.672-36.589s1.993-25.042 5.672-36.588h34.926c4.142 0 7.5-3.358 7.5-7.5s-3.358-7.5-7.5-7.5h-29.007c19.381-40.85 61.026-69.169 109.166-69.169zm207.917 297.426c-.973.797-4.46 3.167-8.465.216l-74.187-54.664c-1.289-.95-2.848-1.462-4.449-1.462h-120.815c-48.14 0-89.785-28.319-109.168-69.169h346.51c-10.484 22.074-27.588 40.902-49.539 53.384-3.398 1.932-4.742 6.149-3.089 9.691l25.083 53.749c2.103 4.508-.908 7.458-1.881 8.255z"/></svg>