<svg height="512" viewBox="0 0 512 512" width="512" xmlns="http://www.w3.org/2000/svg"><g id="Flat"><path d="m456 136v352h-272v-400z" fill="#e4e4e3"/><path d="m224 248h16v16h-16z" fill="#eaae48"/><path d="m456 137.739-272-53.217v32l272 53.217z" fill="#cacac9"/><path d="m56 488v-248l128-24h24v272z" fill="#e4e4e3"/><path d="m80 400c-16 0-24 16-24 32s-16 16-16 32.232 16 23.768 24 23.768h32c8 0 24-7.537 24-23.768s-16-16.232-16-32.232-8-32-24-32z" fill="#0093b9"/><path d="m96 288h48v80h-48z" fill="#0093b9"/><path d="m96 328h48v16h-48z" fill="#067a98"/><path d="m168 224h16v264h-16z" fill="#cacac9"/><path d="m56 240.174 128-25.044v32l-128 25.044z" fill="#cacac9"/><path d="m224 288h128v200h-128z" fill="#2da4c4"/><path d="m240 304h96v184h-96z" fill="#5db9d2"/><path d="m248 376h16v16h-16z" fill="#067a98"/><path d="m24 230.435v32l160-31.305v-32z" fill="#eaae48"/><circle cx="400" cy="296" fill="#0093b9" r="80"/><g fill="#eaae48"><path d="m437.657 285.657-11.314-11.314-18.343 18.343v-28.686h-16v60.686l-26.343-26.343-11.314 11.314 37.657 37.657v140.686h16v-172.686z"/><path d="m16 480h480v16h-480z"/><path d="m480 126.435-352-68.87v32l352 68.87z"/></g></g></svg>