<svg id="SALES_ICONS" enable-background="new 0 0 128 128" viewBox="0 0 128 128" xmlns="http://www.w3.org/2000/svg"><g><g><g><ellipse cx="64" cy="73.861" fill="#c2d5ec" rx="57.061" ry="30.618"/></g><g><g><path d="m73.996 35.586c0-2.646-2.145-4.791-4.791-4.791h-10.41c-2.646 0-4.791 2.145-4.791 4.791 0 7.657-4.045 7.657-4.045 7.657v1.577c0 7.755 6.286 14.041 14.041 14.041s14.041-6.286 14.041-14.041v-1.577s-4.045 0-4.045-7.657z" fill="#f8f8f8"/></g><g><path d="m83.271 16h-23.047c-6.001 0-10.866 4.865-10.866 10.866v12.034h.021c0 1.505.189 2.965.579 4.344 0 0 4.045 0 4.045-7.657 0-2.646 2.145-4.791 4.791-4.791h24.476c1.848 0 3.345-1.498 3.345-3.345v-8.104c.001-1.849-1.496-3.347-3.344-3.347z" fill="#ffa85a"/></g><g><path d="m73.996 35.586c0 7.657 4.045 7.657 4.045 7.657.391-1.379.579-2.839.579-4.344h.021v-8.104h-9.437c2.647 0 4.792 2.145 4.792 4.791z" fill="#f79559"/></g><g><path d="m58.183 57.589v4.969l5.817 11.029 5.817-11.029v-4.969c-1.774.81-3.74 1.273-5.817 1.273-2.078-.001-4.043-.464-5.817-1.273z" fill="#e9eaeb"/></g><g><path d="m64 73.587 5.262 4.258 6.372-12.414-5.817-2.873z" fill="#61e1ff"/></g><g><path d="m52.366 65.431 6.372 12.414 5.262-4.258-5.817-11.029z" fill="#61e1ff"/></g><g><path d="m75.634 65.431-6.372 12.414-5.262-4.258-5.262 4.258-6.372-12.414s-12.951 4.838-12.951 15.593-4.127 30.976 12.951 30.976h23.268c17.078 0 12.951-20.22 12.951-30.975s-12.951-15.594-12.951-15.594z" fill="#7184af"/></g><g><path d="m43.415 81.025c0-7.386 5.926-11.878 9.752-14.032l-.801-1.561s-12.951 4.838-12.951 15.593-4.127 30.975 12.951 30.975h4c-17.078 0-12.951-20.22-12.951-30.975z" fill="#f8f8f8"/></g><g><path d="m63.829 104.771v7.229h8.274c2.275 0 4.414-1.305 5.265-3.415.648-1.608.75-3.551-1.029-5.297-3.297-3.237-8.241 1.483-12.51 1.483z" fill="#f8f8f8"/></g><g><path d="m58.796 103.052h5.034v8.948h-5.034z" fill="#61e1ff"/></g></g><g><g><path d="m28.188 27.311c0-1.957-1.586-3.543-3.543-3.543h-7.698c-1.957 0-3.543 1.586-3.543 3.543 0 5.662-2.991 5.662-2.991 5.662v1.167c0 5.734 4.649 10.383 10.383 10.383s10.384-4.649 10.384-10.383v-1.167s-2.992 0-2.992-5.662z" fill="#f8f8f8"/></g><g><path d="m23.589 16h-5.583c-2.786 0-3.672 2.19-3.672 2.19s-4.365-2.19-4.365 5.846v5.724h.016c0 1.113.14 2.193.428 3.212 0 0 2.991 0 2.991-5.662 0-1.957 1.586-3.543 3.543-3.543h7.698c1.957 0 3.543 1.586 3.543 3.543 0 5.662 2.991 5.662 2.991 5.662.289-1.02.428-2.099.428-3.212h.016v-5.726c.001-4.437-3.597-8.034-8.034-8.034z" fill="#3f4d81"/></g><g><path d="m16.495 43.582v3.675l4.302 8.156 4.302-8.156v-3.675c-1.312.599-2.765.941-4.302.941s-2.99-.343-4.302-.941z" fill="#e9eaeb"/></g><g><path d="m12.193 49.381 4.191 9.181 4.412-3.149-4.301-8.157z" fill="#f79559"/></g><g><path d="m20.796 55.413 4.413 3.149 4.191-9.181-4.302-2.125z" fill="#f79559"/></g><g><path d="m29.4 49.382-4.191 9.18-4.412-3.149-4.412 3.149-4.191-9.18s-9.577 3.578-9.577 11.531c0 1.432-.099 3.095-.187 4.853 0 4.32 8.223 7.821 18.368 7.821s18.368-3.502 18.368-7.821c-.089-1.758-.187-3.421-.187-4.853-.002-7.954-9.579-11.531-9.579-11.531z" fill="#61e1ff"/></g></g><g><g><path d="m114.596 27.311c0-1.957-1.586-3.543-3.543-3.543h-7.698c-1.957 0-3.543 1.586-3.543 3.543 0 5.662-2.991 5.662-2.991 5.662v1.167c0 5.734 4.649 10.383 10.383 10.383s10.383-4.649 10.383-10.383v-1.167s-2.991 0-2.991-5.662z" fill="#f8f8f8"/></g><g><path d="m113.667 18.189s-.886-2.189-3.672-2.189h-5.583c-4.438 0-8.035 3.597-8.035 8.035v5.726h.016c0 1.113.139 2.193.428 3.212 0 0 2.991 0 2.991-5.662 0-1.957 1.586-3.543 3.543-3.543h7.698c1.957 0 3.543 1.586 3.543 3.543 0 5.662 2.991 5.662 2.991 5.662.289-1.02.428-2.099.428-3.212h.016v-5.724c0-8.037-4.364-5.848-4.364-5.848z" fill="#3f4d81"/></g><g><path d="m102.902 43.582v3.675l4.302 8.156 4.302-8.156v-3.675c-1.312.599-2.765.941-4.302.941s-2.99-.343-4.302-.941z" fill="#e9eaeb"/></g><g><path d="m107.204 55.413 4.412 3.149 4.191-9.181-4.302-2.125z" fill="#f79559"/></g><g><path d="m98.6 49.381 4.191 9.181 4.413-3.149-4.302-8.157z" fill="#f79559"/></g><g><path d="m115.807 49.382-4.191 9.18-4.412-3.149-4.412 3.149-4.191-9.18s-9.577 3.578-9.577 11.531c0 1.432-.099 3.095-.187 4.853 0 4.32 8.223 7.821 18.368 7.821s18.368-3.502 18.368-7.821c-.089-1.758-.187-3.421-.187-4.853-.002-7.954-9.579-11.531-9.579-11.531z" fill="#61e1ff"/></g></g><g><g><path d="m88.836 65.766c.089-1.758.187-3.421.187-4.853 0-2.05.642-3.804 1.586-5.286-4.221-1.769-9.085-3.114-14.356-3.955-1.457 2.592-3.714 4.675-6.436 5.917v4.969l5.817 2.874c.001 0 12.951 4.839 12.951 15.593 0 3.271.38 7.418.431 11.605 11.006-4.194 18.188-11.058 18.188-18.82 0-.075-.009-.148-.011-.223-10.139-.003-18.357-3.503-18.357-7.821z" fill="#f8f8f8"/></g><g><path d="m51.72 51.621c-5.283.82-10.163 2.145-14.406 3.896.985 1.506 1.663 3.294 1.663 5.396 0 1.432.098 3.095.187 4.853 0 4.32-8.223 7.822-18.368 7.822-.111 0-.219-.006-.33-.007-.001.077-.011.153-.011.229 0 7.842 7.329 14.767 18.527 18.948.044-4.23.433-8.429.433-11.733 0-10.755 12.951-15.593 12.951-15.593l5.817-2.874v-4.969c-2.739-1.251-5.007-3.353-6.463-5.968z" fill="#f8f8f8"/></g></g></g><g><g><path d="m127 113h-126c-.553 0-1-.448-1-1s.447-1 1-1h126c.553 0 1 .448 1 1s-.447 1-1 1z" fill="#3f4d81"/></g><g><g><path d="m64 59.861c-8.294 0-15.041-6.747-15.041-15.041v-1.578c0-.552.447-1 1-1 .104-.005 3.045-.209 3.045-6.657 0-3.193 2.598-5.792 5.791-5.792h10.41c3.193 0 5.791 2.598 5.791 5.792 0 6.476 3.015 6.657 3.045 6.657.266 0 .52.105.707.293s.293.442.293.707v1.578c0 8.294-6.747 15.041-15.041 15.041zm-13.041-15.806v.766c0 7.19 5.851 13.041 13.041 13.041s13.041-5.85 13.041-13.041v-.766c-1.474-.487-4.045-2.23-4.045-8.469 0-2.091-1.7-3.792-3.791-3.792h-10.41c-2.091 0-3.791 1.701-3.791 3.792 0 6.239-2.571 7.982-4.045 8.469z" fill="#3f4d81"/></g><g><path d="m49.959 44.243c-.447 0-.84-.297-.962-.728-.391-1.379-.598-2.861-.616-4.408-.015-.067-.022-.137-.022-.208v-12.033c-.001-6.543 5.323-11.866 11.866-11.866h23.046c2.396 0 4.346 1.949 4.346 4.345v8.104c0 2.396-1.949 4.345-4.346 4.345h-24.476c-2.091 0-3.791 1.701-3.791 3.792 0 8.559-4.839 8.657-5.045 8.657zm.399-5.546c.014.065.021.133.021.202.001 1.08.104 2.122.307 3.11.902-.481 2.317-1.949 2.317-6.422 0-3.193 2.598-5.792 5.791-5.792h24.476c1.293 0 2.346-1.052 2.346-2.345v-8.104c0-1.293-1.053-2.345-2.346-2.345h-23.045c-5.44 0-9.866 4.426-9.866 9.866v11.83z" fill="#3f4d81"/></g><g><path d="m78.041 44.243c-.206 0-5.045-.099-5.045-8.657 0-2.091-1.7-3.792-3.791-3.792-.553 0-1-.448-1-1s.447-1 1-1h9.437c.553 0 1 .448 1 1v8.104c0 .073-.008.145-.022.213-.019 1.544-.226 3.025-.616 4.403-.123.432-.516.729-.963.729zm-4.462-12.448c.882 1.017 1.417 2.343 1.417 3.792 0 4.442 1.418 5.922 2.319 6.414.201-.985.304-2.024.305-3.101 0-.071.008-.14.021-.207v-6.897h-4.062z" fill="#3f4d81"/></g><g><path d="m64 74.587c-.371 0-.712-.206-.885-.534l-5.817-11.029c-.075-.144-.115-.304-.115-.466v-4.969c0-.34.173-.657.459-.841.287-.184.649-.209.956-.068 3.438 1.569 7.367 1.569 10.805 0 .308-.142.668-.116.956.068.286.184.459.501.459.841v4.969c0 .163-.04.323-.115.466l-5.817 11.029c-.174.328-.515.534-.886.534zm-4.817-12.277 4.817 9.133 4.817-9.133v-3.249c-3.109 1.062-6.525 1.062-9.635 0v3.249z" fill="#3f4d81"/></g><g><path d="m69.262 78.845c-.227 0-.449-.077-.629-.223l-5.262-4.258c-.371-.3-.479-.821-.256-1.244l5.817-11.029c.252-.479.84-.672 1.328-.43l5.816 2.874c.24.119.422.329.506.583s.062.532-.06.77l-6.372 12.414c-.138.268-.389.459-.683.522-.068.014-.137.021-.205.021zm-3.994-5.518 3.667 2.967 5.346-10.415-4.033-1.993z" fill="#3f4d81"/></g><g><path d="m58.738 78.845c-.068 0-.138-.007-.207-.021-.294-.062-.545-.254-.683-.522l-6.372-12.414c-.122-.238-.144-.516-.06-.77s.266-.464.506-.583l5.816-2.874c.487-.242 1.075-.049 1.328.43l5.817 11.029c.223.422.115.943-.256 1.244l-5.262 4.258c-.178.146-.4.223-.627.223zm-5.018-12.967 5.346 10.415 3.667-2.967-4.979-9.441z" fill="#3f4d81"/></g><g><path d="m75.634 113h-23.268c-4.312 0-7.694-1.258-10.052-3.741-5.003-5.269-4.501-14.987-4.097-22.796.102-1.964.197-3.82.197-5.438 0-11.319 13.046-16.323 13.602-16.53.47-.176 1.007.029 1.239.48l5.81 11.318 4.306-3.484c.367-.297.891-.297 1.258 0l4.306 3.484 5.81-11.318c.232-.452.771-.656 1.239-.48.556.208 13.602 5.211 13.602 16.53 0 1.618.096 3.474.197 5.438.404 7.809.906 17.528-4.097 22.796-2.358 2.483-5.74 3.741-10.052 3.741zm-23.733-46.283c-2.747 1.253-11.486 5.901-11.486 14.308 0 1.67-.098 3.55-.2 5.541-.384 7.427-.861 16.67 3.55 21.316 1.992 2.098 4.805 3.118 8.601 3.118h23.268c3.796 0 6.609-1.02 8.602-3.118 4.411-4.646 3.934-13.889 3.55-21.316-.103-1.991-.2-3.871-.2-5.541 0-8.426-8.74-13.062-11.486-14.309l-5.947 11.586c-.138.268-.389.459-.683.522-.299.062-.602-.011-.836-.201l-4.634-3.749-4.633 3.749c-.234.189-.538.261-.836.201-.294-.062-.545-.254-.683-.522z" fill="#3f4d81"/></g><g><path d="m58.796 104.052c-5.64 0-10.228-4.588-10.228-10.228v-11.509c0-.552.447-1 1-1s1 .448 1 1v11.509c0 4.537 3.69 8.228 8.228 8.228.553 0 1 .448 1 1s-.447 1-1 1z" fill="#3f4d81"/></g><g><path d="m72.104 113h-8.274c-.553 0-1-.448-1-1v-7.229c0-.552.447-1 1-1 1.426 0 3.063-.647 4.646-1.272 2.838-1.12 6.051-2.391 8.564.075 1.795 1.761 2.229 3.969 1.256 6.384-.975 2.418-3.463 4.042-6.192 4.042zm-7.275-2h7.274c1.922 0 3.665-1.121 4.337-2.79.665-1.65.403-3.027-.801-4.209-1.48-1.452-3.417-.833-6.429.357-1.434.566-2.907 1.148-4.382 1.344v5.298z" fill="#3f4d81"/></g><g><path d="m63.829 113h-5.033c-.553 0-1-.448-1-1v-8.948c0-.552.447-1 1-1h5.033c.553 0 1 .448 1 1v8.948c0 .552-.447 1-1 1zm-4.033-2h3.033v-6.948h-3.033z" fill="#3f4d81"/></g><g><path d="m73.096 103.183c-.377 0-.737-.213-.907-.577-.233-.5-.017-1.096.483-1.329 2.892-1.349 4.76-4.273 4.76-7.452v-11.51c0-.552.447-1 1-1s1 .448 1 1v11.509c0 3.953-2.321 7.589-5.914 9.265-.137.064-.281.094-.422.094z" fill="#3f4d81"/></g></g><g><g><path d="m20.796 45.523c-6.276 0-11.383-5.106-11.383-11.383v-1.167c0-.552.447-1 1-1 .053-.005 1.991-.182 1.991-4.662 0-2.505 2.038-4.543 4.543-4.543h7.698c2.505 0 4.543 2.038 4.543 4.543 0 4.48 1.938 4.657 2.021 4.663.526.034.971.472.971 1v1.167c0 6.276-5.107 11.382-11.384 11.382zm-9.383-11.769v.386c0 5.174 4.209 9.383 9.383 9.383s9.384-4.209 9.384-9.383v-.386c-1.184-.466-2.991-1.917-2.991-6.443 0-1.402-1.141-2.543-2.543-2.543h-7.698c-1.402 0-2.543 1.141-2.543 2.543-.001 4.525-1.808 5.977-2.992 6.443z" fill="#3f4d81"/></g><g><path d="m31.18 33.973c-.163 0-3.991-.076-3.991-6.662 0-1.402-1.141-2.543-2.543-2.543h-7.698c-1.402 0-2.543 1.141-2.543 2.543 0 6.586-3.828 6.662-3.991 6.662-.447 0-.84-.297-.962-.727-.294-1.035-.45-2.146-.466-3.304-.011-.059-.017-.119-.017-.181v-5.724c0-3.438.787-5.667 2.34-6.625.879-.542 1.838-.562 2.576-.413.612-.833 1.872-1.999 4.12-1.999h5.584c4.982 0 9.035 4.053 9.035 9.035v5.726c0 .064-.006.128-.018.189-.016 1.155-.172 2.263-.465 3.296-.121.43-.514.727-.961.727zm-20.211-4.387c.01.057.016.114.016.173.001.643.051 1.265.15 1.863.57-.481 1.27-1.62 1.27-4.312 0-2.505 2.038-4.543 4.543-4.543h7.698c2.505 0 4.543 2.038 4.543 4.543 0 2.683.695 3.823 1.271 4.307.099-.596.148-1.217.148-1.857 0-.062.006-.123.017-.183v-5.543c0-3.879-3.156-7.035-7.035-7.035h-5.584c-2.044 0-2.722 1.511-2.749 1.575-.109.252-.32.454-.579.548-.258.095-.546.083-.792-.04s-.851-.396-1.538.038c-.515.325-1.378 1.396-1.378 4.916v5.55z" fill="#3f4d81"/></g><g><path d="m20.796 56.413c-.371 0-.712-.206-.885-.534l-4.302-8.156c-.075-.144-.115-.304-.115-.466v-3.675c0-.34.173-.657.459-.841.288-.184.649-.209.956-.068 2.476 1.13 5.302 1.129 7.773 0 .307-.142.669-.116.956.068.286.184.459.501.459.841v3.675c0 .163-.04.323-.115.466l-4.302 8.156c-.172.328-.513.534-.884.534zm-3.302-9.404 3.302 6.26 3.302-6.26v-1.979c-2.138.656-4.462.656-6.604 0z" fill="#3f4d81"/></g><g><path d="m16.384 59.562c-.086 0-.173-.011-.259-.034-.288-.077-.527-.279-.651-.551l-4.19-9.18c-.224-.491-.018-1.072.467-1.312l4.301-2.125c.488-.242 1.076-.049 1.328.43l4.302 8.156c.233.442.104.99-.304 1.28l-4.412 3.149c-.173.123-.376.187-.582.187zm-2.878-9.714 3.284 7.195 2.714-1.937-3.44-6.522z" fill="#3f4d81"/></g><g><path d="m25.209 59.562c-.206 0-.409-.064-.581-.186l-4.413-3.149c-.407-.291-.537-.838-.304-1.28l4.302-8.156c.252-.48.84-.672 1.328-.43l4.302 2.125c.484.239.69.82.467 1.312l-4.19 9.18c-.124.272-.363.474-.651.551-.087.021-.174.033-.26.033zm-3.121-4.456 2.715 1.937 3.284-7.195-2.559-1.264z" fill="#3f4d81"/></g><g><path d="m20.796 74.587c-10.86 0-19.367-3.875-19.367-8.821l.038-.773c.076-1.477.148-2.871.148-4.08 0-8.549 9.811-12.312 10.229-12.468.49-.184 1.042.044 1.26.522l3.687 8.077 3.425-2.444c.348-.248.814-.248 1.162 0l3.426 2.444 3.687-8.077c.218-.478.771-.707 1.26-.521.418.156 10.228 3.919 10.228 12.468 0 1.199.071 2.581.147 4.043l.039.759c-.001 4.996-8.509 8.871-19.369 8.871zm-9.104-23.895c-2.232 1.063-8.077 4.403-8.077 10.22 0 1.26-.073 2.68-.15 4.183l-.037.721c.001 3.176 7.134 6.771 17.368 6.771 10.235 0 17.368-3.595 17.368-6.821l-.037-.706c-.077-1.489-.15-2.896-.15-4.147 0-5.835-5.844-9.164-8.075-10.222l-3.782 8.286c-.124.272-.363.474-.651.551-.291.077-.597.021-.84-.152l-3.832-2.734-3.831 2.734c-.243.173-.548.229-.84.152-.288-.077-.527-.279-.651-.551z" fill="#3f4d81"/></g><g><path d="m31.469 73.132c-.553 0-1-.448-1-1v-10.265c0-.552.447-1 1-1s1 .448 1 1v10.265c0 .552-.448 1-1 1z" fill="#3f4d81"/></g><g><path d="m10.124 73.132c-.553 0-1-.448-1-1v-10.265c0-.552.447-1 1-1s1 .448 1 1v10.265c0 .552-.447 1-1 1z" fill="#3f4d81"/></g></g><g><g><path d="m107.204 45.523c-6.277 0-11.384-5.106-11.384-11.383v-1.167c0-.552.447-1 1-1 .053-.005 1.991-.182 1.991-4.662 0-2.505 2.038-4.543 4.543-4.543h7.698c2.505 0 4.543 2.038 4.543 4.543 0 4.48 1.938 4.657 2.021 4.663.526.034.971.472.971 1v1.167c0 6.276-5.107 11.382-11.383 11.382zm-9.384-11.769v.386c0 5.174 4.21 9.383 9.384 9.383s9.383-4.209 9.383-9.383v-.386c-1.184-.466-2.991-1.917-2.991-6.443 0-1.402-1.141-2.543-2.543-2.543h-7.698c-1.402 0-2.543 1.141-2.543 2.543 0 4.525-1.808 5.977-2.992 6.443z" fill="#3f4d81"/></g><g><path d="m117.587 33.973c-.163 0-3.991-.076-3.991-6.662 0-1.402-1.141-2.543-2.543-2.543h-7.698c-1.402 0-2.543 1.141-2.543 2.543 0 6.586-3.828 6.662-3.991 6.662-.447 0-.84-.297-.962-.727-.294-1.035-.449-2.144-.465-3.3-.012-.06-.018-.122-.018-.186v-5.726c0-4.982 4.053-9.035 9.035-9.035h5.584c2.248 0 3.508 1.166 4.12 1.998.739-.147 1.697-.128 2.576.413 1.553.958 2.34 3.188 2.34 6.625v5.724c0 .063-.006.125-.017.185-.017 1.157-.173 2.267-.466 3.301-.121.431-.514.728-.961.728zm-20.211-4.391c.011.058.017.118.017.179 0 .642.05 1.264.149 1.862.57-.481 1.27-1.62 1.27-4.312 0-2.505 2.038-4.543 4.543-4.543h7.698c2.505 0 4.543 2.038 4.543 4.543 0 2.684.695 3.823 1.271 4.307.099-.596.148-1.217.149-1.858 0-.06.006-.119.016-.176v-5.547c0-3.537-.871-4.603-1.391-4.923-.679-.417-1.516-.034-1.525-.03-.25.124-.541.14-.801.042-.262-.099-.47-.302-.574-.561-.023-.054-.701-1.564-2.745-1.564h-5.584c-3.879 0-7.035 3.156-7.035 7.035v5.546z" fill="#3f4d81"/></g><g><path d="m107.204 56.413c-.371 0-.712-.206-.885-.534l-4.302-8.156c-.075-.144-.115-.304-.115-.466v-3.675c0-.34.173-.657.459-.841.288-.184.649-.209.956-.068 2.473 1.13 5.299 1.131 7.773 0 .307-.142.668-.116.956.068.286.184.459.501.459.841v3.675c0 .163-.04.323-.115.466l-4.302 8.156c-.172.328-.513.534-.884.534zm-3.302-9.404 3.302 6.26 3.302-6.26v-1.979c-2.142.656-4.466.656-6.604 0z" fill="#3f4d81"/></g><g><path d="m111.616 59.562c-.206 0-.409-.064-.581-.186l-4.412-3.149c-.407-.291-.537-.838-.304-1.28l4.302-8.156c.252-.48.84-.672 1.328-.43l4.301 2.125c.484.239.69.82.467 1.312l-4.19 9.18c-.124.272-.363.474-.651.551-.087.021-.174.033-.26.033zm-3.12-4.456 2.714 1.937 3.284-7.195-2.558-1.264z" fill="#3f4d81"/></g><g><path d="m102.791 59.562c-.087 0-.173-.011-.259-.034-.288-.077-.527-.279-.651-.551l-4.19-9.18c-.224-.491-.018-1.072.467-1.312l4.302-2.125c.487-.242 1.075-.049 1.328.43l4.302 8.156c.233.442.104.99-.304 1.28l-4.413 3.149c-.173.123-.376.187-.582.187zm-2.878-9.714 3.284 7.195 2.715-1.937-3.44-6.522z" fill="#3f4d81"/></g><g><path d="m107.204 74.587c-10.86 0-19.368-3.875-19.368-8.821l.04-.81c.076-1.462.147-2.844.147-4.043 0-8.549 9.81-12.312 10.228-12.468.49-.184 1.042.044 1.26.521l3.687 8.077 3.426-2.444c.348-.248.814-.248 1.162 0l3.425 2.444 3.687-8.077c.218-.478.771-.707 1.26-.522.418.156 10.229 3.919 10.229 12.468 0 1.208.072 2.603.148 4.08l.037.723c-.001 4.997-8.508 8.872-19.368 8.872zm-9.104-23.895c-2.232 1.063-8.076 4.403-8.076 10.22 0 1.251-.073 2.658-.15 4.147l-.038.756c.001 3.176 7.134 6.771 17.369 6.771 10.234 0 17.367-3.595 17.367-6.821l-.036-.67c-.077-1.503-.15-2.922-.15-4.183 0-5.835-5.845-9.164-8.076-10.222l-3.782 8.286c-.124.272-.363.474-.651.551-.292.077-.597.021-.84-.152l-3.831-2.734-3.832 2.734c-.244.174-.55.231-.84.152-.288-.077-.527-.279-.651-.551z" fill="#3f4d81"/></g><g><path d="m96.531 73.132c-.553 0-1-.448-1-1v-10.265c0-.552.447-1 1-1s1 .448 1 1v10.265c0 .552-.447 1-1 1z" fill="#3f4d81"/></g><g><path d="m117.876 73.132c-.553 0-1-.448-1-1v-10.265c0-.552.447-1 1-1s1 .448 1 1v10.265c0 .552-.447 1-1 1z" fill="#3f4d81"/></g></g><g><g><path d="m89.016 93.629c-.198 0-.395-.059-.562-.173-.271-.184-.434-.488-.438-.814-.025-2.062-.13-4.102-.231-6.074-.103-1.992-.199-3.873-.199-5.543 0-9.928-12.167-14.606-12.3-14.656-.032-.012-.063-.025-.095-.041l-5.816-2.874c-.341-.168-.557-.516-.557-.896v-4.969c0-.392.229-.747.585-.91 2.506-1.145 4.63-3.097 5.979-5.497.206-.364.612-.568 1.029-.497 5.351.854 10.258 2.207 14.586 4.02.271.114.479.342.567.624s.048.587-.11.836c-.949 1.489-1.43 3.086-1.43 4.749 0 1.251-.073 2.658-.15 4.147l-.038.756c.001 3.967 9.148 6.769 17.358 6.771.545 0 .989.442 1 .987l.003.049c.004.062.008.124.008.187 0 7.876-7.04 15.261-18.832 19.754-.116.043-.237.064-.357.064zm-12.961-29.05c2.332.896 13.53 5.917 13.53 16.446 0 1.619.096 3.475.196 5.44.079 1.532.16 3.104.205 4.704 9.798-4.048 15.753-10.147 16.191-16.593-10.365-.235-18.342-4.021-18.342-8.81l.04-.81c.076-1.462.147-2.844.147-4.043 0-1.665.387-3.271 1.152-4.788-3.737-1.468-7.904-2.594-12.412-3.355-1.445 2.305-3.522 4.208-5.946 5.446v3.721l5.26 2.599z" fill="#3f4d81"/></g><g><path d="m38.982 93.758c-.118 0-.236-.021-.35-.063-12.008-4.484-19.177-11.918-19.177-19.885 0-.063.004-.125.008-.188.007-.551.425-1.073 1.012-1.042l.321.007c10.235 0 17.368-3.595 17.368-6.822l-.037-.706c-.077-1.489-.15-2.896-.15-4.147 0-1.696-.504-3.328-1.499-4.849-.163-.25-.206-.559-.118-.843s.298-.515.573-.628c4.353-1.796 9.275-3.128 14.634-3.959.418-.065.823.136 1.027.502 1.35 2.424 3.481 4.393 6.004 5.544.356.163.585.518.585.91v4.969c0 .38-.216.728-.557.896l-5.816 2.874c-.03.015-.062.028-.093.04-.123.046-12.302 4.733-12.302 14.657 0 1.671-.097 3.554-.199 5.547-.104 2.013-.211 4.094-.233 6.197-.004.326-.165.629-.435.814-.169.116-.366.175-.566.175zm-17.495-19.176c.47 6.557 6.545 12.688 16.522 16.725.044-1.646.127-3.263.208-4.838.102-1.967.197-3.824.197-5.444 0-11.087 12.517-16.115 13.552-16.511l5.216-2.577v-3.721c-2.442-1.247-4.53-3.168-5.979-5.499-4.51.741-8.687 1.848-12.44 3.298.806 1.552 1.213 3.194 1.213 4.898 0 1.199.071 2.581.147 4.043l.039.759c.002 4.891-8.146 8.707-18.675 8.867z" fill="#3f4d81"/></g></g></g></g></svg>