<svg height="512" viewBox="0 0 64 64" width="512" xmlns="http://www.w3.org/2000/svg"><g id="Maintenance_Computer" data-name="Maintenance Computer"><path d="m64 8.17v41.66a4.08 4.08 0 0 1 -4 4.17h-56a4.08 4.08 0 0 1 -4-4.17v-41.66a4.08 4.08 0 0 1 4-4.17h56a4.08 4.08 0 0 1 4 4.17z" fill="#50d9d7"/><path d="m44 64h-24a13.7 13.7 0 0 0 4-10h16a13.68 13.68 0 0 0 4 10z" fill="#00bebd"/><path d="m45 64h-26a1 1 0 0 1 0-2h26a1 1 0 0 1 0 2z" fill="#50d9d7"/><path d="m61 7.4v15.2c0 .22-.45.4-1 .4h-56c-.55 0-1-.18-1-.4v-15.2c0-.22.45-.4 1-.4h56c.55 0 1 .18 1 .4z" fill="#93e6e5"/><path d="m61 12v36a1 1 0 0 1 -1 1h-56a1 1 0 0 1 -1-1v-40a1 1 0 0 1 1-1c17.54 0 16.33 0 17 .11a4 4 0 0 1 2.2 1.39l1.6 2a4 4 0 0 0 3.12 1.5z" fill="#fff"/><path d="m34.84 7h-10.84v-3h9.24a15.42 15.42 0 0 1 1.6 3z" fill="#00bebd"/><path d="m16 4v3h-10.85a16.34 16.34 0 0 1 1.61-3z" fill="#00bebd"/><path d="m36 12h-8a4 4 0 0 1 -3.12-1.5l-.8-1v-2.5h10.76a15.9 15.9 0 0 1 1.16 5z" fill="#50d9d7"/><path d="m28 26.86v22.14h-16v-22.14a16.07 16.07 0 0 1 -6.85-19.86h10.85v3.74l4 1.14 4-1.14v-1.24l.8 1a4 4 0 0 0 3.12 1.5h8a16.08 16.08 0 0 1 -7.92 14.86z" fill="#f3f3f3"/><path d="m27.54.15a1 1 0 0 0 -1.54.85v10.19l-6 1.71-6-1.71v-10.19a1 1 0 0 0 -1.54-.85 14 14 0 0 0 1.54 24.44v24.41h12v-24.41a14 14 0 0 0 1.54-24.44z" fill="#ffac00"/><path d="m20 45a2 2 0 0 1 -2-2v-10a2 2 0 0 1 4 0v10a2 2 0 0 1 -2 2z" fill="#ea9706"/><path d="m54 29.69v-1.38a1.31 1.31 0 0 0 -1.31-1.31 1.3 1.3 0 0 1 -1.21-.81c-.06-.17-.13-.33-.2-.49a1.28 1.28 0 0 1 .28-1.43 1.31 1.31 0 0 0 0-1.85l-1-1a1.31 1.31 0 0 0 -1.85 0 1.29 1.29 0 0 1 -1.43.28l-.49-.2a1.3 1.3 0 0 1 -.79-1.19 1.31 1.31 0 0 0 -1.31-1.31h-1.38a1.31 1.31 0 0 0 -1.31 1.31 1.3 1.3 0 0 1 -.81 1.21l-.49.2a1.28 1.28 0 0 1 -1.43-.28 1.31 1.31 0 0 0 -1.85 0l-1 1a1.31 1.31 0 0 0 0 1.85 1.29 1.29 0 0 1 .28 1.43c-.07.16-.14.32-.2.49a1.3 1.3 0 0 1 -1.21.81 1.31 1.31 0 0 0 -1.29 1.29v1.38a1.31 1.31 0 0 0 1.31 1.31 1.3 1.3 0 0 1 1.21.81c.06.17.13.33.2.49a1.28 1.28 0 0 1 -.28 1.43 1.31 1.31 0 0 0 0 1.85l1 1a1.31 1.31 0 0 0 1.85 0 1.29 1.29 0 0 1 1.43-.28l.49.2a1.3 1.3 0 0 1 .79 1.19 1.31 1.31 0 0 0 1.31 1.31h1.38a1.31 1.31 0 0 0 1.31-1.31 1.3 1.3 0 0 1 .81-1.21l.49-.2a1.28 1.28 0 0 1 1.43.28 1.31 1.31 0 0 0 1.85 0l1-1a1.31 1.31 0 0 0 0-1.85 1.29 1.29 0 0 1 -.28-1.43c.07-.16.14-.32.2-.49a1.3 1.3 0 0 1 1.19-.79 1.31 1.31 0 0 0 1.31-1.31z" fill="#50d9d7"/><circle cx="44" cy="29" fill="#00bebd" r="5"/><g fill="#d9d9d9"><path d="m33 41h6v2h-6z"/><path d="m43 41h13v2h-13z"/><path d="m33 45h6v2h-6z"/><path d="m43 45h13v2h-13z"/></g></g></svg>