<svg id="Artboard_01" enable-background="new 0 0 64 64" height="512" viewBox="0 0 64 64" width="512" xmlns="http://www.w3.org/2000/svg"><g><path d="m41 9h11v53h-40v-53h11z" fill="#c3313c"/><path d="m23 9h-11v13.583c5.255 12.9 16.422 28.396 40 32.09v-45.673h-11z" fill="#db3845"/><path d="m41 13h7v45h-32v-45h7z" fill="#b5b1a5"/><path d="m23 13h-3v25.924c0 8.602 6.974 15.576 15.576 15.576h12.424v-41.5h-7z" fill="#d9d5ca"/><path d="m39.457 13.728v-.728h-17.854-3.255v3.565h18.272c1.567 0 2.837-1.27 2.837-2.837z" fill="#b5b1a5"/><path d="m23 7h18v8h-18z" fill="#e5e5e5"/><g><path d="m38 7h-2c0-2.206-1.794-4-4-4s-4 1.794-4 4h-2c0-3.309 2.691-6 6-6s6 2.691 6 6z" fill="#e5e5e5"/></g><g><path d="m28 30h-9c-.553 0-1-.448-1-1v-9c0-.552.447-1 1-1h9c.553 0 1 .448 1 1v9c0 .552-.447 1-1 1zm-8-2h7v-7h-7z" fill="#f6f4ef"/></g><g><path d="m28 42h-9c-.553 0-1-.448-1-1v-9c0-.552.447-1 1-1h9c.553 0 1 .448 1 1v9c0 .552-.447 1-1 1zm-8-2h7v-7h-7z" fill="#f6f4ef"/></g><g><path d="m28 54h-9c-.553 0-1-.448-1-1v-9c0-.552.447-1 1-1h9c.553 0 1 .448 1 1v9c0 .552-.447 1-1 1zm-8-2h7v-7h-7z" fill="#f6f4ef"/></g><g><path d="m31 20h2v2h-2z" fill="#f6f4ef"/></g><g><path d="m35 20h10v2h-10z" fill="#f6f4ef"/></g><g><path d="m31 23h7v2h-7z" fill="#f6f4ef"/></g><g><path d="m40 23h5v2h-5z" fill="#f6f4ef"/></g><g><path d="m31 26h5v2h-5z" fill="#f6f4ef"/></g><g><path d="m38 26h7v2h-7z" fill="#f6f4ef"/></g><g><path d="m31 32h2v2h-2z" fill="#f6f4ef"/></g><g><path d="m35 32h10v2h-10z" fill="#f6f4ef"/></g><g><path d="m31 35h7v2h-7z" fill="#f6f4ef"/></g><g><path d="m40 35h5v2h-5z" fill="#f6f4ef"/></g><g><path d="m31 44h2v2h-2z" fill="#f6f4ef"/></g><g><path d="m35 44h10v2h-10z" fill="#f6f4ef"/></g><g><path d="m31 47h14v2h-14z" fill="#f6f4ef"/></g><g><path d="m23 27c-.256 0-.512-.098-.707-.293l-2-2 1.414-1.414 1.293 1.293 7.293-7.293 1.414 1.414-8 8c-.195.195-.451.293-.707.293z" fill="#db3845"/></g><g><path d="m23 39c-.256 0-.512-.098-.707-.293l-2-2 1.414-1.414 1.293 1.293 7.293-7.293 1.414 1.414-8 8c-.195.195-.451.293-.707.293z" fill="#db3845"/></g><ellipse cx="49.817" cy="11.91" fill="#f1afb5" rx="1.232" ry="2.481" transform="matrix(.929 -.369 .369 .929 -.876 19.242)"/><path d="m41 14.108v-7.108h-17.68c1.433 2.558 5.62 6.782 17.68 7.108z" fill="#f2f2f2"/><g fill="#fff"><ellipse cx="38.812" cy="10" rx="1.232" ry="2.481" transform="matrix(.929 -.369 .369 .929 -.949 15.043)"/><path d="m37.718 5.185c-.497-1.563-1.621-2.845-3.072-3.562-.186.565.158 1.521.909 2.366.717.808 1.579 1.259 2.163 1.196z"/></g></g></svg>