<svg height="512" viewBox="0 0 512 512" width="512" xmlns="http://www.w3.org/2000/svg"><g id="flat"><path d="m401.988 475.558a36.521 36.521 0 0 1 -51.268-6.25l-152.252-194.519a345.916 345.916 0 0 0 -124.109-99.314l54.18-88.783-9.093-16.555-57.429-30.269a19.878 19.878 0 0 1 17.918-13.368l55.419-2.432a69.432 69.432 0 0 1 57.718 26.57 69.431 69.431 0 0 1 14.728 44.919 193.18 193.18 0 0 0 40.961 124.983l159.476 203.751a36.52 36.52 0 0 1 -6.249 51.267z" fill="#8f8f87"/><path d="m74.359 175.475a115.408 115.408 0 0 1 -41.283-32.715l-7.086-8.935a30.166 30.166 0 0 1 -1.82-34.925l57.294 33.331 19.2.147z" fill="#b3b2ad"/><circle cx="379.478" cy="446.8" fill="#8f8f87" r="12.173"/><path d="m163.474 134.406-25.019 41a5.5 5.5 0 0 1 -7.848 1.646l-14.807-10.34a5.5 5.5 0 0 1 -1.547-7.379l24.8-40.642a5.5 5.5 0 0 1 7.743-1.717l15.024 9.982a5.5 5.5 0 0 1 1.654 7.45z" fill="#b3b2ad"/><path d="m465.849 59.378-30.256 54.966a9.988 9.988 0 0 1 -13.545 3.944l-37.831-20.71a9.988 9.988 0 0 1 -3.954-13.578l28.982-52.649-17.457-10.381-43.148 43.487a52.412 52.412 0 0 0 -10.629 15.49 52.436 52.436 0 0 0 -3.073 33.947l4.075 16.6-21.047 35.392-206.391 208.006h-.005a59.926 59.926 0 1 0 28.36 28.15v-.006l206.4-208.013 37.885-18.686 12.869 1.164a72.425 72.425 0 0 0 57.929-21.118 72.422 72.422 0 0 0 20.68-44.084l4.307-44.914zm-355.089 393.322-31.74 10.71-28.35-28.13 10.46-31.82 31.74-10.72 28.36 28.14z" fill="#b3b2ad"/><path d="m24 344v48 48h288v-48-48z" fill="#00d498"/><path d="m112 344h112v96h-112z" fill="#ffa54f"/><path d="m128 344h80v96h-80z" fill="#ffc682"/><path d="m24 404h88v8h-88z" fill="#00b377"/><path d="m24 420h88v8h-88z" fill="#00b377"/><path d="m224 404h88v8h-88z" fill="#00b377"/><path d="m224 420h88v8h-88z" fill="#00b377"/><path d="m24 356h88v8h-88z" fill="#00b377"/><path d="m24 372h88v8h-88z" fill="#00b377"/><path d="m224 356h88v8h-88z" fill="#00b377"/><path d="m224 372h88v8h-88z" fill="#00b377"/><path d="m128 388h80v8h-80z" fill="#ffa54f"/><path d="m24 392v48 48h288v-48-48z" fill="#00d498"/><path d="m112 392h112v96h-112z" fill="#ffa54f"/><path d="m128 396h80v92h-80z" fill="#ffc682"/><g fill="#00b377"><path d="m24 452h88v8h-88z"/><path d="m24 468h88v8h-88z"/><path d="m224 452h88v8h-88z"/><path d="m224 436h88v8h-88z"/><path d="m24 436h88v8h-88z"/><path d="m224 468h88v8h-88z"/><path d="m24 404h88v8h-88z"/><path d="m24 420h88v8h-88z"/><path d="m224 404h88v8h-88z"/><path d="m224 420h88v8h-88z"/></g><path d="m112 436h16v8h-16z" fill="#f07f35"/><path d="m128 436h80v8h-80z" fill="#ffa54f"/><path d="m208 436h16v8h-16z" fill="#f07f35"/><path d="m24 388h88v8h-88z" fill="#00b377"/><path d="m224 388h88v8h-88z" fill="#00b377"/><path d="m112 388h16v8h-16z" fill="#f07f35"/><path d="m208 388h16v8h-16z" fill="#f07f35"/><circle cx="432" cy="336" fill="#ffa54f" r="56"/><circle cx="432" cy="336" fill="#ffc682" r="40"/><path d="m442 330.557a4 4 0 0 0 4-4v-.557a14.02 14.02 0 0 0 -10-13.41v-4.59a4 4 0 0 0 -8 0v4.59a14.02 14.02 0 0 0 -10 13.41 12.8 12.8 0 0 0 8.086 11.942l8.857 3.543a4.84 4.84 0 0 1 3.057 4.515 6 6 0 0 1 -12 0v-2a4 4 0 0 0 -4-4 4 4 0 0 0 -4 4v2a14.02 14.02 0 0 0 10 13.4v4.6a4 4 0 0 0 8 0v-4.589a14.02 14.02 0 0 0 10-13.411 12.8 12.8 0 0 0 -8.086-11.942l-8.857-3.543a4.84 4.84 0 0 1 -3.057-4.515 6 6 0 0 1 12 0v.557a4 4 0 0 0 4 4z" fill="#f07f35"/><rect fill="#f07f35" height="24" rx="12" width="112" x="376" y="464"/><rect fill="#f07f35" height="24" rx="12" width="112" x="376" y="440"/><rect fill="#f07f35" height="24" rx="12" width="112" x="376" y="416"/><rect fill="#f07f35" height="24" rx="12" width="112" x="376" y="392"/><rect fill="#e86d3c" height="8" rx="4" width="88" x="388" y="460"/><rect fill="#e86d3c" height="8" rx="4" width="88" x="388" y="412"/><rect fill="#e86d3c" height="8" rx="4" width="88" x="388" y="436"/><circle cx="368" cy="432" fill="#ffa54f" r="56"/><circle cx="368" cy="432" fill="#ffc682" r="40"/><path d="m378 426.557a4 4 0 0 0 4-4v-.557a14.02 14.02 0 0 0 -10-13.41v-4.59a4 4 0 0 0 -8 0v4.59a14.02 14.02 0 0 0 -10 13.41 12.8 12.8 0 0 0 8.086 11.942l8.857 3.543a4.84 4.84 0 0 1 3.057 4.515 6 6 0 0 1 -12 0v-2a4 4 0 0 0 -4-4 4 4 0 0 0 -4 4v2a14.02 14.02 0 0 0 10 13.4v4.6a4 4 0 0 0 8 0v-4.589a14.02 14.02 0 0 0 10-13.411 12.8 12.8 0 0 0 -8.086-11.942l-8.857-3.543a4.84 4.84 0 0 1 -3.057-4.515 6 6 0 0 1 12 0v.557a4 4 0 0 0 4 4z" fill="#f07f35"/></g></svg>