<svg height="511pt" viewBox="0 -18 511.99969 511" width="511pt" xmlns="http://www.w3.org/2000/svg"><path d="m444.398438 217.808594v34.5c0 4.832031-3.410157 8.992187-8.148438 9.941406l-19.71875 3.964844c-17.75 3.574218-32.398438 15.886718-39.300781 32.636718-.082031.175782-.15625.359376-.226563.546876-6.996094 16.78125-5.417968 35.902343 4.644532 51.042968l11.136718 16.742188c2.679688 4.015625 2.144532 9.375-1.277344 12.792968l-24.394531 24.394532c-3.410156 3.410156-8.765625 3.949218-12.785156 1.269531l-16.75-11.125c-15.132813-10.066406-34.265625-11.644531-51.046875-4.65625-.171875.070313-.359375.152344-.542969.226563-16.742187 6.902343-29.050781 21.550781-32.628906 39.3125l-3.964844 19.707031c-.957031 4.738281-5.121093 8.148437-9.953125 8.148437h-34.5c-4.832031 0-8.992187-3.410156-9.941406-8.148437l-3.964844-19.707031c-3.574218-17.761719-15.886718-32.410157-32.636718-39.3125-.175782-.074219-.359376-.144532-.546876-.226563-16.78125-6.988281-35.902343-5.410156-51.042968 4.65625l-16.742188 11.125c-4.015625 2.679687-9.375 2.140625-12.792968-1.269531l-24.394532-24.394532c-3.410156-3.417968-3.949218-8.777343-1.269531-12.792968l11.125-16.742188c10.078125-15.140625 11.644531-34.261718 4.65625-51.042968-.070313-.1875-.152344-.371094-.226563-.546876-6.902343-16.75-21.550781-29.0625-39.3125-32.636718l-19.707031-3.964844c-4.734375-.945312-8.144531-5.109375-8.144531-9.941406v-34.5c0-4.832032 3.410156-8.992188 8.148438-9.953125l19.707031-3.964844c17.761719-3.574219 32.410156-15.886719 39.3125-32.625.070312-.1875.15625-.359375.226562-.546875 6.984375-16.78125 5.417969-35.910156-4.65625-51.042969l-11.125-16.742187c-2.679687-4.027344-2.144531-9.382813 1.265625-12.792969l24.394532-24.398437c3.421874-3.417969 8.777343-3.953126 12.796874-1.273438l16.738282 11.132812c15.144531 10.066407 34.265625 11.640626 51.046875 4.648438.183593-.074219.371093-.144531.546875-.226562 16.75-6.902344 29.0625-21.550782 32.636718-39.300782l3.964844-19.71875c.949219-4.738281 5.109375-8.148437 9.941406-8.148437h34.5c4.832032 0 8.992188 3.410156 9.953126 8.148437l3.964843 19.71875c1.1875 5.878906 3.328125 11.421875 6.273438 16.449219 5.945312 10.160156 15.15625 18.234375 26.351562 22.851563.1875.082031.371094.152343.546875.226562 16.78125 6.992188 35.914063 5.417969 51.046875-4.648438l16.75-11.132812c4.019531-2.679688 9.375-2.144531 12.785157 1.273438l24.394531 24.398437c3.417969 3.410156 3.957031 8.765625 1.277343 12.792969l-11.136718 16.742187c-10.066406 15.132813-11.640625 34.261719-4.644532 51.042969.070313.1875.140626.359375.226563.546875 6.902344 16.738281 21.550781 29.050781 39.300781 32.625l19.71875 3.964844c4.734375.960937 8.144532 5.121093 8.144532 9.953125zm0 0" fill="#4c94c3"/><path d="m444.398438 217.808594v34.5c0 4.832031-3.410157 8.992187-8.148438 9.941406l-19.71875 3.964844c-17.75 3.574218-32.398438 15.886718-39.300781 32.636718-.082031.175782-.15625.359376-.226563.546876-6.996094 16.78125-5.417968 35.902343 4.644532 51.042968l11.136718 16.742188c2.679688 4.015625 2.144532 9.375-1.277344 12.792968l-24.394531 24.394532c-3.410156 3.410156-8.765625 3.949218-12.785156 1.269531l-16.75-11.125c-15.132813-10.066406-34.265625-11.644531-51.046875-4.65625-.171875.070313-.359375.152344-.542969.226563-16.742187 6.902343-29.050781 21.550781-32.628906 39.3125l-3.964844 19.707031c-.957031 4.738281-5.121093 8.148437-9.953125 8.148437h-2.296875v-111.054687c0-38.773438 21.6875-72.585938 53.570313-89.933594-6.273438-9.210937-11.085938-19.5-14.09375-30.523437-2.359375.492187-4.789063.761718-7.292969.761718-19.5625 0-35.46875-15.917968-35.46875-35.46875 0-13.960937 8.109375-26.066406 19.851563-31.84375-11.300782-6.511718-20.347657-16.773437-25.371094-29.585937-3.578125-9.140625-2.421875-19.429688 3.109375-27.539063 5.523437-8.097656 14.679687-12.9375 24.488281-12.9375h1.027344v-10.066406c0-7.539062.929687-14.875 2.667968-21.890625 5.945313 10.15625 15.15625 18.234375 26.351563 22.847656.1875.082031.371094.15625.546875.226563 16.78125 6.996094 35.914062 5.421875 51.046875-4.644532l16.75-11.136718c4.019531-2.679688 9.375-2.140625 12.785156 1.277344l24.394531 24.394531c3.417969 3.410156 3.957032 8.769531 1.277344 12.796875l-11.136718 16.738281c-10.066407 15.132813-11.640626 34.265625-4.644532 51.046875.070313.183594.140625.359375.226563.546875 6.902343 16.738281 21.550781 29.050781 39.300781 32.625l19.71875 3.964844c4.738281.960937 8.148438 5.121093 8.148438 9.953125zm0 0" fill="#3b7ca8"/><path d="m324.464844 235.054688c0 51.230468-37.660156 93.671874-86.824219 101.121093-5.035156.761719-10.199219 1.152344-15.441406 1.152344-56.484375 0-102.273438-45.789063-102.273438-102.273437 0-56.484376 45.789063-102.265626 102.273438-102.265626 2.566406 0 5.109375.089844 7.625.277344 52.917969 3.902344 94.640625 48.066406 94.640625 101.988282zm0 0" fill="#ffbf00"/><path d="m324.464844 235.054688c0 51.230468-37.660156 93.671874-86.824219 101.121093 3.371094-34.519531 23.972656-64.078125 53.078125-79.910156-6.277344-9.210937-11.085938-19.5-14.09375-30.523437-2.359375.492187-4.789062.761718-7.296875.761718-19.5625 0-35.46875-15.917968-35.46875-35.46875 0-13.960937 8.109375-26.066406 19.855469-31.84375-10.261719-5.914062-18.667969-14.917968-23.890625-26.125 52.917969 3.902344 94.640625 48.066406 94.640625 101.988282zm0 0" fill="#f79800"/><path d="m121.683594 94.582031h33.914062v208.132813h-33.914062zm0 0" fill="#bcdde2"/><path d="m138.640625 94.582031h16.957031v208.132813h-16.957031zm0 0" fill="#8bc1c6"/><path d="m108.101562 443.941406v-101.835937c0-16.867188 13.671876-30.542969 30.539063-30.542969s30.539063 13.675781 30.539063 30.542969v101.835937c0 16.867188-13.671876 30.539063-30.539063 30.539063s-30.539063-13.671875-30.539063-30.539063zm0 0" fill="#ffbf00"/><path d="m169.175781 342.101562v101.84375c0 16.863282-13.667969 30.535157-30.535156 30.535157-2.9375 0-5.785156-.421875-8.480469-1.203125 12.746094-3.667969 22.066406-15.40625 22.066406-29.332032v-101.84375c0-8.4375-3.421874-16.0625-8.949218-21.59375-3.597656-3.597656-8.089844-6.300781-13.117188-7.75 2.695313-.78125 5.542969-1.191406 8.480469-1.191406 8.429687 0 16.0625 3.414063 21.59375 8.941406 5.519531 5.53125 8.941406 13.15625 8.941406 21.59375zm0 0" fill="#f79800"/><path d="m130.28125 47.488281h16.71875c4.980469 0 9.246094 3.5625 10.136719 8.460938l5.9375 32.679687c1.152343 6.324219-3.707031 12.144532-10.132813 12.144532h-28.601562c-6.425782 0-11.285156-5.820313-10.136719-12.144532l5.941406-32.679687c.890625-4.898438 5.15625-8.460938 10.136719-8.460938zm0 0" fill="#dceeef"/><path d="m167.167969 320.777344h-57.058594c-8.082031 0-14.636719-6.554688-14.636719-14.636719 0-8.085937 6.554688-14.640625 14.636719-14.640625h57.058594c8.085937 0 14.636719 6.554688 14.636719 14.640625.003906 8.082031-6.550782 14.636719-14.636719 14.636719zm0 0" fill="#ffd96e"/><path d="m138.640625 442.480469c-4.269531 0-7.726563-3.457031-7.726563-7.726563v-86.328125c0-4.269531 3.460938-7.726562 7.726563-7.726562 4.269531 0 7.726563 3.457031 7.726563 7.726562v86.328125c0 4.269532-3.460938 7.726563-7.726563 7.726563zm0 0" fill="#ffd96e"/><path d="m504.417969 191.035156c0 12.761719-10.34375 23.105469-23.105469 23.105469-1.640625 0-3.238281-.164063-4.773438-.492187-10.476562-2.195313-18.335937-11.488282-18.335937-22.613282 0-11.507812 8.40625-21.058594 19.417969-22.816406 1.195312-.199219 2.433594-.300781 3.691406-.300781 12.761719-.003907 23.105469 10.351562 23.105469 23.117187zm0 0" fill="#ffc197"/><path d="m292.4375 191.035156c0 11.125-7.859375 20.40625-18.328125 22.601563-1.535156.328125-3.140625.503906-4.777344.503906-12.765625 0-23.109375-10.34375-23.109375-23.105469 0-12.765625 10.34375-23.117187 23.109375-23.117187 1.257813 0 2.492188.101562 3.695313.296875 11.003906 1.761718 19.410156 11.3125 19.410156 22.820312zm0 0" fill="#ffc197"/><path d="m501.132812 346.199219v119.976562c0 5.6875-4.613281 10.300781-10.304687 10.300781h-231.015625c-5.691406 0-10.300781-4.613281-10.300781-10.300781v-119.976562c0-49.667969 40.261719-89.933594 89.933593-89.933594h71.75c49.671876 0 89.9375 40.265625 89.9375 89.933594zm0 0" fill="#009af2"/><g fill="#006fd3"><path d="m459.410156 345.3125v131.164062h-15.453125v-131.164062c0-4.261719 3.460938-7.726562 7.726563-7.726562s7.726562 3.464843 7.726562 7.726562zm0 0"/><path d="m306.683594 345.3125v131.164062h-15.453125v-131.164062c0-4.261719 3.464843-7.726562 7.726562-7.726562 4.265625 0 7.726563 3.464843 7.726563 7.726562zm0 0"/><path d="m452.402344 266.238281c-18.789063 21.464844-46.382813 35.039063-77.085938 35.039063-30.695312 0-58.28125-13.574219-77.078125-35.027344 12.347657-6.390625 26.359375-9.988281 41.214844-9.988281h71.738281c14.855469 0 28.867188 3.597656 41.210938 9.976562zm0 0"/></g><path d="m501.132812 397.328125v68.847656c0 5.6875-4.613281 10.300781-10.304687 10.300781h-231.015625c-5.691406 0-10.300781-4.613281-10.300781-10.300781v-68.847656zm0 0" fill="#8df4ff"/><path d="m443.957031 397.328125h15.453125v79.148437h-15.453125zm0 0" fill="#00e0ff"/><path d="m291.230469 397.328125h15.453125v79.148437h-15.453125zm0 0" fill="#00e0ff"/><path d="m375.320312 331.144531c-18.007812 0-32.605468-14.601562-32.605468-32.609375v-38.113281h65.210937v38.113281c0 18.007813-14.597656 32.609375-32.605469 32.609375zm0 0" fill="#ef7d30"/><path d="m292.4375 191.035156c0 11.125-7.859375 20.40625-18.328125 22.601563-.71875-4.832031-1.082031-9.777344-1.082031-14.804688v-30.617187c11.003906 1.761718 19.410156 11.3125 19.410156 22.820312zm0 0" fill="#ff9e5c"/><path d="m477.621094 168.214844v30.617187c0 5.027344-.359375 9.980469-1.078125 14.8125-10.476563-2.191406-18.339844-11.484375-18.339844-22.609375 0-11.507812 8.40625-21.058594 19.417969-22.820312zm0 0" fill="#ff9e5c"/><path d="m465.261719 108.765625v90.066406c0 49.664063-40.257813 89.9375-89.945313 89.9375-49.664062 0-89.925781-40.273437-89.925781-89.9375v-90.066406zm0 0" fill="#ffc197"/><path d="m332.46875 200.636719c-4.265625 0-7.726562-3.460938-7.726562-7.726563v-1.878906c0-4.269531 3.460937-7.726562 7.726562-7.726562 4.269531 0 7.726562 3.460937 7.726562 7.726562v1.878906c0 4.265625-3.457031 7.726563-7.726562 7.726563zm0 0" fill="#2c6a9b"/><path d="m418.171875 200.636719c-4.269531 0-7.726563-3.460938-7.726563-7.726563v-1.878906c0-4.269531 3.460938-7.726562 7.726563-7.726562s7.726563 3.460937 7.726563 7.726562v1.878906c0 4.265625-3.457032 7.726563-7.726563 7.726563zm0 0" fill="#2c6a9b"/><path d="m375.320312 232.363281c-14.621093 0-26.515624-11.894531-26.515624-26.511719 0-4.269531 3.460937-7.726562 7.726562-7.726562 4.269531 0 7.726562 3.457031 7.726562 7.726562 0 6.097657 4.964844 11.058594 11.0625 11.058594 6.097657 0 11.0625-4.960937 11.0625-11.058594 0-4.269531 3.457032-7.726562 7.722657-7.726562 4.269531 0 7.726562 3.457031 7.726562 7.726562.003907 14.617188-11.890625 26.511719-26.511719 26.511719zm0 0" fill="#ff9e5c"/><path d="m481.3125 132.207031h-211.984375v-53.140625c0-43.390625 35.175781-78.566406 78.566406-78.566406h54.851563c43.390625 0 78.566406 35.175781 78.566406 78.566406zm0 0" fill="#8df4ff"/><path d="m285.390625 108.765625h179.871094v58.253906h-179.871094zm0 0" fill="#ff9e5c"/><path d="m467.425781 154.660156h-184.207031c-19.164062 0-36.371094-11.734375-43.367188-29.574218-4.445312-11.335938 3.914063-23.59375 16.089844-23.59375h238.757813c12.179687 0 20.535156 12.257812 16.089843 23.59375-6.996093 17.839843-24.203124 29.574218-43.363281 29.574218zm0 0" fill="#009af2"/><path d="m392.195312 85.894531h-26.261718c-12.019532 0-21.796875-9.777343-21.796875-21.796875v-18.769531c0-12.019531 9.777343-21.800781 21.796875-21.800781h18.773437c12.019531 0 21.796875 9.78125 21.796875 21.800781v11.402344c0 4.265625-3.457031 7.726562-7.726562 7.726562h-23.457032c-4.265624 0-7.726562-3.460937-7.726562-7.726562v-6.742188c0-4.269531 3.460938-7.726562 7.726562-7.726562 3.933594 0 7.183594 2.941406 7.664063 6.742187h8.066406v-3.675781c0-3.5-2.847656-6.347656-6.34375-6.347656h-18.773437c-3.496094 0-6.34375 2.847656-6.34375 6.347656v18.769531c0 3.5 2.847656 6.34375 6.34375 6.34375h26.261718c4.269532 0 7.726563 3.460938 7.726563 7.726563 0 4.269531-3.457031 7.726562-7.726563 7.726562zm0 0" fill="#009af2"/></svg>