<svg height="512" viewBox="0 0 512 512" width="512" xmlns="http://www.w3.org/2000/svg"><g id="Flat"><path d="m440 208a184.006 184.006 0 1 1 -47.78-123.69 183.87 183.87 0 0 1 47.78 123.69z" fill="#cacac9"/><path d="m440 208a183.87 183.87 0 0 1 -88 157v-1.28a195.9 195.9 0 0 1 20.58-87.16 32.6 32.6 0 0 0 3.42-14.5v-62.06a36.062 36.062 0 0 1 27.19-34.91l-17.64-41.54a36.608 36.608 0 0 1 -.05-28.66 37.272 37.272 0 0 1 6.72-10.58 183.321 183.321 0 0 1 47.78 123.69z" fill="#b3b1b3"/><path d="m160 363.72v1.28a184.026 184.026 0 0 1 -40.22-280.69 37.272 37.272 0 0 1 6.72 10.58 36.584 36.584 0 0 1 -.05 28.65l-17.64 41.55a36.062 36.062 0 0 1 27.19 34.91v62.06a32.6 32.6 0 0 0 3.42 14.5 195.9 195.9 0 0 1 20.58 87.16z" fill="#b3b1b3"/><path d="m144 392v-28.278a178.893 178.893 0 0 0 -18.887-80.006 48.44 48.44 0 0 1 -5.113-21.66v-62.056a20 20 0 0 0 -20-20 20 20 0 0 0 -20 20v.493a41.742 41.742 0 0 1 3.319-16.311l28.4-66.883a21.04 21.04 0 0 0 -11.868-27.78 21.624 21.624 0 0 0 -28.131 12.215l-47.12 123.582a130.744 130.744 0 0 0 1.06 95.943l29.375 70.741.965 32h88z" fill="#f8caa8"/><path d="m40 392h112v104h-112z" fill="#0093b9"/><rect fill="#e99180" height="95.507" rx="8" width="16" x="72" y="200.493"/><path d="m112 416h16v16h-16z" fill="#5db9d2"/><path d="m168 120h96v176h-96z" fill="#0093b9"/><path d="m272 136h-112v-32l112-16z" fill="#fbbe1f"/><path d="m192 160h16v16h-16z" fill="#067a98"/><path d="m224 160h16v16h-16z" fill="#fbbe1f"/><path d="m192 192h16v16h-16z" fill="#fbbe1f"/><path d="m192 224h16v16h-16z" fill="#067a98"/><path d="m192 256h16v16h-16z" fill="#fbbe1f"/><path d="m232 200-16 16v24a8 8 0 0 0 8 8v48h16v-80z" fill="#0784a9"/><path d="m240 216h96v80h-96z" fill="#0093b9"/><path d="m232 200 112-16v48h-112z" fill="#fbbe1f"/><path d="m296 256h16v16h-16z" fill="#fbbe1f"/><path d="m264 256h16v16h-16z" fill="#067a98"/><path d="m240 232h96v16h-96z" fill="#0784a9"/><g fill="#f3f2f2"><path d="m181.1 349.421q-1.037-.55-2.065-1.115a8 8 0 0 1 -2.924-11.223 8 8 0 0 1 10.666-2.779q.889.488 1.786.964a8 8 0 0 1 3.526 10.442 8 8 0 0 1 -10.989 3.711z"/><path d="m256 368a160.053 160.053 0 0 1 -43.319-5.935 8 8 0 0 1 -5.4-10.273 7.975 7.975 0 0 1 9.693-5.141 144.428 144.428 0 0 0 116.115-17 7.984 7.984 0 0 1 10.786 2.12 8 8 0 0 1 -2.2 11.377 158.9 158.9 0 0 1 -85.675 24.852z"/><path d="m359.852 97.306a7.993 7.993 0 0 1 -10.99.631 143.407 143.407 0 0 0 -92.862-33.937 146.058 146.058 0 0 0 -15.262.8 7.98 7.98 0 0 1 -8.7-6.7 8 8 0 0 1 7.039-9.214 162.324 162.324 0 0 1 16.923-.886 159.343 159.343 0 0 1 103.186 37.713 8.008 8.008 0 0 1 .666 11.593z"/></g><path d="m368 392v-28.278a178.893 178.893 0 0 1 18.887-80.006 48.44 48.44 0 0 0 5.113-21.66v-62.056a20 20 0 0 1 20-20 20 20 0 0 1 20 20v.493a41.742 41.742 0 0 0 -3.319-16.311l-28.4-66.883a21.04 21.04 0 0 1 11.868-27.78 21.624 21.624 0 0 1 28.131 12.215l47.12 123.582a130.744 130.744 0 0 1 -1.06 95.943l-29.375 70.741-.965 32h-88z" fill="#f8caa8"/><path d="m360 392h112v104h-112z" fill="#0093b9"/><rect fill="#e99180" height="95.507" rx="8" width="16" x="424" y="200.493"/><path d="m384 416h16v16h-16z" fill="#5db9d2"/></g></svg>