<?xml version="1.0"?>
<svg xmlns="http://www.w3.org/2000/svg" viewBox="0 0 64 64" width="512" height="512"><g id="_20-manual" data-name="20-manual"><path d="M63,11V53a4,4,0,0,1-4,4H32V53H55V47.03Q56.485,47,58,47V7h1A4,4,0,0,1,63,11Z" style="fill:#43c7b5"/><path d="M55,47.03c-8.8.21-16.71,1.48-23,5.97V9c7-5,16-6,26-6V47Q56.485,47,55,47.03Z" style="fill:#e1e4ed"/><path d="M55,47.03V53H32C38.29,48.51,46.2,47.24,55,47.03Z" style="fill:#afb4c8"/><path d="M32,53v4H5a4,4,0,0,1-4-4V11A4,4,0,0,1,5,7H6V47q1.515,0,3,.03V53Z" style="fill:#5ce0bf"/><path d="M9,47.03Q7.515,47,6,47V3C16,3,25,4,32,9V53C25.71,48.51,17.8,47.24,9,47.03Z" style="fill:#f6fafd"/><path d="M32,53H9V47.03C17.8,47.24,25.71,48.51,32,53Z" style="fill:#afb4c8"/><path d="M63,47v4H59.77a8.764,8.764,0,0,1-1.16,2.78l2.29,2.29L58.07,58.9l-2.29-2.29A8.764,8.764,0,0,1,53,57.77V61H49V57.77a8.764,8.764,0,0,1-2.78-1.16L43.93,58.9,41.1,56.07l2.29-2.29A8.764,8.764,0,0,1,42.23,51H39V47h3.23a8.764,8.764,0,0,1,1.16-2.78L41.1,41.93l2.83-2.83,2.29,2.29A8.764,8.764,0,0,1,49,40.23V37h4v3.23a8.764,8.764,0,0,1,2.78,1.16l2.29-2.29,2.83,2.83-2.29,2.29A8.764,8.764,0,0,1,59.77,47Zm-7,2a5,5,0,1,0-5,5A5,5,0,0,0,56,49Z" style="fill:#ffca6b"/><path d="M26.606,41.919C22.589,40.2,17.763,39.3,10.956,39l.088-2c7.059.311,12.1,1.262,16.35,3.08Z" style="fill:#e1e4ed"/><path d="M26.606,36.919C22.589,35.2,17.763,34.3,10.956,34l.088-2c7.059.311,12.1,1.262,16.35,3.08Z" style="fill:#e1e4ed"/><path d="M26.606,31.919C22.589,30.2,17.763,29.3,10.956,29l.088-2c7.059.311,12.1,1.262,16.35,3.08Z" style="fill:#e1e4ed"/><path d="M26.606,26.919C22.589,25.2,17.763,24.3,10.956,24l.088-2c7.059.311,12.1,1.262,16.35,3.08Z" style="fill:#e1e4ed"/><path d="M26.606,21.919C22.589,20.2,17.763,19.3,10.956,19l.088-2c7.059.311,12.1,1.262,16.35,3.08Z" style="fill:#e1e4ed"/><path d="M26.606,16.919C22.589,15.2,17.763,14.3,10.956,14l.088-2c7.059.311,12.1,1.262,16.35,3.08Z" style="fill:#e1e4ed"/><path d="M37.394,36.919l-.788-1.838c4.249-1.818,9.291-2.769,16.35-3.08l.088,2C46.237,34.3,41.411,35.2,37.394,36.919Z" style="fill:#afb4c8"/><path d="M37.394,31.919l-.788-1.838c4.249-1.818,9.291-2.769,16.35-3.08l.088,2C46.237,29.3,41.411,30.2,37.394,31.919Z" style="fill:#afb4c8"/><path d="M37.394,26.919l-.788-1.838c4.249-1.818,9.291-2.769,16.35-3.08l.088,2C46.237,24.3,41.411,25.2,37.394,26.919Z" style="fill:#afb4c8"/><path d="M37.394,21.919l-.788-1.838c4.249-1.818,9.291-2.769,16.35-3.08l.088,2C46.237,19.3,41.411,20.2,37.394,21.919Z" style="fill:#afb4c8"/><path d="M37.394,16.919l-.788-1.838c4.249-1.818,9.291-2.769,16.35-3.08l.088,2C46.237,14.3,41.411,15.2,37.394,16.919Z" style="fill:#afb4c8"/><path d="M51,55a6,6,0,1,1,6-6A6.006,6.006,0,0,1,51,55Zm0-10a4,4,0,1,0,4,4A4,4,0,0,0,51,45Z" style="fill:#faac65"/></g></svg>
