<svg height="464pt" viewBox="-24 0 464 464" width="464pt" xmlns="http://www.w3.org/2000/svg"><path d="m64 0h240c13.253906 0 24 10.746094 24 24v416c0 13.253906-10.746094 24-24 24h-240c-13.253906 0-24-10.746094-24-24v-416c0-13.253906 10.746094-24 24-24zm0 0" fill="#0093ba"/><path d="m184 184c-22.089844 0-40-17.910156-40-40s17.910156-40 40-40 40 17.910156 40 40c-.027344 22.082031-17.917969 39.972656-40 40zm0-64c-13.253906 0-24 10.746094-24 24s10.746094 24 24 24 24-10.746094 24-24-10.746094-24-24-24zm0 0" fill="#7ecce6"/><path d="m184 144c8.835938 0 16 7.164062 16 16v48h-32v-48c0-8.835938 7.164062-16 16-16zm0 0" fill="#06687f"/><path d="m160 24h16v16h-16zm0 0" fill="#ccdce5"/><path d="m192 24h16v16h-16zm0 0" fill="#ccdce5"/><path d="m176 424h16v16h-16zm0 0" fill="#ccdce5"/><path d="m280 288c0 53.019531-42.980469 96-96 96s-96-42.980469-96-96 42.980469-96 96-96 96 42.980469 96 96zm0 0" fill="#7ecce6"/><g fill="#06687f"><path d="m112 280h16v16h-16zm0 0"/><path d="m240 280h16v16h-16zm0 0"/><path d="m176 216h16v16h-16zm0 0"/><path d="m176 344h16v16h-16zm0 0"/><path d="m150.0625 265.371094 11.3125-11.3125 56.566406 56.574218-11.316406 11.3125zm0 0"/></g><path d="m392 168h-56l-48 32v-32h-16c-13.253906 0-24-10.746094-24-24v-64c0-13.253906 10.746094-24 24-24h120c13.253906 0 24 10.746094 24 24v64c0 13.253906-10.746094 24-24 24zm0 0" fill="#88bf40"/><path d="m280 88h16v16h-16zm0 0" fill="#7ca540"/><path d="m312 88h72v16h-72zm0 0" fill="#7ca540"/><path d="m280 120h104v16h-104zm0 0" fill="#7ca540"/><path d="m352 288h16v128h-16zm0 0" fill="#a1dbe8"/><path d="m0 32h16v192h-16zm0 0" fill="#a1dbe8"/><path d="m0 240h16v16h-16zm0 0" fill="#a1dbe8"/><path d="m195.3125 299.3125-22.625-22.625c-4.015625 4.035156-5.574219 9.90625-4.085938 15.402344l-24.195312 24.199218 11.3125 11.3125 24.191406-24.203124c5.496094 1.488281 11.367188-.070313 15.402344-4.085938zm0 0" fill="#e9f0f1"/><path d="m223.59375 259.710938-11.3125-11.3125-24.191406 24.203124c-5.496094-1.488281-11.367188.070313-15.402344 4.085938l22.625 22.625c4.015625-4.035156 5.574219-9.90625 4.085938-15.402344zm0 0" fill="#eb4042"/></svg>