<svg height="512" viewBox="0 0 64 64" width="512" xmlns="http://www.w3.org/2000/svg"><g id="Icons"><g><g><path d="m42 52c0-5.48 4.432-9.94 9.899-9.995.065-.66.101-1.328.101-2.005v-4h-12v4c0 4.418-3.582 8-8 8s-8-3.582-8-8v-4h-12v4c0 11.046 8.954 20 20 20 4.123 0 7.953-1.25 11.136-3.388-.722-1.381-1.136-2.948-1.136-4.612z" fill="#fab400"/></g><g><path d="m18 20c-3.314 0-6-2.686-6-6 0-3.314 2.686-6 6-6 3.314 0 6 2.686 6 6 0 3.314-2.686 6-6 6z" fill="#f0c8a0"/></g><g><path d="m12 14c0-3.314 2.686-6 6-6 3.314 0 6 2.686 6 6z" fill="#fab400"/></g><g><path d="m16 14c0-2.611 1.671-4.827 4-5.651-.626-.222-1.298-.349-2-.349-3.314 0-6 2.686-6 6s2.686 6 6 6c.702 0 1.374-.127 2-.349-2.329-.824-4-3.04-4-5.651z" fill="#d2aa82"/></g><g><path d="m20 8.349c-.626-.222-1.298-.349-2-.349-3.314 0-6 2.686-6 6h4c0-2.611 1.671-4.827 4-5.651z" fill="#dc9600"/></g><g><path d="m24 26c0-3.314-2.686-6-6-6s-6 2.686-6 6z" fill="#fa6450"/></g><g><path d="m16 26c0-2.611 1.671-4.827 4-5.651-.626-.222-1.298-.349-2-.349-3.314 0-6 2.686-6 6z" fill="#dc4632"/></g><g><path d="m46 20c-3.314 0-6-2.686-6-6 0-3.314 2.686-6 6-6 3.314 0 6 2.686 6 6 0 3.314-2.686 6-6 6z" fill="#f0c8a0"/></g><g><path d="m40 14c0-3.314 2.686-6 6-6 3.314 0 6 2.686 6 6z" fill="#fab400"/></g><g><path d="m44 14c0-2.611 1.671-4.827 4-5.651-.626-.222-1.298-.349-2-.349-3.314 0-6 2.686-6 6s2.686 6 6 6c.702 0 1.374-.127 2-.349-2.329-.824-4-3.04-4-5.651z" fill="#d2aa82"/></g><g><path d="m48 8.349c-.626-.222-1.298-.349-2-.349-3.314 0-6 2.686-6 6h4c0-2.611 1.671-4.827 4-5.651z" fill="#dc9600"/></g><g><path d="m52 26c0-3.314-2.686-6-6-6s-6 2.686-6 6z" fill="#fa6450"/></g><g><path d="m44 26c0-2.611 1.671-4.827 4-5.651-.626-.222-1.298-.349-2-.349-3.314 0-6 2.686-6 6z" fill="#dc4632"/></g><g><path d="m32 16c-3.314 0-6-2.686-6-6 0-3.314 2.686-6 6-6 3.314 0 6 2.686 6 6 0 3.314-2.686 6-6 6z" fill="#f0c8a0"/></g><g><path d="m26 10c0-3.314 2.686-6 6-6 3.314 0 6 2.686 6 6z" fill="#fab400"/></g><g><path d="m30 10c0-2.611 1.671-4.827 4-5.651-.626-.222-1.298-.349-2-.349-3.314 0-6 2.686-6 6s2.686 6 6 6c.702 0 1.374-.127 2-.349-2.329-.824-4-3.04-4-5.651z" fill="#d2aa82"/></g><g><path d="m34 4.349c-.626-.222-1.298-.349-2-.349-3.314 0-6 2.686-6 6h4c0-2.611 1.671-4.827 4-5.651z" fill="#dc9600"/></g><g><path d="m38 22c0-3.314-2.686-6-6-6s-6 2.686-6 6z" fill="#fa6450"/></g><g><path d="m30 22c0-2.611 1.671-4.827 4-5.651-.626-.222-1.298-.349-2-.349-3.314 0-6 2.686-6 6z" fill="#dc4632"/></g><g><path d="m36 48c4.418 0 8-3.582 8-8v-4h-4v4c0 3.726-2.551 6.848-6 7.738.64.165 1.308.262 2 .262z" fill="#dc9600"/></g><g><path d="m16 40v-4h-4v4c0 11.046 8.954 20 20 20 .675 0 1.342-.036 2-.101-10.106-1.004-18-9.529-18-19.899z" fill="#dc9600"/></g><g><path d="m12 28h12v8h-12z" fill="#fa6450"/></g><g><path d="m12 28h4v8h-4z" fill="#dc4632"/></g><g><path d="m40 28h12v8h-12z" fill="#64c8f0"/></g><g><path d="m40 28h4v8h-4z" fill="#46aad2"/></g><g><path d="m32 24-4 8h4v6l4-8h-4z" fill="#fab400"/></g><g><circle cx="52" cy="52" fill="#fa6450" r="8"/></g><g><path d="m45.983 52c0-4.082 3.059-7.443 7.009-7.932-.326-.041-.656-.068-.992-.068-4.418 0-8 3.582-8 8s3.582 8 8 8c.336 0 .666-.027.991-.068-3.949-.489-7.008-3.85-7.008-7.932z" fill="#dc4632"/></g><g><path d="m56 52.8v-1.6h-.905c-.076-.293-.191-.569-.341-.823l.64-.64-1.131-1.131-.64.64c-.254-.15-.53-.265-.823-.341v-.905h-1.6v.905c-.293.076-.569.191-.823.341l-.64-.64-1.131 1.131.64.64c-.15.254-.265.53-.341.823h-.905v1.6h.905c.076.293.191.569.341.823l-.64.64 1.131 1.131.64-.64c.254.15.53.265.823.341v.905h1.6v-.905c.293-.076.569-.191.823-.341l.64.64 1.131-1.131-.64-.64c.15-.254.265-.53.341-.823zm-4 .8c-.882 0-1.6-.718-1.6-1.6s.718-1.6 1.6-1.6 1.6.718 1.6 1.6-.718 1.6-1.6 1.6z" fill="#f0f0f0"/></g></g></g></svg>