<svg id="flat" height="512" viewBox="0 0 512 512" width="512" xmlns="http://www.w3.org/2000/svg"><path d="m320 456h-128l5.591-5.591c21.593-21.593 31.429-52.286 26.409-82.409h64c-5.02 30.123 4.816 60.815 26.409 82.409z" fill="#52b3cc"/><path d="m468 376h-424c-11.046 0-20-8.954-20-20v-256c0-11.046 8.954-20 20-20h424c11.046 0 20 8.954 20 20v256c0 11.046-8.954 20-20 20z" fill="#52b3cc"/><path d="m468 376h-424c-11.046 0-20-8.954-20-20v-28h464v28c0 11.046-8.954 20-20 20z" fill="#3c8395"/><path d="m298.338 440h-84.676c-18.531 0-35.836 9.261-46.116 24.68l-15.546 23.32h208l-15.546-23.32c-10.28-15.419-27.585-24.68-46.116-24.68z" fill="#3c8395"/><g><path d="m304 360h-96c-4.418 0-8-3.582-8-8s3.582-8 8-8h96c4.418 0 8 3.582 8 8s-3.582 8-8 8z" fill="#ffd466"/></g><g><path d="m456 360h-8c-4.418 0-8-3.582-8-8s3.582-8 8-8h8c4.418 0 8 3.582 8 8s-3.582 8-8 8z" fill="#ffd466"/></g><g><path d="m424 360h-8c-4.418 0-8-3.582-8-8s3.582-8 8-8h8c4.418 0 8 3.582 8 8s-3.582 8-8 8z" fill="#ffd466"/></g><g><path d="m392 360h-8c-4.418 0-8-3.582-8-8s3.582-8 8-8h8c4.418 0 8 3.582 8 8s-3.582 8-8 8z" fill="#ffd466"/></g><path d="m56 24h160v272h-160z" fill="#c96750"/><g fill="#ffd466"><path d="m88 48h32v24h-32z"/><path d="m152 48h32v24h-32z"/><path d="m88 96h32v24h-32z"/><path d="m152 96h32v24h-32z"/><path d="m88 144h32v24h-32z"/><path d="m152 144h32v24h-32z"/><path d="m88 192h32v24h-32z"/><path d="m152 192h32v24h-32z"/><path d="m112 240h48v56h-48z"/></g><path d="m446 200h-188c-5.523 0-10-4.477-10-10v-140c0-5.523 4.477-10 10-10h188c5.523 0 10 4.477 10 10v140c0 5.523-4.477 10-10 10z" fill="#f5ecd7"/><path d="m456 72h-208v-22c0-5.523 4.477-10 10-10h188c5.523 0 10 4.477 10 10z" fill="#e8775d"/><g><path d="m432 112h-16c-4.418 0-8-3.582-8-8s3.582-8 8-8h16c4.418 0 8 3.582 8 8s-3.582 8-8 8z" fill="#e8775d"/></g><g><path d="m384 112h-16c-4.418 0-8-3.582-8-8s3.582-8 8-8h16c4.418 0 8 3.582 8 8s-3.582 8-8 8z" fill="#e8775d"/></g><g><path d="m336 112h-16c-4.418 0-8-3.582-8-8s3.582-8 8-8h16c4.418 0 8 3.582 8 8s-3.582 8-8 8z" fill="#e8775d"/></g><g><path d="m432 144h-16c-4.418 0-8-3.582-8-8s3.582-8 8-8h16c4.418 0 8 3.582 8 8s-3.582 8-8 8z" fill="#e8775d"/></g><g><path d="m384 144h-16c-4.418 0-8-3.582-8-8s3.582-8 8-8h16c4.418 0 8 3.582 8 8s-3.582 8-8 8z" fill="#3c8395"/></g><g><path d="m336 144h-16c-4.418 0-8-3.582-8-8s3.582-8 8-8h16c4.418 0 8 3.582 8 8s-3.582 8-8 8z" fill="#e8775d"/></g><g><path d="m432 176h-16c-4.418 0-8-3.582-8-8s3.582-8 8-8h16c4.418 0 8 3.582 8 8s-3.582 8-8 8z" fill="#e8775d"/></g><g><path d="m384 176h-16c-4.418 0-8-3.582-8-8s3.582-8 8-8h16c4.418 0 8 3.582 8 8s-3.582 8-8 8z" fill="#e8775d"/></g><g><path d="m336 176h-16c-4.418 0-8-3.582-8-8s3.582-8 8-8h16c4.418 0 8 3.582 8 8s-3.582 8-8 8z" fill="#e8775d"/></g><g><path d="m288 144h-16c-4.418 0-8-3.582-8-8s3.582-8 8-8h16c4.418 0 8 3.582 8 8s-3.582 8-8 8z" fill="#e8775d"/></g><g><path d="m288 176h-16c-4.418 0-8-3.582-8-8s3.582-8 8-8h16c4.418 0 8 3.582 8 8s-3.582 8-8 8z" fill="#e8775d"/></g><g><path d="m416 56c-4.418 0-8-3.582-8-8v-24c0-4.418 3.582-8 8-8s8 3.582 8 8v24c0 4.418-3.582 8-8 8z" fill="#3c8395"/></g><g><path d="m384 56c-4.418 0-8-3.582-8-8v-24c0-4.418 3.582-8 8-8s8 3.582 8 8v24c0 4.418-3.582 8-8 8z" fill="#3c8395"/></g><g><path d="m320 56c-4.418 0-8-3.582-8-8v-24c0-4.418 3.582-8 8-8s8 3.582 8 8v24c0 4.418-3.582 8-8 8z" fill="#3c8395"/></g><g><path d="m288 56c-4.418 0-8-3.582-8-8v-24c0-4.418 3.582-8 8-8s8 3.582 8 8v24c0 4.418-3.582 8-8 8z" fill="#3c8395"/></g><circle cx="352" cy="248" fill="#3c8395" r="56"/><g><path d="m352 56c-4.418 0-8-3.582-8-8v-24c0-4.418 3.582-8 8-8s8 3.582 8 8v24c0 4.418-3.582 8-8 8z" fill="#3c8395"/></g><g><path d="m344 280c-2.048 0-4.095-.781-5.657-2.343l-16-16c-3.124-3.124-3.124-8.189 0-11.313 3.125-3.124 8.189-3.124 11.314 0l10.343 10.343 34.343-34.343c3.125-3.124 8.189-3.124 11.314 0 3.124 3.124 3.124 8.189 0 11.313l-40 40c-1.562 1.562-3.609 2.343-5.657 2.343z" fill="#ffd466"/></g></svg>