<svg id="Layer_2" enable-background="new 0 0 512 512" height="512" viewBox="0 0 512 512" width="512" xmlns="http://www.w3.org/2000/svg"><g><g><path d="m91 32h350v470h-350z" fill="#d3d3d3"/></g><g><path d="m81 20h350v470h-350z" fill="#d3d3d3"/></g><g><path d="m71 10h350v470h-350z" fill="#edeff1"/></g><g><g><g><path d="m116 199h50v80h-50z" fill="#ffb0aa"/></g><g><path d="m186 139h50v140h-50z" fill="#ffe352"/></g><g><path d="m256 179h50v100h-50z" fill="#80d6fb"/></g><g><path d="m326 99h50v180h-50z" fill="#98ca69"/></g></g><g><path d="m236 139h20v300h-20z" fill="#6e83b7" transform="matrix(0 1 -1 0 535 43)"/></g><g><path d="m156-15h20v140h-20z" fill="#6e83b7" transform="matrix(0 1 -1 0 221 -111)"/></g><g><path d="m126 55h20v80h-20z" fill="#6e83b7" transform="matrix(0 1 -1 0 231 -41)"/></g><g><g><path d="m326 285h20v120h-20z" fill="#6e83b7" transform="matrix(0 1 -1 0 681 9)"/></g><g><path d="m236 335h20v20h-20z" fill="#6e83b7" transform="matrix(0 1 -1 0 591 99)"/></g><g><path d="m326 325h20v120h-20z" fill="#6e83b7" transform="matrix(0 1 -1 0 721 49)"/></g><g><path d="m236 375h20v20h-20z" fill="#6e83b7" transform="matrix(0 1 -1 0 631 139)"/></g><g><path d="m326 365h20v120h-20z" fill="#6e83b7" transform="matrix(0 1 -1 0 761 89)"/></g><g><path d="m236 415h20v20h-20z" fill="#6e83b7" transform="matrix(0 1 -1 0 671 179)"/></g></g><g><g><path d="m156 325v60h60c0-33.137-26.863-60-60-60z" fill="#ffb0aa"/></g><g><path d="m156 385 42.426 42.426c10.858-10.858 17.574-25.857 17.574-42.426z" fill="#ffe352"/></g><g><path d="m113.574 427.426c10.857 10.858 25.857 17.574 42.426 17.574s31.569-6.716 42.426-17.574l-42.426-42.426z" fill="#98ca69"/></g><g><path d="m113.574 427.426 42.426-42.426v-60c-33.137 0-60 26.863-60 60 0 16.569 6.716 31.568 17.574 42.426z" fill="#80d6fb"/></g></g></g></g></svg>