<svg clip-rule="evenodd" fill-rule="evenodd" height="256" image-rendering="optimizeQuality" shape-rendering="geometricPrecision" text-rendering="geometricPrecision" viewBox="0 0 41701 41701" width="256" xmlns="http://www.w3.org/2000/svg"><g id="Layer_x0020_1"><g id="_531956320"><path d="m6110 38071h2089c2390 0 2390-3613 0-3613h-5660c-2390 0-2390-3613 0-3613h5545c2390 0 2390-3613 0-3613h-1991c-2390 0-2390-3612 0-3612h9919 3528 5379c2390 0 2390 3612 0 3612h-995c-2390 0-2390 3613 0 3613h2715c2389 0 2389 3613 0 3613h-2830c-2390 0-2390 3613 0 3613h870c2389 0 2389 3613 0 3613h-5139-3528-9902c-2390 0-2390-3613 0-3613z" fill="#e6e6e6"/><path d="m16919 23619h18605c2390 0 2389 3613 0 3613h-1855c-2525 0-2748 3613 276 3613h5217c2390 0 2390 3613 0 3613h-7515c-2390 0-2390 3613 0 3613h1818c2390 0 2390 3613 0 3613h-16546-996c-2390 0-2390-3613 0-3613h996c2406 0 2506-3613 0-3613h-4255c-2389 0-2389-3613 0-3613h3084c2646 82 2959-3613 0-3613h-1884c-2390 0-2390-3612 0-3612h3055zm20934 14452h-10c-994 0-1807 813-1807 1806 0 994 813 1807 1807 1807h10c994 0 1807-813 1807-1807 0-993-813-1806-1807-1806z" fill="#c2c2c2"/></g><path d="m18 18h41666v41666h-41666z" fill="none" stroke="#fff" stroke-width="35.156"/><g id="_531932944"><path d="m9504 8110h22694v28903h-22694z" fill="#fff"/><path d="m10501 9048h20698v27028h-20698z" fill="#e6e6e6"/><g fill="none" stroke="#105286" stroke-width="651.03"><path d="m32198 11589v19735m-5738 5689h-5717m-9156 0h-2083v-28903h17567"/><g><path d="m13299 14000h15103"/><path d="m13299 15771h15103"/><path d="m13299 17542h15103"/><path d="m13299 19314h9318"/><path d="m13299 22856h15103"/><path d="m13299 24628h15103"/><path d="m13299 26399h15103"/><path d="m13299 28170h10050"/></g></g></g><path d="m38159 14864h-2949v13882h2949z" fill="#fff"/><path d="m38159 28903-867 2372h-1215l-867-2372z" fill="#fff"/><path d="m37292 31275-607 2125-608-2125z" fill="#fff"/><path d="m35928 15465h1513v12680h-1513z" fill="#ff576b"/><path d="m35210 28903 867 2372h1215l867-2372" fill="none" stroke="#105286" stroke-width="651.03"/><path d="m37292 31275-607 2125-608-2125" fill="none" stroke="#105286" stroke-width="651.03"/><path d="m37247 29423h-1124l330 1299h463z" fill="#ffda54"/><path d="m38159 14864h-2949v13882h2949z" fill="none" stroke="#105286" stroke-width="651.03"/><path d="m38159 14864h-2949v-1334c0-483 341-877 758-877h1433c418 0 758 394 758 877z" fill="#fff"/><path d="m38159 14864h-2949v-1334c0-483 341-877 758-877h1433c418 0 758 394 758 877z" fill="none" stroke="#105286" stroke-width="651.03"/><path d="m37481 14376h-1592v-693c0-251 184-456 409-456h774c225 0 409 205 409 456z" fill="#ff576b"/><circle fill="none" r="931" stroke="#105286" stroke-width="651.03" transform="matrix(-.59 .233 .233 .59 28962.5 1166.67)"/><path d="m31074 3539c-161 64-323 127-485 191l186 1336-236 207c-235 205-431 453-578 729l-148 276-1344 122c-26 172-51 344-77 516l1250 507 61 307c31 153 75 303 132 449 58 145 128 285 210 418l165 266-566 1224c136 108 272 216 409 324l1065-829 296 101c296 101 608 148 921 138l313-11 777 1103c162-64 323-128 485-192l-185-1336 235-206c235-206 431-454 578-729l148-277 1344-122c26-172 51-344 77-516l-1250-507-61-306c-30-154-75-304-132-449-58-146-128-286-210-419l-165-266 566-1224c-136-108-272-216-408-324l-1066 829-296-101c-296-100-608-147-921-137l-312 10zm461 1876c1000-395 2131 96 2526 1096 394 1000-96 2131-1096 2526-1000 394-2132-96-2526-1096-395-1000 96-2131 1096-2526z" fill="#ffd027"/><path d="m31748 5954c702-277 1496 68 1773 770s-67 1496-769 1773c-703 277-1496-67-1774-769-277-702 68-1496 770-1774z" fill="none" stroke="#105286" stroke-width="651.03"/><path d="m32145 4051c387-13 768 46 1127 168l1178-917c374 297 749 594 1123 892l-626 1354c99 160 185 331 257 511 71 181 125 365 161 549l1383 561c-70 473-141 946-211 1419l-1487 135c-178 334-417 638-708 892l205 1478c-444 176-889 351-1333 527l-860-1219c-387 12-768-46-1127-169l-1178 918c-374-298-749-595-1123-892l626-1355c-99-160-185-330-256-511-72-181-125-365-162-549l-1383-561c70-473 141-946 211-1419l1487-135c179-334 417-637 708-892l-205-1478c444-176 889-351 1334-527z" fill="none" stroke="#105286" stroke-width="651.03"/><path d="m25771 6598c19-72 95-351 116-426m208-664c254-912 711-1790 1215-2502" fill="none" stroke="#105286" stroke-width="651.03"/><path d="m39301 1176 387 387m1055-387-387 387m-668 668-387 387m1055-387 387 387" fill="none" stroke="#105286" stroke-width="651.03"/><g id="_531938416"><path d="m2040 24963v405l1847 381 81 511c75 474 200 940 372 1388l184 483-1408 1252c68 117 135 234 203 351l1790-593 326 400c302 373 644 714 1016 1017l401 325-594 1791c117 67 234 135 351 202l1253-1408 482 185c134 52 270 99 407 142v-1525c-2014-820-3434-2796-3434-5105 0-2308 1420-4285 3434-5105v-1523c-137 42-273 90-406 141l-483 185-1253-1409c-117 68-234 135-351 203l594 1790-401 326c-373 303-714 644-1016 1016l-326 401-1790-594c-68 117-135 234-203 351l1408 1253-185 482c-172 449-296 914-371 1389l-81 511z" fill="#00dcab"/><path d="m8751 20878c-1590 772-2686 2401-2686 4287s1096 3516 2686 4287m0 3122c-229-64-454-138-674-223l-1314 1477c-469-270-937-541-1406-811l623-1879c-413-335-790-713-1125-1125l-1879 623c-271-469-541-938-812-1406l1478-1315c-188-490-328-1005-412-1538l-1937-400c0-541 0-1082 0-1623l1937-400c84-533 223-1048 411-1539l-1477-1314c271-469 541-937 812-1406l1879 623c335-413 712-790 1125-1125l-623-1879c469-271 937-541 1406-812l1314 1478c220-84 445-159 674-223" fill="none" stroke="#105286" stroke-width="651.03"/></g><path d="m38538 35728 387 387m1055-387-387 387m-668 668-387 387m1055-387 387 387" fill="none" stroke="#105286" stroke-width="651.03"/><g id="_531929992"><circle cx="31913" cy="36396" fill="#ff576b" r="3117"/><circle cx="31913" cy="36396" fill="#fff" r="1200"/></g><g fill="none"><path d="m28321 34592c-348 691-501 1490-395 2316 283 2202 2298 3757 4499 3474 2202-283 3757-2297 3474-4499-283-2201-2297-3757-4499-3474-306 40-599 113-877 215" stroke="#105286" stroke-width="651.03"/><path d="m29617 36684c162 1267 1322 2162 2589 1999s2163-1322 2000-2589c-123-952-806-1693-1675-1935" stroke="#105286" stroke-width="651.03"/><path d="m26793 30488 5120 5908" stroke="#105286" stroke-linecap="round" stroke-linejoin="round" stroke-width="651.03"/><path d="m26793 30488 709-2066 1370 1876-665 1822" stroke="#105286" stroke-width="651.03"/><path d="m26793 30488-2146 408 1662 1623 1898-399" stroke="#105286" stroke-width="651.03"/><circle cx="5444" cy="36207" r="638" stroke="#105286" stroke-width="651.03"/><circle cx="25216" cy="39163" r="638" stroke="#105286" stroke-width="651.03"/><path d="m1104 39027 387 387m1054-387-387 387m-667 668-387 387m1054-387 387 387" stroke="#105286" stroke-width="651.03"/><path d="m1348 1176 387 387m1054-387-387 387m-667 668-387 387m1054-387 387 387" stroke="#105286" stroke-width="651.03"/></g><path d="m9504 882c2150 0 3893 1743 3893 3894 0 1487-834 2780-2059 3435v2304c0 595-487 1082-1083 1082h-1503c-595 0-1082-487-1082-1082v-2304c-1226-655-2060-1948-2060-3435 0-2151 1743-3894 3894-3894z" fill="#ffd027"/><path d="m9504 882c2150 0 3893 1743 3893 3894 0 1487-834 2780-2059 3435v2304c0 595-487 1082-1083 1082h-1503c-595 0-1082-487-1082-1082v-2304c-1226-655-2060-1948-2060-3435 0-2151 1743-3894 3894-3894z" fill="none" stroke="#105286" stroke-width="651.03"/><path d="m9504 5104v4644" fill="none" stroke="#105286" stroke-width="651.03"/><path d="m11013 5104h-3018" fill="none" stroke="#fff" stroke-width="651.03"/><path d="m11338 9748h-3668" fill="none" stroke="#105286" stroke-width="651.03"/><circle cx="2213" cy="9551" fill="none" r="638" stroke="#105286" stroke-width="651.03"/><path d="m15978 34812h3006c395 0 719 324 719 719v3333c0 396-324 719-719 719h-5620c-396 0-719-323-719-719 0-1654 0-3309 0-4963 0-197 162-359 359-359h2614c198 0 360 162 360 359z" fill="#fff"/><path d="m15978 34812h3006c395 0 719 324 719 719v3333c0 396-324 719-719 719h-5620c-396 0-719-323-719-719 0-1654 0-3309 0-4963 0-197 162-359 359-359h2614c198 0 360 162 360 359z" fill="none" stroke="#105286" stroke-width="651.03"/><path d="m15319 34201h-2015v4663c0 32 28 60 60 60h5620c32 0 60-28 60-60v-3333c0-32-28-60-60-60h-3665z" fill="#ffd027"/><path d="m16419 4319 387 387m1055-387-387 387m-668 668-387 387m1055-387 387 387" fill="none" stroke="#105286" stroke-width="651.03"/><path d="m1842 14705 387 387m1055-387-387 387m-668 668-387 387m1055-387 387 387" fill="none" stroke="#105286" stroke-width="651.03"/><path d="m39540 21375 387 387m1055-387-387 387m-668 668-387 387m1055-387 387 387" fill="none" stroke="#105286" stroke-width="651.03"/></g></svg>