<?xml version="1.0" encoding="iso-8859-1"?>
<!-- Generator: Adobe Illustrator 21.0.0, SVG Export Plug-In . SVG Version: 6.00 Build 0)  -->
<svg version="1.1" id="Capa_1" xmlns="http://www.w3.org/2000/svg" xmlns:xlink="http://www.w3.org/1999/xlink" x="0px" y="0px"
	 viewBox="0 0 512 512" style="enable-background:new 0 0 512 512;" xml:space="preserve">
<path style="fill:#F3E8D7;" d="M445.141,0h-18.777H98.285H65.477l0,0l0,0C47.358,0,32.669,14.689,32.669,32.808v335.488
	c0,14.027,11.371,25.399,25.399,25.399h40.217v103.284c0,3.597,2.468,6.723,5.966,7.559l30.331,7.249
	c1.188,0.284,2.426,0.284,3.613,0l34.491-8.243c1.188-0.284,2.426-0.284,3.613,0l34.485,8.242c1.188,0.284,2.426,0.284,3.614,0
	l34.486-8.242c1.188-0.284,2.426-0.284,3.613,0l34.491,8.243c1.188,0.284,2.425,0.284,3.613,0l34.491-8.243
	c1.188-0.284,2.425-0.284,3.613,0l34.493,8.243c1.188,0.284,2.425,0.284,3.613,0l34.492-8.243c1.188-0.284,2.425-0.284,3.613,0
	l34.498,8.243c1.187,0.284,2.425,0.284,3.613,0l30.338-7.249c3.498-0.836,5.966-3.963,5.966-7.56V34.19
	C479.331,15.307,464.024,0,445.141,0z"/>
<path style="fill:#4EAD4E;" d="M65.477,0L65.477,0c-18.12,0-32.808,14.689-32.808,32.808v335.488
	c0,14.027,11.371,25.399,25.399,25.399h40.217V32.808C98.285,14.689,83.596,0,65.477,0z"/>
<path style="fill:#DDD1C3;" d="M445.141,0h-18.777h-3.948v503.113l-9.653,2.306l26.651,6.368c1.187,0.284,2.425,0.284,3.613,0
	l30.338-7.249c3.498-0.836,5.966-3.963,5.966-7.56V34.19C479.331,15.307,464.024,0,445.141,0z"/>
<g>
	<path style="fill:#606060;" d="M338.05,233.455H138.991c-4.267,0-7.726-3.459-7.726-7.726s3.459-7.726,7.726-7.726H338.05
		c4.267,0,7.726,3.459,7.726,7.726S342.317,233.455,338.05,233.455z"/>
	<path style="fill:#606060;" d="M338.05,297.731H138.991c-4.267,0-7.726-3.459-7.726-7.726s3.459-7.726,7.726-7.726H338.05
		c4.267,0,7.726,3.459,7.726,7.726S342.317,297.731,338.05,297.731z"/>
	<path style="fill:#606060;" d="M338.05,362.007H138.991c-4.267,0-7.726-3.459-7.726-7.726s3.459-7.726,7.726-7.726H338.05
		c4.267,0,7.726,3.459,7.726,7.726S342.317,362.007,338.05,362.007z"/>
	<path style="fill:#606060;" d="M338.05,426.283H138.991c-4.267,0-7.726-3.459-7.726-7.726s3.459-7.726,7.726-7.726H338.05
		c4.267,0,7.726,3.459,7.726,7.726S342.317,426.283,338.05,426.283z"/>
	<path style="fill:#606060;" d="M424.694,233.455h-50.083c-4.267,0-7.726-3.459-7.726-7.726s3.459-7.726,7.726-7.726h50.083
		c4.267,0,7.726,3.459,7.726,7.726S428.961,233.455,424.694,233.455z"/>
	<path style="fill:#606060;" d="M424.694,297.731h-50.083c-4.267,0-7.726-3.459-7.726-7.726s3.459-7.726,7.726-7.726h50.083
		c4.267,0,7.726,3.459,7.726,7.726S428.961,297.731,424.694,297.731z"/>
	<path style="fill:#606060;" d="M424.694,362.007h-50.083c-4.267,0-7.726-3.459-7.726-7.726s3.459-7.726,7.726-7.726h50.083
		c4.267,0,7.726,3.459,7.726,7.726S428.961,362.007,424.694,362.007z"/>
</g>
<g>
	<path style="fill:#FD8F31;" d="M140.27,58.691c0-2.965,3.075-4.503,6.26-4.503h21.197c11.422,0,22.075,3.734,22.075,19.33
		c0,9.006-3.514,14.936-9.336,17.462c6.699,2.636,11.312,6.919,11.312,17.902v2.307c0,17.132-9.555,23.283-21.965,23.283H146.53
		c-3.844,0-6.26-2.086-6.26-4.393V58.691z M154.437,85.379h12.3c5.931,0,8.786-3.844,8.786-9.445c0-5.711-3.295-9.225-8.896-9.225
		h-12.191v18.67H154.437z M166.848,121.951c6.699,0,10.653-3.624,10.653-11.97v-1.757c0-8.566-3.954-11.641-10.653-11.641h-12.41
		v25.369L166.848,121.951L166.848,121.951z"/>
	<path style="fill:#FD8F31;" d="M201.992,58.581c0-3.075,3.514-4.393,7.139-4.393c3.514,0,7.139,1.318,7.139,4.393v71.387
		c0,2.966-3.624,4.503-7.139,4.503c-3.624,0-7.139-1.537-7.139-4.503V58.581z"/>
	<path style="fill:#FD8F31;" d="M235.709,134.472c-3.185,0-6.26-1.537-6.26-4.503V58.581c0-3.075,3.514-4.393,7.139-4.393
		c3.514,0,7.139,1.318,7.139,4.393v63.37h26.798c2.856,0,4.284,3.075,4.284,6.26c0,3.075-1.428,6.26-4.284,6.26h-34.816V134.472z"/>
	<path style="fill:#FD8F31;" d="M288.864,134.472c-3.185,0-6.26-1.537-6.26-4.503V58.581c0-3.075,3.514-4.393,7.139-4.393
		c3.514,0,7.139,1.318,7.139,4.393v63.37h26.798c2.855,0,4.284,3.075,4.284,6.26c0,3.075-1.428,6.26-4.284,6.26h-34.816V134.472z"/>
</g>
<path style="fill:#4EAD4E;" d="M399.239,134.362c-13.289-0.33-23.283-7.468-23.283-13.618c0-3.075,2.746-7.689,6.15-7.689
	c4.173,0,7.469,7.14,17.133,8.237V99.437c-9.994-3.734-21.306-8.017-21.306-22.075c0-13.948,10.324-19.989,21.306-21.417V52.87
	c0-1.428,1.647-2.745,3.734-2.745c1.867,0,3.734,1.318,3.734,2.745v2.856c7.139,0.219,18.78,2.306,18.78,8.676
	c0,2.526-1.757,7.578-5.821,7.578c-3.075,0-5.601-3.514-12.96-4.063v19.329c9.775,3.625,20.757,8.566,20.757,23.503
	c0,13.508-8.456,21.306-20.757,23.283v3.405c0,1.428-1.867,2.745-3.734,2.745c-2.086,0-3.734-1.318-3.734-2.745v-3.075H399.239z
	 M400.118,84.83V68.246c-5.492,0.879-8.786,3.515-8.786,7.688C391.331,80.767,395.066,82.853,400.118,84.83z M405.828,102.073v19.11
	c4.833-0.988,8.237-3.844,8.237-9.006C414.065,106.796,410.551,104.16,405.828,102.073z"/>
<g>
</g>
<g>
</g>
<g>
</g>
<g>
</g>
<g>
</g>
<g>
</g>
<g>
</g>
<g>
</g>
<g>
</g>
<g>
</g>
<g>
</g>
<g>
</g>
<g>
</g>
<g>
</g>
<g>
</g>
</svg>
