<svg height="512" viewBox="0 0 512 512" width="512" xmlns="http://www.w3.org/2000/svg"><g id="Flat"><path d="m80 464v-408h264l56 56v352z" fill="#85bb40"/><path d="m80 56 320 408h-320z" fill="#85b140"/><path d="m344 56v56h56z" fill="#d1df87"/><path d="m136 120a24.027 24.027 0 0 1 -24-24v-48a32 32 0 0 1 64 0v8h-16v-8a16 16 0 0 0 -32 0v48a8 8 0 0 0 16 0v-16h16v16a24.027 24.027 0 0 1 -24 24z" fill="#0093b9"/><path d="m256 328v160h-208v-160l104-56z" fill="#e4e4e3"/><path d="m88 376h48v112h-48z" fill="#0093b9"/><path d="m168 392h48v40h-48z" fill="#0093b9"/><path d="m104 336h16v16h-16z" fill="#fbbe1f"/><path d="m256 328v21.5l-104-45.5-104 45.5v-21.5l104-56z" fill="#cacac9"/><path d="m24 304 128-56 128 56v40l-128-56-128 56z" fill="#0093b9"/><path d="m272 400c-16 0-24 16-24 32s-16 16-16 32.232 16 23.768 24 23.768h32c8 0 24-7.537 24-23.768s-16-16.232-16-32.232-8-32-24-32z" fill="#0093b9"/><path d="m480.734 198.041-129.968 192.178-31.18 17.543 4.673-35.47 129.968-192.178a16 16 0 0 1 22.217-4.29 16 16 0 0 1 4.29 22.217z" fill="#fbbe1f"/><path d="m451.125 313.225-13.253-8.963 32.354-47.841-38.545-42.969 9.239-13.661 45.387 50.6a8 8 0 0 1 .672 9.823z" fill="#f79726"/><path d="m356.403 325.495h16v32h-16z" fill="#f79726" transform="matrix(.56 -.828 .828 .56 -122.617 452.039)"/><g fill="#d1df87"><path d="m136 144h16v16h-16z"/><path d="m168 144h192v16h-192z"/><path d="m120 176h240v16h-240z"/><path d="m120 208h240v16h-240z"/><path d="m240 240h120v16h-120z"/><path d="m304 272h24v16h-24z"/></g></g></svg>