<svg height="512" viewBox="0 0 512 512" width="512" xmlns="http://www.w3.org/2000/svg"><g id="Flat"><path d="m392 96h32v392h-304v-32z" fill="#0093b9"/><path d="m120 456v16h288v-376h-16z" fill="#0784a9"/><path d="m88 64h304v392h-304z" fill="#85bb40"/><path d="m392 96v360h-272z" fill="#85b140"/><path d="m144 120a24.027 24.027 0 0 1 -24-24v-48a32 32 0 0 1 64 0v16h-16v-16a16 16 0 0 0 -32 0v48a8 8 0 0 0 16 0v-8h16v8a24.027 24.027 0 0 1 -24 24z" fill="#0093b9"/><g fill="#d1df87"><path d="m312 216h-16v-40a8 8 0 0 0 -8-8h-40v-40a8 8 0 0 0 -8-8h-48a8 8 0 0 0 -8 8v88h-16v16h144zm-32-32v32h-32v-32zm-80-48h32v80h-32z"/><path d="m128 408h56v16h-56z"/><path d="m296 408h56v16h-56z"/><path d="m144 264h16v16h-16z"/><path d="m176 264h176v16h-176z"/><path d="m128 296h224v16h-224z"/><path d="m128 328h224v16h-224z"/><path d="m128 360h192v16h-192z"/><path d="m344 96h16v16h-16z"/><path d="m312 96h16v16h-16z"/><path d="m280 96h16v16h-16z"/></g></g></svg>