<svg id="Layer_1" enable-background="new 0 0 468 468" height="512" viewBox="0 0 468 468" width="512" xmlns="http://www.w3.org/2000/svg"><g><g><path d="m410.354 80.098h-352.708c-8.837 0-16-7.163-16-16v-48.098c0-8.837 7.163-16 16-16h352.708c8.837 0 16 7.163 16 16v48.098c0 8.837-7.163 16-16 16z" fill="#6262f4"/><g><path d="m379.998 39.986h-291.996v401.425l33.181 26.589 38.295-26.589 37.261 26.589 37.261-26.589 37.261 26.589 37.261-26.589 38.295 26.589 33.181-26.589z" fill="#dfdef9"/><g fill="#ac9ef9"><g><g><path d="m325.794 291.814h-12.799c-2.762 0-5-2.238-5-5s2.238-5 5-5h12.799c2.762 0 5 2.238 5 5s-2.238 5-5 5z"/><path d="m278.815 291.814h-139.204c-2.762 0-5-2.238-5-5s2.238-5 5-5h139.204c2.762 0 5 2.238 5 5s-2.238 5-5 5z"/></g><path d="m325.794 341.335h-186.183c-2.762 0-5-2.238-5-5s2.238-5 5-5h186.183c2.762 0 5 2.238 5 5s-2.238 5-5 5z"/><g><path d="m325.794 390.855h-12.799c-2.762 0-5-2.238-5-5s2.238-5 5-5h12.799c2.762 0 5 2.238 5 5s-2.238 5-5 5z"/><path d="m278.815 390.855h-139.204c-2.762 0-5-2.238-5-5s2.238-5 5-5h139.204c2.762 0 5 2.238 5 5s-2.238 5-5 5z"/></g></g><g><path d="m139.611 85.006h86.578v57.223h-86.578z"/><g><path d="m328.389 94.324h-59.48c-2.762 0-5-2.238-5-5s2.238-5 5-5h59.48c2.762 0 5 2.238 5 5s-2.239 5-5 5z"/><path d="m328.389 142.91h-59.48c-2.762 0-5-2.238-5-5s2.238-5 5-5h59.48c2.762 0 5 2.238 5 5s-2.239 5-5 5z"/></g></g><g><path d="m310.914 204.321v-16.33c3.3.676 6.442 2.132 9.144 4.247.678.476 1.47.733 2.3.745 2.575 0 4.692-2.145 4.72-4.784.005-1.161-.43-2.255-1.26-3.115-4.18-3.667-9.471-5.91-14.951-6.347v-5.317c0-1.98-1.569-3.591-3.42-3.591-1.992-.186-3.804 1.553-3.794 3.591v5.124c-10.798.99-18.292 8.081-18.292 17.387 0 11.138 8.603 14.585 18.292 17.297v18.734c-4.398-.723-8.503-2.644-11.919-5.586-.776-.633-1.754-.994-2.806-1.016-2.522.18-4.472 2.35-4.439 4.932-.005 1.16.429 2.255 1.249 3.105 4.957 4.572 11.317 7.263 17.963 7.611v4.906c-.023 1.993 1.775 3.738 3.703 3.597 1.936 0 3.51-1.613 3.51-3.597v-5.022c13.653-1.139 18.534-10.202 18.534-18.382 0-11.867-9.489-15.652-18.534-18.189zm8.562 19.28c0 3.47-2.265 7.453-8.562 8.467v-16.63c5.199 1.593 8.604 3.659 8.562 8.163zm-15.776-36.014v14.818c-4.737-1.463-8.272-3.024-8.272-7.068 0-4.157 3.225-7.152 8.272-7.75z"/><g><path d="m245.906 242.089h-106.295c-2.762 0-5-2.238-5-5s2.238-5 5-5h106.295c2.762 0 5 2.238 5 5s-2.238 5-5 5z"/><path d="m245.906 192.499h-106.295c-2.762 0-5-2.238-5-5s2.238-5 5-5h106.295c2.762 0 5 2.238 5 5s-2.238 5-5 5z"/></g></g></g></g></g><g><g><ellipse cx="388.554" cy="315.966" fill="#35c9ad" rx="68.446" ry="68.323"/><path d="m372.87 341.884-15.041-12.239c-2.142-1.742-2.465-4.892-.722-7.034 1.744-2.141 4.893-2.465 7.034-.722l11.37 9.252 36.913-40.578c1.858-2.044 5.021-2.191 7.062-.334 2.043 1.857 2.192 5.021.334 7.062l-40.097 44.079c-.982 1.081-4.523 1.91-6.853.514z" fill="#fff"/></g><g><ellipse cx="79.446" cy="315.966" fill="#ffd085" rx="68.446" ry="68.323"/><path d="m83.391 310.62v-16.33c3.3.676 6.442 2.132 9.144 4.247.678.476 1.47.733 2.3.745 2.575 0 4.692-2.145 4.72-4.784.005-1.161-.43-2.255-1.26-3.115-4.18-3.667-9.471-5.91-14.951-6.347v-5.317c0-1.98-1.569-3.591-3.42-3.591-1.992-.186-3.804 1.553-3.794 3.591v5.124c-10.798.99-18.292 8.081-18.292 17.387 0 11.138 8.603 14.586 18.292 17.297v18.734c-4.398-.723-8.503-2.644-11.919-5.586-.776-.633-1.754-.994-2.806-1.016-2.522.18-4.472 2.35-4.439 4.932-.005 1.16.429 2.255 1.249 3.105 4.957 4.572 11.317 7.263 17.963 7.611v4.906c-.023 1.993 1.775 3.738 3.703 3.596 1.936 0 3.51-1.613 3.51-3.596v-5.022c13.653-1.138 18.534-10.202 18.534-18.382.001-11.867-9.488-15.652-18.534-18.189zm8.563 19.28c0 3.47-2.265 7.453-8.562 8.467v-16.63c5.199 1.593 8.604 3.659 8.562 8.163zm-15.776-36.014v14.818c-4.737-1.463-8.272-3.024-8.272-7.068 0-4.157 3.225-7.152 8.272-7.75z" fill="#fff"/></g></g></g></svg>