<svg height="512" viewBox="0 0 512 512" width="512" xmlns="http://www.w3.org/2000/svg"><g id="Flat"><path d="m400 176h64a24 24 0 0 1 24 24v136a0 0 0 0 1 0 0h-88a0 0 0 0 1 0 0v-160a0 0 0 0 1 0 0z" fill="#cacac9"/><path d="m464 176a24 24 0 0 0 -24 24v208a24 24 0 0 1 -24 24h-80v-256z" fill="#e4e4e3"/><path d="m416 432a24 24 0 0 1 -24-24v-296a24 24 0 0 0 -24-24h-80v344z" fill="#cacac9"/><path d="m368 88a24 24 0 0 0 -24 24v376h-280v-400z" fill="#e4e4e3"/><g fill="#b3b1b3"><path d="m128 336h16v16h-16z"/><path d="m160 336h136v16h-136z"/><path d="m112 368h184v16h-184z"/><path d="m112 400h184v16h-184z"/><path d="m112 432h152v16h-152z"/><path d="m280 192h16v16h-16z"/><path d="m280 224h16v16h-16z"/><path d="m280 256h16v16h-16z"/><path d="m280 288h16v16h-16z"/></g><path d="m40 72h112v224h-112z" fill="#85bb40"/><path d="m40 88h112v16h-112z" fill="#7ba03f"/><path d="m104 160-12 12v36h12v88h32v-120z" fill="#7ba03f"/><path d="m168 88h-144v-32l144-16z" fill="#fbbe1f"/><path d="m72 120h16v16h-16z" fill="#7ba03f"/><path d="m104 120h16v16h-16z" fill="#fbbe1f"/><path d="m72 152h16v16h-16z" fill="#7ba03f"/><path d="m72 184h16v16h-16z" fill="#fbbe1f"/><path d="m72 216h16v16h-16z" fill="#7ba03f"/><path d="m72 248h16v16h-16z" fill="#fbbe1f"/><path d="m120 176h112v120h-112z" fill="#0093b9"/><path d="m104 160 144-24v56h-144z" fill="#fbbe1f"/><path d="m120 192h112v16h-112z" fill="#0784a9"/><path d="m184 216h16v16h-16z" fill="#067a98"/><path d="m184 248h16v16h-16z" fill="#fbbe1f"/><path d="m152 216h16v16h-16z" fill="#fbbe1f"/><path d="m152 248h16v16h-16z" fill="#067a98"/><path d="m16 288h240v16h-240z" fill="#cacac9"/></g></svg>