<svg height="512" viewBox="0 0 512 512" width="512" xmlns="http://www.w3.org/2000/svg"><g id="Flat"><path d="m88 88h320v400h-320z" fill="#2aa2c3"/><path d="m144 128h-8a32.036 32.036 0 0 1 -32-32v-16a32 32 0 0 1 64 0v8h-16v-8a16 16 0 0 0 -32 0v16a16.019 16.019 0 0 0 16 16h8z" fill="#f6bb1b"/><path d="m128 160h64v64h-64z" fill="#e2e3e1"/><path d="m150.059 159.999h67.882v16.001h-67.882z" fill="#f6bb1b" transform="matrix(.707 -.707 .707 .707 -64.902 179.314)"/><g fill="#5eb8d1"><path d="m240 264h16v16h-16z"/><path d="m272 264h56v16h-56z"/><path d="m224 296h152v16h-152z"/><path d="m224 328h136v16h-136z"/><path d="m240 376h16v16h-16z"/><path d="m272 376h104v16h-104z"/><path d="m224 408h152v16h-152z"/><path d="m224 440h136v16h-136z"/></g><path d="m128 272h64v64h-64z" fill="#e2e3e1"/><path d="m150.059 271.999h67.882v16.001h-67.882z" fill="#f6bb1b" transform="matrix(.707 -.707 .707 .707 -144.098 212.118)"/><path d="m128 384h64v64h-64z" fill="#e2e3e1"/><path d="m150.059 383.999h67.882v16.001h-67.882z" fill="#f6bb1b" transform="matrix(.707 -.707 .707 .707 -223.294 244.922)"/><path d="m465.711 124.935 22.289-20.123-10.75-25.955-29.99 1.532-15.649-15.649 1.532-29.99-25.955-10.75-20.123 22.289h-22.13l-20.123-22.289-25.955 10.75 1.532 29.99-15.649 15.649-29.99-1.532-10.75 25.955 22.289 20.123v22.13l-22.289 20.123 10.75 25.955 29.99-1.532 15.649 15.649-1.532 29.99 25.955 10.75 20.123-22.289h22.13l20.123 22.289 25.955-10.75-1.532-29.99 15.649-15.649 29.99 1.532 10.75-25.955-22.289-20.123zm-89.711 35.065a24 24 0 1 1 24-24 24 24 0 0 1 -24 24z" fill="#f6bb1b"/><path d="m48 152h16v216h-16z" fill="#e2e3e1"/><path d="m48 384h16v16h-16z" fill="#e2e3e1"/><path d="m376 200a64 64 0 0 1 -9.133-127.352l2.266 15.838a48 48 0 1 0 54.867 47.514 47.642 47.642 0 0 0 -14.407-34.286l11.2-11.428a64 64 0 0 1 -44.793 109.714z" fill="#f79726"/><path d="m396.567 92.615a47.624 47.624 0 0 0 -13.7-4.128l2.264-15.84a63.644 63.644 0 0 1 18.3 5.515z" fill="#f79726"/></g></svg>