<svg id="Capa_1" enable-background="new 0 0 512 512" height="512" viewBox="0 0 512 512" width="512" xmlns="http://www.w3.org/2000/svg"><g><g><path d="m129.425 397.799c-1.948 0-3.896-.743-5.382-2.229-2.973-2.972-2.973-7.792 0-10.764l260.763-260.763c2.972-2.972 7.792-2.972 10.764 0 2.973 2.972 2.973 7.792 0 10.764l-260.763 260.762c-1.486 1.486-3.434 2.23-5.382 2.23z" fill="#b1d8fc"/></g><g><path d="m390.188 397.799c-1.948 0-3.896-.743-5.382-2.229l-260.763-260.764c-2.973-2.972-2.973-7.792 0-10.764 2.972-2.972 7.792-2.972 10.764 0l260.763 260.763c2.973 2.972 2.973 7.792 0 10.764-1.486 1.486-3.434 2.23-5.382 2.23z" fill="#b1d8fc"/></g><path d="m432.069 80.973c0-16.779 23.096-53.571 34.173-70.251 2.753-4.145 8.833-4.145 11.585 0 11.077 16.68 34.173 53.472 34.173 70.251 0 22.072-17.893 39.966-39.966 39.966s-39.965-17.894-39.965-39.966z" fill="#b1d8fc"/><path d="m477.827 10.721c-2.753-4.145-8.832-4.145-11.585 0-2.624 3.951-5.925 9.038-9.43 14.713 11.295 18.282 24.743 42.734 24.743 55.539 0 16.681-10.223 30.969-24.743 36.956 4.693 1.935 9.831 3.009 15.223 3.009 22.073 0 39.966-17.893 39.966-39.966-.001-16.778-23.097-53.57-34.174-70.251z" fill="#88c7fc"/><g><g><path d="m124.95 38.37c-14.926-14.926-34.806-23.146-55.977-23.146s-41.051 8.22-55.977 23.146c-2.972 2.972-7.792 2.972-10.764 0-2.973-2.972-2.973-7.792 0-10.764 17.8-17.802 41.503-27.605 66.741-27.605s48.94 9.803 66.741 27.604c2.973 2.972 2.973 7.792 0 10.764-2.973 2.973-7.792 2.973-10.764.001z" fill="#d7ebfd"/></g><g><path d="m99.734 63.586c-16.962-16.961-44.56-16.961-61.522 0-2.972 2.972-7.792 2.972-10.764 0-2.973-2.972-2.973-7.792 0-10.764 11.091-11.092 25.838-17.201 41.525-17.201s30.433 6.109 41.525 17.201c2.973 2.972 2.973 7.792 0 10.764s-7.792 2.972-10.764 0z" fill="#d7ebfd"/></g><g><path d="m74.518 88.802c-1.477-1.476-3.446-2.289-5.545-2.289s-4.068.813-5.545 2.289c-2.972 2.972-7.792 2.972-10.764 0-2.973-2.972-2.973-7.792 0-10.764 4.352-4.352 10.144-6.748 16.309-6.748s11.957 2.396 16.309 6.748c2.973 2.972 2.973 7.792 0 10.764s-7.791 2.972-10.764 0z" fill="#d7ebfd"/></g></g><g><path d="m88.331 447.414h-73.142v-63.018c0-3.866 3.134-7 7-7h59.143c3.866 0 7 3.134 7 7v63.018z" fill="#f48996"/><path d="m81.227 377.395h-30.446c3.924 0 7.104 3.181 7.104 7.104v62.914h30.446v-62.914c0-3.923-3.18-7.104-7.104-7.104z" fill="#ef7280"/><g><g><path d="m95.907 511.999c-3.148 0-6.092-1.967-7.187-5.107l-13.442-38.535h-47.035l-13.443 38.535c-1.384 3.969-5.724 6.065-9.694 4.68-3.969-1.385-6.064-5.724-4.68-9.694l15.223-43.639c1.066-3.057 3.949-5.105 7.187-5.105h57.847c3.237 0 6.12 2.048 7.187 5.105l15.223 43.639c1.385 3.969-.711 8.309-4.68 9.694-.829.289-1.675.427-2.506.427z" fill="#f48996"/></g><path d="m91.907 468.36h-80.293c-2.209 0-4-1.791-4-4v-13.399c0-6.084 4.932-11.017 11.017-11.017h66.259c6.084 0 11.017 4.932 11.017 11.017v13.399c0 2.209-1.791 4-4 4z" fill="#fdd1d5"/><path d="m84.726 439.944h-30.446c6.175 0 11.181 5.006 11.181 11.181v13.175c0 2.242-1.817 4.059-4.059 4.059h30.446c2.242 0 4.059-1.818 4.059-4.059v-13.176c0-6.175-5.006-11.18-11.181-11.18z" fill="#f9b2bb"/></g></g><g><path d="m501.851 511.999h-73.494c-5.605 0-10.149-4.544-10.149-10.149v-73.435l3.04-56.096c0-5.605 2.091-7.93 7.696-7.93l74.037-.189c5.605 0 5.959 5.079 5.959 10.684l3.06 53.531v73.435c0 5.605-4.544 10.149-10.149 10.149z" fill="#ade499"/><path d="m501.851 362.173h-30.446c5.605 0 10.149 4.544 10.149 10.149v129.528c0 5.605-4.544 10.149-10.149 10.149h30.446c5.605 0 10.149-4.544 10.149-10.149v-129.529c0-5.605-4.544-10.148-10.149-10.148z" fill="#87d8a2"/><path d="m501.851 362.173h-73.494c-5.605 0-10.149 4.544-10.149 10.149v56.094h93.792v-56.094c0-5.606-4.544-10.149-10.149-10.149z" fill="#d3edc7"/><path d="m501.851 362.173h-30.446c5.605 0 10.149 4.544 10.149 10.149v56.094h30.446v-56.094c0-5.606-4.544-10.149-10.149-10.149z" fill="#bfe7ad"/><g><path d="m448.654 488.152c-4.204 0-7.611-3.408-7.611-7.611v-11.203c0-4.204 3.408-7.611 7.611-7.611 4.204 0 7.611 3.408 7.611 7.611v11.203c.001 4.203-3.407 7.611-7.611 7.611z" fill="#87d8a2"/></g><g><path d="m448.654 411.432c-4.204 0-7.611-3.408-7.611-7.611v-11.203c0-4.204 3.408-7.611 7.611-7.611 4.204 0 7.611 3.408 7.611 7.611v11.203c.001 4.204-3.407 7.611-7.611 7.611z" fill="#87d8a2"/></g></g><g><circle cx="259.807" cy="259.806" fill="#e5f5ff" r="142.588"/><path d="m259.807 117.218c-5.143 0-10.221.279-15.223.81 71.591 7.599 127.365 68.172 127.365 141.778s-55.775 134.179-127.365 141.778c5.002.531 10.08.81 15.223.81 78.749 0 142.588-63.839 142.588-142.588s-63.839-142.588-142.588-142.588z" fill="#d7ebfd"/><g><path d="m311.925 343.867h-104.236l-15.223-122.968 69.463-30.446 65.219 30.446z" fill="#d7ebfd"/><path d="m261.929 190.453-15.702 6.883 50.475 23.563-15.223 122.968h30.446l15.223-122.968z" fill="#c4e2ff"/><path d="m324.363 244.294-62.33-30.43c-1.405-.686-3.048-.686-4.452 0l-62.33 30.43c-11.395 5.563-24.679-2.734-24.679-15.414 0-6.556 3.737-12.538 9.628-15.414l75.155-36.692c2.81-1.372 6.095-1.372 8.905 0l75.155 36.692c5.891 2.876 9.628 8.859 9.628 15.414-.001 12.68-13.285 20.977-24.68 15.414z" fill="#f48996"/><g><path d="m339.414 213.465-75.155-36.692c-2.81-1.372-6.095-1.372-8.905 0l-10.771 5.258 64.384 31.433c5.891 2.876 9.628 8.858 9.628 15.414 0 4.173-1.445 7.867-3.782 10.752l9.549 4.662c11.395 5.563 24.679-2.734 24.679-15.414.001-6.555-3.736-12.537-9.627-15.413z" fill="#ef7280"/></g><path d="m280.07 343.867h-40.527v-51.75c0-2.209 1.791-4 4-4h32.527c2.209 0 4 1.791 4 4z" fill="#3c6d91"/><path d="m276.011 288.117h-21.622c2.242 0 4.059 1.817 4.059 4.059v51.691h21.622v-51.691c0-2.241-1.817-4.059-4.059-4.059z" fill="#345e80"/><g><path d="m327.147 351.479h-134.681c-4.204 0-7.611-3.408-7.611-7.611s3.408-7.611 7.611-7.611h134.681c4.204 0 7.611 3.408 7.611 7.611s-3.406 7.611-7.611 7.611z" fill="#87d8a2"/></g></g></g></g></svg>