<svg id="Capa_1" enable-background="new 0 0 512 512" viewBox="0 0 512 512" xmlns="http://www.w3.org/2000/svg"><g><g><path d="m499.512 428.748h-416.26v-416.26c0-6.897-5.591-12.488-12.488-12.488h-58.276c-6.897 0-12.488 5.591-12.488 12.488v13.313l5.398 7.5-5.398 7.5v22.117l5.398 7.5-5.398 7.499v22.117l5.398 7.5-5.398 7.5v22.117l5.398 7.5-5.398 7.5v22.117l5.398 7.5-5.398 7.5v22.117l5.398 7.5-5.398 7.499v22.117l5.398 7.5-5.398 7.5v22.117l5.398 7.5-5.398 7.5v22.117l5.398 7.5-5.398 7.499v22.117l5.398 7.5-5.398 7.5v22.117l5.398 7.5-5.398 7.5v87.544c0 6.897 5.591 12.488 12.488 12.488h87.546l7.5-6.116 7.5 6.116h22.117l7.5-6.116 7.5 6.116h22.117l7.5-6.116 7.5 6.116h22.117l7.5-6.116 7.5 6.116h22.115l7.5-6.116 7.5 6.116h22.117l7.5-6.116 7.5 6.116h22.117l7.5-6.116 7.5 6.116h22.117l7.5-6.116 7.5 6.116h22.117l7.5-6.116 7.5 6.116h22.117l7.5-6.116 7.5 6.116h22.117l7.5-6.116 7.5 6.116h13.312c6.897 0 12.488-5.591 12.488-12.488v-58.276c-.002-6.897-5.593-12.488-12.49-12.488z" fill="#ffe177"/><path d="m499.512 428.748h-27.057c6.897 0 12.488 5.591 12.488 12.488v58.276c0 3.351-1.327 6.386-3.474 8.629l4.732 3.859h13.312c6.897 0 12.488-5.591 12.488-12.488v-58.276c-.001-6.897-5.592-12.488-12.489-12.488z" fill="#ffd15b"/><path d="m505.211 355.867-38.011-38.009-9.054-1.954-1.551-8.65-15.639-15.639-.018.017-9.446-2.924-1.142-7.699-15.641-15.641-8.649.064-1.956-10.669-15.641-15.64-10.605 1.069v-11.674l-15.641-15.641-8.648-.567-1.973-10.023.02-.012-15.639-15.639-.019.012-10.606.696v-11.303l.02-.011-15.644-15.644-8.648-.26-1.957-10.345-15.639-15.639-.016.014-7.395-.122-3.196-10.499-15.64-15.64-9.695-1.958-.91-8.647-15.641-15.64-10.605-2.239v-8.366l-15.626-15.626h-.027l-11.954.012 1.362-10.632-38.019-38.01c-4.347-4.347-10.242-6.789-16.39-6.789-12.802 0-23.179 10.378-23.179 23.179v349.088c0 12.802 10.378 23.179 23.179 23.179h349.088c12.802 0 23.179-10.378 23.179-23.179v-.01c.001-6.147-2.441-12.043-6.788-16.39zm-305.406-43.672v-144.005l143.995 144.005z" fill="#8ac9fe"/><path d="m505.211 355.867-18.047-18.047c.149 1.062.252 2.133.252 3.218v.01c0 12.802-10.378 23.179-23.179 23.179h-347.684v8.04c0 12.802 10.378 23.179 23.179 23.179h349.088c12.802 0 23.179-10.378 23.179-23.179v-.01c.001-6.147-2.441-12.043-6.788-16.39z" fill="#60b7ff"/></g><g fill="#ffc344"><path d="m31.22 137.15h-31.22v15h31.22c4.142 0 7.5-3.358 7.5-7.5s-3.358-7.5-7.5-7.5z"/><path d="m31.22 211.383h-31.22v15h31.22c4.142 0 7.5-3.358 7.5-7.5s-3.358-7.5-7.5-7.5z"/><path d="m20.813 40.801c4.142 0 7.5-3.358 7.5-7.5s-3.358-7.5-7.5-7.5h-20.813v15z"/><path d="m28.313 404.466c0-4.142-3.358-7.5-7.5-7.5h-20.813v15h20.813c4.142 0 7.5-3.358 7.5-7.5z"/><path d="m28.313 107.534c0-4.142-3.358-7.5-7.5-7.5h-20.813v15h20.813c4.142 0 7.5-3.358 7.5-7.5z"/><path d="m28.313 256c0-4.142-3.358-7.5-7.5-7.5h-20.813v15h20.813c4.142 0 7.5-3.358 7.5-7.5z"/><path d="m28.313 330.233c0-4.142-3.358-7.5-7.5-7.5h-20.813v15h20.813c4.142 0 7.5-3.358 7.5-7.5z"/><path d="m0 77.917h31.22c4.142 0 7.5-3.358 7.5-7.5s-3.358-7.5-7.5-7.5h-31.22z"/><path d="m38.72 367.35c0-4.142-3.358-7.5-7.5-7.5h-31.22v15h31.22c4.142 0 7.5-3.358 7.5-7.5z"/><path d="m31.22 285.617h-31.22v15h31.22c4.142 0 7.5-3.358 7.5-7.5s-3.358-7.5-7.5-7.5z"/><path d="m28.313 181.767c0-4.142-3.358-7.5-7.5-7.5h-20.813v15h20.813c4.142 0 7.5-3.358 7.5-7.5z"/><path d="m404.466 483.687c-4.142 0-7.5 3.358-7.5 7.5v20.813h15v-20.813c0-4.142-3.358-7.5-7.5-7.5z"/><path d="m330.233 483.687c-4.142 0-7.5 3.358-7.5 7.5v20.813h15v-20.813c0-4.142-3.358-7.5-7.5-7.5z"/><path d="m367.35 473.28c-4.142 0-7.5 3.358-7.5 7.5v31.22h15v-31.22c0-4.142-3.358-7.5-7.5-7.5z"/><path d="m478.699 483.687c-4.142 0-7.5 3.358-7.5 7.5v20.813h15v-20.813c0-4.142-3.358-7.5-7.5-7.5z"/><path d="m441.583 473.28c-4.142 0-7.5 3.358-7.5 7.5v31.22h15v-31.22c0-4.142-3.358-7.5-7.5-7.5z"/><path d="m107.534 483.687c-4.142 0-7.5 3.358-7.5 7.5v20.813h15v-20.813c0-4.142-3.358-7.5-7.5-7.5z"/><path d="m181.767 483.687c-4.142 0-7.5 3.358-7.5 7.5v20.813h15v-20.813c0-4.142-3.358-7.5-7.5-7.5z"/><path d="m293.117 473.28c-4.142 0-7.5 3.358-7.5 7.5v31.22h15v-31.22c0-4.142-3.358-7.5-7.5-7.5z"/><path d="m144.65 473.28c-4.142 0-7.5 3.358-7.5 7.5v31.22h15v-31.22c0-4.142-3.358-7.5-7.5-7.5z"/><path d="m218.883 473.28c-4.142 0-7.5 3.358-7.5 7.5v31.22h15v-31.22c0-4.142-3.358-7.5-7.5-7.5z"/><path d="m256 483.687c-4.142 0-7.5 3.358-7.5 7.5v20.813h15v-20.813c0-4.142-3.358-7.5-7.5-7.5z"/></g><g fill="#60b7ff"><path d="m377.841 228.534-22.076 22.076c-2.929 2.929-2.929 7.678 0 10.606 1.464 1.464 3.384 2.197 5.303 2.197s3.839-.732 5.303-2.197l22.076-22.076c.005-.005.01-.012.015-.017l-10.605-10.605c-.004.006-.01.01-.016.016z"/><path d="m404.086 254.779-14.717 14.717c-2.929 2.929-2.929 7.678 0 10.606 1.464 1.465 3.384 2.197 5.303 2.197s3.839-.732 5.303-2.197l14.717-14.717c.006-.006.01-.012.016-.018l-10.605-10.605c-.005.007-.011.011-.017.017z"/><path d="m351.596 202.288-14.717 14.717c-2.929 2.929-2.929 7.678 0 10.606 1.464 1.465 3.384 2.197 5.303 2.197s3.839-.732 5.303-2.197l14.717-14.717c.005-.005.01-.011.015-.017l-10.605-10.605c-.005.006-.011.011-.016.016z"/><path d="m408.256 313.707c1.464 1.464 3.384 2.197 5.303 2.197s3.839-.732 5.303-2.197l22.076-22.076c.006-.006.01-.012.016-.018l-10.605-10.605c-.006.006-.012.01-.018.016l-22.075 22.076c-2.929 2.929-2.929 7.678 0 10.607z"/><path d="m184.71 72.336c1.919 0 3.839-.732 5.303-2.197l14.717-14.717c.005-.005.008-.01.013-.014l-10.605-10.605c-.005.005-.01.008-.014.013l-14.717 14.717c-2.929 2.929-2.929 7.677 0 10.606 1.464 1.465 3.384 2.197 5.303 2.197z"/><path d="m456.595 307.253c-.006.006-.012.011-.018.016l-14.717 14.717c-2.929 2.929-2.929 7.678 0 10.606 1.464 1.465 3.384 2.197 5.303 2.197s3.839-.732 5.303-2.197l14.717-14.717c.006-.006.011-.012.017-.018z"/><path d="m246.615 97.307-14.717 14.717c-2.929 2.929-2.929 7.677 0 10.606 1.464 1.465 3.384 2.197 5.303 2.197s3.839-.732 5.303-2.197l14.717-14.717c.005-.005.009-.01.014-.015l-10.605-10.604c-.005.004-.01.008-.015.013z"/><path d="m220.369 71.062-22.076 22.076c-2.929 2.929-2.929 7.678 0 10.606 1.464 1.464 3.384 2.197 5.303 2.197s3.839-.732 5.303-2.197l22.076-22.076c.005-.005.009-.01.013-.015l-10.605-10.605c-.004.005-.009.009-.014.014z"/><path d="m299.105 149.798-14.717 14.717c-2.929 2.929-2.929 7.677 0 10.606 1.464 1.465 3.384 2.197 5.303 2.197s3.839-.732 5.303-2.197l14.717-14.717c.005-.005.009-.011.014-.016l-10.605-10.605c-.004.006-.009.01-.015.015z"/><path d="m272.86 123.552-22.076 22.076c-2.929 2.929-2.929 7.678 0 10.606 1.464 1.464 3.384 2.197 5.303 2.197s3.839-.732 5.303-2.197l22.076-22.076c.005-.005.009-.01.014-.016l-10.605-10.605c-.005.006-.01.01-.015.015z"/><path d="m325.351 176.043-22.076 22.076c-2.929 2.929-2.929 7.678 0 10.606 1.464 1.464 3.384 2.197 5.303 2.197s3.839-.732 5.303-2.197l22.076-22.076c.005-.005.01-.011.015-.016l-10.605-10.605c-.005.006-.011.01-.016.015z"/></g></g><g/><g/><g/><g/><g/><g/><g/><g/><g/><g/><g/><g/><g/><g/><g/></svg>