<svg id="Layer_1" viewBox="0 0 512 512" xmlns="http://www.w3.org/2000/svg" data-name="Layer 1"><circle cx="256" cy="390.941" fill="#fdc72e" r="79.968"/><path d="m268.937 312.025c15.966 2.604 31.296 10.058 43.608 22.37 31.23 31.229 31.23 81.862 0 113.092-12.312 12.313-27.642 19.767-43.608 22.37-15.966-2.604-31.296-10.058-43.608-22.37-31.229-31.229-31.229-81.862 0-113.092 12.313-12.312 27.642-19.766 43.608-22.37z" fill="#fddb1e" fill-rule="evenodd"/><path d="m262 442.938c0 3.314-2.686 6-6 6s-6-2.686-6-6v-7.474c-5.757-1.041-10.932-3.549-14.989-7.058-5.659-4.893-9.159-11.711-9.159-19.291 0-3.314 2.686-6 6-6s6 2.686 6 6c0 3.954 1.906 7.579 4.987 10.244 3.315 2.867 7.964 4.64 13.161 4.64s9.846-1.774 13.161-4.64c3.081-2.664 4.987-6.29 4.987-10.244 0-10.762-9.44-12.846-18.658-14.881-13.404-2.959-26.504-5.852-26.504-24.177 0-6.831 3.15-12.971 8.241-17.374 3.482-3.012 7.882-5.2 12.774-6.197v-7.541c0-3.314 2.686-6 6-6s6 2.686 6 6v7.541c4.892.998 9.291 3.185 12.774 6.197 5.091 4.403 8.241 10.543 8.241 17.374 0 3.314-2.686 6-6 6s-6-2.686-6-6c0-3.205-1.555-6.154-4.069-8.327-2.748-2.376-6.614-3.846-10.946-3.846s-8.198 1.47-10.945 3.846c-2.514 2.174-4.069 5.122-4.069 8.327 0 8.734 8.443 10.598 17.082 12.505 13.875 3.063 28.081 6.199 28.081 26.553 0 7.58-3.5 14.397-9.159 19.291-4.057 3.509-9.233 6.016-14.989 7.058v7.474z" fill="#f89b00" fill-rule="evenodd"/><g fill="#4fe88e"><path d="m376.978 352.371h22.479v72.077h37.836v-72.077h22.479l-41.397-41.398z" fill-rule="evenodd"/><g><path d="m52.228 352.371h22.479v72.077h37.836v-72.077h22.479l-41.397-41.398z" fill-rule="evenodd"/><path d="m74.707 451.487h37.835v19.422h-37.835z"/></g><path d="m399.457 451.487h37.835v19.422h-37.835z"/></g><g><g fill-rule="evenodd"><path d="m355.983 197.139 13.613 7.86c9.865 5.697 22.599 2.285 28.295-7.582 5.697-9.867 2.284-22.6-7.581-28.296l-71.88-41.5-72.439-48.894-18.339-10.588c-14.204-8.2-29.351-10.194-45.191-5.95l-43.696 11.708-3.304-.877-100.589 71.387 44.003 26.624c18.65 25.434 13.335 20.479 37.829 36.168l116.195 65.242 21.477-8.736 17.203 9.933c8.609 4.97 19.72 1.993 24.691-6.616 4.971-8.61 1.993-19.721-6.616-24.691l18.559 10.715c8.609 4.97 19.72 1.993 24.691-6.616 4.964-8.597 1.981-19.727-6.616-24.691l11.619 6.708c8.609 4.971 19.72 1.994 24.691-6.616 4.971-8.609 1.993-19.72-6.616-24.691z" fill="#fdd7ad"/><path d="m364.485 202.048 5.111 2.951.024.013-5.134-2.964zm-66.087 59.153c1.3-7.286-1.985-14.966-8.737-18.868l5.004 2.889 13.548 7.822.016.009-13.565-7.832-5.01-2.893.006.003-43.41-25.063c-2.86-1.657-6.523-.681-8.18 2.18s-.681 6.523 2.18 8.18l58.147 33.571zm36.631-20.594-72.019-41.58c-2.86-1.657-3.836-5.319-2.18-8.18 1.657-2.861 5.319-3.836 8.18-2.18l51.272 29.602 17.634 10.181-.007-.004-11.619-6.708c6.745 3.895 10.033 11.585 8.74 18.869zm29.697-24.596-80.424-46.433c-2.86-1.657-3.836-5.319-2.18-8.18 1.657-2.861 5.319-3.837 8.18-2.18l65.719 37.943c6.73 3.908 10.003 11.576 8.705 18.85z" fill="#ffc186"/><path d="m78.877 171.031 56.586-98.01-55.305-31.93-70.158 121.517 55.305 31.93z" fill="#009ef9"/><path d="m179.446 117.146 9.31 16.125c5.106 8.843 15.195 13.139 25.022 10.365l71.408-20.16c11.611-3.279 22.793-1.883 33.244 4.147l71.88 41.5c9.865 5.696 13.278 18.429 7.581 28.296l41.407-31.011-62.761-93.386-67.018-10.831c-15.84-4.244-30.987-2.252-45.189 5.95l-84.885 49.007z" fill="#ffc186"/></g><path d="m407.338 47.657h63.86v140.316h-63.86z" fill="#fb545c" transform="matrix(.866 -.5 .5 .866 -.056 235.418)"/><path d="m166.56 214.277c8.056-8.056 8.056-21.238 0-29.294s-21.238-8.056-29.294 0l-16.283 16.283c-8.056 8.056-8.056 21.238 0 29.294s21.238 8.056 29.293 0l16.283-16.283z" fill="#ffc186" fill-rule="evenodd"/><path d="m228.95 253.59-11.72 11.72c-5.798 5.798-5.798 15.286 0 21.084s15.285 5.798 21.084 0l11.72-11.72c5.807-5.807 5.79-15.294 0-21.084-5.798-5.798-15.286-5.798-21.084 0z" fill="#ffc186" fill-rule="evenodd"/><path d="m222.989 259.552c6.477-6.477 6.477-17.075 0-23.552s-17.075-6.477-23.552 0l-13.092 13.092c-6.477 6.477-6.477 17.075 0 23.552s17.075 6.477 23.552 0l13.092-13.091z" fill="#ffc186" fill-rule="evenodd"/><path d="m186.345 249.092 9.525-9.525c7.508-7.507 7.508-19.792 0-27.3-7.507-7.507-19.792-7.507-27.299 0l-15.175 15.175c-7.507 7.508-7.507 19.792 0 27.3 7.507 7.507 19.792 7.508 27.3 0l5.649-5.649z" fill="#ffc186" fill-rule="evenodd"/><g><path d="m30.867 134.889h27.143v63.861h-27.143z" fill="#0e82f5" transform="matrix(.5 -.866 .866 .5 -122.251 121.894)"/><path d="m435.632 153.248h63.861v27.143h-63.861z" fill="#d93b43" transform="matrix(.866 -.5 .5 .866 -20.768 256.131)"/></g></g></svg>