<svg id="Capa_1" enable-background="new 0 0 512 512" height="512" viewBox="0 0 512 512" width="512" xmlns="http://www.w3.org/2000/svg"><g><g><circle cx="256" cy="256" fill="#6dcdd6" r="150"/></g><path d="m406 256c0-82.705-67.295-150-150-150v300c82.705 0 150-67.295 150-150z" fill="#56aed1"/><g id="_World_1_"><g><path d="m496.322 341.313-28.271-10.078c8.598-24.083 12.949-49.41 12.949-75.235 0-124.072-100.928-225-225-225-55.122 0-108.179 20.215-149.399 56.909l-19.952-22.412c46.729-41.587 106.875-65.497 169.351-65.497 140.61 0 256 115.39 256 256 0 29.268-5.937 57.979-15.678 85.313z" fill="#f3f5f9"/></g><g><path d="m256 512c-140.61 0-256-115.39-256-256 0-29.268 5.937-57.979 15.678-85.313l28.271 10.078c-8.598 24.083-12.949 49.41-12.949 75.235 0 124.072 100.928 225 225 225 55.122 0 108.179-20.215 149.399-56.909l19.951 22.412c-46.728 41.587-106.874 65.497-169.35 65.497z" fill="#f3f5f9"/></g><path d="m256 91c-90.981 0-165 74.019-165 165s74.019 165 165 165 165-74.019 165-165-74.019-165-165-165zm133.484 150h-44.286c-1.959-40.898-11.373-77.175-26.283-103.715 38.406 20.451 65.491 58.581 70.569 103.715zm-148.484-114.496v114.496h-44.26c3.03-57.902 22.666-100.468 44.26-114.496zm0 144.496v114.496c-21.594-14.028-41.23-56.594-44.26-114.496zm30 114.496v-114.496h44.26c-3.03 57.902-22.666 100.468-44.26 114.496zm0-144.496v-114.496c21.594 14.028 41.23 56.594 44.26 114.496zm-77.915-103.715c-14.91 26.539-24.324 62.816-26.283 103.715h-44.286c5.078-45.134 32.163-83.264 70.569-103.715zm-70.569 133.715h44.286c1.959 40.898 11.373 77.175 26.283 103.715-38.406-20.451-65.491-58.581-70.569-103.715zm196.399 103.715c14.91-26.539 24.324-62.816 26.283-103.715h44.286c-5.078 45.134-32.163 83.264-70.569 103.715z" fill="#82e1d8"/><g><path d="m76 143.5c-24.814 0-45-20.186-45-45s20.186-45 45-45 45 20.186 45 45-20.186 45-45 45z" fill="#82e1d8"/></g></g><path d="m425.351 446.503-19.951-22.412c-41.221 36.694-94.278 56.909-149.4 56.909v31c62.476 0 122.622-23.91 169.351-65.497z" fill="#e1e6f0"/><path d="m481 256c0 25.825-4.351 51.152-12.949 75.234l28.271 10.078c9.741-27.333 15.678-56.044 15.678-85.312 0-140.61-115.39-256-256-256v31c124.072 0 225 100.928 225 225z" fill="#e1e6f0"/><path d="m421 256c0-90.981-74.019-165-165-165v330c90.981 0 165-74.019 165-165zm-31.516-15h-44.286c-1.959-40.898-11.373-77.175-26.283-103.715 38.406 20.451 65.491 58.581 70.569 103.715zm-44.286 30h44.286c-5.078 45.134-32.162 83.264-70.569 103.715 14.91-26.54 24.324-62.817 26.283-103.715zm-74.198-144.496c21.594 14.028 41.23 56.594 44.26 114.496h-44.26zm0 144.496h44.26c-3.03 57.902-22.667 100.468-44.26 114.496z" fill="#6dcdd6"/><g><path d="m436 458.5c-24.814 0-45-20.186-45-45s20.186-45 45-45 45 20.186 45 45-20.186 45-45 45z" fill="#6dcdd6"/></g></g></svg>