<svg height="464pt" viewBox="0 0 464 464" width="464pt" xmlns="http://www.w3.org/2000/svg"><path d="m24 432c-13.253906 0-24-10.746094-24-24v-336c0-13.253906 10.746094-24 24-24h408v384zm0 0" fill="#348fd9"/><path d="m392 120h-160v-24c0-4.417969-3.582031-8-8-8h-136c-4.417969 0-8 3.582031-8 8v288c0 4.417969 3.582031 8 8 8h40v-39.199219c18.613281 3.824219 31.980469 20.199219 32 39.199219h232c4.417969 0 8-3.582031 8-8v-256c0-4.417969-3.582031-8-8-8zm-8 16v16h-16v-16zm-168-8v16.640625c-27.527344 3.972656-47.96875 27.546875-48 55.359375 0 4.417969 3.582031 8 8 8h40v16h-8c-4.417969 0-8 3.582031-8 8v8h-72v-8c0-4.417969-3.582031-8-8-8h-24v-88h24c4.417969 0 8-3.582031 8-8v-24h88zm0 128v-16h16v16zm-120-16h16v16h-16zm0-136h16v16h-16zm0 272v-16h16v16zm77.601562 0c-7.089843-23.695312-28.867187-39.949219-53.601562-40-4.417969 0-8 3.582031-8 8h-16v-72h24c4.417969 0 8-3.582031 8-8v-8h72v8c0 4.417969 3.582031 8 8 8h8v40c19 .019531 35.375 13.386719 39.199219 32h-39.199219v32zm58.398438 0v-16h32c4.417969 0 8-3.582031 8-8-.050781-24.734375-16.304688-46.511719-40-53.601562v-26.398438h8c4.417969 0 8-3.582031 8-8v-32c0-4.417969-3.582031-8-8-8h-8v-32h-47.199219c3.824219-18.613281 20.199219-31.980469 39.199219-32h8v-24h120v24c0 4.417969 3.582031 8 8 8h24v208zm0 0" fill="#4db7e5"/><path d="m216 464h248v-248zm200-48h-80l80-80zm0 0" fill="#ffb531"/><path d="m280 48h48v192h-48zm0 0" fill="#e94f4f"/><path d="m304 0c-13.253906 0-24 10.746094-24 24v24h48v-24c0-13.253906-10.746094-24-24-24zm0 0" fill="#4db7e5"/><path d="m280 40h48v16h-48zm0 0" fill="#e0e0de"/><path d="m328 48h16v72h-16zm0 0" fill="#3086cd"/><path d="m344 136h-16v-16h16zm0 0" fill="#48add9"/><path d="m328 136h16v104h-16zm0 0" fill="#3086cd"/><path d="m344 240-24 40-10.335938-10.335938 18.335938-29.664062zm0 0" fill="#3086cd"/><path d="m304 280 24-40h-48zm0 0" fill="#ffb531"/><path d="m0 408v-384c0-13.253906 10.746094-24 24-24h24v384h-24c-13.253906 0-24 10.746094-24 24zm0 0" fill="#4db7e5"/><path d="m464 312-48 48v56h-56l-48 48h152zm0 0" fill="#ffa912"/></svg>