<svg id="Layer_1" enable-background="new 0 0 130 130" height="512" viewBox="0 0 130 130" width="512" xmlns="http://www.w3.org/2000/svg"><g><g><g><g><g><path d="m114.4939194 63.9310875.010437 3.5633659 3.2237549 1.8729859-.010437-3.5633622-1.387558-.8086624-.4173127-.2399978z" fill="#efac41"/></g></g><g><g><path d="m117.7134171 65.8061829.0131301 3.5588989 3.2434922-1.8743515-.0106736-3.5556603v-.0053024h-.0053329l-1.4070969.8155937-.3198166.1865998-.0959396.0532913z" fill="#f9bb4a"/></g></g><g><g><path d="m114.4918671 63.9343758 3.2234268 1.8730278 1.4169769-.8204956.410202-.2320557.0082703-.0041275 1.4087067-.816349-3.2234497-1.873024z" fill="#fed57a"/></g></g><g><g><path d="m115.9075851 63.113903 3.2234192 1.873005.4102021-.2320557.0082702-.0041275-3.2317199-1.873024-.0041428.0041504z" fill="#e4e8f4"/></g></g><g><g><path d="m119.5522766 65.5988998-.4173126.2452317-.0052185-.8487168v-.0104446l.0938873-.0521545.3234177-.1826249v.0052262z" fill="#d4dae8"/></g></g><g><g><g><g><path d="m118.1718063 67.8533325.1056366.2010269-.065422.0377732-.1443634.0827408z" fill="#3f434f"/></g></g></g><g><g><g><path d="m118.2120209 68.0921326.0011291.3976745-.0789413.0455857-.0011292-.3976746z" fill="#3f434f"/></g></g></g><g><g><g><path d="m118.6041489 68.2995071.0002441.0851212-.5449982.3147049-.0002365-.0851288z" fill="#3f434f"/></g></g></g><g><g><g><path d="m119.6001205 67.0523911.0008011.2833405c.0002518.0894775-.051445.1933899-.1200714.2460861l.0007248.2553787c.0481339-.0221939.0844269-.0201187.0845032.0065994l-.2124863.1226959c-.0000763-.0267181.036087-.0706253.0841904-.1040039l-.0007248-.2553787c-.0313721.0125122-.0584641.0094833-.0796204-.0038147-.0249634-.0185699-.0413055-.0533218-.0414505-.103035l-.0008011-.2833405z" fill="#3f434f"/></g></g></g><g><g><g><path d="m118.527771 67.9098129.0011291.397667-.0789413.0455856-.0011291-.3976746z" fill="#3f434f"/></g></g></g><g><g><g><path d="m118.4880981 67.6706924.105095.2013398-.0654221.0377807-.1438217.0824204z" fill="#3f434f"/></g></g></g></g><g><g><g><g><path d="m119.0208511 68.2390137c-.0147705-.0081558-.0234299-.0249634-.0234299-.0461121l-.0022888-.850853c-.0005112-.0371933.0259781-.0827942.0585785-.1018982l.7391663-.4266968c.0178299-.0101929.0359116-.011467.0504303-.0033112.0145187.0084.0229263.0254745.0229263.0468674l.0025482.850853c0 .0371933-.0257263.0827942-.057312.1011353l-.7391663.4267044c-.0101852.0058594-.0206299.0089188-.0303116.0089188-.0076369 0-.0147704-.0017853-.021141-.0056076zm.7878189-1.3985596-.7391663.4267044c-.0229263.0132446-.0432968.0489044-.0432968.0748901l.0022888.850853c.0002518.0094299.0030594.016304.0076447.0191116.004837.002037.0119705.0015259.0203705-.0033188l.7391663-.4266968c.0224152-.0129929.0420303-.0476379.0420303-.0741348l-.0025482-.850853c0-.0096741-.0028-.017067-.0073853-.0198669-.0015335-.0007629-.0033112-.0012741-.0053482-.0012741-.0038223 0-.0086593.0015259-.0137558.0045853z" fill="#3f434f"/></g></g></g><g><g><g><path d="m117.9200058 68.8740997c-.0145187-.0084076-.0226746-.0252228-.0226746-.0458603l-.0022888-.850853c-.0005112-.0374451.0259781-.0832977.0585785-.1018982l.7391663-.4269562c.0178299-.0104446.0356598-.0117188.0504379-.0030518.0147705.0084.0229187.0254745.0229187.0466156l.0025482.8511047c0 .0379639-.0252151.0825424-.0575638.1011353l-.7391663.4267044c-.0099335.0058594-.0203781.0086594-.0300522.0086594-.0078963.0000001-.0152816-.0017852-.0219039-.0055999zm.7885742-1.3985595-.7391663.4269562c-.0229187.0132446-.0432968.0486526-.0432968.0748901l.0022888.850853c0 .0091705.0028.0160522.0073853.0188522.0048447.0022964.0124817.0015335.0206375-.0030518l.7389069-.4267044c.0224152-.0129929.0422821-.0476379.0422821-.0741348l-.0025482-.8511047c0-.0096817-.0028-.0168152-.0073853-.0196152-.0015259-.0007629-.0035629-.0012741-.0056-.0012741-.0038223 0-.0084075.0015258-.013504.0043335z" fill="#3f434f"/></g></g></g></g></g><g><g><g><path d="m110.6664124 66.1445313.0104446 3.5633697 3.2237549 1.8729858-.0104447-3.5633621-1.3875579-.8086624-.417305-.2399979z" fill="#efac41"/></g></g><g><g><path d="m113.8859177 68.0196304.0131302 3.558899 3.2434921-1.8743515-.0106735-3.5556565v-.0053024h-.005333l-1.4070969.8155899-.3198165.1865997-.0959397.0532914z" fill="#f9bb4a"/></g></g><g><g><path d="m110.6643677 66.1478271 3.2234192 1.873024 1.4169845-.8204956.410202-.2320556.0082627-.0041275 1.4087143-.8163453-3.2234497-1.8730239z" fill="#fed57a"/></g></g><g><g><path d="m112.0800781 65.3273544 3.2234268 1.8730011.4102021-.2320556.0082702-.0041275-3.2317199-1.873024-.0041504.0041504z" fill="#e4e8f4"/></g></g><g><g><path d="m115.7247696 67.8123474-.417305.2452316-.0052261-.8487167v-.0104446l.0938949-.0521546.3234177-.1826248v.0052261z" fill="#d4dae8"/></g></g><g><g><g><g><path d="m114.3443069 70.0667801.1056366.2010269-.065422.0377731-.1443634.0827408z" fill="#3f434f"/></g></g></g><g><g><g><path d="m114.3845215 70.3055801.0011215.3976746-.0789337.0455856-.0011292-.3976745z" fill="#3f434f"/></g></g></g><g><g><g><path d="m114.7766495 70.5129547.0002441.0851212-.5449982.3147049-.0002365-.0851288z" fill="#3f434f"/></g></g></g><g><g><g><path d="m115.7726135 69.2658386.0008087.2833405c.0002518.0894775-.051445.1933899-.1200714.2460861l.0007248.2553787c.0481339-.0221939.0844269-.0201187.0845032.0065994l-.2124863.1226959c-.0000763-.0267181.0360794-.0706253.0841904-.1040039l-.0007248-.2553787c-.0313797.0125122-.0584641.0094833-.0796204-.0038147-.0249634-.0185699-.0413132-.0533218-.0414505-.103035l-.0008011-.2833405z" fill="#3f434f"/></g></g></g><g><g><g><path d="m114.7002716 70.1232605.0011292.3976669-.0789414.0455857-.0011291-.3976746z" fill="#3f434f"/></g></g></g><g><g><g><path d="m114.6605988 69.8841476.1050949.2013321-.0654221.0377808-.1438217.0824203z" fill="#3f434f"/></g></g></g></g><g><g><g><g><path d="m115.1933517 70.4524612c-.0147705-.0081558-.0234299-.0249634-.0234299-.0461121l-.0022964-.850853c-.0005035-.0371933.0259857-.0827942.0585861-.1018982l.7391663-.4266968c.0178299-.0101929.0359116-.011467.0504303-.0033112.0145187.0084076.0229263.0254745.0229263.0468674l.0025482.8508606c0 .0371857-.0257263.0827866-.057312.1011276l-.7391663.4267044c-.0101852.0058594-.0206299.0089188-.0303116.0089188-.0076369.0000001-.0147704-.0017851-.021141-.0056075zm.787819-1.3985595-.7391663.4267044c-.0229263.0132446-.0433044.0489044-.0433044.0748901l.0022964.850853c.0002518.0094299.0030518.016304.007637.0191116.0048447.002037.0119705.0015259.0203781-.0033112l.7391663-.4267044c.0224152-.0129929.0420303-.0476379.0420303-.0741272l-.0025482-.8508606c0-.0096741-.0028-.017067-.0073853-.0198669-.0015335-.0007629-.0033112-.0012741-.0053558-.0012741-.0038147 0-.0086593.0015259-.0137481.0045853z" fill="#3f434f"/></g></g></g><g><g><g><path d="m114.0924988 71.0875473c-.0145187-.0084076-.0226669-.0252228-.0226669-.0458603l-.0022888-.850853c-.0005112-.0374451.0259781-.0832977.0585785-.1018982l.7391663-.4269562c.0178299-.0104446.0356598-.0117188.0504303-.0030518.0147781.0084076.0229263.0254745.0229263.0466156l.0025482.8511124c0 .0379562-.0252151.0825348-.0575638.1011276l-.7391663.4267044c-.0099335.0058594-.0203781.0086594-.0300598.0086594-.0078888.0000001-.0152817-.0017852-.021904-.0055999zm.7885818-1.3985596-.7391663.4269562c-.0229263.0132446-.0432968.0486526-.0432968.0748901l.0022888.850853c0 .0091705.0028.0160522.0073853.0188522.0048447.0022964.0124817.0015335.0206299-.0030518l.7389145-.4267044c.0224152-.0129929.0422821-.0476379.0422821-.0741272l-.0025482-.8511124c0-.0096817-.0028-.0168152-.0073853-.0196152-.0015259-.0007629-.0035706-.0012741-.0056076-.0012741-.0038147.0000001-.0083999.001526-.0134964.0043336z" fill="#3f434f"/></g></g></g></g></g><g><g><g><g><g><g enable-background="new"><g><path d="m4.4496531 107.6084061-.9395935-.5460282 3.855128-10.0501022.9395934.5460281z" fill="#3c3e4b"/></g><g><path d="m8.304781 97.5583038-.9395934-.5460281 9.0047541-5.1943588.9395924.5460357z" fill="#4e5161"/></g><g><path d="m17.3095341 92.3639526 3.5428524 5.6876603-16.4027334 9.5567932 3.8551279-10.0501023z" fill="#464957"/></g></g></g><g><path d="m10.9701519 106.7687912.0023794.8394089 9.4946871-5.4804383-.0023785-.8394165z" fill="#3f434f"/></g><g><path d="m20.4660034 101.2923737v.8340912l25.0134659 14.6159668c.8958778.5251846 2.3581657.5251846 3.2643509 0 .4530945-.2676849.6796074-.6075211.6796074-.9473495v-.8340988c-.0103073.3398361-.2265129.6796722-.6796074.9371109-.9164925.525116-2.3684731.525116-3.2643509 0z" fill="#525566"/></g><path d="m4.8466454 106.5510788-.3969922 1.0522003 28.2572021 16.5107346c.9061852.525177 2.3581009.525177 3.264286 0 .4530907-.267746.6796074-.6075211.6899147-.9473572v-.8443985c-.0103073.3501434-.236824.6899109-.6899147.9473495-.9061852.5251846-2.3581009.5251846-3.264286 0z" fill="#525566"/><path d="m4.850441 106.5506516 27.8560982 16.7214279c.9013786.523819 2.356205.5238419 3.263504.0000153.4536476-.2619171.6783829-.6035538.686882-.9489822-.0046539-.3378296-.2255402-.6794434-.6762428-.9413605l-25.0105305-14.6129608 9.494688-5.4804459 25.0105324 14.6129608c.9013786.5238266 2.356205.5238419 3.263504.0000153.4536476-.2619171.6783829-.6035538.6803055-.9451828s-.2189636-.6832428-.6696663-.9451599l-28.2633953-16.5033189z" fill="#5b5e71"/><g><g><g><path d="m35.8472824 98.9011078-.0290031 7.168457-20.881589 12.3162613.0290041-7.168457z" fill="#efac41"/></g><g><path d="m19.3426418 111.5125122-.0095386 3.013443-2.7283936 1.5855713.0095387-3.0134506z" fill="#e4e8f4"/></g><g><path d="m14.9656944 111.2173691-.0290041 7.168457-8.3511648-4.8215485.0290036-7.168457z" fill="#f9bb4a"/></g><path d="m35.8492508 98.9068527-20.8835821 12.3161316-3.6480932-2.1121063-1.0560866-.5973511-.0212898-.0106125-3.6268029-2.1014328 20.8836455-12.3161316 3.6480942 2.1014328.0106773.0106736 1.0453434.597351z" fill="#fed57a"/><path d="m32.2011566 96.7948074-20.8835811 12.3160706-1.0560866-.5973511-.0212898-.0106125 20.9049368-12.3161316.0106773.0106736z" fill="#5b5e71"/><g><path d="m11.3175755 109.110878-.0098286 3.4668274-1.0675478-.6096573.0098286-3.4668274z" fill="#474b59"/></g></g><g><g><path d="m32.4191055 104.7993927.2874337.5469284-.1780167.1027756-.3928223.2251053z" fill="#3f434f"/></g><g><path d="m32.5285225 105.4490967.003067 1.0819473-.2147942.1240082-.0030708-1.0819397z" fill="#3f434f"/></g><g><path d="m33.5955505 106.0132828.0006562.2316055-1.4829827.8562012-.0006561-.2316056z" fill="#3f434f"/></g><g><path d="m35.1717491 103.2101517.0021858.7708817c.0006905.2434387-.1399765.5261536-.3267212.6695328l.0019684.694809c.1309814-.060379.2297325-.0547409.2299385.017952l-.5781898.3338165c-.000206-.0726929.0981865-.1921539.229084-.2829666l-.0019722-.694809c-.0853691.03405-.1590767.0258026-.2166519-.0103836-.0679283-.0505219-.1124039-.1450729-.1127892-.2803116l-.0021858-.7708817z" fill="#3f434f"/></g><g><path d="m33.3877144 104.9530411.003067 1.0819473-.2148018.1240158-.003067-1.0819473z" fill="#3f434f"/></g><g><path d="m33.2797661 104.3024826.2859611.5477829-.1780128.1027756-.3913498.2242584z" fill="#3f434f"/></g></g><g><g><path d="m9.6736555 112.6372375-.255785.4867096.1584149.0914612.3495683.2003174z" fill="#4c7891"/></g><g><path d="m9.5762854 113.2154083-.0027295.9628144.1911459.1103591.0027295-.9628143z" fill="#4c7891"/></g><g><path d="m8.6267462 113.7174759-.0005846.2061005 1.3196954.7619247.0005847-.2061005z" fill="#4c7891"/></g><g><path d="m7.2240977 111.2229843-.001945.6860046c-.0006142.216629.1245661.4682236.2907481.5958099l-.0017529.618309c-.1165581-.0537338-.2044382-.0487137-.2046213.0159683l.5145268.2970657c.0001836-.0646896-.0873761-.1709976-.2038579-.2518082l.0017529-.618309c.0759697.030304.1415606.0229645.1927967-.0092392.0604506-.04496.1000285-.129097.1003695-.2494507l.001945-.685997z" fill="#4c7891"/></g><g><path d="m8.811698 112.7739716-.0027304.9628143.1911507.1103592.0027294-.9628144z" fill="#4c7891"/></g><g><path d="m8.9077587 112.1950455-.2544756.4874649.1584149.0914612.3482589.199562z" fill="#4c7891"/></g></g></g><g><g><g><path d="m45.3165627 104.3134003-.0290032 7.1684494-20.881588 12.3162613.0290032-7.1684494z" fill="#efac41"/></g><g><path d="m28.8119221 116.9247971-.0095387 3.0134506-2.7283935 1.5855636.0095386-3.013443z" fill="#e4e8f4"/></g><g><path d="m24.4349747 116.6296616-.0290032 7.1684494-8.3511657-4.8215485.0290031-7.1684494z" fill="#f9bb4a"/></g><path d="m45.318531 104.3191376-20.8835811 12.3161392-3.6480942-2.112114-1.0560856-.5973434-.0212898-.0106125-3.6268044-2.1014328 20.883648-12.3161392 3.6480903 2.1014328.0106774.0106811 1.0453453.5973435z" fill="#fed57a"/><path d="m41.6704369 102.2070923-20.8835812 12.3160705-1.0560856-.5973434-.0212898-.0106125 20.9049339-12.3161392.0106774.0106811z" fill="#5b5e71"/><g><path d="m20.7868557 114.5231628-.0098286 3.4668274-1.0675468-.6096573.0098286-3.4668273z" fill="#474b59"/></g></g><g><g><path d="m41.8883858 110.2116776.2874336.5469284-.1780167.1027832-.3928222.2250976z" fill="#3f434f"/></g><g><path d="m41.9978027 110.8613892.0030671 1.0819397-.2147942.1240158-.0030708-1.0819474z" fill="#3f434f"/></g><g><path d="m43.0648308 111.4255753.0006561.2315979-1.4829826.8562011-.0006562-.2315979z" fill="#3f434f"/></g><g><path d="m44.6410294 108.6224365.0021858.7708893c.0006905.2434311-.1399765.5261536-.3267212.6695251l.0019684.6948166c.1309814-.0603867.2297325-.0547485.2299385.0179443l-.5781898.3338165c-.000206-.0726852.0981865-.1921463.229084-.282959l-.0019722-.6948166c-.0853691.03405-.1590767.0258102-.2166519-.010376-.0679283-.0505219-.1124039-.1450729-.1127892-.2803192l-.002182-.7708817z" fill="#3f434f"/></g><g><path d="m42.8569946 110.3653336.003067 1.0819473-.2148017.1240158-.0030671-1.0819473z" fill="#3f434f"/></g><g><path d="m42.7490463 109.7147751.2859612.5477753-.1780129.1027832-.3913498.2242508z" fill="#3f434f"/></g></g><g><g><path d="m19.1429367 118.04953-.255785.486702.158413.0914612.3495693.200325z" fill="#4c7891"/></g><g><path d="m19.0455647 118.6276932-.0027295.9628143.1911469.1103592.0027294-.9628143z" fill="#4c7891"/></g><g><path d="m18.0960274 119.1297607-.0005856.2061005 1.3196964.7619324.0005837-.2061081z" fill="#4c7891"/></g><g><path d="m16.6933784 116.6352768-.0019455.685997c-.0006142.2166367.1245651.4682236.2907486.5958176l-.0017529.6183014c-.1165581-.0537338-.2044392-.0487137-.2046223.015976l.5145283.2970581c.0001831-.064682-.0873775-.17099-.2038593-.2518005l.0017529-.618309c.0759697.0302963.1415615.0229568.1927967-.0092392.0604515-.04496.100029-.129097.1003704-.2494507l.0019455-.6860046z" fill="#4c7891"/></g><g><path d="m18.2809772 118.186264-.0027294.9628144.1911507.1103592.0027294-.9628144z" fill="#4c7891"/></g><g><path d="m18.377039 117.607338-.2544747.4874649.1584129.0914611.348259.1995621z" fill="#4c7891"/></g></g></g><g><g><g><path d="m37.1266022 95.9161987-.0290032 7.1684494-13.727026 8.0968552.0290032-7.1684494z" fill="#efac41"/></g><g><path d="m27.7765236 104.308197-.0095368 3.013443-2.7283935 1.5855637.0095367-3.013443z" fill="#e4e8f4"/></g><g><path d="m23.3995762 104.0130539-.0290032 7.1684494-8.3511648-4.8215408.0290041-7.1684571z" fill="#f9bb4a"/></g><path d="m37.1285706 95.921936-13.7290192 8.0967331-3.6480923-2.1121063-1.0560875-.5973511-.0212898-.0106125-3.6268024-2.1014328 13.7290859-8.0967331 3.6480923 2.1014328.0106773.0106812 1.0453453.5973511z" fill="#fed57a"/><path d="m33.4804802 93.8098984-13.7290211 8.0966644-1.0560875-.5973511-.0212898-.0106125 13.7503758-8.0967331.0106773.0106812z" fill="#5b5e71"/><g><path d="m19.7514591 101.9065628-.0098285 3.4668274-1.0675488-.6096573.0098286-3.4668274z" fill="#474b59"/></g></g><g><g><path d="m33.6984253 101.814476.2874336.5469284-.1780128.1027832-.3928223.2251053z" fill="#3f434f"/></g><g><path d="m33.8078461 102.4641876.003067 1.0819397-.214798.1240158-.003067-1.0819473z" fill="#3f434f"/></g><g><path d="m34.8748703 103.0283737.0006561.2316055-1.4829826.8561936-.0006561-.2315979z" fill="#3f434f"/></g><g><path d="m36.4510727 100.225235.0021858.7708893c.0006905.2434387-.1399803.5261536-.326725.6695328l.0019722.694809c.1309776-.0603867.2297325-.0547485.2299385.0179443l-.5781898.3338242c-.000206-.0726929.0981865-.1921539.2290802-.2829666l-.0019684-.694809c-.0853691.0340424-.1590767.0258026-.2166519-.0103836-.0679321-.0505219-.1124039-.1450729-.1127892-.2803192l-.0021858-.7708817z" fill="#3f434f"/></g><g><path d="m34.6670341 101.968132.0030709 1.0819473-.2148018.1240159-.003067-1.0819474z" fill="#3f434f"/></g><g><path d="m34.5590897 101.3175735.2859611.5477829-.1780167.1027756-.3913497.2242508z" fill="#3f434f"/></g></g><g><g><path d="m18.1075382 105.4329224-.255785.4867096.1584149.0914535.3495693.200325z" fill="#4c7891"/></g><g><path d="m18.0101681 106.0110855-.0027294.962822.1911449.1103592.0027313-.962822z" fill="#4c7891"/></g><g><path d="m17.0606289 106.5131531-.0005837.2061081 1.3196946.7619247.0005836-.2061081z" fill="#4c7891"/></g><g><path d="m15.6579809 104.0186691-.0019455.6860046c-.0006142.216629.1245661.4682159.2907486.5958099l-.0017529.618309c-.1165581-.0537338-.2044382-.0487213-.2046213.0159683l.5145264.2970657c.0001831-.0646896-.0873756-.1709976-.2038574-.2518082l.0017529-.618309c.0759697.0302963.1415596.0229645.1927967-.0092392.0604496-.04496.100029-.129097.1003685-.2494507l.0019455-.6860046z" fill="#4c7891"/></g><g><path d="m17.2455807 105.5696564-.0027294.9628143.1911506.1103592.0027294-.9628143z" fill="#4c7891"/></g><g><path d="m17.3416424 104.9907303-.2544766.4874649.1584149.0914612.3482589.199562z" fill="#4c7891"/></g></g></g></g></g></g></g><g><path d="m93.9440079 56.5888634-29.967434-17.5281868-44.404314-7.8725834 74.4223461 43.2495441z" fill="#576cfb"/></g><g><path d="m126.1564255 37.9910126-52.1948853-30.388866-16.1344108 1.7263589 52.194889 30.3888636z" fill="#2f873b"/></g><g><path d="m129.0000153 35.8215637-52.1948929-30.3888635-18.9832649 2.0365252 52.194889 30.388864z" fill="#d4dae8"/></g><g><path d="m110.0220184 39.7173691-52.194889-30.3888636-16.0780144 16.8714934 52.1948929 30.3888645z" fill="#2f873b"/></g><g><path d="m110.0220184 39.7173691-16.0780105 16.8714943.0505981 17.8487739 32.2124253-18.5978546-.0506058-17.8487701z" fill="#748bfd"/></g><g><path d="m91.097435 57.704628-52.1948891-30.3888626.5708237 1.2689056 52.1948891 30.3888664z" fill="#aeb7c4"/></g><g><path d="m110.0167465 37.8580894-52.194889-30.388864-18.9193116 19.84654 52.1948891 30.3888626z" fill="#e4e8f4"/></g><g><path d="m56.0414276 78.4719238-52.1948893-30.3888626.0506015 17.8487702 52.1948898 30.3888702z" fill="#576cfb"/><path d="m3.897 65.932 52.195 30.389" fill="#cad0dd"/></g><g><path d="m88.2538986 59.8740501-52.1948929-30.3888664-16.1209678 1.7185993 52.194889 30.3888646z" fill="#2f873b"/></g><g><path d="m91.097435 57.704628-52.1948891-30.3888626-18.9697799 2.028738 52.194889 30.3888645z" fill="#d4dae8"/></g><g><path d="m72.1329269 61.5926476-52.194889-30.3888646-16.0914996 16.8792782 52.1948893 30.3888626z" fill="#2f873b"/></g><g><path d="m72.1329269 61.5926476-16.0914993 16.8792762.050602 17.8487778 32.2124672-18.5978775-.0505982-17.848774z" fill="#748bfd"/></g><g><path d="m53.1949005 79.5876694-52.1948877-30.3888665.570824 1.2689057 52.1948874 30.3888664z" fill="#bac1ce"/></g><g><path d="m72.127655 59.7333679-52.194889-30.3888645-18.9327532 19.8542995 52.1948877 30.3888665z" fill="#e4e8f4"/></g><g><path d="m110.0167465 37.8580894-18.9193115 19.8465386.5708237 1.2689094 18.3537597-19.2561683 18.4161682-1.9729653.5618287-1.9228401z" fill="#cad0dd"/></g><g><path d="m72.127655 59.7333679-18.9327545 19.8543015.5708237 1.2689056 18.3672027-19.2639274 18.4027329-1.9652062.5617752-1.9228134z" fill="#cad0dd"/></g><g><path d="m14.6862612 62.1614914-1.4546938-.8357735v5.0950051l1.4546938-.5746155z" fill="#748bfd"/><path d="m14.6862612 62.1614914v3.6846161l6.6735372 3.8560715.0327492-3.6870957z" fill="#e4e8f4"/><path d="m42.6410942 78.3031998v3.6846161l6.7062874 3.8533172v-3.6846161z" fill="#e4e8f4"/><path d="m21.3597984 69.702179-6.6735372-3.8560715-1.4546938.5746155 8.1158485 4.6893615z" fill="#4562ef"/><g><path d="m28.6635399 70.2324829v3.6846161l6.7062874 3.8533173v-3.6846161z" fill="#e4e8f4"/><g><path d="m28.6635399 70.2324829-1.4546948-.8357773v5.0947342l1.4546948-.5743408z" fill="#748bfd"/><path d="m28.6635399 73.917099-1.4546948.5743408v.0002747l8.1609822 4.6890869v-1.4103851z" fill="#4562ef"/></g></g><g><path d="m42.6410942 78.3031998-1.4546928-.8357773v5.0947342l1.4546928-.5743408z" fill="#748bfd"/><path d="m42.6410942 81.9878159-1.4546928.5743408v.0002746l8.1609802 4.6890869v-1.4103851z" fill="#4562ef"/></g></g><g><path d="m79.2758102 82.9433594-12.1283722 7.0057297-.0554351-13.6235886 12.1283722-6.9780121z" fill="#e4e8f4"/></g><g><path d="m118.8821793 60.0676727-.0541916-13.5893669-12.1277619 6.9841995 12.0193711 6.6593628z" fill="#37617b"/><path d="m106.7445679 67.0491409v-1.4397812l-.0275498-3.6828613v-4.4858169l-.0277176-1.2183838v-2.7690316l.9690934.5261231 1.4676666.830677.4152527.2215691 1.4676666.830677.3875427.1938515v.0277176h.0277176l.02771.0277176.1384201.0829811h.0277176l.0277176.0277176.1107025.0554351h.0277176l.0554351.0275498.1106949.0554352v.0277176h.0277176l.0554352.0277176.1384201.0829811.6922607.3877067.5538407.304554.4152527.2215691.0554352.0554351h.0277175l1.3845139.7752381.3877029.1938553.082985.0554352.0554351.0277175.1384201.0829812.0554352.0277175.1384125.082985.0554352.0277137h.0275497l.0831528.0831528h.0277176l.0554352.0277176.1107025.0552673h.0277176l1.7167816.9692612h.0277176l.4152527.2491188z" fill="#4c7891"/></g><g><path d="m114.3521118 53.5172005-.011673 3.6885376-3.3396225 1.9407768.011673-3.6885376z" fill="#efac41"/><path d="m113.9642258 54.2217522v.583107l-.0033188.0596351v.5698624l-2.5742874 1.497509v-.2153397l.0033188-.1524086v-.4903335l.0033187-.1557274v-.1987763z" fill="#e4e8f4"/><path d="m111.0124893 55.4579773-.011673 3.6885376-3.361473-1.9407463.0116729-3.6885376z" fill="#f9bb4a"/><path d="m114.3529053 53.5195122-3.3404236 1.9407272-1.4684143-.8501549-.4250946-.2404441-.0085678-.0042725-1.4598465-.8458557 3.3404541-1.9407273 1.4684143.8458558.004303.0042991.4207611.2404404z" fill="#fed57a"/><path d="m112.884491 52.6693802-3.3404236 1.9407043-.4250946-.2404441-.0085678-.0042725 3.3490219-1.9407272.004303.0042991z" fill="#efac41"/><path d="m109.5440674 54.6100845-.0039597 1.3954506-.4297027-.2453956.003952-1.3954544z" fill="#efac41"/><g><g><path d="m111.7561569 57.5197678.1156998.2201461-.0716553.0413704-.1581192.0906067z" fill="#3f434f"/></g><g><path d="m111.8002014 57.7812843.001236.4355011-.086464.0499153-.0012359-.4355011z" fill="#3f434f"/></g><g><path d="m112.2296906 58.0083771.000267.0932235-.5969238.3446351-.0002594-.0932236z" fill="#3f434f"/></g><g><path d="m112.8641357 56.8800735.000885.3102913c.0002747.0979881-.0563431.2117882-.1315155.2694969l.0007935.2796745c.0527267-.0243073.0924759-.0220375.0925522.007225l-.2327271.1343651c-.0000839-.0292587.0395203-.077343.0922089-.1138954l-.0007935-.2796745c-.0343628.0137062-.0640259.0103874-.087204-.0041771-.0273438-.0203362-.0452423-.0583954-.0454025-.1128311l-.0008774-.3102913z" fill="#3f434f"/></g><g><path d="m112.1460342 57.5816154.001236.4354973-.0864563.0499192-.001236-.4354973z" fill="#3f434f"/></g><g><path d="m112.1025848 57.3197556.1151047.2204895-.0716553.0413703-.1575241.0902672z" fill="#3f434f"/></g></g><g><g><path d="m113.9642258 54.8048592-.0033188.0596351-2.5709686 1.4842606v-.0563164z" fill="#a4a9b3"/></g><g><path d="m113.960907 55.0169029v.0629502l-2.5709686 1.4842643v-.0596351z" fill="#a4a9b3"/></g><g><path d="m113.960907 55.2322426v.0629501l-2.5742874 1.4842835v-.0629502z" fill="#a4a9b3"/></g><g><path d="m113.9642258 54.5895004v.0596543l-2.5742874 1.4875793v-.0629501z" fill="#a4a9b3"/></g><g><path d="m113.9642258 54.3741608v.0596351l-2.5709687 1.4842606v-.0596314z" fill="#a4a9b3"/></g></g></g><g><path d="m118.6419144 55.9939156-.0116806 3.6885376-3.3396225 1.9407768.0116729-3.6885376z" fill="#efac41"/><path d="m118.2540207 56.6984673v.5831069l-.0033188.0596352v.5698624l-2.5742798 1.497509v-.2153397l.0033112-.1524086v-.4903335l.0033188-.1557274v-.1987763z" fill="#e4e8f4"/><path d="m115.3022842 57.9346924-.0116729 3.6885376-3.3614731-1.9407463.011673-3.6885376z" fill="#f9bb4a"/><path d="m118.6427002 55.9962273-3.3404236 1.9407272-1.4684143-.8501549-.4250946-.2404442-.0085678-.0042724-1.4598389-.8458557 3.3404541-1.9407273 1.4684067.8458557.004303.0042992.4207687.2404404z" fill="#fed57a"/><path d="m117.1742935 55.1460953-3.3404312 1.9407043-.4250946-.2404442-.0085678-.0042724 3.3490219-1.9407273.004303.0042992z" fill="#efac41"/><path d="m113.8338623 57.0867996-.0039597 1.3954506-.4297027-.2453956.0039596-1.3954506z" fill="#efac41"/><g><g><path d="m116.0459518 59.9964828.1156998.2201462-.0716553.0413704-.1581192.0906067z" fill="#3f434f"/></g><g><path d="m116.0899963 60.2579994.001236.4355011-.0864639.0499153-.0012284-.4355011z" fill="#3f434f"/></g><g><path d="m116.5194931 60.4850922.0002594.0932273-.5969238.3446312-.0002594-.0932235z" fill="#3f434f"/></g><g><path d="m117.1539383 59.3567886.0008774.3102913c.0002747.0979881-.0563431.2117882-.1315079.2694969l.0007858.2796745c.0527267-.0243073.0924759-.0220375.0925598.007225l-.2327347.1343651c-.0000839-.0292587.0395279-.077343.0922089-.1138954l-.0007935-.2796745c-.0343628.0137062-.0640259.0103874-.087204-.0041771-.0273438-.0203362-.0452423-.0583954-.0453949-.1128311l-.000885-.3102913z" fill="#3f434f"/></g><g><path d="m116.4358368 60.0583305.0012283.4355011-.0864563.0499153-.0012359-.4354972z" fill="#3f434f"/></g><g><path d="m116.3923874 59.7964706.115097.2204895-.0716476.0413704-.1575241.0902672z" fill="#3f434f"/></g></g><g><g><path d="m118.2540207 57.2815742-.0033188.0596352-2.5709686 1.4842606v-.0563164z" fill="#a4a9b3"/></g><g><path d="m118.2507019 57.493618v.0629501l-2.5709686 1.4842644v-.0596351z" fill="#a4a9b3"/></g><g><path d="m118.2507019 57.7089577v.0629501l-2.5742798 1.4842835v-.0629502z" fill="#a4a9b3"/></g><g><path d="m118.2540207 57.0662155v.0596543l-2.5742874 1.4875793v-.0629501z" fill="#a4a9b3"/></g><g><path d="m118.2540207 56.8508759v.0596351l-2.5709686 1.4842606v-.0596314z" fill="#a4a9b3"/></g></g></g><g><path d="m110.4594498 55.7361641-.011673 3.6885376-3.3396301 1.9407806.0116729-3.6885376z" fill="#efac41"/><path d="m110.0715561 56.4407158v.5831108l-.0033188.0596313v.5698662l-2.5742798 1.4975052v-.2153396l.0033112-.1524086v-.4903336l.0033188-.1557236v-.19878z" fill="#e4e8f4"/><path d="m107.1322708 57.6898003v1.0245285l-.0277176 1.7169532v.9413758l-.3875351-.2215691v-3.7104072z" fill="#f9bb4a"/><path d="m110.4274216 55.7516098-2.6306076 1.5506516h-.0277176l-.6368256.3875389-.4152527-.2491188-.0277176-1.2183838v-2.1874733l.4152527-.2492867.5538407.3322716.9138259.526123.4152527.2492867.138588.0829811.4152527.2492867z" fill="#fed57a"/><path d="m108.9874725 54.893219-1.3567962.7752418-.9413758.5538369v-.4984055l.9690934-.5538368.9138259-.5261231z" fill="#efac41"/><g><g><path d="m107.8634872 59.7387314.1156998.22015-.0716553.0413704-.1581115.0906067z" fill="#3f434f"/></g><g><path d="m107.9075317 60.0002518.001236.4354973-.0864563.0499191-.001236-.4355011z" fill="#3f434f"/></g><g><path d="m108.3370285 60.2273445.000267.0932236-.5969238.344635-.000267-.0932236z" fill="#3f434f"/></g><g><path d="m108.9714737 59.099041.0008774.3102913c.0002823.0979881-.0563431.2117844-.1315079.2694969l.0007935.2796707c.0527191-.0243034.0924683-.0220337.0925522.007225l-.2327347.1343689c-.0000763-.0292625.0395279-.0773468.0922089-.1138992l-.0007858-.2796707c-.0343628.0137024-.0640335.0103836-.0872116-.0041809-.0273438-.0203362-.0452423-.0583916-.0453949-.1128311l-.000885-.3102913z" fill="#3f434f"/></g><g><path d="m108.2533722 59.8005791.001236.4355011-.086464.0499191-.0012359-.4355011z" fill="#3f434f"/></g><g><path d="m108.2099228 59.538723.1151047.2204895-.0716553.0413666-.1575241.0902672z" fill="#3f434f"/></g></g><g><g><path d="m110.0715561 57.0238266-.0033188.0596313-2.5709686 1.4842644v-.0563164z" fill="#a4a9b3"/></g><g><path d="m110.0682373 57.2358704v.0629501l-2.5709686 1.4842606v-.0596314z" fill="#a4a9b3"/></g><g><path d="m110.0682373 57.45121v.0629502l-2.5742798 1.4842796v-.0629501z" fill="#a4a9b3"/></g><g><path d="m110.0715561 56.8084679v.0596542l-2.5742874 1.4875755v-.0629501z" fill="#a4a9b3"/></g><g><path d="m110.0715561 56.5931282v.0596314l-2.5709686 1.4842643v-.0596351z" fill="#a4a9b3"/></g></g></g><g><path d="m114.7492447 58.2128792-.011673 3.6885376-3.3396301 1.9407806.0116806-3.6885376z" fill="#efac41"/><path d="m114.361351 58.9174347v.583107l-.0033111.0596351v.5698624l-2.5742875 1.4975052v-.2153358l.0033188-.1524125v-.4903297l.0033112-.1557274v-.19878z" fill="#e4e8f4"/><path d="m111.4096222 60.1536598-.0116806 3.6885376-3.3614655-1.9407463.011673-3.6885376z" fill="#f9bb4a"/><path d="m114.7500381 58.2151909-3.3404312 1.940731-1.4684143-.8501587-.4250869-.2404403-.0085679-.0042725-1.4598465-.8458595 3.3404541-1.9407272 1.4684144.8458595.0042953.0042953.4207687.2404442z" fill="#fed57a"/><path d="m113.2816238 57.3650627-3.3404312 1.9407005-.4250869-.2404403-.0085679-.0042725 3.349022-1.9407272.0042953.0042953z" fill="#efac41"/><path d="m109.9411926 59.3057632-.003952 1.3954506-.4297028-.2453956.0039521-1.3954506z" fill="#efac41"/><g><g><path d="m112.1532898 62.2154503.1156921.2201462-.0716552.0413704-.1581116.0906066z" fill="#3f434f"/></g><g><path d="m112.1973267 62.4769669.0012359.4354972-.0864563.0499192-.0012359-.4355011z" fill="#3f434f"/></g><g><path d="m112.6268234 62.7040596.0002671.0932236-.5969239.344635-.000267-.0932236z" fill="#3f434f"/></g><g><path d="m113.2612686 61.5757561.0008774.3102913c.0002823.0979881-.0563431.2117844-.1315079.2694969l.0007935.2796707c.0527191-.0243034.0924683-.0220337.0925522.007225l-.2327271.1343689c-.0000839-.0292625.0395203-.0773468.0922089-.1138992l-.0007935-.2796707c-.0343628.0137062-.0640335.0103836-.087204-.0041809-.0273438-.0203362-.0452499-.0583916-.0454025-.1128311l-.0008774-.3102913z" fill="#3f434f"/></g><g><path d="m112.5431671 62.2772942.001236.4355011-.086464.0499191-.0012359-.4355011z" fill="#3f434f"/></g><g><path d="m112.4997177 62.0154381.1151047.2204895-.0716553.0413666-.1575241.0902671z" fill="#3f434f"/></g></g><g><g><path d="m114.361351 59.5005417-.0033111.0596351-2.5709687 1.4842606v-.0563164z" fill="#a4a9b3"/></g><g><path d="m114.3580399 59.7125854v.0629502l-2.5709687 1.4842605v-.0596313z" fill="#a4a9b3"/></g><g><path d="m114.3580399 59.9279251v.0629501l-2.5742875 1.4842797v-.0629463z" fill="#a4a9b3"/></g><g><path d="m114.361351 59.285183v.0596542l-2.5742798 1.4875755v-.0629463z" fill="#a4a9b3"/></g><g><path d="m114.361351 59.0698433v.0596313l-2.5709686 1.4842644v-.0596351z" fill="#a4a9b3"/></g></g></g><g><path d="m110.856575 60.4318466-.011673 3.6885376-3.3396225 1.9407807.011673-3.6885415z" fill="#efac41"/><path d="m110.468689 61.1363983v.5831108l-.0033188.0596314v.5698623l-2.5742874 1.497509v-.2153396l.0033188-.1524086v-.4903336l.0033187-.1557274v-.1987762z" fill="#e4e8f4"/><path d="m107.5199738 62.3694687-.0277176 3.6828613-.7476883-.4429703-.0275498-3.6828613z" fill="#f9bb4a"/><path d="m110.8428497 60.431282v.0275498l-2.6583328 1.5231018-.6645431.3875351-.8029557-.4706879v-2.962883l.4152527-.221569.3599854-.2214012v.0277175h.0277176l.0277175.027546h.0277176l.1107026.0554352.0554351.0277175.1384201.082985.0552597.0277137.1108704.0831528h.0277176l.6645431.3877068.2215653.1384163.4152603.221569.1384125.0829849.277008.1661339.1384125.0554352z" fill="#fed57a"/><path d="m109.3751831 59.5728874-.526123.304554-.0552674.0277176-.526123.304554-.1108704.0829811-.1107025.0554352-.1384201.0831527-.0831451.0552674-.7199784.4154205-.3875351.2215691v-.4708557l.3875351-.2214013.6645432-.3877029.1938476-.1108704.0831528-.0552673.0554352-.0277176.1936874-.1106987.3599854-.221569.304718-.1661377z" fill="#efac41"/><g><g><path d="m108.2606201 64.4344177.1156998.2201462-.0716553.0413666-.1581192.0906067z" fill="#3f434f"/></g><g><path d="m108.3046646 64.6959305.001236.4355011-.086464.0499191-.0012283-.4355011z" fill="#3f434f"/></g><g><path d="m108.7341614 64.923027.0002594.0932236-.5969239.344635-.0002594-.0932236z" fill="#3f434f"/></g><g><path d="m109.3686066 63.7947197.0008774.3102913c.0002747.0979919-.0563431.2117844-.1315155.2695007l.0007935.2796707c.0527267-.0243073.0924759-.0220337.0925598.007225l-.2327347.1343689c-.0000839-.0292664.0395203-.0773468.0922089-.1138992l-.0007935-.2796707c-.0343628.0137024-.0640259.0103836-.087204-.0041809-.0273438-.02034-.0452423-.0583954-.0454025-.1128311l-.0008774-.3102913z" fill="#3f434f"/></g><g><path d="m108.6504974 64.4962616.001236.4355011-.0864563.0499191-.001236-.4355011z" fill="#3f434f"/></g><g><path d="m108.607048 64.2344055.1151047.2204895-.0716553.0413666-.1575241.0902634z" fill="#3f434f"/></g></g><g><g><path d="m110.468689 61.7195091-.0033188.0596314-2.5709686 1.4842643v-.0563201z" fill="#a4a9b3"/></g><g><path d="m110.4653702 61.9315491v.0629501l-2.5709686 1.4842644v-.0596352z" fill="#a4a9b3"/></g><g><path d="m110.4653702 62.1468887v.0629502l-2.5742874 1.4842834v-.0629501z" fill="#a4a9b3"/></g><g><path d="m110.468689 61.5041466v.0596542l-2.5742874 1.4875794v-.0629502z" fill="#a4a9b3"/></g><g><path d="m110.468689 61.2888069v.0596352l-2.5709687 1.4842605v-.0596313z" fill="#a4a9b3"/></g></g></g><g><path d="m77.6427841 67.9769058v-3.820961l-.73806.173584v3.3868637z" fill="#576cfb"/><path d="m76.9047241 67.7163925-9.8129043 5.6879807v.6511383l10.5509643-6.0786057z" fill="#4562ef"/><path d="m76.9047241 64.3295288-4.559021 1.0420303-5.2538833 4.8629914v3.1698227l9.8129043-5.6879807z" fill="#e4e8f4"/></g><g><path d="m117.2483749 45.1308784v-3.8209571l-.73806.1735839v3.3868676z" fill="#576cfb"/><path d="m116.5103149 44.8703728-9.8129043 5.687973v.6511383l10.5509643-6.0786057z" fill="#4562ef"/><path d="m116.5103149 41.4835052-4.559021 1.0420304-5.2538833 4.8629913v3.1698189l9.8129043-5.687973z" fill="#e4e8f4"/></g><g enable-background="new"><g><path d="m11.1148357 95.9188004-.7767286-.4513855-.0258102-13.0810318.7767296.4513855z" fill="#f34858"/></g><g><path d="m15.1457291 78.0281372c0 1.0138779-.7163677 2.2481842-1.5980043 2.7551575l-3.3723088 1.9506073c-.4408512.2535172-.8375778.2755127-1.1351566.1102448l-.7714567-.4518814c.2865467.1653366.6943045.1432724 1.1351566-.1101837l3.3723087-1.9506683c.8816357-.5069046 1.5869722-1.7412796 1.5869722-2.7551575 0-.5069046-.1763-.8595734-.4628477-1.02491l.77139.4518814c.2865467.1652679.4739466.5179366.4739466 1.0249099z" fill="#f34858"/></g><g><path d="m15.0685759 76.3309174c-.3967934-.2204208-.9367933-.1873322-1.5318823.1543045l-3.3723087 1.9396439c-1.1792145.6832733-2.1380033 2.3473969-2.1380033 3.7139435 0 .6722412.2424212 1.1461182.6281834 1.3665466l-.7714572-.4518127c-.385695-.2204285-.6281838-.6943054-.6281838-1.3665466-.0110312-1.3666153.9587889-3.0306778 2.1380043-3.7140121l3.3723078-1.9395752c.5951567-.3416367 1.1351566-.374733 1.5208521-.1543045z" fill="#f34858"/></g><g><path d="m13.5376987 76.4839478c1.1891518-.686554 2.1491756-.1394272 2.1530495 1.2269974.0038509 1.3583221-.9499159 3.0184555-2.1390667 3.7050095l-.900609.5199661.0258093 13.0810318-1.5620461.9018478-.0258093-13.0810318-.9076939.5240631c-1.1821299.6825027-2.14923.1313782-2.1530809-1.226944-.0038738-1.3664246.9569693-3.0225601 2.1390991-3.7050629zm.0121947 4.3013839c.8795443-.5078049 1.5949411-1.7469254 1.5920763-2.7575531-.0028658-1.0106583-.7229614-1.4290771-1.6025057-.9212723l-3.3703489 1.9458694c-.8795443.5078049-1.5949183 1.7549896-1.5920534 2.7656555.0028658 1.0106277.7229385 1.4209747 1.6024837.9131699z" fill="#f9607f"/></g></g><g><g><g enable-background="new"><g><path d="m108.281189 93.8663254-.002121.7500915-36.1102219 20.9849625.0021286-.7500839z" fill="#525566"/></g><g><path d="m72.1709747 114.8512955-.0021286.7500839-2.2716675-1.3115463.002121-.7500916z" fill="#474b59"/></g><g><path d="m108.281189 93.8663254-36.1102143 20.9849701-2.2716751-1.311554 36.1102219-20.9849624z" fill="#5b5e71"/></g></g><g enable-background="new"><g><path d="m116.0360794 98.3436127-.0021286.7500839-36.1102219 20.9849701.0021286-.7500916z" fill="#525566"/></g><g><path d="m79.9258575 119.3285751-.0021286.7500916-2.2716674-1.3115463.0021286-.7500916z" fill="#474b59"/></g><g><path d="m116.0360794 98.3436127-36.1102219 20.9849624-2.2716674-1.3115463 36.1102218-20.9849701z" fill="#5b5e71"/></g></g><g enable-background="new"><g><path d="m123.8106232 102.8322449-.0021286.7500915-36.1102219 20.9849625.0021286-.7500839z" fill="#525566"/></g><g><path d="m87.7004013 123.817215-.0021286.7500839-2.2716675-1.3115463.0021286-.7500916z" fill="#474b59"/></g><g><path d="m123.8106232 102.8322449-36.1102219 20.9849701-2.2716675-1.311554 36.1102143-20.9849625z" fill="#5b5e71"/></g></g></g><g><g enable-background="new"><g><path d="m98.6996613 95.0941925.0023422.8256455 19.9810333 11.6117095-.0023422-.8256454z" fill="#37617b"/></g><g><path d="m118.6806946 106.7059021.0023422.8256454 2.5005035-1.4436645-.0023422-.8256455z" fill="#416e84"/></g><g><path d="m98.6996613 95.0941925 19.9810333 11.6117096 2.5005035-1.4436646-19.9810333-11.6117095z" fill="#4c7891"/></g></g><g enable-background="new"><g><path d="m90.1636047 100.0224838.0023423.8256531 19.9810333 11.611702-.0023422-.8256455z" fill="#37617b"/></g><g><path d="m110.1446381 111.6341934.0023422.8256455 2.5005035-1.4436646-.0023422-.8256454z" fill="#416e84"/></g><g><path d="m90.1636047 100.0224838 19.9810334 11.6117096 2.5005035-1.4436645-19.9810333-11.6117096z" fill="#4c7891"/></g></g><g enable-background="new"><g><path d="m81.6059113 104.9632721.0023422.8256454 19.9810333 11.6117096-.0023422-.8256454z" fill="#37617b"/></g><g><path d="m101.5869446 116.5749817.0023422.8256454 2.5005035-1.4436645-.0023422-.8256455z" fill="#416e84"/></g><g><path d="m81.6059113 104.9632721 19.9810333 11.6117096 2.5005035-1.4436646-19.9810333-11.6117096z" fill="#4c7891"/></g></g><g enable-background="new"><g><path d="m73.0482178 109.9040604.0023422.8256454 19.9810333 11.6117096-.0023422-.8256454z" fill="#37617b"/></g><g><path d="m93.0292511 121.51577.0023422.8256454 2.5005036-1.4436645-.0023423-.8256455z" fill="#416e84"/></g><g><path d="m73.0482178 109.9040604 19.9810333 11.6117096 2.5005035-1.4436646-19.9810333-11.6117096z" fill="#4c7891"/></g></g></g></g><g><g><g><g><path d="m97.668808 90.3166962.0294342 9.3001098 15.245285 8.8585129-.0294342-9.3001099z" fill="#efac41"/></g><g><path d="m108.8329468 98.2220535.009674 3.0582962 2.7690049 1.609169-.0096817-3.0582962z" fill="#e4e8f4"/></g><g><path d="m112.914093 99.175209.0294342 9.3001099 8.4754639-4.8933182-.0294342-9.3001098z" fill="#f9bb4a"/></g><path d="m97.6668091 90.322525 15.2473068 8.8583832 3.7023926-2.1435471 1.0718078-.6062393.0216065-.0107727 3.6807861-2.1327057-15.2473755-8.8583831-3.7023925 2.1327133-.0108414.0108337-1.0608978.6062393z" fill="#fed57a"/><path d="m101.3692017 88.1790466 15.2473068 8.8583145 1.0718078-.6062393.0216065-.0107727-15.2689819-8.8583755-.0108414.0108337z" fill="#efac41"/><g><path d="m116.6165085 97.0373611.0099792 3.518425 1.0834351-.6187286-.0099716-3.518425z" fill="#efac41"/></g></g><g><g><path d="m111.0390396 104.3737106-.2917099.555069.1806641.1043015.3986664.2284545z" fill="#3f434f"/></g><g><path d="m110.9279938 105.0330811-.0031128 1.0980529.2179947.1258545.0031128-1.0980453z" fill="#3f434f"/></g><g><path d="m109.8450851 105.6056671-.0006637.235054 1.5050506.8689423.0006714-.235054z" fill="#3f434f"/></g><g><path d="m108.2454224 102.7608109-.0022125.7823563c-.0007019.2470627.1420593.533989.3315811.6794968l-.0019989.7051544c-.1329269-.0612793-.2331467-.0555573-.2333603.018219l.5867996.3387833c.000206-.0737762-.0996552-.195015-.2324905-.2871704l.0019989-.7051544c.0866394.0345535.161438.0261841.2198715-.0105362.0689392-.0512772.1140823-.1472321.1144714-.2844925l.0022125-.7823563z" fill="#3f434f"/></g><g><path d="m110.056015 104.5296478-.0031128 1.0980454.2180023.1258621.0031128-1.0980454z" fill="#3f434f"/></g><g><path d="m110.1655655 103.8694077-.2902145.555931.180664.1043091.3971787.2275925z" fill="#3f434f"/></g></g></g></g><g><g><g><g><path d="m86.1058121 96.9925995.0294342 9.3001099 15.245285 8.8585052-.0294342-9.3001099z" fill="#efac41"/></g><g><path d="m97.2699509 104.8979492.009674 3.0583039 2.7690049 1.609169-.0096817-3.0583039z" fill="#e4e8f4"/></g><g><path d="m101.3510971 105.8511047.0294342 9.3001099 8.4754639-4.8933105-.0294342-9.3001099z" fill="#f9bb4a"/></g><path d="m86.1038132 96.9984283 15.2473144 8.8583756 3.702385-2.1435471 1.0718078-.6062393.0216065-.0107727 3.6807861-2.1327057-15.2473755-8.8583755-3.7023926 2.1327057-.0108337.0108337-1.0609055.6062393z" fill="#fed57a"/><path d="m89.8062057 94.8549423 15.2473069 8.8583145 1.0718078-.6062393.0216065-.0107727-15.268982-8.8583755-.0108337.0108337z" fill="#efac41"/><g><path d="m105.0535126 103.7132568.0099792 3.518425 1.0834351-.6187286-.0099716-3.518425z" fill="#efac41"/></g></g><g><g><path d="m99.4760437 111.0496063-.2917099.555069.1806641.1043091.3986663.2284546z" fill="#3f434f"/></g><g><path d="m99.3649979 111.7089844-.0031128 1.0980453.2179947.1258621.0031128-1.0980529z" fill="#3f434f"/></g><g><path d="m98.2820892 112.2815628-.0006637.235054 1.5050583.8689423.0006637-.2350464z" fill="#3f434f"/></g><g><path d="m96.6824341 109.4367142-.0022202.7823563c-.0007019.2470627.1420593.5339813.3315811.6794968l-.0019989.7051544c-.1329269-.0612869-.2331467-.0555649-.2333603.0182114l.5867996.3387833c.000206-.0737686-.0996475-.1950073-.2324905-.2871704l.0019989-.7051544c.0866394.0345535.161438.0261841.2198715-.0105362.0689468-.0512772.1140823-.1472321.1144714-.2844849l.0022125-.7823563z" fill="#3f434f"/></g><g><path d="m98.4930191 111.2055435-.0031128 1.098053.2180023.1258621.0031128-1.098053z" fill="#3f434f"/></g><g><path d="m98.6025772 110.5453033-.2902222.5559311.1806641.1043091.3971787.2275925z" fill="#3f434f"/></g></g></g></g><g><g><g><g><path d="m74.5428162 103.6684952.0294342 9.3001098 15.245285 8.8585053-.0294342-9.3001099z" fill="#efac41"/></g><g><path d="m85.706955 111.5738525.009674 3.0582962 2.7690049 1.609169-.0096741-3.0582962z" fill="#e4e8f4"/></g><g><path d="m89.7881012 112.5270004.0294342 9.3001099 8.4754639-4.8933106-.0294342-9.3001098z" fill="#f9bb4a"/></g><path d="m74.5408173 103.674324 15.2473144 8.8583756 3.702385-2.1435471 1.0718078-.6062393.0216065-.0107651 3.6807861-2.1327133-15.2473755-8.8583755-3.7023926 2.1327057-.0108337.0108413-1.0609055.6062393z" fill="#fed57a"/><path d="m78.2432098 101.5308456 15.2473069 8.8583069 1.0718078-.6062393.0216065-.0107651-15.268982-8.8583831-.0108337.0108413z" fill="#efac41"/><g><path d="m93.4905167 110.3891525.0099792 3.5184326 1.0834351-.6187286-.0099716-3.5184326z" fill="#efac41"/></g></g><g><g><path d="m87.9130478 117.725502-.2917099.555069.1806641.1043091.398674.2284546z" fill="#3f434f"/></g><g><path d="m87.802002 118.3848801-.0031128 1.0980529.2179947.1258545.0031127-1.0980453z" fill="#3f434f"/></g><g><path d="m86.7190933 118.9574661-.0006637.2350464 1.5050583.8689499.0006637-.235054z" fill="#3f434f"/></g><g><path d="m85.1194382 116.1126099-.0022202.7823563c-.0007019.2470627.1420593.533989.3315887.6794968l-.0019989.7051544c-.1329346-.0612793-.2331543-.0555573-.2333679.0182114l.5867996.3387909c.000206-.0737762-.0996475-.195015-.2324905-.287178l.0019989-.7051544c.0866394.0345612.161438.0261917.2198715-.0105362.0689468-.0512695.1140823-.1472244.1144714-.2844849l.0022202-.7823563z" fill="#3f434f"/></g><g><path d="m86.9300232 117.8814392-.0031128 1.098053.2180023.1258621.0031128-1.098053z" fill="#3f434f"/></g><g><path d="m87.0395813 117.2212067-.2902222.5559311.1806641.1043014.3971786.2275925z" fill="#3f434f"/></g></g></g></g><g><g><g><g><path d="m89.8082047 83.8345261.0294342 9.3001098 15.245285 8.8585129-.0294342-9.3001099z" fill="#efac41"/></g><g><path d="m100.9723358 91.7398834.0096817 3.0582962 2.7690048 1.609169-.0096817-3.0582962z" fill="#e4e8f4"/></g><g><path d="m105.0534897 92.6930389.0294342 9.3001099 8.4754639-4.8933182-.0294342-9.3001098z" fill="#f9bb4a"/></g><path d="m89.8062057 83.8403549 15.2473069 8.8583832 3.7023926-2.1435471 1.0718078-.6062393.0216065-.0107727 3.6807861-2.1327057-15.2473755-8.8583832-3.7023926 2.1327134-.0108413.0108337-1.0608979.6062393z" fill="#fed57a"/><path d="m93.5085983 81.6968765 15.2473069 8.8583145 1.0718078-.6062393.0216065-.0107727-15.268982-8.8583755-.0108413.0108337z" fill="#efac41"/><g><path d="m108.7559052 90.555191.0099792 3.518425 1.0834351-.6187286-.0099717-3.518425z" fill="#efac41"/></g></g><g><g><path d="m103.1784363 97.8915405-.2917099.555069.180664.1043014.3986664.2284546z" fill="#3f434f"/></g><g><path d="m103.0673904 98.5509109-.0031128 1.098053.2179947.1258545.0031128-1.0980453z" fill="#3f434f"/></g><g><path d="m101.9844818 99.123497-.0006637.235054 1.5050506.8689423.0006714-.235054z" fill="#3f434f"/></g><g><path d="m100.384819 96.2786407-.0022125.7823563c-.0007019.2470627.1420593.533989.3315811.6794968l-.0019989.7051544c-.1329269-.0612793-.2331543-.0555573-.2333603.018219l.5867996.3387833c.000206-.0737762-.0996552-.195015-.2324982-.2871704l.0019989-.7051544c.086647.0345535.1614456.0261841.2198792-.0105362.0689392-.0512772.1140823-.1472321.1144714-.2844925l.0022125-.7823563z" fill="#3f434f"/></g><g><path d="m102.1954117 98.0474777-.0031128 1.0980454.2179947.1258621.0031128-1.0980454z" fill="#3f434f"/></g><g><path d="m102.3049622 97.3872375-.2902146.5559311.1806641.1043091.397171.2275925z" fill="#3f434f"/></g></g></g></g><g><g><g><g><path d="m78.2452087 90.5104294.0294342 9.3001098 15.2452851 8.8585053-.0294342-9.3001099z" fill="#efac41"/></g><g><path d="m89.4093475 98.4157791.0096741 3.0583038 2.7690048 1.6091691-.0096817-3.0583039z" fill="#e4e8f4"/></g><g><path d="m93.4904938 99.3689346.0294342 9.3001099 8.4754638-4.8933106-.0294342-9.3001098z" fill="#f9bb4a"/></g><path d="m78.2432098 90.5162582 15.2473069 8.8583756 3.7023925-2.1435471 1.0718079-.6062393.0216064-.0107727 3.6807862-2.1327057-15.2473755-8.8583755-3.7023926 2.1327057-.0108414.0108337-1.0608978.6062393z" fill="#fed57a"/><path d="m81.9456024 88.3727722 15.2473068 8.8583145 1.0718079-.6062393.0216064-.0107727-15.2689819-8.8583755-.0108414.0108337z" fill="#efac41"/><g><path d="m97.1929092 97.2310867.0099793 3.5184326 1.083435-.6187362-.0099716-3.518425z" fill="#efac41"/></g></g><g><g><path d="m91.6154404 104.5674362-.2917099.555069.180664.1043091.3986664.2284546z" fill="#3f434f"/></g><g><path d="m91.5043945 105.2268143-.0031128 1.0980453.2179947.1258621.0031128-1.0980529z" fill="#3f434f"/></g><g><path d="m90.4214859 105.7993927-.0006638.235054 1.5050507.8689423.0006714-.2350464z" fill="#3f434f"/></g><g><path d="m88.8218231 102.9545441-.0022125.7823563c-.0007019.2470627.1420593.533989.3315811.6794968l-.0019989.7051544c-.1329269-.0612869-.2331467-.0555649-.2333603.0182114l.5867996.3387909c.000206-.0737762-.0996552-.195015-.2324905-.287178l.0019989-.7051544c.0866394.0345535.161438.0261917.2198715-.0105362.0689392-.0512772.1140823-.1472321.1144714-.2844849l.0022125-.7823563z" fill="#3f434f"/></g><g><path d="m90.6324158 104.7233734-.0031128 1.098053.2180023.1258621.0031128-1.098053z" fill="#3f434f"/></g><g><path d="m90.7419662 104.0631332-.2902145.5559311.1806641.1043091.397171.2275925z" fill="#3f434f"/></g></g></g></g><g><g><g><path d="m106.838913 68.3579788.0104446 3.5633698 3.2237549 1.8729858-.0104447-3.5633621-1.3875579-.8086624-.417305-.2399979z" fill="#efac41"/></g></g><g><g><path d="m110.0584183 70.233078.0131225 3.5588989 3.2434922-1.8743515-.0106659-3.5556564v-.0053024h-.0053406l-1.4070892.8155899-.3198243.1865997-.095932.0532913z" fill="#f9bb4a"/></g></g><g><g><path d="m106.8368683 68.3612747 3.2234192 1.873024 1.4169769-.8204956.410202-.2320557.0082703-.0041198 1.4087067-.8163529-3.2234421-1.873024z" fill="#fed57a"/></g></g><g><g><path d="m108.2525787 67.540802 3.2234269 1.8730011.4101944-.2320557.0082702-.0041198-3.2317123-1.8730317-.0041504.0041504z" fill="#e4e8f4"/></g></g><g><g><path d="m111.8972702 70.025795-.417305.2452316-.0052261-.8487167v-.010437l.0938949-.0521622.3234177-.1826248v.0052261z" fill="#d4dae8"/></g></g><g><g><g><g><path d="m110.5168076 72.2802277.1056289.2010269-.0654144.0377807-.1443634.0827332z" fill="#3f434f"/></g></g></g><g><g><g><path d="m110.5570221 72.5190353.0011215.397667-.0789337.0455856-.0011292-.3976746z" fill="#3f434f"/></g></g></g><g><g><g><path d="m110.9491501 72.7264023.0002441.0851211-.5449981.3147049-.0002442-.0851288z" fill="#3f434f"/></g></g></g><g><g><g><path d="m111.9451141 71.4792862.0008011.2833405c.0002594.0894775-.0514374.1933899-.1200638.2460861l.0007248.2553787c.0481339-.0221939.0844269-.0201187.0844955.0065994l-.2124786.1226959c-.0000763-.0267181.0360794-.0706253.0841827-.1040039l-.0007248-.2553787c-.0313721.0125122-.0584564.0094833-.0796127-.0038147-.024971-.0185699-.0413132-.0533218-.0414505-.103035l-.0008087-.2833405z" fill="#3f434f"/></g></g></g><g><g><g><path d="m110.8727722 72.3367081.0011215.3976669-.0789337.0455856-.0011291-.3976745z" fill="#3f434f"/></g></g></g><g><g><g><path d="m110.8330994 72.0975952.1050949.2013321-.0654221.0377808-.1438217.0824203z" fill="#3f434f"/></g></g></g></g><g><g><g><g><path d="m111.3658524 72.6659088c-.0147705-.0081482-.0234299-.0249634-.0234299-.0461121l-.0022964-.850853c-.0005112-.0371933.0259781-.0827866.0585861-.1018982l.7391663-.4266968c.0178299-.0101929.0359116-.011467.0504303-.0033112.0145187.0084076.0229263.0254745.0229263.046875l.0025406.850853c0 .0371933-.0257263.0827866-.0573044.1011276l-.7391663.4267044c-.0101929.0058594-.0206299.0089188-.0303116.0089188-.0076446.0000001-.0147705-.0017852-.021141-.0056075zm.7878112-1.3985596-.7391586.4267044c-.0229263.0132446-.0433044.048912-.0433044.0748901l.0022964.850853c.0002518.0094299.0030518.016304.007637.0191116.004837.002037.0119705.0015259.0203781-.0033112l.7391663-.4267044c.0224152-.0129929.0420227-.0476379.0420227-.0741272l-.0025406-.850853c0-.0096817-.0028076-.0170746-.0073929-.0198746-.0015259-.0007629-.0033112-.0012741-.0053482-.0012741-.0038147.0000002-.0086593.0015261-.0137558.0045854z" fill="#3f434f"/></g></g></g><g><g><g><path d="m110.2649994 73.3009949c-.0145187-.0084076-.0226669-.0252228-.0226669-.0458603l-.0022964-.850853c-.0005035-.0374451.0259857-.0832977.0585861-.1018982l.7391663-.4269562c.0178299-.0104446.0356598-.0117188.0504303-.0030518.0147705.0084076.0229263.0254745.0229263.0466156l.0025482.8511124c0 .0379562-.0252151.0825348-.0575638.1011276l-.7391663.4267044c-.0099335.0058594-.0203781.0086594-.0300598.0086594-.0078964 0-.0152817-.0017776-.021904-.0055999zm.7885818-1.3985596-.7391663.4269562c-.0229263.0132446-.0433044.0486526-.0433044.0748901l.0022964.850853c0 .0091705.0028.0160522.0073853.0188522.004837.0022964.0124817.0015335.0206299-.0030518l.7389145-.4267044c.0224152-.0129929.0422821-.0476379.0422821-.0741272l-.0025482-.8511124c0-.0096817-.0028-.0168152-.0073853-.0196152-.0015335-.0007629-.0035706-.0012741-.0056076-.0012741-.0038223.0000001-.0084076.001526-.0134964.0043336z" fill="#3f434f"/></g></g></g></g></g><g><g><g><path d="m115.3261948 68.0227432.0104446 3.5633621 3.2237549 1.8729935-.0104447-3.5633621-1.3875579-.8086624-.417305-.2400055z" fill="#efac41"/></g></g><g><g><path d="m118.5457001 69.8978424.0131302 3.5588989 3.2434845-1.8743591-.0106659-3.5556564v-.0053025h-.005333l-1.4070968.8155976-.3198166.1865921-.0959397.0532989z" fill="#f9bb4a"/></g></g><g><g><path d="m115.3241501 68.0260315 3.2234192 1.8730316 1.4169769-.8205032.410202-.2320557.0082703-.0041199 1.4087143-.8163528-3.2234497-1.873024z" fill="#fed57a"/></g></g><g><g><path d="m116.7398605 67.2055588 3.2234269 1.8730011.410202-.2320557.0082626-.0041199-3.2317123-1.8730239-.0041504.0041503z" fill="#e4e8f4"/></g></g><g><g><path d="m120.384552 69.6905594-.417305.245224-.0052261-.8487091v-.0104447l.0938949-.0521621.3234177-.1826172v.0052185z" fill="#d4dae8"/></g></g><g><g><g><g><path d="m119.0040894 71.9449921.1056289.2010269-.0654144.0377731-.1443634.0827408z" fill="#3f434f"/></g></g></g><g><g><g><path d="m119.0443039 72.1837921.0011215.3976746-.0789337.045578-.0011292-.397667z" fill="#3f434f"/></g></g></g><g><g><g><path d="m119.4364319 72.3911591.0002441.0851287-.5449981.3146973-.0002366-.0851211z" fill="#3f434f"/></g></g></g><g><g><g><path d="m120.4323959 71.144043.0008087.2833405c.0002518.0894775-.051445.1933899-.1200714.2460938l.0007248.2553787c.0481339-.0221939.0844269-.0201187.0845032.0065994l-.2124863.1226959c-.0000763-.0267181.0360794-.0706329.0841827-.1040039l-.0007248-.2553864c-.0313721.0125198-.0584564.0094833-.0796127-.0038147-.0249634-.0185699-.0413132-.0533218-.0414505-.1030273l-.0008087-.2833405z" fill="#3f434f"/></g></g></g><g><g><g><path d="m119.360054 72.0014648.0011292.3976746-.0789414.0455856-.0011291-.3976745z" fill="#3f434f"/></g></g></g><g><g><g><path d="m119.3203812 71.762352.1050949.2013397-.0654221.0377731-.1438217.082428z" fill="#3f434f"/></g></g></g></g><g><g><g><g><path d="m119.8531342 72.3306732c-.0147705-.0081558-.0234299-.024971-.0234299-.0461121l-.0022964-.850853c-.0005112-.0371933.0259781-.0827942.0585861-.1018982l.7391663-.4267044c.0178299-.0101852.0359116-.0114594.0504303-.0033112.0145187.0084076.0229263.0254745.0229263.046875l.0025406.850853c0 .0371933-.0257187.0827942-.0573044.1011353l-.7391663.4267044c-.0101929.0058594-.0206299.0089111-.0303116.0089111-.007637.0000001-.0147705-.0017852-.021141-.0055999zm.7878189-1.3985596-.7391663.4266968c-.0229263.0132446-.0433044.048912-.0433044.0748978l.0022964.850853c.0002518.0094223.0030518.016304.007637.019104.0048447.002037.0119705.0015335.0203781-.0033112l.7391663-.4266968c.0224152-.0129929.0420227-.0476379.0420227-.0741348l-.0025406-.850853c0-.0096817-.0028076-.017067-.0073929-.0198669-.0015259-.0007706-.0033112-.0012741-.0053482-.0012741-.0038147 0-.0086593.0015259-.0137481.0045852z" fill="#3f434f"/></g></g></g><g><g><g><path d="m118.7522812 72.9657516c-.0145187-.0084076-.0226669-.0252151-.0226669-.0458527l-.0022964-.850853c-.0005035-.0374451.0259857-.0833054.0585861-.1018982l.7391663-.4269562c.0178299-.0104446.0356598-.0117188.0504303-.0030594.0147781.0084076.0229263.0254745.0229263.0466232l.0025482.8511047c0 .0379562-.0252151.0825424-.0575638.1011353l-.7391663.4267044c-.0099335.0058594-.0203781.0086594-.0300598.0086594-.0078964.0000002-.0152817-.0017851-.021904-.0056075zm.7885818-1.3985595-.7391663.4269562c-.0229263.0132523-.0433044.0486603-.0433044.0748978l.0022964.850853c0 .0091705.0028.0160522.0073853.0188522.004837.0022888.0124817.0015259.0206299-.0030594l.7389145-.4266968c.0224152-.0129929.0422821-.0476379.0422821-.0741348l-.0025482-.8511047c0-.0096817-.0028-.0168152-.0073853-.0196152-.0015335-.0007706-.0035706-.0012741-.0056076-.0012741-.0038223-.0000001-.0083999.0015258-.0134964.0043258z" fill="#3f434f"/></g></g></g></g></g><g><g><g><path d="m111.4986954 70.2361908.0104446 3.5633621 3.2237549 1.8729935-.0104446-3.5633621-1.387558-.8086624-.4173126-.2400055z" fill="#efac41"/></g></g><g><g><path d="m114.7182007 72.11129.0131225 3.5588989 3.2434922-1.8743591-.0106659-3.5556565v-.0053024h-.0053406l-1.4070892.8155975-.3198243.1865921-.095932.053299z" fill="#f9bb4a"/></g></g><g><g><path d="m111.4966507 70.2394791 3.2234192 1.8730316 1.4169769-.8205033.410202-.232048.0082703-.0041275 1.4087067-.8163528-3.2234421-1.873024z" fill="#fed57a"/></g></g><g><g><path d="m112.9123611 69.4190063 3.2234192 1.8730011.4102021-.232048.0082702-.0041275-3.2317123-1.873024-.0041504.0041504z" fill="#e4e8f4"/></g></g><g><g><path d="m116.5570526 71.904007-.4173126.245224-.0052185-.8487091v-.0104447l.0938949-.0521622.3234177-.1826171v.0052185z" fill="#d4dae8"/></g></g><g><g><g><g><path d="m115.17659 74.1584396.1056289.201027-.065422.0377731-.1443558.0827408z" fill="#3f434f"/></g></g></g><g><g><g><path d="m115.2167969 74.3972397.0011291.3976745-.0789337.045578-.0011291-.3976669z" fill="#3f434f"/></g></g></g><g><g><g><path d="m115.6089325 74.6046066.0002365.0851288-.5449905.3146973-.0002442-.0851212z" fill="#3f434f"/></g></g></g><g><g><g><path d="m116.6048965 73.3574905.0008011.2833405c.0002594.0894775-.0514374.1933975-.1200638.2460938l.0007172.2553787c.0481415-.0221939.0844269-.0201187.0845032.0065994l-.2124786.1226959c-.0000763-.0267181.0360794-.0706329.0841827-.1040039l-.0007248-.2553864c-.0313721.0125198-.0584564.009491-.0796204-.0038147-.0249634-.0185699-.0413055-.0533218-.0414429-.1030273l-.0008087-.2833405z" fill="#3f434f"/></g></g></g><g><g><g><path d="m115.5325546 74.2149124.0011215.3976746-.0789337.0455856-.0011291-.3976746z" fill="#3f434f"/></g></g></g><g><g><g><path d="m115.4928818 73.9757996.1050873.2013397-.0654145.0377731-.1438217.082428z" fill="#3f434f"/></g></g></g></g><g><g><g><g><path d="m116.0256348 74.5441208c-.0147705-.0081558-.0234375-.024971-.0234375-.0461121l-.0022888-.850853c-.0005112-.0371933.0259781-.0827942.0585861-.1018982l.7391586-.4267044c.0178299-.0101852.0359192-.0114594.0504379-.0033112.0145187.0084076.0229187.0254745.0229187.046875l.0025482.850853c0 .0371933-.0257263.0827942-.0573044.1011353l-.7391663.4267044c-.0101929.0058594-.0206375.0089111-.0303116.0089111-.0076445.0000001-.0147704-.0017776-.0211409-.0055999zm.7878112-1.3985596-.7391663.4266968c-.0229187.0132523-.0432968.048912-.0432968.0748978l.0022888.850853c.0002594.0094223.0030594.016304.0076447.019104.004837.002037.0119705.0015335.0203781-.0033112l.7391663-.4266968c.0224152-.0129929.0420227-.0476379.0420227-.0741348l-.0025482-.850853c0-.0096817-.0028-.017067-.0073853-.0198669-.0015259-.0007629-.0033112-.0012741-.0053482-.0012741-.0038223 0-.0086593.0015258-.0137558.0045852z" fill="#3f434f"/></g></g></g><g><g><g><path d="m114.9247818 75.1791992c-.0145187-.0084076-.0226669-.0252151-.0226669-.0458527l-.0022964-.850853c-.0005112-.0374451.0259857-.0833054.0585861-.1018982l.7391663-.4269562c.0178299-.0104446.0356598-.0117188.0504303-.0030594.0147705.0084076.0229263.0254745.0229263.0466232l.0025482.8511047c0 .0379562-.0252228.0825424-.0575714.1011353l-.7391586.4267044c-.0099335.0058594-.0203781.0086594-.0300598.0086594-.0078965.0000001-.0152818-.0017852-.0219041-.0056075zm.7885818-1.3985596-.7391663.4269562c-.0229263.0132523-.0433044.0486603-.0433044.0748978l.0022964.850853c0 .0091705.0028.0160522.0073853.0188522.004837.0022888.0124817.0015259.0206299-.0030594l.7389145-.4266968c.0224075-.0129929.0422821-.0476379.0422821-.0741348l-.0025482-.8511047c0-.0096817-.0028076-.0168152-.0073853-.0196152-.0015335-.0007629-.0035706-.0012741-.0056076-.0012741-.0038223 0-.0084075.0015259-.0134964.0043258z" fill="#3f434f"/></g></g></g></g></g></g><g><g enable-background="new"><g><path d="m56.0765457 70.4858093-12.502018-7.265377-.0174217-2.8720818 12.502018 7.2653809z" fill="#cad0dd"/></g><g><path d="m61.3954849 64.5223923-5.333332 3.0932617-12.5066758-7.2799492 5.3600274-3.0667305z" fill="#d4dae8"/></g><g><path d="m61.4072151 64.5260086.0061302 1.0706177-5.3367996 4.889183-.0174217-2.8720779z" fill="#bac1ce"/></g></g></g><g><g enable-background="new"><g><path d="m25.8778744 52.9342079-12.5020161-7.2653808-.0174227-2.872078 12.5020171 7.2653771z" fill="#cad0dd"/></g><g><path d="m31.1968136 46.970787-5.3333321 3.0932618-12.5066738-7.2799492 5.3600254-3.0667305z" fill="#d4dae8"/></g><g><path d="m31.2085438 46.9744034.0061283 1.0706215-5.3367977 4.889183-.0174217-2.8720817z" fill="#bac1ce"/></g></g></g><g><g enable-background="new"><g><path d="m93.1511154 46.5723114-12.5020141-7.265377-.0174256-2.8720818 12.5020218 7.2653809z" fill="#cad0dd"/></g><g><path d="m98.4700546 40.6088943-5.3333358 3.0932618-12.5066681-7.2799492 5.3600235-3.0667305z" fill="#d4dae8"/></g><g><path d="m98.4817886 40.6125107.0061264 1.0706215-5.3367996 4.8891792-.0174179-2.8720779z" fill="#bac1ce"/></g></g></g><g><g enable-background="new"><g><path d="m62.952446 29.0207081-12.502018-7.2653771-.0174217-2.8720798 12.502018 7.265377z" fill="#cad0dd"/></g><g><path d="m68.2713852 23.0572891-5.3333359 3.0932617-12.5066719-7.2799472 5.3600273-3.0667315z" fill="#d4dae8"/></g><g><path d="m68.2831116 23.0609074.006134 1.0706215-5.3367996 4.8891792-.0174217-2.8720799z" fill="#bac1ce"/></g></g></g></g></svg>