<svg height="512pt" viewBox="0 -16 512.0004 512" width="512pt" xmlns="http://www.w3.org/2000/svg"><path d="m509.28125 248.996094-248.039062-215.035156c-3.015626-2.613282-7.492188-2.605469-10.496094.011718l-248.039063 216.035156c-3.609375 3.140626-3.609375 8.929688 0 12.066407l248.039063 216.035156c2.976562 2.597656 7.550781 2.589844 10.523437-.011719l248.039063-217.035156c3.601562-3.152344 3.585937-8.933594-.027344-12.066406zm0 0" fill="#abe3d3"/><path d="m272.003906 216.035156 121.4375-67.464844-132.199218-114.609374c-3.015626-2.613282-7.492188-2.605469-10.496094.011718l-89.429688 77.886719zm0 0" fill="#57c8a7"/><path d="m509.28125 248.996094-115.839844-100.425782-121.441406 67.464844v56.007813l97.460938 111.382812 139.847656-122.363281c3.601562-3.152344 3.585937-8.933594-.027344-12.066406zm0 0" fill="#81d6bd"/><path d="m272.003906 272.042969v-56.007813l-110.683594-104.175781-158.613281 138.148437c-3.609375 3.140626-3.609375 8.925782 0 12.066407l93.730469 81.632812 95.550781-71.664062zm0 0" fill="#2dba92"/><path d="m256 0c-26.472656 0-48.007812 21.535156-48.007812 48.007812 0 25.078126 38.449218 58.394532 42.835937 62.113282 2.945313 2.5 7.398437 2.5 10.347656 0 4.382813-3.71875 42.832031-37.035156 42.832031-62.113282 0-26.472656-21.535156-48.007812-48.007812-48.007812zm0 0" fill="#fbd37b"/><path d="m231.996094 48.007812c0-22.328124 15.324218-41.144531 36.007812-46.488281-3.839844-.992187-7.859375-1.519531-12.003906-1.519531-26.472656 0-48.007812 21.535156-48.007812 48.007812 0 25.078126 38.449218 58.394532 42.835937 62.113282 2.945313 2.5 7.398437 2.5 10.347656 0 .941407-.796875 3.460938-2.96875 6.828125-6.125-12.308594-11.53125-36.007812-36.296875-36.007812-55.988282zm0 0" fill="#f9b623"/><path d="m256 24.003906c-13.234375 0-24.003906 10.769532-24.003906 24.003906 0 13.234376 10.769531 24.003907 24.003906 24.003907s24.003906-10.769531 24.003906-24.003907c0-13.234374-10.765625-24.003906-24.003906-24.003906zm0 0" fill="#f1edee"/><path d="m432.027344 136.023438c-26.46875 0-48.007813 21.535156-48.007813 48.007812 0 25.078125 38.449219 58.394531 42.835938 62.113281 2.949219 2.496094 7.398437 2.496094 10.347656 0 4.382813-3.71875 42.832031-37.035156 42.832031-62.113281 0-26.472656-21.535156-48.007812-48.007812-48.007812zm0 0" fill="#fac54f"/><path d="m408.023438 184.03125c0-22.332031 15.324218-41.148438 36.007812-46.488281-3.839844-.992188-7.859375-1.519531-12.003906-1.519531-26.46875 0-48.007813 21.535156-48.007813 48.007812 0 25.078125 38.449219 58.394531 42.835938 62.113281 2.949219 2.496094 7.398437 2.496094 10.347656 0 .941406-.800781 3.460937-2.972656 6.828125-6.125-12.308594-11.535156-36.007812-36.296875-36.007812-55.988281zm0 0" fill="#f7963e"/><path d="m432.027344 160.027344c-13.234375 0-24.003906 10.765625-24.003906 24.003906 0 13.234375 10.769531 24.003906 24.003906 24.003906s24.003906-10.769531 24.003906-24.003906c0-13.238281-10.765625-24.003906-24.003906-24.003906zm0 0" fill="#f1edee"/><path d="m256 320.050781c-26.472656 0-48.007812 21.535157-48.007812 48.007813 0 25.078125 38.449218 58.394531 42.835937 62.113281 2.945313 2.5 7.398437 2.5 10.347656 0 4.382813-3.71875 42.832031-37.035156 42.832031-62.113281 0-26.46875-21.535156-48.007813-48.007812-48.007813zm0 0" fill="#fbd37b"/><path d="m231.996094 368.058594c0-22.328125 15.324218-41.144532 36.007812-46.488282-3.839844-.992187-7.859375-1.519531-12.003906-1.519531-26.472656 0-48.007812 21.535157-48.007812 48.007813 0 25.078125 38.449218 58.394531 42.835937 62.113281 2.945313 2.5 7.398437 2.5 10.347656 0 .941407-.800781 3.460938-2.96875 6.828125-6.125-12.308594-11.53125-36.007812-36.296875-36.007812-55.988281zm0 0" fill="#f9b623"/><path d="m256 344.054688c-13.234375 0-24.003906 10.769531-24.003906 24.003906s10.769531 24.003906 24.003906 24.003906 24.003906-10.769531 24.003906-24.003906-10.765625-24.003906-24.003906-24.003906zm0 0" fill="#f1edee"/><path d="m79.972656 136.023438c-26.472656 0-48.007812 21.535156-48.007812 48.007812 0 25.078125 38.449218 58.394531 42.832031 62.113281 2.949219 2.496094 7.402344 2.496094 10.347656 0 4.386719-3.71875 42.835938-37.035156 42.835938-62.113281 0-26.472656-21.539063-48.007812-48.007813-48.007812zm0 0" fill="#fac54f"/><path d="m55.96875 184.03125c0-22.332031 15.324219-41.148438 36.003906-46.488281-3.835937-.992188-7.859375-1.519531-12-1.519531-26.472656 0-48.007812 21.535156-48.007812 48.007812 0 25.078125 38.449218 58.394531 42.832031 62.113281 2.949219 2.496094 7.402344 2.496094 10.347656 0 .945313-.800781 3.464844-2.972656 6.828125-6.125-12.304687-11.535156-36.003906-36.296875-36.003906-55.988281zm0 0" fill="#f7963e"/><path d="m79.972656 160.027344c-13.234375 0-24.003906 10.765625-24.003906 24.003906 0 13.234375 10.769531 24.003906 24.003906 24.003906s24.003906-10.769531 24.003906-24.003906c0-13.238281-10.769531-24.003906-24.003906-24.003906zm0 0" fill="#f1edee"/></svg>