<?xml version="1.0" encoding="iso-8859-1"?>
<!-- Generator: Adobe Illustrator 19.0.0, SVG Export Plug-In . SVG Version: 6.00 Build 0)  -->
<svg version="1.1" id="Capa_1" xmlns="http://www.w3.org/2000/svg" xmlns:xlink="http://www.w3.org/1999/xlink" x="0px" y="0px"
	 viewBox="0 0 512 512" style="enable-background:new 0 0 512 512;" xml:space="preserve">
<path style="fill:#FB8276;" d="M452.18,27.12H293.018c-2.805,0-5.101,2.293-5.101,5.097v63.33h1.328
	c2.805,0,5.101,2.294,5.101,5.097v29.309h10.098c2.806,0,5.1,2.294,5.1,5.098v25.281h12.271c2.806,0,5.101,2.294,5.101,5.097
	v318.892H341.9c2.806,0,5.101,2.293,5.101,5.097V504.5h105.18c2.805,0,5.101-2.294,5.101-5.098V32.218
	C457.281,29.414,454.985,27.12,452.18,27.12z"/>
<path style="opacity:0.1;enable-background:new    ;" d="M289.245,95.548c2.805,0,5.101,2.294,5.101,5.097v29.309h10.098
	c2.806,0,5.1,2.294,5.1,5.098v25.281h5.939V32.218c0-2.804,2.295-5.097,5.101-5.097h-27.565c-2.805,0-5.101,2.293-5.101,5.097v63.33
	C287.918,95.548,289.245,95.548,289.245,95.548z"/>
<g>
	<path style="fill:#EF5050;" d="M417.995,62.417h17.342c4.142,0,7.5-3.357,7.5-7.5c0-4.142-3.358-7.5-7.5-7.5h-17.342
		c-4.142,0-7.5,3.358-7.5,7.5S413.852,62.417,417.995,62.417z"/>
	<path style="fill:#EF5050;" d="M327.203,47.417h-17.342c-4.142,0-7.5,3.358-7.5,7.5c0,4.143,3.358,7.5,7.5,7.5h17.342
		c4.142,0,7.5-3.357,7.5-7.5C334.703,50.775,331.345,47.417,327.203,47.417z"/>
	<path style="fill:#EF5050;" d="M435.337,70.864h-17.342c-4.142,0-7.5,3.358-7.5,7.5s3.358,7.5,7.5,7.5h17.342
		c4.142,0,7.5-3.358,7.5-7.5S439.479,70.864,435.337,70.864z"/>
	<path style="fill:#EF5050;" d="M327.203,70.864h-17.342c-4.142,0-7.5,3.358-7.5,7.5s3.358,7.5,7.5,7.5h17.342
		c4.142,0,7.5-3.358,7.5-7.5S331.345,70.864,327.203,70.864z"/>
	<path style="fill:#EF5050;" d="M435.337,94.312h-17.342c-4.142,0-7.5,3.358-7.5,7.5s3.358,7.5,7.5,7.5h17.342
		c4.142,0,7.5-3.358,7.5-7.5S439.479,94.312,435.337,94.312z"/>
	<path style="fill:#EF5050;" d="M327.203,94.312h-17.342c-4.142,0-7.5,3.358-7.5,7.5s3.358,7.5,7.5,7.5h17.342
		c4.142,0,7.5-3.358,7.5-7.5S331.345,94.312,327.203,94.312z"/>
	<path style="fill:#EF5050;" d="M435.337,117.76h-17.342c-4.142,0-7.5,3.358-7.5,7.5c0,4.143,3.358,7.5,7.5,7.5h17.342
		c4.142,0,7.5-3.357,7.5-7.5C442.837,121.118,439.479,117.76,435.337,117.76z"/>
	<path style="fill:#EF5050;" d="M327.203,117.76h-17.342c-4.142,0-7.5,3.358-7.5,7.5c0,4.143,3.358,7.5,7.5,7.5h17.342
		c4.142,0,7.5-3.357,7.5-7.5C334.703,121.118,331.345,117.76,327.203,117.76z"/>
	<path style="fill:#EF5050;" d="M435.337,141.207h-17.342c-4.142,0-7.5,3.358-7.5,7.5s3.358,7.5,7.5,7.5h17.342
		c4.142,0,7.5-3.358,7.5-7.5S439.479,141.207,435.337,141.207z"/>
	<path style="fill:#EF5050;" d="M327.203,141.207h-17.342c-4.142,0-7.5,3.358-7.5,7.5s3.358,7.5,7.5,7.5h17.342
		c4.142,0,7.5-3.358,7.5-7.5S331.345,141.207,327.203,141.207z"/>
	<path style="fill:#EF5050;" d="M435.337,164.655h-17.342c-4.142,0-7.5,3.358-7.5,7.5s3.358,7.5,7.5,7.5h17.342
		c4.142,0,7.5-3.358,7.5-7.5S439.479,164.655,435.337,164.655z"/>
	<path style="fill:#EF5050;" d="M326.915,165.43v14.225h0.288c4.142,0,7.5-3.358,7.5-7.5s-3.358-7.5-7.5-7.5h-0.367
		C326.876,164.909,326.915,165.165,326.915,165.43z"/>
	<path style="fill:#EF5050;" d="M435.337,188.102h-17.342c-4.142,0-7.5,3.358-7.5,7.5s3.358,7.5,7.5,7.5h17.342
		c4.142,0,7.5-3.358,7.5-7.5S439.479,188.102,435.337,188.102z"/>
	<path style="fill:#EF5050;" d="M326.915,203.102h0.288c4.142,0,7.5-3.358,7.5-7.5s-3.358-7.5-7.5-7.5h-0.288V203.102z"/>
	<path style="fill:#EF5050;" d="M435.337,211.55h-17.342c-4.142,0-7.5,3.358-7.5,7.5s3.358,7.5,7.5,7.5h17.342
		c4.142,0,7.5-3.358,7.5-7.5S439.479,211.55,435.337,211.55z"/>
	<path style="fill:#EF5050;" d="M326.915,226.55h0.288c4.142,0,7.5-3.358,7.5-7.5s-3.358-7.5-7.5-7.5h-0.288V226.55z"/>
	<path style="fill:#EF5050;" d="M435.337,234.998h-17.342c-4.142,0-7.5,3.358-7.5,7.5s3.358,7.5,7.5,7.5h17.342
		c4.142,0,7.5-3.358,7.5-7.5S439.479,234.998,435.337,234.998z"/>
	<path style="fill:#EF5050;" d="M326.915,249.998h0.288c4.142,0,7.5-3.358,7.5-7.5s-3.358-7.5-7.5-7.5h-0.288V249.998z"/>
	<path style="fill:#EF5050;" d="M435.337,258.446h-17.342c-4.142,0-7.5,3.358-7.5,7.5s3.358,7.5,7.5,7.5h17.342
		c4.142,0,7.5-3.358,7.5-7.5C442.837,261.804,439.479,258.446,435.337,258.446z"/>
	<path style="fill:#EF5050;" d="M326.915,273.446h0.288c4.142,0,7.5-3.358,7.5-7.5s-3.358-7.5-7.5-7.5h-0.288V273.446z"/>
	<path style="fill:#EF5050;" d="M435.337,281.893h-17.342c-4.142,0-7.5,3.358-7.5,7.5s3.358,7.5,7.5,7.5h17.342
		c4.142,0,7.5-3.358,7.5-7.5S439.479,281.893,435.337,281.893z"/>
	<path style="fill:#EF5050;" d="M326.915,296.893h0.288c4.142,0,7.5-3.358,7.5-7.5s-3.358-7.5-7.5-7.5h-0.288V296.893z"/>
	<path style="fill:#EF5050;" d="M435.337,305.341h-17.342c-4.142,0-7.5,3.358-7.5,7.5s3.358,7.5,7.5,7.5h17.342
		c4.142,0,7.5-3.358,7.5-7.5S439.479,305.341,435.337,305.341z"/>
	<path style="fill:#EF5050;" d="M326.915,320.341h0.288c4.142,0,7.5-3.358,7.5-7.5s-3.358-7.5-7.5-7.5h-0.288V320.341z"/>
	<path style="fill:#EF5050;" d="M435.337,328.788h-17.342c-4.142,0-7.5,3.358-7.5,7.5s3.358,7.5,7.5,7.5h17.342
		c4.142,0,7.5-3.358,7.5-7.5S439.479,328.788,435.337,328.788z"/>
	<path style="fill:#EF5050;" d="M326.915,343.788h0.288c4.142,0,7.5-3.358,7.5-7.5s-3.358-7.5-7.5-7.5h-0.288V343.788z"/>
	<path style="fill:#EF5050;" d="M435.337,352.236h-17.342c-4.142,0-7.5,3.358-7.5,7.5s3.358,7.5,7.5,7.5h17.342
		c4.142,0,7.5-3.358,7.5-7.5S439.479,352.236,435.337,352.236z"/>
	<path style="fill:#EF5050;" d="M326.915,367.236h0.288c4.142,0,7.5-3.358,7.5-7.5s-3.358-7.5-7.5-7.5h-0.288V367.236z"/>
	<path style="fill:#EF5050;" d="M435.337,375.683h-17.342c-4.142,0-7.5,3.358-7.5,7.5s3.358,7.5,7.5,7.5h17.342
		c4.142,0,7.5-3.358,7.5-7.5C442.837,379.041,439.479,375.683,435.337,375.683z"/>
	<path style="fill:#EF5050;" d="M326.915,390.683h0.288c4.142,0,7.5-3.358,7.5-7.5s-3.358-7.5-7.5-7.5h-0.288V390.683z"/>
	<path style="fill:#EF5050;" d="M435.337,399.131h-17.342c-4.142,0-7.5,3.358-7.5,7.5s3.358,7.5,7.5,7.5h17.342
		c4.142,0,7.5-3.358,7.5-7.5S439.479,399.131,435.337,399.131z"/>
	<path style="fill:#EF5050;" d="M326.915,414.131h0.288c4.142,0,7.5-3.358,7.5-7.5s-3.358-7.5-7.5-7.5h-0.288V414.131z"/>
	<path style="fill:#EF5050;" d="M435.337,422.579h-17.342c-4.142,0-7.5,3.358-7.5,7.5s3.358,7.5,7.5,7.5h17.342
		c4.142,0,7.5-3.358,7.5-7.5S439.479,422.579,435.337,422.579z"/>
	<path style="fill:#EF5050;" d="M326.915,437.579h0.288c4.142,0,7.5-3.358,7.5-7.5s-3.358-7.5-7.5-7.5h-0.288V437.579z"/>
	<path style="fill:#EF5050;" d="M435.337,446.027h-17.342c-4.142,0-7.5,3.358-7.5,7.5s3.358,7.5,7.5,7.5h17.342
		c4.142,0,7.5-3.358,7.5-7.5S439.479,446.027,435.337,446.027z"/>
	<path style="fill:#EF5050;" d="M326.915,461.027h0.288c4.142,0,7.5-3.358,7.5-7.5s-3.358-7.5-7.5-7.5h-0.288V461.027z"/>
	<path style="fill:#EF5050;" d="M393.562,47.417h-41.927c-4.142,0-7.5,3.358-7.5,7.5c0,4.143,3.358,7.5,7.5,7.5h41.927
		c4.142,0,7.5-3.357,7.5-7.5C401.062,50.775,397.705,47.417,393.562,47.417z"/>
	<path style="fill:#EF5050;" d="M393.562,70.864h-41.927c-4.142,0-7.5,3.358-7.5,7.5s3.358,7.5,7.5,7.5h41.927
		c4.142,0,7.5-3.358,7.5-7.5S397.705,70.864,393.562,70.864z"/>
	<path style="fill:#EF5050;" d="M393.562,94.312h-41.927c-4.142,0-7.5,3.358-7.5,7.5s3.358,7.5,7.5,7.5h41.927
		c4.142,0,7.5-3.358,7.5-7.5S397.705,94.312,393.562,94.312z"/>
	<path style="fill:#EF5050;" d="M393.562,117.76h-41.927c-4.142,0-7.5,3.358-7.5,7.5c0,4.143,3.358,7.5,7.5,7.5h41.927
		c4.142,0,7.5-3.357,7.5-7.5C401.062,121.118,397.705,117.76,393.562,117.76z"/>
	<path style="fill:#EF5050;" d="M393.562,141.207h-41.927c-4.142,0-7.5,3.358-7.5,7.5s3.358,7.5,7.5,7.5h41.927
		c4.142,0,7.5-3.358,7.5-7.5S397.705,141.207,393.562,141.207z"/>
	<path style="fill:#EF5050;" d="M393.562,164.655h-41.927c-4.142,0-7.5,3.358-7.5,7.5s3.358,7.5,7.5,7.5h41.927
		c4.142,0,7.5-3.358,7.5-7.5S397.705,164.655,393.562,164.655z"/>
	<path style="fill:#EF5050;" d="M393.562,188.102h-41.927c-4.142,0-7.5,3.358-7.5,7.5s3.358,7.5,7.5,7.5h41.927
		c4.142,0,7.5-3.358,7.5-7.5S397.705,188.102,393.562,188.102z"/>
	<path style="fill:#EF5050;" d="M393.562,211.55h-41.927c-4.142,0-7.5,3.358-7.5,7.5s3.358,7.5,7.5,7.5h41.927
		c4.142,0,7.5-3.358,7.5-7.5S397.705,211.55,393.562,211.55z"/>
	<path style="fill:#EF5050;" d="M393.562,234.998h-41.927c-4.142,0-7.5,3.358-7.5,7.5s3.358,7.5,7.5,7.5h41.927
		c4.142,0,7.5-3.358,7.5-7.5S397.705,234.998,393.562,234.998z"/>
	<path style="fill:#EF5050;" d="M393.562,258.446h-41.927c-4.142,0-7.5,3.358-7.5,7.5s3.358,7.5,7.5,7.5h41.927
		c4.142,0,7.5-3.358,7.5-7.5C401.062,261.804,397.705,258.446,393.562,258.446z"/>
	<path style="fill:#EF5050;" d="M393.562,281.893h-41.927c-4.142,0-7.5,3.358-7.5,7.5s3.358,7.5,7.5,7.5h41.927
		c4.142,0,7.5-3.358,7.5-7.5S397.705,281.893,393.562,281.893z"/>
	<path style="fill:#EF5050;" d="M393.562,305.341h-41.927c-4.142,0-7.5,3.358-7.5,7.5s3.358,7.5,7.5,7.5h41.927
		c4.142,0,7.5-3.358,7.5-7.5S397.705,305.341,393.562,305.341z"/>
	<path style="fill:#EF5050;" d="M393.562,328.788h-41.927c-4.142,0-7.5,3.358-7.5,7.5s3.358,7.5,7.5,7.5h41.927
		c4.142,0,7.5-3.358,7.5-7.5S397.705,328.788,393.562,328.788z"/>
	<path style="fill:#EF5050;" d="M393.562,352.236h-41.927c-4.142,0-7.5,3.358-7.5,7.5s3.358,7.5,7.5,7.5h41.927
		c4.142,0,7.5-3.358,7.5-7.5S397.705,352.236,393.562,352.236z"/>
	<path style="fill:#EF5050;" d="M393.562,375.683h-41.927c-4.142,0-7.5,3.358-7.5,7.5s3.358,7.5,7.5,7.5h41.927
		c4.142,0,7.5-3.358,7.5-7.5C401.062,379.041,397.705,375.683,393.562,375.683z"/>
	<path style="fill:#EF5050;" d="M393.562,399.131h-41.927c-4.142,0-7.5,3.358-7.5,7.5s3.358,7.5,7.5,7.5h41.927
		c4.142,0,7.5-3.358,7.5-7.5S397.705,399.131,393.562,399.131z"/>
	<path style="fill:#EF5050;" d="M393.562,422.579h-41.927c-4.142,0-7.5,3.358-7.5,7.5s3.358,7.5,7.5,7.5h41.927
		c4.142,0,7.5-3.358,7.5-7.5S397.705,422.579,393.562,422.579z"/>
	<path style="fill:#EF5050;" d="M393.562,446.027h-41.927c-4.142,0-7.5,3.358-7.5,7.5s3.358,7.5,7.5,7.5h41.927
		c4.142,0,7.5-3.358,7.5-7.5S397.705,446.027,393.562,446.027z"/>
</g>
<path style="fill:#D5E962;" d="M185.008,195.364V165.43c0-2.803,2.295-5.097,5.101-5.097h12.27v-25.281
	c0-2.804,2.295-5.098,5.101-5.098h10.098v-29.309c0-2.689,2.119-4.887,4.767-5.063V2.925c0-2.804-1.865-3.761-4.145-2.127
	l-91.593,65.664c-2.279,1.634-4.144,5.265-4.144,8.068v120.833L185.008,195.364L185.008,195.364z"/>
<path style="opacity:0.1;enable-background:new    ;" d="M148.978,195.364V81.871c0-2.803,1.865-6.434,4.144-8.068l69.223-49.626
	V2.925c0-2.804-1.865-3.761-4.145-2.127l-91.593,65.664c-2.279,1.634-4.144,5.265-4.144,8.068v120.833L148.978,195.364
	L148.978,195.364z"/>
<g>
	<path style="fill:#89C947;" d="M144.806,101.156h64.268c4.142,0,7.5-3.358,7.5-7.5s-3.358-7.5-7.5-7.5h-64.268
		c-4.142,0-7.5,3.358-7.5,7.5S140.664,101.156,144.806,101.156z"/>
	<path style="fill:#89C947;" d="M209.074,108.075h-64.268c-4.142,0-7.5,3.358-7.5,7.5s3.358,7.5,7.5,7.5h64.268
		c4.142,0,7.5-3.358,7.5-7.5C216.574,111.432,213.216,108.075,209.074,108.075z"/>
	<path style="fill:#89C947;" d="M144.806,144.993h57.573v-9.941c0-2.672,2.091-4.857,4.716-5.059h-62.289
		c-4.142,0-7.5,3.358-7.5,7.5S140.664,144.993,144.806,144.993z"/>
	<path style="fill:#89C947;" d="M144.806,166.911h40.202v-1.481c0-2.803,2.295-5.097,5.101-5.097h12.27v-8.421h-57.573
		c-4.142,0-7.5,3.358-7.5,7.5C137.306,163.554,140.664,166.911,144.806,166.911z"/>
	<path style="fill:#89C947;" d="M144.806,188.83h40.202v-15h-40.202c-4.142,0-7.5,3.358-7.5,7.5S140.664,188.83,144.806,188.83z"/>
</g>
<path style="fill:#F7931E;" d="M204.974,499.402c0,2.804-2.295,5.098-5.101,5.098H58.081c-2.806,0-5.1-2.294-5.1-5.098V194.961
	c0-2.803,2.295-5.097,5.1-5.097h141.792c2.805,0,5.101,2.294,5.101,5.097L204.974,499.402L204.974,499.402z"/>
<path style="opacity:0.1;enable-background:new    ;" d="M73.403,499.402V194.961c0-2.803,2.295-5.097,5.101-5.097H58.081
	c-2.806,0-5.1,2.294-5.1,5.097v304.441c0,2.804,2.295,5.098,5.1,5.098h20.422C75.699,504.5,73.403,502.206,73.403,499.402z"/>
<g>
	<path style="fill:#FFC502;" d="M82.293,449.073c-4.142,0-7.5-3.358-7.5-7.5V227.837c0-4.142,3.358-7.5,7.5-7.5s7.5,3.358,7.5,7.5
		v213.735C89.793,445.715,86.435,449.073,82.293,449.073z"/>
	<path style="fill:#FFC502;" d="M106.178,449.073c-4.142,0-7.5-3.358-7.5-7.5V227.837c0-4.142,3.358-7.5,7.5-7.5s7.5,3.358,7.5,7.5
		v213.735C113.678,445.715,110.32,449.073,106.178,449.073z"/>
	<path style="fill:#FFC502;" d="M130.063,449.073c-4.142,0-7.5-3.358-7.5-7.5V227.837c0-4.142,3.358-7.5,7.5-7.5
		c4.142,0,7.5,3.358,7.5,7.5v213.735C137.563,445.715,134.205,449.073,130.063,449.073z"/>
	<path style="fill:#FFC502;" d="M153.947,449.073c-4.142,0-7.5-3.358-7.5-7.5V227.837c0-4.142,3.358-7.5,7.5-7.5s7.5,3.358,7.5,7.5
		v213.735C161.447,445.715,158.089,449.073,153.947,449.073z"/>
</g>
<path style="fill:#C5CCD3;" d="M263.5,96V17.356c0-4.142-3.358-7.5-7.5-7.5c-4.142,0-7.5,3.358-7.5,7.5V96H263.5z"/>
<path style="fill:#E6E9ED;" d="M299.426,130V95.145c0-2.803-2.295-5.097-5.101-5.097h-76.651c-2.805,0-5.101,2.294-5.101,5.097V130
	H299.426z"/>
<path style="opacity:0.1;enable-background:new    ;" d="M233.557,130V95.145c0-2.803,2.295-5.097,5.101-5.097h-20.983
	c-2.805,0-5.101,2.294-5.101,5.097V130H233.557z"/>
<path style="fill:#C5CCD3;" d="M314.625,159.834v-30.283c0-2.804-2.295-5.098-5.101-5.098H202.476c-2.806,0-5.101,2.294-5.101,5.098
	v30.283H314.625z"/>
<path style="opacity:0.1;enable-background:new    ;" d="M229.477,159.834v-30.283c0-2.804,2.295-5.098,5.1-5.098h-32.101
	c-2.806,0-5.101,2.294-5.101,5.098v30.283H229.477z"/>
<path style="fill:#E6E9ED;" d="M331.996,483.901c0,2.804-2.295,5.097-5.101,5.097H185.104c-2.806,0-5.101-2.293-5.101-5.097V159.93
	c0-2.803,2.295-5.097,5.101-5.097h141.791c2.806,0,5.101,2.294,5.101,5.097L331.996,483.901L331.996,483.901z"/>
<path style="opacity:0.1;enable-background:new    ;" d="M200.92,483.901V159.93c0-2.803,2.295-5.097,5.101-5.097h-20.916
	c-2.806,0-5.101,2.294-5.101,5.097v323.971c0,2.804,2.295,5.097,5.101,5.097h20.916C203.215,488.998,200.92,486.705,200.92,483.901z
	"/>
<ellipse style="fill:#89C947;" cx="76.32" cy="427.47" rx="39.5" ry="39.474"/>
<path style="fill:#775436;" d="M76.322,461c-2.566,0-5.071-0.253-7.5-0.72V500h15v-39.72C81.393,460.747,78.887,461,76.322,461z"/>
<path style="opacity:0.1;enable-background:new    ;" d="M60.237,427.468c0-17.727,11.694-32.725,27.793-37.71
	c-3.7-1.146-7.631-1.764-11.708-1.764c-21.816,0-39.5,17.673-39.5,39.474c0,21.8,17.684,39.474,39.5,39.474
	c4.077,0,8.008-0.618,11.708-1.764C71.931,460.192,60.237,445.195,60.237,427.468z"/>
<path style="fill:#775436;" d="M434.049,461c-2.565,0-5.071-0.253-7.5-0.72V500h15v-39.72C439.12,460.747,436.614,461,434.049,461z"
	/>
<ellipse style="fill:#89C947;" cx="434.05" cy="427.47" rx="39.5" ry="39.474"/>
<path style="opacity:0.1;enable-background:new    ;" d="M418.35,427.468c0-17.655,11.601-32.601,27.6-37.648
	c-3.756-1.184-7.752-1.827-11.9-1.827c-21.816,0-39.5,17.673-39.5,39.474c0,21.8,17.684,39.474,39.5,39.474
	c4.148,0,8.145-0.643,11.9-1.827C429.951,460.069,418.35,445.123,418.35,427.468z"/>
<g>
	<path style="fill:#9EA7AF;" d="M201.717,409.389c-4.142,0-7.5,3.358-7.5,7.5v10.579c0,4.142,3.358,7.5,7.5,7.5s7.5-3.358,7.5-7.5
		v-10.579C209.217,412.747,205.859,409.389,201.717,409.389z"/>
	<path style="fill:#9EA7AF;" d="M310.283,409.389c-4.142,0-7.5,3.358-7.5,7.5v10.579c0,4.142,3.358,7.5,7.5,7.5s7.5-3.358,7.5-7.5
		v-10.579C317.783,412.747,314.425,409.389,310.283,409.389z"/>
	<path style="fill:#9EA7AF;" d="M201.717,171.107c-4.142,0-7.5,3.358-7.5,7.5v10.578c0,4.142,3.358,7.5,7.5,7.5s7.5-3.358,7.5-7.5
		v-10.578C209.217,174.465,205.859,171.107,201.717,171.107z"/>
	<path style="fill:#9EA7AF;" d="M223.43,171.107c-4.142,0-7.5,3.358-7.5,7.5v10.578c0,4.142,3.358,7.5,7.5,7.5s7.5-3.358,7.5-7.5
		v-10.578C230.93,174.465,227.572,171.107,223.43,171.107z"/>
	<path style="fill:#9EA7AF;" d="M245.143,171.107c-4.142,0-7.5,3.358-7.5,7.5v10.578c0,4.142,3.358,7.5,7.5,7.5s7.5-3.358,7.5-7.5
		v-10.578C252.643,174.465,249.285,171.107,245.143,171.107z"/>
	<path style="fill:#9EA7AF;" d="M266.857,171.107c-4.142,0-7.5,3.358-7.5,7.5v10.578c0,4.142,3.358,7.5,7.5,7.5s7.5-3.358,7.5-7.5
		v-10.578C274.357,174.465,270.999,171.107,266.857,171.107z"/>
	<path style="fill:#9EA7AF;" d="M288.57,171.107c-4.142,0-7.5,3.358-7.5,7.5v10.578c0,4.142,3.358,7.5,7.5,7.5s7.5-3.358,7.5-7.5
		v-10.578C296.07,174.465,292.712,171.107,288.57,171.107z"/>
	<path style="fill:#9EA7AF;" d="M310.283,171.107c-4.142,0-7.5,3.358-7.5,7.5v10.578c0,4.142,3.358,7.5,7.5,7.5s7.5-3.358,7.5-7.5
		v-10.578C317.783,174.465,314.425,171.107,310.283,171.107z"/>
	<path style="fill:#9EA7AF;" d="M201.717,205.148c-4.142,0-7.5,3.358-7.5,7.5v10.578c0,4.142,3.358,7.5,7.5,7.5s7.5-3.358,7.5-7.5
		v-10.578C209.217,208.506,205.859,205.148,201.717,205.148z"/>
	<path style="fill:#9EA7AF;" d="M223.43,205.148c-4.142,0-7.5,3.358-7.5,7.5v10.578c0,4.142,3.358,7.5,7.5,7.5s7.5-3.358,7.5-7.5
		v-10.578C230.93,208.506,227.572,205.148,223.43,205.148z"/>
	<path style="fill:#9EA7AF;" d="M245.143,205.148c-4.142,0-7.5,3.358-7.5,7.5v10.578c0,4.142,3.358,7.5,7.5,7.5s7.5-3.358,7.5-7.5
		v-10.578C252.643,208.506,249.285,205.148,245.143,205.148z"/>
	<path style="fill:#9EA7AF;" d="M266.857,205.148c-4.142,0-7.5,3.358-7.5,7.5v10.578c0,4.142,3.358,7.5,7.5,7.5s7.5-3.358,7.5-7.5
		v-10.578C274.357,208.506,270.999,205.148,266.857,205.148z"/>
	<path style="fill:#9EA7AF;" d="M288.57,205.148c-4.142,0-7.5,3.358-7.5,7.5v10.578c0,4.142,3.358,7.5,7.5,7.5s7.5-3.358,7.5-7.5
		v-10.578C296.07,208.506,292.712,205.148,288.57,205.148z"/>
	<path style="fill:#9EA7AF;" d="M310.283,205.148c-4.142,0-7.5,3.358-7.5,7.5v10.578c0,4.142,3.358,7.5,7.5,7.5s7.5-3.358,7.5-7.5
		v-10.578C317.783,208.506,314.425,205.148,310.283,205.148z"/>
	<path style="fill:#9EA7AF;" d="M201.717,239.188c-4.142,0-7.5,3.358-7.5,7.5v10.578c0,4.142,3.358,7.5,7.5,7.5s7.5-3.358,7.5-7.5
		v-10.578C209.217,242.546,205.859,239.188,201.717,239.188z"/>
	<path style="fill:#9EA7AF;" d="M223.43,239.188c-4.142,0-7.5,3.358-7.5,7.5v10.578c0,4.142,3.358,7.5,7.5,7.5s7.5-3.358,7.5-7.5
		v-10.578C230.93,242.546,227.572,239.188,223.43,239.188z"/>
	<path style="fill:#9EA7AF;" d="M245.143,239.188c-4.142,0-7.5,3.358-7.5,7.5v10.578c0,4.142,3.358,7.5,7.5,7.5s7.5-3.358,7.5-7.5
		v-10.578C252.643,242.546,249.285,239.188,245.143,239.188z"/>
	<path style="fill:#9EA7AF;" d="M266.857,239.188c-4.142,0-7.5,3.358-7.5,7.5v10.578c0,4.142,3.358,7.5,7.5,7.5s7.5-3.358,7.5-7.5
		v-10.578C274.357,242.546,270.999,239.188,266.857,239.188z"/>
	<path style="fill:#9EA7AF;" d="M288.57,239.188c-4.142,0-7.5,3.358-7.5,7.5v10.578c0,4.142,3.358,7.5,7.5,7.5s7.5-3.358,7.5-7.5
		v-10.578C296.07,242.546,292.712,239.188,288.57,239.188z"/>
	<path style="fill:#9EA7AF;" d="M310.283,239.188c-4.142,0-7.5,3.358-7.5,7.5v10.578c0,4.142,3.358,7.5,7.5,7.5s7.5-3.358,7.5-7.5
		v-10.578C317.783,242.546,314.425,239.188,310.283,239.188z"/>
	<path style="fill:#9EA7AF;" d="M201.717,273.228c-4.142,0-7.5,3.358-7.5,7.5v10.579c0,4.142,3.358,7.5,7.5,7.5s7.5-3.358,7.5-7.5
		v-10.579C209.217,276.586,205.859,273.228,201.717,273.228z"/>
	<path style="fill:#9EA7AF;" d="M223.43,273.228c-4.142,0-7.5,3.358-7.5,7.5v10.579c0,4.142,3.358,7.5,7.5,7.5s7.5-3.358,7.5-7.5
		v-10.579C230.93,276.586,227.572,273.228,223.43,273.228z"/>
	<path style="fill:#9EA7AF;" d="M245.143,273.228c-4.142,0-7.5,3.358-7.5,7.5v10.579c0,4.142,3.358,7.5,7.5,7.5s7.5-3.358,7.5-7.5
		v-10.579C252.643,276.586,249.285,273.228,245.143,273.228z"/>
	<path style="fill:#9EA7AF;" d="M266.857,273.228c-4.142,0-7.5,3.358-7.5,7.5v10.579c0,4.142,3.358,7.5,7.5,7.5s7.5-3.358,7.5-7.5
		v-10.579C274.357,276.586,270.999,273.228,266.857,273.228z"/>
	<path style="fill:#9EA7AF;" d="M288.57,273.228c-4.142,0-7.5,3.358-7.5,7.5v10.579c0,4.142,3.358,7.5,7.5,7.5s7.5-3.358,7.5-7.5
		v-10.579C296.07,276.586,292.712,273.228,288.57,273.228z"/>
	<path style="fill:#9EA7AF;" d="M310.283,273.228c-4.142,0-7.5,3.358-7.5,7.5v10.579c0,4.142,3.358,7.5,7.5,7.5s7.5-3.358,7.5-7.5
		v-10.579C317.783,276.586,314.425,273.228,310.283,273.228z"/>
	<path style="fill:#9EA7AF;" d="M201.717,307.269c-4.142,0-7.5,3.358-7.5,7.5v10.578c0,4.142,3.358,7.5,7.5,7.5s7.5-3.358,7.5-7.5
		v-10.578C209.217,310.627,205.859,307.269,201.717,307.269z"/>
	<path style="fill:#9EA7AF;" d="M223.43,307.269c-4.142,0-7.5,3.358-7.5,7.5v10.578c0,4.142,3.358,7.5,7.5,7.5s7.5-3.358,7.5-7.5
		v-10.578C230.93,310.627,227.572,307.269,223.43,307.269z"/>
	<path style="fill:#9EA7AF;" d="M245.143,307.269c-4.142,0-7.5,3.358-7.5,7.5v10.578c0,4.142,3.358,7.5,7.5,7.5s7.5-3.358,7.5-7.5
		v-10.578C252.643,310.627,249.285,307.269,245.143,307.269z"/>
	<path style="fill:#9EA7AF;" d="M266.857,307.269c-4.142,0-7.5,3.358-7.5,7.5v10.578c0,4.142,3.358,7.5,7.5,7.5s7.5-3.358,7.5-7.5
		v-10.578C274.357,310.627,270.999,307.269,266.857,307.269z"/>
	<path style="fill:#9EA7AF;" d="M288.57,307.269c-4.142,0-7.5,3.358-7.5,7.5v10.578c0,4.142,3.358,7.5,7.5,7.5s7.5-3.358,7.5-7.5
		v-10.578C296.07,310.627,292.712,307.269,288.57,307.269z"/>
	<path style="fill:#9EA7AF;" d="M310.283,307.269c-4.142,0-7.5,3.358-7.5,7.5v10.578c0,4.142,3.358,7.5,7.5,7.5s7.5-3.358,7.5-7.5
		v-10.578C317.783,310.627,314.425,307.269,310.283,307.269z"/>
	<path style="fill:#9EA7AF;" d="M201.717,341.309c-4.142,0-7.5,3.358-7.5,7.5v10.579c0,4.142,3.358,7.5,7.5,7.5s7.5-3.358,7.5-7.5
		v-10.579C209.217,344.667,205.859,341.309,201.717,341.309z"/>
	<path style="fill:#9EA7AF;" d="M223.43,341.309c-4.142,0-7.5,3.358-7.5,7.5v10.579c0,4.142,3.358,7.5,7.5,7.5s7.5-3.358,7.5-7.5
		v-10.579C230.93,344.667,227.572,341.309,223.43,341.309z"/>
	<path style="fill:#9EA7AF;" d="M245.143,341.309c-4.142,0-7.5,3.358-7.5,7.5v10.579c0,4.142,3.358,7.5,7.5,7.5s7.5-3.358,7.5-7.5
		v-10.579C252.643,344.667,249.285,341.309,245.143,341.309z"/>
	<path style="fill:#9EA7AF;" d="M266.857,341.309c-4.142,0-7.5,3.358-7.5,7.5v10.579c0,4.142,3.358,7.5,7.5,7.5s7.5-3.358,7.5-7.5
		v-10.579C274.357,344.667,270.999,341.309,266.857,341.309z"/>
	<path style="fill:#9EA7AF;" d="M288.57,341.309c-4.142,0-7.5,3.358-7.5,7.5v10.579c0,4.142,3.358,7.5,7.5,7.5s7.5-3.358,7.5-7.5
		v-10.579C296.07,344.667,292.712,341.309,288.57,341.309z"/>
	<path style="fill:#9EA7AF;" d="M310.283,341.309c-4.142,0-7.5,3.358-7.5,7.5v10.579c0,4.142,3.358,7.5,7.5,7.5s7.5-3.358,7.5-7.5
		v-10.579C317.783,344.667,314.425,341.309,310.283,341.309z"/>
	<path style="fill:#9EA7AF;" d="M201.717,375.349c-4.142,0-7.5,3.358-7.5,7.5v10.579c0,4.142,3.358,7.5,7.5,7.5s7.5-3.358,7.5-7.5
		v-10.579C209.217,378.707,205.859,375.349,201.717,375.349z"/>
	<path style="fill:#9EA7AF;" d="M310.283,375.349c-4.142,0-7.5,3.358-7.5,7.5v10.579c0,4.142,3.358,7.5,7.5,7.5s7.5-3.358,7.5-7.5
		v-10.579C317.783,378.707,314.425,375.349,310.283,375.349z"/>
</g>
<path style="fill:#7FDEE9;" d="M293.113,481.83c0,3.142-2.573,5.713-5.717,5.713h-62.792c-3.145,0-5.717-2.571-5.717-5.713v-99.231
	c0-3.142,2.572-5.713,5.717-5.713h62.792c3.144,0,5.717,2.571,5.717,5.713V481.83z"/>
<rect x="248.5" y="376.89" style="fill:#9EA7AF;" width="15" height="101.94"/>
<path style="fill:#C5CCD3;" d="M352.081,499.402c0,2.804-2.295,5.098-5.101,5.098H165.019c-2.806,0-5.101-2.294-5.101-5.098v-15.483
	c0-2.804,2.295-5.097,5.101-5.097H346.98c2.806,0,5.101,2.293,5.101,5.097L352.081,499.402L352.081,499.402z"/>
<path style="opacity:0.1;enable-background:new    ;" d="M191.731,499.402v-15.483c0-2.804,2.296-5.097,5.101-5.097h-31.813
	c-2.806,0-5.101,2.293-5.101,5.097v15.483c0,2.804,2.295,5.098,5.101,5.098h31.813C194.027,504.5,191.731,502.206,191.731,499.402z"
	/>
<path style="fill:#9EA7AF;" d="M478.561,512H33.439c-4.142,0-7.5-3.358-7.5-7.5s3.358-7.5,7.5-7.5h445.122
	c4.142,0,7.5,3.358,7.5,7.5S482.703,512,478.561,512z"/>
<g>
</g>
<g>
</g>
<g>
</g>
<g>
</g>
<g>
</g>
<g>
</g>
<g>
</g>
<g>
</g>
<g>
</g>
<g>
</g>
<g>
</g>
<g>
</g>
<g>
</g>
<g>
</g>
<g>
</g>
</svg>
