<svg id="flat" enable-background="new 0 0 512 512" height="512" viewBox="0 0 512 512" width="512" xmlns="http://www.w3.org/2000/svg"><path d="m96 120h320v384h-320z" fill="#83c70c"/><path d="m416 504h-320l320-384z" fill="#479f35"/><path d="m96 320v184h-88l16-16v-100.7199707c0-7.1999512 2.8800049-14.1599121 8-19.2800293s12.0800171-8 19.2800293-8h12.7199707l-16-40z" fill="#fbe2bc"/><path d="m96 320v184h88l-16-16v-100.7199707c0-7.1999512-2.8800049-14.1599121-8-19.2800293s-12.0800171-8-19.2800293-8h-12.7199707l16-40z" fill="#f9ce95"/><g fill="#ffec00"><path d="m352 272h-192c-4.418457 0-8-3.5820313-8-8s3.581543-8 8-8h192c4.418457 0 8 3.5820313 8 8s-3.581543 8-8 8z"/><path d="m352 240h-192c-4.418457 0-8-3.5820313-8-8s3.581543-8 8-8h192c4.418457 0 8 3.5820313 8 8s-3.581543 8-8 8z"/><path d="m352 208h-128c-4.418457 0-8-3.5820313-8-8s3.581543-8 8-8h128c4.418457 0 8 3.5820313 8 8s-3.581543 8-8 8z"/><path d="m288 304h-128c-4.418457 0-8-3.5820313-8-8s3.581543-8 8-8h128c4.418457 0 8 3.5820313 8 8s-3.581543 8-8 8z"/><path d="m288 400h-48c-4.418457 0-8-3.5820313-8-8s3.581543-8 8-8h48c4.418457 0 8 3.5820313 8 8s-3.581543 8-8 8z"/><path d="m288 368h-48c-4.418457 0-8-3.5820313-8-8s3.581543-8 8-8h48c4.418457 0 8 3.5820313 8 8s-3.581543 8-8 8z"/><path d="m288 336h-48c-4.418457 0-8-3.5820313-8-8s3.581543-8 8-8h48c4.418457 0 8 3.5820313 8 8s-3.581543 8-8 8z"/><path d="m288 432h-48c-4.418457 0-8-3.5820313-8-8s3.581543-8 8-8h48c4.418457 0 8 3.5820313 8 8s-3.581543 8-8 8z"/></g><path d="m115.0400391 171.0400391c3.2001953 3.199707 4.9599609 7.5200195 4.9599609 12 0 4.6396484-1.9199219 8.9599609-4.9599609 12s-7.3598633 4.9599609-12 4.9599609c-2.4799805 0-4.8798828-.5600586-7.0400391-1.5200195-1.8398438-.800293-3.5200195-2-4.9599609-3.4399414l-27.0400391-27.0400391h-24v-80h88l32 32h-64v32z" fill="#fac8b2"/><path d="m8 88h32v80h-32z" fill="#00587e" transform="matrix(-1 0 0 -1 48 256)"/><path d="m416 312-72 72v-48l24-24z" fill="#fac8b2"/><path d="m472 320v72h-24l-32 32-.0000305-.0000305c-13.2548218-13.2548218-13.2548218-34.7451172 0-47.999939z" fill="#fac8b2"/><path d="m480 312-128 128-40 8 8-40 128-128z" fill="#e22526"/><path d="m504 278.6396484c0 6-2.3999023 11.7602539-6.6401367 16l-17.3598633 17.3603516-32-32 17.3598633-17.3603516c4.2402344-4.2397461 10-6.6396484 16-6.6396484 6.2402344 0 11.9199219 2.5600586 16 6.6396484 4.0800781 4.0800782 6.6401367 9.7602539 6.6401367 16z" fill="#fcc200"/><path d="m320 408 32 32-40 8z" fill="#ffec00"/><path d="m504 312v80h-32v-72l8-8z" fill="#00587e"/><path d="m256 56v96h-96v-96l48-48 30.2402344 30.2397461z" fill="#efeeef"/><path d="m352 56h-96l-17.7597656-17.7602539-30.2402344-30.2397461h96z" fill="#e22526"/><path d="m256 56h96v96h-96z" fill="#c4d4de"/><path d="m304.0000305 88h-.000061c-8.8365479 0-15.9999695 7.1634369-15.9999695 15.9999847v16.0000153h32v-16.0000153c0-8.8365478-7.1634216-15.9999847-15.9999695-15.9999847z" fill="#efeeef"/><path d="m192 152h32v-80.0000153c0-8.8365478-7.1634369-15.9999847-15.9999847-15.9999847h-.0000305c-8.8365479 0-15.9999848 7.1634369-15.9999848 15.9999847z" fill="#c4d4de"/><path d="m384 480h-104c-4.418457 0-8-3.5820313-8-8s3.581543-8 8-8h104c4.418457 0 8 3.5820313 8 8s-3.581543 8-8 8z" fill="#ffec00"/><path d="m96 440h112v32h-112z" fill="#ffec00"/><path d="m120 472h112v32h-112z" fill="#ffec00"/><path d="m109.3833008 360c0-4.3867188-3.5561523-7.9433594-7.9433594-7.9433594h-37.4399414c-4.387207 0-7.9433594 3.5566406-7.9433594 7.9433594s3.5561524 7.9433594 7.9433594 7.9433594h4.7426758l-10.3994141 10.3994141c-3.1245079 3.125-3.1245117 8.1894226-.0000153 11.3144531 3.0560646 3.0565491 8.2271042 3.0854187 11.3134918 0l18.3432618-18.34375 2.3432617 2.34375c3.1240234 3.1230469 8.1894531 3.1230469 11.3134766 0 1.68396-1.684082 2.4517212-3.9313965 2.3205566-6.1352539 3.1412354-1.0595704 5.4060059-4.0234375 5.4060059-7.5219727z" fill="#683b11"/><path d="m192 440v.0000305c0 8.8365174-7.1634369 15.9999695-15.9999847 15.9999695h-64.0000153v16h96v-32z" fill="#fcc200"/><path d="m216 472v.0000305c0 8.8365174-7.1634369 15.9999695-15.9999847 15.9999695h-64.0000153v16h96v-32z" fill="#fcc200"/><circle cx="152" cy="384" fill="#ffec00" r="56"/><circle cx="152" cy="384" fill="#fcc200" r="40"/><path d="m156 376h-8c-2.2060547 0-4-1.7944336-4-4s1.7939453-4 4-4h20c4.4179688 0 8-3.581543 8-8s-3.5820313-8-8-8h-8c0-4.418457-3.5820313-8-8-8s-8 3.581543-8 8v.4030762c-9.1181641 1.8583984-16 9.9387207-16 19.5969238 0 11.027832 8.9716797 20 20 20h8c2.2060547 0 4 1.7944336 4 4s-1.7939453 4-4 4h-20c-4.4179688 0-8 3.581543-8 8s3.5820313 8 8 8h8c0 4.418457 3.5820313 8 8 8s8-3.581543 8-8v-.4030762c9.1181641-1.8583984 16-9.9387207 16-19.5969238 0-11.027832-8.9716797-20-20-20z" fill="#ffec00"/><path d="m312 448 24-24 16 16z" fill="#fcc200"/><path d="m317.49 356.686h181.019v22.627h-181.019z" fill="#bc131c" transform="matrix(.707 -.707 .707 .707 -140.715 396.284)"/><path d="m376 352v32.0000305c0 8.8365479-7.1634216 15.9999695-15.9999695 15.9999695h-.000061c-8.8365479 0-15.9999695-7.1634521-15.9999695-15.9999695v-.0000305z" fill="#fac8b2"/><path d="m416 424h-.000061c-17.7131653 0-26.5839539-21.4159851-14.0588379-33.9411011l14.0588989-14.0588989z" fill="#fac8b2"/><path d="m464 296 16-16c4.4182739-4.4182739 4.4182739-11.5817261 0-16-4.4182739-4.4182739-11.5817261-4.4182739-16 0l-16 16z" fill="#ffec00"/></svg>