<svg height="512" viewBox="0 0 512 512" width="512" xmlns="http://www.w3.org/2000/svg"><g id="Flat"><circle cx="360" cy="152" fill="#f8bc1e" r="128"/><path d="m88 224h336v264h-336z" fill="#e3e4e2"/><path d="m88 224h336v40h-336z" fill="#c9c9c8"/><path d="m80 144-32 104h416l-32-104z" fill="#0093b9"/><path d="m176 488 16-32h128l16 32z" fill="#c9c9c8"/><path d="m216 456v-112a40 40 0 0 1 40-40 40 40 0 0 1 40 40v112z" fill="#0093b9"/><path d="m128 312h48v80h-48z" fill="#0093b9"/><path d="m128 352h48v16h-48z" fill="#0884a9"/><path d="m144 272h16v16h-16z" fill="#f8bc1e"/><path d="m400 208h-288l32-128h224z" fill="#85bb40"/><path d="m345.06 152 7 56h-16.12l-7-56h-36.42l3.5 56h-16.03l-3.51-56h-40.96l-3.51 56h-16.03l3.5-56h-36.42l-7 56h-16.12l7-56h-40.94l4-16h38.94l7-56h16.12l-7 56h35.42l3.51-56h16.02l-3.49 56h38.96l-3.49-56h16.02l3.51 56h35.42l-7-56h16.12l7 56h38.94l4 16z" fill="#7b9e3e"/><path d="m104 488a24 24 0 1 0 -10.926-45.366 32 32 0 1 0 -29.074 45.366z" fill="#85bb40"/><path d="m408 488a24 24 0 1 1 10.926-45.366 32 32 0 1 1 29.074 45.366z" fill="#85bb40"/><path d="m240 368h16v16h-16z" fill="#067b98"/><path d="m336 312h48v80h-48z" fill="#0093b9"/><path d="m336 352h48v16h-48z" fill="#0884a9"/><path d="m352 272h16v16h-16z" fill="#f8bc1e"/></g></svg>