<svg height="512" viewBox="0 0 512 512" width="512" xmlns="http://www.w3.org/2000/svg"><g id="Flat"><g fill="#b3b1b3"><path d="m200 120h16v48h-16z"/><path d="m168 104h16v56h-16z"/><path d="m328 40h16v32h-16z"/><path d="m360 24h16v40h-16z"/></g><path d="m392 488v-432l-136 32v400z" fill="#0093b9"/><path d="m280 488v-320l-128-24v344z" fill="#0093b9"/><path d="m192 264 16 16v144h-56v-160z" fill="#0784a9"/><path d="m280 120h16v16h-16z" fill="#fbbe1f"/><path d="m328 96h16v16h-16z" fill="#067a98"/><path d="m312 176h16v16h-16z" fill="#fbbe1f"/><path d="m304 248h16v16h-16z" fill="#067a98"/><path d="m352 216h16v16h-16z" fill="#067a98"/><path d="m352 144h16v16h-16z" fill="#067a98"/><path d="m320 320h16v16h-16z" fill="#fbbe1f"/><path d="m304 400h16v16h-16z" fill="#067a98"/><path d="m352 368h16v16h-16z" fill="#067a98"/><path d="m216 328h16v16h-16z" fill="#067a98"/><path d="m216 200h16v16h-16z" fill="#067a98"/><path d="m240 264h16v16h-16z" fill="#fbbe1f"/><path d="m192 440h16v16h-16z" fill="#067a98"/><path d="m240 392h16v16h-16z" fill="#fbbe1f"/><path d="m352 272h16v16h-16z" fill="#fbbe1f"/><path d="m192 408h-128v-144l40-48h48l40 48z" fill="#fbbe1f"/><path d="m152 312v-1.167a22.876 22.876 0 0 0 -16-21.788v-9.045h-16v9.045a22.834 22.834 0 0 0 -3.379 42.21l15.6 7.8a6.833 6.833 0 0 1 -3.054 12.945h-2.334a6.84 6.84 0 0 1 -6.833-6.833v-1.167h-16v1.167a22.876 22.876 0 0 0 16 21.788v9.045h16v-9.045a22.834 22.834 0 0 0 3.379-42.21l-15.6-7.8a6.833 6.833 0 0 1 3.054-12.945h2.334a6.84 6.84 0 0 1 6.833 6.833v1.167z" fill="#e8732d"/><path d="m137.926 256.5a94.756 94.756 0 0 1 -10.918-.565l1.972-15.877a93.841 93.841 0 0 0 17.946.03c8.566-.805 20.42-3.217 28.242-10.142 5.943-5.259 8.832-12.439 8.832-21.946v-24h16v24c0 14.18-4.8 25.609-14.273 33.97-14.06 12.412-35.08 14.53-47.801 14.53z" fill="#e8732d"/><path d="m280 168h16v320h-16z" fill="#0784a9"/><path d="m120 480h304v16h-304z" fill="#cacac9"/></g></svg>