<svg id="spanish" enable-background="new 0 0 300 300" height="512" viewBox="0 0 300 300" width="512" xmlns="http://www.w3.org/2000/svg"><g><circle cx="160" cy="156" fill="#e5efef" r="92"/><g><path d="m232 164h-172.668c-8.468 0-15.332-6.864-15.332-15.332v-85.336c0-8.468 6.864-15.332 15.332-15.332h157.335c8.468 0 15.333 6.864 15.333 15.332z" fill="#ffce56"/><path d="m232 168h-172.668c-10.66 0-19.332-8.672-19.332-19.332v-85.336c0-10.66 8.672-19.332 19.332-19.332h157.336c10.66 0 19.332 8.672 19.332 19.332v100.668c0 2.209-1.789 4-4 4zm-172.668-116c-6.25 0-11.332 5.084-11.332 11.332v85.336c0 6.248 5.082 11.332 11.332 11.332h168.668v-96.668c0-6.248-5.082-11.332-11.332-11.332z" fill="#4c241d"/></g><g><path d="m232 80h-188v-16.668c0-8.468 6.864-15.332 15.332-15.332h157.335c8.468 0 15.333 6.864 15.333 15.332z" fill="#f53e28"/><path d="m232 84h-188c-2.211 0-4-1.791-4-4v-16.668c0-10.66 8.672-19.332 19.332-19.332h157.336c10.66 0 19.332 8.672 19.332 19.332v16.668c0 2.209-1.789 4-4 4zm-184-8h180v-12.668c0-6.248-5.082-11.332-11.332-11.332h-157.336c-6.25 0-11.332 5.084-11.332 11.332z" fill="#4c241d"/></g><g><path d="m232 164h-172.668c-8.468 0-15.332-6.864-15.332-15.332v-16.668h188z" fill="#f53e28"/><path d="m232 168h-172.668c-10.66 0-19.332-8.672-19.332-19.332v-16.668c0-2.209 1.789-4 4-4h188c2.211 0 4 1.791 4 4v32c0 2.209-1.789 4-4 4zm-184-32v12.668c0 6.248 5.082 11.332 11.332 11.332h168.668v-24z" fill="#4c241d"/></g><g><path d="m249.383 148h-114.766c-5.864 0-10.617 4.753-10.617 10.617v93.383l30-28h95.383c5.864 0 10.617-4.753 10.617-10.617v-54.766c0-5.864-4.753-10.617-10.617-10.617z" fill="#fff"/><path d="m124 256c-.539 0-1.082-.109-1.594-.332-1.461-.635-2.406-2.074-2.406-3.668v-93.383c0-8.061 6.559-14.617 14.617-14.617h114.766c8.059 0 14.617 6.557 14.617 14.617v54.766c0 8.061-6.559 14.617-14.617 14.617h-93.805l-28.848 26.924c-.757.705-1.738 1.076-2.73 1.076zm10.617-104c-3.648 0-6.617 2.969-6.617 6.617v84.178l23.27-21.719c.742-.691 1.719-1.076 2.73-1.076h95.383c3.648 0 6.617-2.969 6.617-6.617v-54.766c0-3.648-2.969-6.617-6.617-6.617z" fill="#4c241d"/></g><g fill="#4c241d"><path d="m56 232c-2.211 0-4-1.791-4-4v-8c0-2.209 1.789-4 4-4s4 1.791 4 4v8c0 2.209-1.789 4-4 4z"/><path d="m56 256c-2.211 0-4-1.791-4-4v-8c0-2.209 1.789-4 4-4s4 1.791 4 4v8c0 2.209-1.789 4-4 4z"/><path d="m48 240h-8c-2.211 0-4-1.791-4-4s1.789-4 4-4h8c2.211 0 4 1.791 4 4s-1.789 4-4 4z"/><path d="m72 240h-8c-2.211 0-4-1.791-4-4s1.789-4 4-4h8c2.211 0 4 1.791 4 4s-1.789 4-4 4z"/><path d="m100.328 198.668c0 2.362-1.915 4.276-4.276 4.276-2.362 0-4.276-1.915-4.276-4.276 0-2.362 1.914-4.277 4.276-4.277s4.276 1.915 4.276 4.277z"/><path d="m156 192h-12c-2.211 0-4-1.791-4-4s1.789-4 4-4h12c2.211 0 4 1.791 4 4s-1.789 4-4 4z"/><path d="m144 204c-2.211 0-4-1.791-4-4v-24c0-2.209 1.789-4 4-4s4 1.791 4 4v24c0 2.209-1.789 4-4 4z"/><path d="m240 204c-2.211 0-4-1.791-4-4v-2c0-2.209 1.789-4 4-4s4 1.791 4 4v2c0 2.209-1.789 4-4 4z"/><path d="m240 190c-2.211 0-4-1.791-4-4v-10c0-2.209 1.789-4 4-4s4 1.791 4 4v10c0 2.209-1.789 4-4 4z"/><path d="m212 204.002c-.418 0-.844-.066-1.266-.207-2.094-.699-3.227-2.965-2.527-5.061l8-24c.699-2.096 2.945-3.232 5.059-2.529 2.094.699 3.227 2.965 2.527 5.061l-8 24c-.559 1.675-2.117 2.736-3.793 2.736z"/><path d="m228 204.002c-1.676 0-3.234-1.061-3.793-2.736l-8-24c-.699-2.096.434-4.361 2.527-5.061 2.109-.703 4.363.434 5.059 2.529l8 24c.699 2.096-.434 4.361-2.527 5.061-.422.141-.848.207-1.266.207z"/><path d="m200 204h-8c-2.211 0-4-1.791-4-4v-24c0-2.209 1.789-4 4-4s4 1.791 4 4v20h4c2.211 0 4 1.791 4 4s-1.789 4-4 4z"/><path d="m156 204c-2.211 0-4-1.791-4-4v-24c0-2.209 1.789-4 4-4s4 1.791 4 4v24c0 2.209-1.789 4-4 4z"/><path d="m174 204c-5.516 0-10-4.486-10-10v-12c0-5.514 4.484-10 10-10s10 4.486 10 10v12c0 5.514-4.484 10-10 10zm0-24c-1.102 0-2 .896-2 2v12c0 1.104.898 2 2 2s2-.896 2-2v-12c0-1.104-.898-2-2-2z"/></g></g></svg>