<svg height="512" viewBox="0 0 512 512" width="512" xmlns="http://www.w3.org/2000/svg"><g id="Flat"><path d="m56 160v-48h64l32 32v16z" fill="#b3b1b3"/><path d="m56 320h120v168h-120z" fill="#e4e4e3"/><path d="m24 144h240v192h-240z" fill="#e4e4e3"/><path d="m56 176h208v128h-208z" fill="#0093b9"/><path d="m72 192h48v96h-48z" fill="#2da4c4"/><path d="m136 192h112v96h-112z" fill="#2da4c4"/><path d="m56 336h120v16h-120z" fill="#cacac9"/><path d="m80 368h16v16h-16z" fill="#fbbe1f"/><path d="m112 336h24v152h-24z" fill="#cacac9"/><path d="m232 72h224v416h-224z" fill="#0093b9"/><g fill="#5db9d2"><path d="m272 128h48v48h-48z"/><path d="m368 128h48v48h-48z"/><path d="m368 216h48v48h-48z"/><path d="m368 304h48v48h-48z"/></g><path d="m480 88h-272v-32l272-24z" fill="#fbbe1f"/><path d="m272 216h48v48h-48z" fill="#5db9d2"/><path d="m336 320v168h-208v-168l104-40z" fill="#e4e4e3"/><path d="m336 320v29.5l-104-45.5-104 45.5v-29.5l104-40z" fill="#cacac9"/><path d="m168 376h48v112h-48z" fill="#0093b9"/><path d="m248 392h48v40h-48z" fill="#0093b9"/><path d="m184 336h16v16h-16z" fill="#fbbe1f"/><path d="m104 304 128-56 128 56v40l-128-56-128 56z" fill="#85bb40"/><path d="m352 400c-16 0-24 16-24 32s-16 16-16 32.232 16 23.768 24 23.768h32c8 0 24-7.537 24-23.768s-16-16.232-16-32.232-8-32-24-32z" fill="#85bb40"/><path d="m16 480h480v16h-480z" fill="#cacac9"/></g></svg>